<?xml version="1.0" encoding="utf-8"?>
<!-- Generator: Adobe Illustrator 16.0.0, SVG Export Plug-In . SVG Version: 6.00 Build 0)  -->
<!DOCTYPE svg PUBLIC "-//W3C//DTD SVG 1.1//EN" "http://www.w3.org/Graphics/SVG/1.1/DTD/svg11.dtd">
<svg version="1.1" xmlns="http://www.w3.org/2000/svg" xmlns:xlink="http://www.w3.org/1999/xlink" x="0px" y="0px" width="140px"
	 height="140px" viewBox="0 0 140 140" style="enable-background:new 0 0 280 140;" xml:space="preserve">
<style type="text/css">
<![CDATA[
	.st0{fill:#52752F;}
	.st1{fill:#212121;}
	.st2{fill:url(#SVGID_2_);}
	.st3{fill:url(#SVGID_3_);}
	.st4{fill:url(#SVGID_4_);}
	.st5{fill:url(#SVGID_5_);}
	.st6{fill:url(#SVGID_6_);}
	.st7{fill:url(#SVGID_7_);}
	.st8{fill:url(#SVGID_8_);}
	.st9{fill:url(#SVGID_9_);}
	.st10{opacity:0.5;}
	.st11{opacity:0.8;}
	.st12{fill:#636363;}
	.st13{fill:url(#SVGID_10_);}
	.st14{fill:url(#SVGID_11_);}
	.st15{fill:url(#SVGID_13_);}
	.st16{fill:url(#SVGID_14_);}
	.st17{fill:url(#SVGID_16_);}
	.st18{fill:url(#SVGID_17_);}
	.st19{fill:url(#SVGID_18_);}
	.st20{fill:url(#SVGID_19_);}
	.st21{fill:url(#SVGID_20_);}
	.st22{fill:url(#SVGID_21_);}
	.st23{fill:url(#SVGID_22_);}
	.st24{fill:url(#SVGID_23_);}
	.st25{fill:url(#SVGID_24_);}
	.st26{fill:url(#SVGID_25_);}
	.st27{fill:url(#SVGID_27_);}
	.st28{fill:url(#SVGID_28_);}
	.st29{opacity:0.5;fill:url(#SVGID_12_);}
	.st30{opacity:0.5;fill:url(#SVGID_26_);}
	.st31{fill-rule:evenodd;clip-rule:evenodd;fill:url(#SVGID_15_);}
	.st32{fill-rule:evenodd;clip-rule:evenodd;fill:url(#SVGID_1_);}
]]>
</style>
<g id="Layer_1">
	<g>
		<g>
			<linearGradient id="SVGID_1_" gradientUnits="userSpaceOnUse" x1="23.6265" y1="47.2578" x2="90.6765" y2="130.7329">
				<stop  offset="0" style="stop-color:#4C4C4E"/>
				<stop  offset="1" style="stop-color:#040405"/>
			</linearGradient>
			<path class="st32" d="M45.68,43.98v-6.94h-7.46c0,0-5.4,0-5.4,7.09c0,7.09,0,16.42,0,16.42s-0.07,4.54-4.5,4.54v6.45h1.99
				c0,0,2.44-0.15,2.44,2.93c0,3.07,0,42.15,0,42.15s-0.23,7.05,6.3,7.05c6.53,0,57.3,0,57.3,0s5.81-0.38,5.81-7.05
				c0-6.67,0-7.5,0-7.5s-0.04-4.12,4.54-4.12v-6.23c0,0-4.46,0.08-4.46-4.65c0-4.72,0-6.56,0-6.56s0.15-7.54-5.96-7.54
				c-6.11,0-7.05,0-7.05,0v7.2h3.56c0,0,2.62,0.11,2.62,3.45s0,6.97,0,6.97s0.45,4.24,5.33,4.24c0,0-5.4,0.3-5.4,5.25
				c0,4.95,0,5.81,0,5.81s0.3,3.75-3.04,3.75s-49.95,0-49.95,0s-2.78-0.08-2.78-4.01s0-39.11,0-39.11s0.08-5.36-5.55-5.36
				c0,0,5.59-0.38,5.59-4.69s0-16.54,0-16.54s0.3-3.04,3-3.04C45.31,43.94,45.68,43.98,45.68,43.98z"/>
		</g>
		<g>
			<g>
				<linearGradient id="SVGID_2_" gradientUnits="userSpaceOnUse" x1="52.9639" y1="83.4219" x2="64.8892" y2="90.3971">
					<stop  offset="0" style="stop-color:#5A5B5D"/>
					<stop  offset="0.5539" style="stop-color:#2D2D2E"/>
					<stop  offset="0.8342" style="stop-color:#1B1B1B"/>
					<stop  offset="0.8829" style="stop-color:#222222"/>
					<stop  offset="0.9541" style="stop-color:#343436"/>
					<stop  offset="1" style="stop-color:#444446"/>
				</linearGradient>
				<path class="st2" d="M54.67,107.6c0,0-1.1,1.26-6.89-2.05c-5.79-3.32-4.92-4.72-4.92-4.72L63.6,64.63l11.81,6.77L54.67,107.6z"
					/>
			</g>
			<g>
				
					<linearGradient id="SVGID_3_" gradientUnits="userSpaceOnUse" x1="50.8604" y1="87.2031" x2="62.7357" y2="94.1491" gradientTransform="matrix(0.9979 3.610000e-03 3.610000e-03 0.9937 2.064 -3.6143)">
					<stop  offset="0" style="stop-color:#CECED0"/>
					<stop  offset="0.085" style="stop-color:#D6D7D9"/>
					<stop  offset="0.1928" style="stop-color:#DADBDD"/>
					<stop  offset="0.3611" style="stop-color:#C8C9CB"/>
					<stop  offset="0.6967" style="stop-color:#9A9B9E"/>
					<stop  offset="0.8342" style="stop-color:#858689"/>
					<stop  offset="0.8892" style="stop-color:#8C8D90"/>
					<stop  offset="0.9695" style="stop-color:#9FA1A4"/>
					<stop  offset="1" style="stop-color:#A8AAAD"/>
				</linearGradient>
				<path class="st3" d="M55.3,106.51c0,0-1.1,1.25-6.88-2.06c-5.79-3.31-4.93-4.7-4.93-4.7L63.27,65.3l11.81,6.77L55.3,106.51z"/>
			</g>
			<g>
				
					<linearGradient id="SVGID_4_" gradientUnits="userSpaceOnUse" x1="42.4326" y1="101.8271" x2="54.3072" y2="108.7726" gradientTransform="matrix(1.0048 -8.327000e-03 -8.341000e-03 1.0145 12.7114 -22.1509)">
					<stop  offset="0" style="stop-color:#557435"/>
					<stop  offset="0.2052" style="stop-color:#4B573F"/>
					<stop  offset="0.3679" style="stop-color:#444446"/>
					<stop  offset="0.5402" style="stop-color:#474B43"/>
					<stop  offset="0.7922" style="stop-color:#4D5F3D"/>
					<stop  offset="1" style="stop-color:#557435"/>
				</linearGradient>
				<path class="st4" d="M57.71,102.31c0,0-1.12,1.29-6.91-2.03c-5.79-3.31-4.91-4.74-4.91-4.74L63.6,64.63l11.81,6.77L57.71,102.31
					z"/>
			</g>
			<g>
				
					<linearGradient id="SVGID_5_" gradientUnits="userSpaceOnUse" x1="40.6709" y1="104.9463" x2="52.4972" y2="111.8635" gradientTransform="matrix(1.0037 -6.382000e-03 -6.382000e-03 1.0111 13.7085 -23.8545)">
					<stop  offset="0" style="stop-color:#557435"/>
					<stop  offset="0.0757" style="stop-color:#5D882D"/>
					<stop  offset="0.1576" style="stop-color:#59832A"/>
					<stop  offset="0.6884" style="stop-color:#42681B"/>
					<stop  offset="1" style="stop-color:#3A5E15"/>
				</linearGradient>
				<path class="st5" d="M57.8,102.14c0,0-1.12,1.28-6.9-2.03c-5.79-3.31-4.91-4.74-4.91-4.74l16.19-28.21l11.81,6.77L57.8,102.14z"
					/>
			</g>
			<g>
				
					<linearGradient id="SVGID_6_" gradientUnits="userSpaceOnUse" x1="-251.4175" y1="614.7393" x2="-239.6212" y2="621.639" gradientTransform="matrix(0.9377 0.1087 0.1087 0.8102 229.1084 -399.8647)">
					<stop  offset="0" style="stop-color:#90969C"/>
					<stop  offset="1" style="stop-color:#444446"/>
				</linearGradient>
				<path class="st6" d="M69.32,82.04c0,0-0.9,0.9-6.69-2.41c-5.79-3.32-5.13-4.36-5.13-4.36l5.58-9.91l11.81,6.77L69.32,82.04z"/>
			</g>
			<g>
				
					<linearGradient id="SVGID_7_" gradientUnits="userSpaceOnUse" x1="-253.082" y1="617.9854" x2="-241.4364" y2="624.7969" gradientTransform="matrix(0.9367 0.1104 0.1104 0.8073 229.2656 -400.1313)">
					<stop  offset="0" style="stop-color:#BCC6CD"/>
					<stop  offset="0.156" style="stop-color:#B4BEC8"/>
					<stop  offset="0.8735" style="stop-color:#747A81"/>
					<stop  offset="1" style="stop-color:#90969C"/>
				</linearGradient>
				<path class="st7" d="M69.4,81.9c0,0-0.9,0.9-6.68-2.42s-5.13-4.35-5.13-4.35l5.78-9.89l11.81,6.77L69.4,81.9z"/>
			</g>
			<g>
				
					<radialGradient id="SVGID_8_" cx="-246.7549" cy="620.1973" r="10.3982" gradientTransform="matrix(0.8946 0.4436 -0.2777 0.635 459.5605 -211.1148)" gradientUnits="userSpaceOnUse">
					<stop  offset="0" style="stop-color:#1B1B1B;stop-opacity:0.9"/>
					<stop  offset="1" style="stop-color:#1B1B1B;stop-opacity:0"/>
				</radialGradient>
				<path class="st8" d="M69.4,81.9c0,0-0.9,0.9-6.68-2.42s-5.13-4.35-5.13-4.35l6.25-10.66l11.81,6.77L69.4,81.9z"/>
			</g>
		</g>
		<path class="st0" d="M80.29,17.01c-17.21,0-31.16,13.95-31.16,31.16c0,17.21,13.95,31.16,31.16,31.16s31.16-13.95,31.16-31.16
			C111.46,30.96,97.5,17.01,80.29,17.01z M80.52,70.34c-12.43,0-22.5-10.07-22.5-22.5c0-12.43,10.07-22.5,22.5-22.5
			c12.43,0,22.5,10.07,22.5,22.5C103.02,60.26,92.95,70.34,80.52,70.34z"/>
		<linearGradient id="SVGID_9_" gradientUnits="userSpaceOnUse" x1="58.4844" y1="25.6904" x2="104.722" y2="71.9281">
			<stop  offset="0" style="stop-color:#5E8830"/>
			<stop  offset="0.4614" style="stop-color:#6B8F3F"/>
			<stop  offset="0.85" style="stop-color:#537C26"/>
			<stop  offset="0.8795" style="stop-color:#598329"/>
			<stop  offset="0.9226" style="stop-color:#699730"/>
			<stop  offset="0.97" style="stop-color:#80B43B"/>
		</linearGradient>
		<path class="st9" d="M80.52,16.56c-17.21,0-31.16,13.95-31.16,31.16c0,17.21,13.95,31.16,31.16,31.16s31.16-13.95,31.16-31.16
			C111.68,30.51,97.73,16.56,80.52,16.56z M80.52,70.34c-12.43,0-22.5-10.07-22.5-22.5c0-12.43,10.07-22.5,22.5-22.5
			c12.43,0,22.5,10.07,22.5,22.5C103.02,60.26,92.95,70.34,80.52,70.34z"/>
		<radialGradient id="SVGID_10_" cx="80.0688" cy="47.5" r="31.1624" gradientUnits="userSpaceOnUse">
			<stop  offset="0.6308" style="stop-color:#80B43B"/>
			<stop  offset="0.7689" style="stop-color:#80B43B;stop-opacity:0"/>
		</radialGradient>
		<path class="st13" d="M80.07,16.34c-17.21,0-31.16,13.95-31.16,31.16c0,17.21,13.95,31.16,31.16,31.16
			c17.21,0,31.16-13.95,31.16-31.16C111.23,30.29,97.28,16.34,80.07,16.34z M80.52,70.34c-12.43,0-22.5-10.07-22.5-22.5
			c0-12.43,10.07-22.5,22.5-22.5c12.43,0,22.5,10.07,22.5,22.5C103.02,60.26,92.95,70.34,80.52,70.34z"/>
		<linearGradient id="SVGID_11_" gradientUnits="userSpaceOnUse" x1="60.5322" y1="36.8145" x2="100.9292" y2="59.0947">
			<stop  offset="6.796080e-03" style="stop-color:#40692A"/>
			<stop  offset="0.1044" style="stop-color:#49732C"/>
			<stop  offset="0.4857" style="stop-color:#679634"/>
			<stop  offset="0.7979" style="stop-color:#79AC39"/>
			<stop  offset="1" style="stop-color:#80B43B"/>
		</linearGradient>
		<path class="st14" d="M80.52,24.78c-12.74,0-23.06,10.33-23.06,23.06S67.78,70.9,80.52,70.9s23.06-10.33,23.06-23.06
			S93.26,24.78,80.52,24.78z M80.52,70.34c-12.43,0-22.5-10.07-22.5-22.5c0-12.43,10.07-22.5,22.5-22.5
			c12.43,0,22.5,10.07,22.5,22.5C103.02,60.26,92.95,70.34,80.52,70.34z"/>
		<linearGradient id="SVGID_12_" gradientUnits="userSpaceOnUse" x1="63.1943" y1="30.5127" x2="97.9624" y2="65.2807">
			<stop  offset="4.823020e-03" style="stop-color:#768290"/>
			<stop  offset="0.0351" style="stop-color:#8190A2"/>
			<stop  offset="0.0926" style="stop-color:#93A6BD"/>
			<stop  offset="0.1552" style="stop-color:#A1B7D2"/>
			<stop  offset="0.2243" style="stop-color:#ABC4E1"/>
			<stop  offset="0.3053" style="stop-color:#B0CBEA"/>
			<stop  offset="0.4267" style="stop-color:#B2CDED"/>
			<stop  offset="0.7762" style="stop-color:#D3DFE4"/>
			<stop  offset="0.8252" style="stop-color:#CFDBE0"/>
			<stop  offset="0.8749" style="stop-color:#C5CFD4"/>
			<stop  offset="0.9249" style="stop-color:#B2BABF"/>
			<stop  offset="0.9748" style="stop-color:#999EA3"/>
			<stop  offset="1" style="stop-color:#8A8D92"/>
		</linearGradient>
		<circle class="st29" cx="80.52" cy="47.84" r="22.5"/>
		<g>
			<radialGradient id="SVGID_13_" cx="90.8687" cy="40.8628" r="16.6387" gradientUnits="userSpaceOnUse">
				<stop  offset="0" style="stop-color:#FFFFFF"/>
				<stop  offset="1" style="stop-color:#FFFFFF;stop-opacity:0"/>
			</radialGradient>
			<path class="st15" d="M80.74,36.14c6.59,0,11.93,5.34,11.93,11.92c0,1.08-0.15,2.13-0.42,3.13l7.63,2.77
				c0.57-1.86,0.88-3.84,0.88-5.89c0-11.06-8.97-20.02-20.03-20.02c-0.15,0-0.3,0-0.45,0v8.11C80.44,36.14,80.59,36.14,80.74,36.14z
				"/>
		</g>
		<g class="st11">
			<radialGradient id="SVGID_14_" cx="67.3281" cy="58.0322" r="5.6079" gradientUnits="userSpaceOnUse">
				<stop  offset="0" style="stop-color:#FFFFFF"/>
				<stop  offset="1" style="stop-color:#FFFFFF;stop-opacity:0"/>
			</radialGradient>
			<path class="st16" d="M71.33,60.18c-2.74,0-4.96-2.22-4.96-4.96c0-0.68,0.14-1.33,0.38-1.91l-3.69-1.45
				c-0.46,1.07-0.71,2.25-0.71,3.49c0,4.89,3.97,8.86,8.86,8.86c0.37,0,0.74-0.03,1.1-0.07v-4.05
				C71.99,60.15,71.67,60.18,71.33,60.18z"/>
		</g>
		<g>
			<path class="st1" d="M45.79,120.97v-1.63h0.2v1.45h0.76v0.18H45.79z"/>
			<path class="st1" d="M46.89,120.38c0-0.34,0.22-0.62,0.58-0.62s0.58,0.28,0.58,0.62S47.84,121,47.48,121
				S46.89,120.72,46.89,120.38z M47.87,120.38c0-0.24-0.14-0.45-0.39-0.45s-0.39,0.21-0.39,0.45c0,0.24,0.14,0.46,0.39,0.46
				S47.87,120.62,47.87,120.38z"/>
			<path class="st1" d="M48.36,121.27l0.09-0.13c0.1,0.11,0.21,0.16,0.38,0.16c0.2,0,0.38-0.1,0.38-0.34v-0.18
				c-0.09,0.12-0.23,0.21-0.4,0.21c-0.31,0-0.52-0.23-0.52-0.61c0-0.38,0.21-0.61,0.52-0.61c0.16,0,0.3,0.08,0.4,0.21v-0.18h0.18
				v1.16c0,0.37-0.28,0.5-0.56,0.5C48.64,121.45,48.5,121.41,48.36,121.27z M49.22,120.63v-0.52c-0.07-0.1-0.21-0.19-0.35-0.19
				c-0.24,0-0.38,0.19-0.38,0.45c0,0.26,0.14,0.45,0.38,0.45C49.01,120.82,49.15,120.73,49.22,120.63z"/>
			<path class="st1" d="M49.7,120.38c0-0.34,0.22-0.62,0.58-0.62s0.58,0.28,0.58,0.62S50.64,121,50.28,121S49.7,120.72,49.7,120.38z
				 M50.67,120.38c0-0.24-0.14-0.45-0.39-0.45s-0.39,0.21-0.39,0.45c0,0.24,0.14,0.46,0.39,0.46S50.67,120.62,50.67,120.38z"/>
			<path class="st1" d="M52.57,121c-0.46,0-0.84-0.38-0.84-0.84c0-0.47,0.38-0.84,0.84-0.84c0.47,0,0.84,0.38,0.84,0.84
				C53.41,120.62,53.03,121,52.57,121z M52.57,119.39c-0.42,0-0.77,0.34-0.77,0.77c0,0.42,0.35,0.77,0.77,0.77
				c0.42,0,0.77-0.35,0.77-0.77C53.33,119.73,52.99,119.39,52.57,119.39z M52.93,120.52c-0.09,0.1-0.21,0.16-0.36,0.16
				c-0.28,0-0.51-0.23-0.51-0.52s0.23-0.52,0.51-0.52c0.15,0,0.27,0.06,0.36,0.16l-0.06,0.06c-0.06-0.09-0.18-0.14-0.3-0.14
				c-0.22,0-0.42,0.18-0.42,0.44c0,0.26,0.2,0.44,0.42,0.44c0.12,0,0.23-0.06,0.3-0.14L52.93,120.52z"/>
			<path class="st1" d="M54.35,120.97v-1.63h1.07v0.18h-0.86v0.53h0.85v0.18h-0.85v0.56h0.86v0.18H54.35z"/>
			<path class="st1" d="M55.73,120.97v-1.63h0.18v1.63H55.73z"/>
			<path class="st1" d="M57.02,120.97v-0.13c-0.1,0.11-0.23,0.16-0.39,0.16c-0.2,0-0.41-0.13-0.41-0.39c0-0.27,0.21-0.39,0.41-0.39
				c0.16,0,0.3,0.05,0.39,0.16v-0.21c0-0.16-0.13-0.25-0.3-0.25c-0.14,0-0.26,0.05-0.36,0.16l-0.09-0.13
				c0.13-0.13,0.28-0.2,0.47-0.2c0.25,0,0.46,0.11,0.46,0.4v0.81H57.02z M57.02,120.72v-0.22c-0.07-0.1-0.2-0.14-0.32-0.14
				c-0.17,0-0.29,0.11-0.29,0.26c0,0.15,0.12,0.26,0.29,0.26C56.82,120.87,56.95,120.82,57.02,120.72z"/>
			<path class="st1" d="M57.47,120.82l0.09-0.13c0.08,0.09,0.23,0.17,0.39,0.17c0.18,0,0.28-0.08,0.28-0.2
				c0-0.29-0.73-0.11-0.73-0.55c0-0.19,0.16-0.34,0.44-0.34c0.2,0,0.34,0.08,0.44,0.17l-0.09,0.13c-0.07-0.08-0.2-0.15-0.35-0.15
				c-0.16,0-0.26,0.08-0.26,0.19c0,0.26,0.73,0.09,0.73,0.55c0,0.2-0.16,0.36-0.46,0.36C57.75,121,57.59,120.94,57.47,120.82z"/>
			<path class="st1" d="M58.75,120.72v-0.77h-0.2v-0.16h0.2v-0.32h0.19v0.32h0.24v0.16h-0.24v0.73c0,0.09,0.04,0.15,0.12,0.15
				c0.05,0,0.1-0.03,0.12-0.05l0.05,0.14c-0.05,0.04-0.11,0.08-0.22,0.08C58.83,121,58.75,120.9,58.75,120.72z"/>
			<path class="st1" d="M59.4,119.5c0-0.07,0.06-0.12,0.12-0.12s0.12,0.06,0.12,0.12s-0.05,0.12-0.12,0.12S59.4,119.57,59.4,119.5z
				 M59.43,120.97v-1.18h0.18v1.18H59.43z"/>
			<path class="st1" d="M59.91,120.38c0-0.35,0.24-0.62,0.59-0.62c0.21,0,0.34,0.09,0.43,0.21l-0.12,0.11
				c-0.08-0.11-0.18-0.15-0.3-0.15c-0.25,0-0.41,0.19-0.41,0.45s0.16,0.46,0.41,0.46c0.12,0,0.22-0.05,0.3-0.15l0.12,0.11
				c-0.09,0.12-0.22,0.21-0.43,0.21C60.15,121,59.91,120.73,59.91,120.38z"/>
			<path class="st1" d="M61.74,120.74l0.12-0.16c0.1,0.12,0.28,0.23,0.51,0.23c0.29,0,0.38-0.16,0.38-0.28
				c0-0.42-0.96-0.19-0.96-0.77c0-0.27,0.24-0.45,0.56-0.45c0.25,0,0.44,0.09,0.58,0.23l-0.12,0.15c-0.12-0.14-0.29-0.2-0.47-0.2
				c-0.19,0-0.33,0.1-0.33,0.26c0,0.37,0.96,0.16,0.96,0.76c0,0.23-0.16,0.48-0.6,0.48C62.08,121,61.87,120.89,61.74,120.74z"/>
			<path class="st1" d="M63.19,120.38c0-0.34,0.24-0.62,0.58-0.62c0.36,0,0.57,0.28,0.57,0.63v0.05h-0.95
				c0.01,0.22,0.17,0.41,0.42,0.41c0.14,0,0.27-0.05,0.37-0.15l0.09,0.12c-0.12,0.12-0.28,0.18-0.47,0.18
				C63.44,121,63.19,120.75,63.19,120.38z M63.77,119.91c-0.25,0-0.38,0.21-0.39,0.39h0.77C64.16,120.13,64.04,119.91,63.77,119.91z
				"/>
			<path class="st1" d="M65.37,120.97v-0.13c-0.1,0.11-0.23,0.16-0.39,0.16c-0.2,0-0.41-0.13-0.41-0.39c0-0.27,0.21-0.39,0.41-0.39
				c0.16,0,0.3,0.05,0.39,0.16v-0.21c0-0.16-0.13-0.25-0.3-0.25c-0.14,0-0.26,0.05-0.36,0.16l-0.09-0.13
				c0.13-0.13,0.28-0.2,0.47-0.2c0.25,0,0.46,0.11,0.46,0.4v0.81H65.37z M65.37,120.72v-0.22c-0.07-0.1-0.2-0.14-0.32-0.14
				c-0.17,0-0.29,0.11-0.29,0.26c0,0.15,0.12,0.26,0.29,0.26C65.18,120.87,65.3,120.82,65.37,120.72z"/>
			<path class="st1" d="M65.93,120.97v-1.18h0.18v0.19c0.1-0.12,0.23-0.21,0.39-0.21v0.19c-0.02,0-0.04,0-0.07,0
				c-0.11,0-0.27,0.09-0.32,0.19v0.83H65.93z"/>
			<path class="st1" d="M66.67,120.38c0-0.35,0.24-0.62,0.59-0.62c0.21,0,0.34,0.09,0.43,0.21l-0.12,0.11
				c-0.08-0.11-0.18-0.15-0.3-0.15c-0.25,0-0.41,0.19-0.41,0.45s0.16,0.46,0.41,0.46c0.12,0,0.22-0.05,0.3-0.15l0.12,0.11
				c-0.09,0.12-0.22,0.21-0.43,0.21C66.9,121,66.67,120.73,66.67,120.38z"/>
			<path class="st1" d="M68.75,120.97v-0.78c0-0.21-0.1-0.27-0.27-0.27c-0.14,0-0.28,0.09-0.35,0.18v0.86h-0.18v-1.63h0.18v0.62
				c0.08-0.1,0.24-0.2,0.42-0.2c0.25,0,0.38,0.12,0.38,0.38v0.83H68.75z"/>
			<path class="st1" d="M69.26,120.86c0-0.07,0.06-0.13,0.13-0.13s0.13,0.06,0.13,0.13c0,0.07-0.06,0.13-0.13,0.13
				S69.26,120.94,69.26,120.86z"/>
			<path class="st1" d="M70.41,120.74l0.12-0.16c0.1,0.12,0.28,0.23,0.51,0.23c0.29,0,0.38-0.16,0.38-0.28
				c0-0.42-0.96-0.19-0.96-0.77c0-0.27,0.24-0.45,0.56-0.45c0.25,0,0.44,0.09,0.58,0.23l-0.12,0.15c-0.12-0.14-0.29-0.2-0.47-0.2
				c-0.19,0-0.33,0.1-0.33,0.26c0,0.37,0.96,0.16,0.96,0.76c0,0.23-0.16,0.48-0.6,0.48C70.75,121,70.54,120.89,70.41,120.74z"/>
			<path class="st1" d="M72.43,120.97l-0.66-1.63H72l0.55,1.41l0.55-1.41h0.23l-0.65,1.63H72.43z"/>
			<path class="st1" d="M73.43,120.16c0-0.51,0.37-0.84,0.84-0.84c0.29,0,0.49,0.13,0.63,0.3l-0.16,0.1
				c-0.1-0.13-0.28-0.22-0.47-0.22c-0.36,0-0.63,0.27-0.63,0.66c0,0.39,0.27,0.66,0.63,0.66c0.2,0,0.36-0.09,0.44-0.18v-0.33h-0.56
				v-0.18h0.76v0.59c-0.15,0.17-0.37,0.28-0.64,0.28C73.81,121,73.43,120.66,73.43,120.16z"/>
			<path class="st1" d="M75.87,120.97v-1.63h0.18v0.63c0.1-0.13,0.24-0.21,0.4-0.21c0.31,0,0.52,0.24,0.52,0.62
				c0,0.38-0.22,0.62-0.52,0.62c-0.17,0-0.31-0.08-0.4-0.21v0.18H75.87z M76.41,120.84c0.24,0,0.38-0.19,0.38-0.46
				c0-0.26-0.14-0.46-0.38-0.46c-0.15,0-0.29,0.09-0.35,0.19v0.54C76.12,120.75,76.26,120.84,76.41,120.84z"/>
			<path class="st1" d="M77.24,121.27c0.03,0.01,0.07,0.02,0.1,0.02c0.08,0,0.13-0.03,0.18-0.12l0.08-0.18l-0.49-1.19h0.2l0.39,0.97
				l0.39-0.97h0.2l-0.59,1.42c-0.07,0.17-0.19,0.24-0.35,0.24c-0.04,0-0.1-0.01-0.13-0.02L77.24,121.27z"/>
			<path class="st1" d="M79.6,120.97l-0.66-1.63h0.23l0.55,1.41l0.55-1.41h0.23l-0.65,1.63H79.6z"/>
			<path class="st1" d="M80.5,120.38c0-0.34,0.22-0.62,0.58-0.62s0.58,0.28,0.58,0.62S81.45,121,81.09,121S80.5,120.72,80.5,120.38z
				 M81.48,120.38c0-0.24-0.14-0.45-0.39-0.45s-0.39,0.21-0.39,0.45c0,0.24,0.14,0.46,0.39,0.46S81.48,120.62,81.48,120.38z"/>
			<path class="st1" d="M81.9,120.38c0-0.34,0.22-0.62,0.58-0.62s0.58,0.28,0.58,0.62S82.84,121,82.49,121S81.9,120.72,81.9,120.38z
				 M82.88,120.38c0-0.24-0.14-0.45-0.39-0.45s-0.39,0.21-0.39,0.45c0,0.24,0.14,0.46,0.39,0.46S82.88,120.62,82.88,120.38z"/>
			<path class="st1" d="M83.37,120.97v-1.18h0.18v0.19c0.1-0.12,0.23-0.21,0.39-0.21v0.19c-0.02,0-0.04,0-0.07,0
				c-0.11,0-0.27,0.09-0.32,0.19v0.83H83.37z"/>
			<path class="st1" d="M85.6,120.97v-0.8c0-0.15-0.06-0.24-0.22-0.24c-0.12,0-0.25,0.08-0.31,0.18v0.86h-0.18v-0.8
				c0-0.15-0.06-0.24-0.22-0.24c-0.12,0-0.25,0.09-0.31,0.18v0.86h-0.18v-1.18h0.18v0.17c0.05-0.08,0.21-0.2,0.38-0.2
				c0.18,0,0.28,0.1,0.31,0.22c0.07-0.11,0.22-0.22,0.4-0.22c0.21,0,0.33,0.12,0.33,0.36v0.85H85.6z"/>
			<path class="st1" d="M86.09,120.38c0-0.34,0.24-0.62,0.58-0.62c0.36,0,0.57,0.28,0.57,0.63v0.05h-0.95
				c0.01,0.22,0.17,0.41,0.42,0.41c0.14,0,0.27-0.05,0.37-0.15l0.09,0.12c-0.12,0.12-0.28,0.18-0.47,0.18
				C86.34,121,86.09,120.75,86.09,120.38z M86.66,119.91c-0.25,0-0.38,0.21-0.39,0.39h0.77C87.05,120.13,86.93,119.91,86.66,119.91z
				"/>
			<path class="st1" d="M88.39,120.97v-0.18c-0.09,0.12-0.23,0.21-0.4,0.21c-0.31,0-0.52-0.23-0.52-0.62c0-0.38,0.22-0.62,0.52-0.62
				c0.16,0,0.3,0.08,0.4,0.21v-0.63h0.18v1.63H88.39z M88.39,120.65v-0.53c-0.06-0.1-0.21-0.19-0.35-0.19
				c-0.24,0-0.38,0.2-0.38,0.46c0,0.26,0.14,0.46,0.38,0.46C88.18,120.84,88.32,120.75,88.39,120.65z"/>
			<path class="st1" d="M88.91,119.5c0-0.07,0.06-0.12,0.12-0.12s0.12,0.06,0.12,0.12s-0.05,0.12-0.12,0.12
				S88.91,119.57,88.91,119.5z M88.94,120.97v-1.18h0.18v1.18H88.94z"/>
			<path class="st1" d="M90.23,120.97v-0.13c-0.1,0.11-0.23,0.16-0.39,0.16c-0.2,0-0.41-0.13-0.41-0.39c0-0.27,0.21-0.39,0.41-0.39
				c0.16,0,0.3,0.05,0.39,0.16v-0.21c0-0.16-0.13-0.25-0.3-0.25c-0.14,0-0.26,0.05-0.36,0.16l-0.09-0.13
				c0.13-0.13,0.28-0.2,0.47-0.2c0.25,0,0.46,0.11,0.46,0.4v0.81H90.23z M90.23,120.72v-0.22c-0.07-0.1-0.2-0.14-0.32-0.14
				c-0.17,0-0.29,0.11-0.29,0.26c0,0.15,0.12,0.26,0.29,0.26C90.03,120.87,90.15,120.82,90.23,120.72z"/>
			<path class="st1" d="M90.74,120.86c0-0.07,0.06-0.13,0.13-0.13s0.13,0.06,0.13,0.13c0,0.07-0.06,0.13-0.13,0.13
				S90.74,120.94,90.74,120.86z"/>
		</g>
	</g>
</g>
</svg>
