<?xml version="1.0" encoding="utf-8"?>
<!-- Generator: Adobe Illustrator 17.0.0, SVG Export Plug-In . SVG Version: 6.00 Build 0)  -->
<!DOCTYPE svg PUBLIC "-//W3C//DTD SVG 1.1//EN" "http://www.w3.org/Graphics/SVG/1.1/DTD/svg11.dtd">
<svg version="1.1" id="Layer_2" xmlns="http://www.w3.org/2000/svg" xmlns:xlink="http://www.w3.org/1999/xlink" x="0px" y="0px"
	 width="298px" height="420px" viewBox="0 0 298 420" enable-background="new 0 0 298 420" xml:space="preserve">
<g>
	<g>
		<g>
			<defs>
				<path id="SVGID_1_" d="M297.465,362.19c0,9.855-7.987,17.842-17.839,17.842H17.942c-9.852,0-17.839-7.987-17.839-17.842V100.512
					c0-9.855,7.987-17.842,17.839-17.842h261.684c9.852,0,17.839,7.987,17.839,17.842V362.19z"/>
			</defs>
			<clipPath id="SVGID_2_">
				<use xlink:href="#SVGID_1_"  overflow="visible"/>
			</clipPath>
			<g clip-path="url(#SVGID_2_)">
				<g>
					<g>
						<g>
							<defs>
								<path id="SVGID_3_" d="M123.929,290.845l175.697,67.895c0.018-0.405,0.027-0.811,0.027-1.216V105.662
									c0-5.722-1.907-11-5.117-15.229L123.929,290.845z"/>
							</defs>
							<clipPath id="SVGID_4_">
								<use xlink:href="#SVGID_3_"  overflow="visible"/>
							</clipPath>
							<g clip-path="url(#SVGID_4_)">
								
									<linearGradient id="SVGID_5_" gradientUnits="userSpaceOnUse" x1="-963.4261" y1="-92.9422" x2="-961.295" y2="-92.9422" gradientTransform="matrix(-39.5876 -65.014 -65.014 39.5876 -43891.0703 -58601.832)">
									<stop  offset="0" style="stop-color:#E3B5A0"/>
									<stop  offset="1" style="stop-color:#D4D1BF"/>
								</linearGradient>
								<polygon fill="url(#SVGID_5_)" points="171.463,436.799 4.745,163.007 252.124,12.373 418.842,286.169 								"/>
								
									<rect x="51.521" y="79.769" transform="matrix(0.5201 0.8541 -0.8541 0.5201 293.4606 -73.1207)" fill="#C7B299" width="320.556" height="289.631"/>
							</g>
						</g>
						<g>
							<g>
								<g>
									<defs>
										<path id="SVGID_6_" d="M22.579,80.465c-13.914,0-25.18,11.28-25.18,25.197v251.864c0,13.906,11.265,25.188,25.18,25.188
											h22.018l255.059-257.366v-19.687c0-13.914-11.277-25.197-25.186-25.197C274.47,80.465,22.579,80.465,22.579,80.465z"/>
									</defs>
									<clipPath id="SVGID_7_">
										<use xlink:href="#SVGID_6_"  overflow="visible"/>
									</clipPath>
									<g clip-path="url(#SVGID_7_)">
										
											<rect x="-64.664" y="18.392" transform="matrix(-0.7551 0.6556 -0.6556 -0.7551 412.5115 309.0817)" fill="#7AC943" width="426.384" height="426.387"/>
										
											<linearGradient id="SVGID_8_" gradientUnits="userSpaceOnUse" x1="-958.035" y1="-101.4258" x2="-955.9037" y2="-101.4258" gradientTransform="matrix(127.173 -110.4189 -110.4189 -127.173 110610.6484 -118300.4766)">
											<stop  offset="0" style="stop-color:#80A415"/>
											<stop  offset="0.0332" style="stop-color:#83A71C"/>
											<stop  offset="0.3744" style="stop-color:#A3C05F"/>
											<stop  offset="0.6607" style="stop-color:#BAD390"/>
											<stop  offset="0.8776" style="stop-color:#C8DFAE"/>
											<stop  offset="1" style="stop-color:#CDE3B9"/>
										</linearGradient>
										<polygon opacity="0.53" fill="url(#SVGID_8_)" enable-background="new    " points="-152.23,210.383 169.734,-69.167 
											449.287,252.797 127.32,532.347 										"/>
									</g>
								</g>
								<g>
									<g>
										<g>
											<defs>
												<path id="SVGID_9_" d="M40.797,382.715h233.67c13.909,0,25.186-11.286,25.186-25.189v-15.342l-150.261-63.85
													L40.797,382.715z"/>
											</defs>
											<clipPath id="SVGID_10_">
												<use xlink:href="#SVGID_9_"  overflow="visible"/>
											</clipPath>
											
												<linearGradient id="SVGID_11_" gradientUnits="userSpaceOnUse" x1="-972.0475" y1="-97.2647" x2="-969.9161" y2="-97.2647" gradientTransform="matrix(-0.5138 -45.3596 -45.3596 0.5138 -4740.5039 -43658.6953)">
												<stop  offset="0" style="stop-color:#4372C3"/>
												<stop  offset="0.004" style="stop-color:#4472C3"/>
												<stop  offset="0.4695" style="stop-color:#7C9BD2"/>
												<stop  offset="0.815" style="stop-color:#A0B4DB"/>
												<stop  offset="1" style="stop-color:#ADBDDE"/>
											</linearGradient>
											<polygon clip-path="url(#SVGID_10_)" fill="url(#SVGID_11_)" points="40.832,385.65 39.616,278.349 299.619,275.401 
												300.838,382.703 											"/>
										</g>
										<g>
											<g>
												<g>
													<defs>
														<path id="SVGID_12_" d="M9.239,378.891c3.865,2.423,8.437,3.824,13.339,3.824h24.709l100-98.596l152.365,63.07
															v-32.725l-129.2-54.031l129.2-128.052v-26.717c0-4.882-1.389-9.441-3.791-13.304L9.239,378.891z"/>
													</defs>
													<clipPath id="SVGID_13_">
														<use xlink:href="#SVGID_12_"  overflow="visible"/>
													</clipPath>
													
														<linearGradient id="SVGID_14_" gradientUnits="userSpaceOnUse" x1="-948.4023" y1="-95.9176" x2="-946.2703" y2="-95.9176" gradientTransform="matrix(-45.1542 99.3979 99.3979 45.1542 -33111.375 98783.8516)">
														<stop  offset="0" style="stop-color:#F7F4B5"/>
														<stop  offset="1" style="stop-color:#E5DD52"/>
													</linearGradient>
													<polygon clip-path="url(#SVGID_13_)" fill="url(#SVGID_14_)" points="408.995,142.032 249.976,492.076 
														-100.098,333.047 58.919,-16.999 													"/>
												</g>
												<g>
													<g>
														<g>
															<g opacity="0.18">
																<g>
																	<defs>
																		<rect id="SVGID_15_" x="217.083" y="161.544" width="82.575" height="102.593"/>
																	</defs>
																	<clipPath id="SVGID_16_">
																		<use xlink:href="#SVGID_15_"  overflow="visible"/>
																	</clipPath>
																	<path clip-path="url(#SVGID_16_)" fill="#231F20" d="M219.488,264.133c24.432-28.258,59.878-44.035,80.17-57.166
																		v-45.376c-1.457-0.101-4.306,0-5.877,0c-24.998,0-45.841,19.812-56.108,32.028
																		c-17.062,20.31-12.058,28.181-20.587,68.961L219.488,264.133z"/>
																</g>
															</g>
															<g>
																<g>
																	<g>
																		<g>
																			<defs>
																				<rect id="SVGID_17_" x="-0.461" y="90.892" width="184.166" height="290.061"/>
																			</defs>
																			<clipPath id="SVGID_18_">
																				<use xlink:href="#SVGID_17_"  overflow="visible"/>
																			</clipPath>
																			<g opacity="0.01" clip-path="url(#SVGID_18_)" enable-background="new    ">
																				<g>
																					<g>
																						<defs>
																							<rect id="SVGID_19_" x="-0.461" y="90.892" width="184.166" height="290.061"/>
																						</defs>
																						<clipPath id="SVGID_20_">
																							<use xlink:href="#SVGID_19_"  overflow="visible"/>
																						</clipPath>
																						<g clip-path="url(#SVGID_20_)">
																							<g>
																								<path fill="#FFFFFF" d="M184.224,381.972c-61.395,0-122.789,0-184.184,0c0-96.86,0-193.719,0-290.579
																									c61.395,0,122.789,0,184.184,0C184.224,188.253,184.224,285.112,184.224,381.972z M8.005,179.533
																									c0,16.307,0.042,32.615-0.035,48.922c-0.016,3.314,1.153,5.804,3.808,7.715
																									c6.502,4.68,13.553,8.275,21.178,10.713c9.525,3.045,19.287,3.9,29.242,3.162
																									c4.059-0.301,5.361,1.328,4.13,5.104c-4.032,12.37-1.209,23.555,5.616,34.118
																									c1.046,1.619,3.323,3.362,1.808,5.209c-1.006,1.227-3.52,1.297-5.399,1.696
																									c-1.042,0.221-2.17-0.007-3.253,0.067c-9.248,0.631-18.54,0.918-27.73,2.037
																									c-8.831,1.076-17.33,3.681-25.059,8.343c-2.871,1.732-4.474,4.045-4.345,7.585
																									c0.174,4.761-0.015,9.534,0.131,14.297c0.035,1.136,0.78,2.25,1.199,3.374
																									c1.148-0.504,2.452-0.806,3.416-1.548c3.436-2.644,6.536-5.783,10.167-8.102
																									c6.806-4.347,14.309-7.201,22.173-9.128c11.667-2.86,23.55-3.983,35.491-4.843
																									c7.004-0.505,13.1,1.136,18.662,5.603c5.719,4.594,11.887,8.625,17.764,13.027
																									c5.483,4.108,11.014,8.179,16.219,12.624c9.513,8.124,15.944,17.79,14.356,31.143
																									c-0.331,2.787,0.713,3.76,3.664,3.807c5.434,0.087,10.871,0.079,16.306,0.021
																									c3.375-0.036,4.868-0.973,5.609-4.245c0.882-3.892,1.436-7.881,1.816-11.858
																									c1.411-14.772-2.997-27.951-11.584-39.782c-9.787-13.485-23.257-23.206-35.591-34.065
																									c-4.512-3.972-9.459-7.445-14.149-11.218c-7.986-6.424-10.533-16.014-6.395-24.68
																									c2.409-5.044,6.074-9.195,10.353-12.769c7.822-6.533,15.831-12.827,21.719-21.371
																									c15.752-22.856,16.273-46.865,5.628-71.729c-3.069-7.167-8.148-12.993-13.266-18.767
																									c-0.73-0.824-0.895-2.148-1.321-3.241c1.118-0.431,2.225-1.192,3.357-1.233
																									c4.427-0.16,8.863-0.163,13.294-0.084c3.268,0.058,6.052-0.979,8.517-3.069
																									c4.776-4.049,9.629-8.008,14.32-12.153c1.138-1.006,1.768-2.587,2.632-3.904
																									c-1.498-0.481-2.993-1.367-4.495-1.379c-14.3-0.113-28.601-0.146-42.901-0.068
																									c-17.054,0.092-34.124-0.097-51.156,0.603c-15.656,0.644-30.867,3.898-44.58,12.026
																									c-5.74,3.402-11.247,7.206-16.773,10.957c-3.26,2.213-4.661,5.304-4.619,9.415
																									C8.098,147.753,8,163.643,8.005,179.533z"/>
																								<path d="M8.003,179.533c-0.003-15.889,0.095-31.78-0.07-47.667c-0.043-4.112,1.359-7.202,4.619-9.415
																									c5.525-3.751,11.033-7.555,16.773-10.957c13.713-8.128,28.924-11.383,44.58-12.026
																									c17.032-0.7,34.102-0.511,51.156-0.603c14.3-0.077,28.601-0.045,42.901,0.068
																									c1.502,0.012,2.997,0.898,4.495,1.379c-0.864,1.317-1.493,2.898-2.632,3.904
																									c-4.69,4.145-9.544,8.104-14.32,12.153c-2.465,2.09-5.249,3.126-8.517,3.069
																									c-4.43-0.078-8.867-0.075-13.294,0.084c-1.132,0.041-2.239,0.803-3.357,1.233
																									c0.426,1.093,0.591,2.417,1.321,3.241c5.118,5.774,10.197,11.599,13.266,18.767
																									c10.646,24.864,10.124,48.873-5.628,71.729c-5.888,8.544-13.897,14.838-21.719,21.371
																									c-4.279,3.574-7.944,7.724-10.353,12.769c-4.138,8.666-1.591,18.256,6.395,24.68
																									c4.69,3.773,9.638,7.246,14.149,11.218c12.334,10.858,25.804,20.579,35.591,34.065
																									c8.586,11.831,12.995,25.009,11.584,39.782c-0.38,3.977-0.934,7.967-1.816,11.858
																									c-0.741,3.272-2.235,4.209-5.609,4.245c-5.435,0.058-10.872,0.066-16.306-0.021
																									c-2.951-0.047-3.995-1.02-3.664-3.807c1.588-13.352-4.843-23.019-14.356-31.143
																									c-5.205-4.445-10.736-8.516-16.219-12.624c-5.877-4.403-12.045-8.434-17.764-13.027
																									c-5.562-4.467-11.658-6.108-18.662-5.603c-11.94,0.861-23.824,1.984-35.491,4.843
																									c-7.864,1.928-15.368,4.781-22.173,9.128c-3.631,2.319-6.732,5.458-10.167,8.102
																									c-0.964,0.742-2.268,1.044-3.416,1.548c-0.419-1.124-1.164-2.238-1.199-3.374
																									c-0.146-4.762,0.043-9.536-0.131-14.297c-0.129-3.54,1.475-5.853,4.345-7.585
																									c7.729-4.663,16.228-7.268,25.059-8.343c9.19-1.119,18.481-1.406,27.73-2.037
																									c1.083-0.074,2.211,0.154,3.253-0.067c1.879-0.398,4.393-0.469,5.399-1.696
																									c1.515-1.847-0.762-3.59-1.808-5.209c-6.824-10.563-9.647-21.748-5.616-34.118
																									c1.231-3.776-0.071-5.405-4.13-5.104c-9.955,0.738-19.717-0.116-29.242-3.162
																									c-7.625-2.438-14.677-6.033-21.178-10.713c-2.655-1.911-3.824-4.401-3.808-7.715
																									C8.047,212.148,8.005,195.84,8.003,179.533z M78.904,232.557c7.215-0.237,15.738-1.817,22.973-7.596
																									c5.914-4.724,9.006-11.291,11.805-18.048c3.997-9.649,2.837-19.561,1.286-29.428
																									c-1.752-11.145-5.416-21.672-10.348-31.844c-5.396-11.13-12.684-20.51-23.541-26.606
																									c-20.27-11.379-42.172,0.024-49.708,12.792c-5.76,9.759-6.328,20.505-6.008,31.322
																									c0.177,5.981,1.183,11.975,2.249,17.884c2.566,14.221,8.564,27.017,18.135,37.755
																									C53.943,227.983,64.649,232.65,78.904,232.557z"/>
																								<path fill="#FFFFFF" d="M78.904,232.557c-14.255,0.093-24.961-4.574-33.158-13.77
																									c-9.571-10.737-15.569-23.534-18.135-37.755c-1.066-5.91-2.072-11.903-2.249-17.884
																									c-0.321-10.816,0.247-21.563,6.008-31.322c7.536-12.768,29.438-24.171,49.708-12.792
																									c10.857,6.095,18.145,15.475,23.541,26.606c4.932,10.173,8.596,20.699,10.348,31.844
																									c1.551,9.867,2.711,19.779-1.286,29.428c-2.799,6.757-5.892,13.325-11.805,18.048
																									C94.642,230.74,86.119,232.32,78.904,232.557z"/>
																							</g>
																						</g>
																					</g>
																				</g>
																			</g>
																		</g>
																		<g>
																			<g>
																				<g>
																					<defs>
																						<path id="SVGID_21_" d="M170.721,148.3c0,21.15,13.247,32.994,25.43,51.313
																							c2.709,4.452,5.215,9.122,7.313,14.174c3.123,7.474,5.594,15.411,7.85,23.713
																							c2.235,8.276,4.163,17.068,4.986,26.643l3.186-0.006c0.784-9.578,2.667-18.376,4.876-26.658
																							c2.232-8.312,4.676-16.257,7.751-23.746c3.013-7.287,6.801-13.816,10.931-19.979
																							c10.91-15.336,21.511-26.801,21.746-45.451c0-25.579-21.055-46.646-47.036-46.646
																							C191.779,101.657,170.721,122.721,170.721,148.3"/>
																					</defs>
																					<clipPath id="SVGID_22_">
																						<use xlink:href="#SVGID_21_"  overflow="visible"/>
																					</clipPath>
																					
																						<linearGradient id="SVGID_23_" gradientUnits="userSpaceOnUse" x1="-954.0594" y1="-113.9556" x2="-954.0594" y2="-117.9243" gradientTransform="matrix(40.9414 0 0 -40.9414 39278.2812 -4563.8442)">
																						<stop  offset="0" style="stop-color:#EF6659"/>
																						<stop  offset="1" style="stop-color:#D53E2E"/>
																					</linearGradient>
																					
																						<rect x="170.721" y="101.657" clip-path="url(#SVGID_22_)" fill="url(#SVGID_23_)" width="94.069" height="162.486"/>
																				</g>
																				<g>
																					<g>
																						<g>
																							<g>
																								<g>
																									<defs>
																										<rect id="SVGID_24_" x="202.522" y="134.221" width="30.472" height="30.466"/>
																									</defs>
																									<clipPath id="SVGID_25_">
																										<use xlink:href="#SVGID_24_"  overflow="visible"/>
																									</clipPath>
																									<path clip-path="url(#SVGID_25_)" fill="#721212" d="M202.522,149.489
																										c-0.012-8.434,6.789-15.247,15.199-15.267c8.428-0.015,15.259,6.777,15.276,15.211
																										c0.012,8.404-6.795,15.238-15.22,15.256C209.365,164.705,202.537,157.89,202.522,149.489"/>
																								</g>
																							</g>
																						</g>
																					</g>
																					<g>
																						<g>
																							<defs>
																								<path id="SVGID_26_" d="M297.465,362.19c0,9.855-7.987,17.842-17.839,17.842H17.942
																									c-9.852,0-17.839-7.987-17.839-17.842V100.512c0-9.855,7.987-17.842,17.839-17.842h261.684
																									c9.852,0,17.839,7.987,17.839,17.842V362.19z"/>
																							</defs>
																							<clipPath id="SVGID_27_">
																								<use xlink:href="#SVGID_26_"  overflow="visible"/>
																							</clipPath>
																						</g>
																						<g>
																							<g>
																								<defs>
																									<path id="SVGID_28_" d="M297.465,362.19c0,9.855-7.987,17.842-17.839,17.842H17.942
																										c-9.852,0-17.839-7.987-17.839-17.842V100.512c0-9.855,7.987-17.842,17.839-17.842h261.684
																										c9.852,0,17.839,7.987,17.839,17.842V362.19z"/>
																								</defs>
																								<clipPath id="SVGID_29_">
																									<use xlink:href="#SVGID_28_"  overflow="visible"/>
																								</clipPath>
																							</g>
																							<g>
																								<g>
																									<defs>
																										<path id="SVGID_30_" d="M297.465,362.19c0,9.855-7.987,17.842-17.839,17.842H17.942
																											c-9.852,0-17.839-7.987-17.839-17.842V100.512c0-9.855,7.987-17.842,17.839-17.842h261.684
																											c9.852,0,17.839,7.987,17.839,17.842V362.19z"/>
																									</defs>
																									<clipPath id="SVGID_31_">
																										<use xlink:href="#SVGID_30_"  overflow="visible"/>
																									</clipPath>
																									<path id="edge__x28_left_x29__1_" clip-path="url(#SVGID_31_)" fill="#E5E6E7" d="M-2.312,343.052
																										c1.472-1.743,2.357-2.882,2.357-2.882l-0.027-23.886c0,0-1.737,0.662-2.316,0.978
																										C-2.297,326.914-2.312,338.283-2.312,343.052z"/>
																								</g>
																							</g>
																						</g>
																					</g>
																				</g>
																			</g>
																		</g>
																	</g>
																</g>
															</g>
														</g>
													</g>
												</g>
											</g>
										</g>
									</g>
								</g>
							</g>
						</g>
					</g>
				</g>
			</g>
		</g>
	</g>
</g>
<g>
	
		<linearGradient id="SVGID_32_" gradientUnits="userSpaceOnUse" x1="-608.3923" y1="446.3311" x2="-608.3923" y2="169.7996" gradientTransform="matrix(1 0 0 1 694 -66.2981)">
		<stop  offset="0" style="stop-color:#F0F1F1"/>
		<stop  offset="0.3173" style="stop-color:#F6F7F7"/>
		<stop  offset="1" style="stop-color:#FFFFFF"/>
	</linearGradient>
	<path fill="url(#SVGID_32_)" d="M0.103,242.228c0.154,0.117,0.308,0.233,0.463,0.349c11.781,8.793,27.129,14.302,45.669,14.302
		c4.426,0,9.265-0.462,14.138-0.897c-2.202,5.332-4.42,9.769-4.42,17.306c0,13.727,7.054,22.137,13.25,30.127
		C52.819,304.526,24.699,306.232,0,316.238l0.074,23.956c9.088-10.374,21.748-15.111,27.616-17.259
		c18.546-6.211,42.405-7.108,46.398-7.108c4.39,0,6.598,0,10.121,0.462c33.587,23.946,52.916,35.878,52.916,58.525
		c0,1.769-0.121,3.511-0.35,5.218l25.519,0c2.892-7.351,4.403-14.941,4.403-22.519c0-30.586-22.42-45.671-41.839-62.083
		l-15.923-12.386c-4.852-3.996-11.468-9.313-11.468-19.055c0-9.769,6.616-15.986,12.362-21.74
		c18.546-14.603,37.088-30.148,37.088-62.944c0-29.942-16.016-47.284-26.857-56.689c3.639,0,25.022,0,25.022,0l26.133-19.115H80.251
		c-23.859,0-53.879,3.549-79.058,24.39c-0.367,0.318-0.731,0.638-1.091,0.96L0.103,242.228z M68.497,241.487
		c-37.991,0-54.627-46.223-54.627-75.911c0-11.551,2.202-23.496,9.712-32.809c7.081-8.872,19.434-14.633,30.925-14.633
		c36.644,0,54.144,49.647,54.144,81.568c0,6.398-2.244,18.888-10.532,28.383C90.849,236.37,79.53,241.487,68.497,241.487z"/>
</g>
</svg>
