<?xml version="1.0" encoding="utf-8"?>
<!-- Generator: Adobe Illustrator 18.0.0, SVG Export Plug-In . SVG Version: 6.00 Build 0)  -->
<!DOCTYPE svg PUBLIC "-//W3C//DTD SVG 1.1//EN" "http://www.w3.org/Graphics/SVG/1.1/DTD/svg11.dtd">
<svg version="1.1" id="Layer_1" xmlns="http://www.w3.org/2000/svg" xmlns:xlink="http://www.w3.org/1999/xlink" x="0px" y="0px"
	 viewBox="51.8 0 248.5 335" enable-background="new 51.8 0 248.5 335" xml:space="preserve">
<g id="Layer_2" display="none">
	<g id="O3btSA_1_" display="inline">
	</g>
</g>
<g id="Layer_1_1_">
	<g>
		<path fill="#FBA919" d="M67.9,81.4c0,0,5.7,22.1,6.6,29.5c0.8,7.4-14.8,23.8-14.8,32c0,8.2,3.3,22.9,21.3,30.3
			c18,7.4,20.5,26.2,20.5,37.7c0,11.5-6.6,33.6-6.6,33.6s-4.1,54.9,18,64.7c22.1,9.8,17.2,9.8,22.1,9.8c4.9,0,41,14.8,62.3,9
			c21.3-5.7,27-12.3,27-12.3s21.3,1.6,27.9-17.2c6.6-18.8,10.7-58.2,8.2-76.2c-2.5-18-5.7-41.8,9-50c14.8-8.2,30.3-18,27.9-26.2
			c-2.5-8.2-15.6-19.7-15.6-19.7s-3.3-20.5-0.8-25.4c2.5-4.9,17.2-17.2,9-26.2c-8.2-9-22.9-9-22.9-9l-18.8,1.6c0,0-32-28.7-73.8-27
			c-41.8,1.6-68,27-68,27s-13.9-4.9-26.2,0C67.9,72.4,65.4,67.5,67.9,81.4z"/>
		<path fill="#E78724" d="M142.8,203.4c0,0-16.2,24.8-28.1,42.4c-1.8,2.7,11.9,2.9,11.9,2.9L142.8,203.4z"/>
		<path fill="#E78724" d="M150.5,152c0,0-4.9,12.2-7.6,18.7c-2.9,7-14,10.5-14,10.5s5.7-6,5.7-21.3c0-6.4,8.3-9,8.3-9L150.5,152z"/>
		<path fill="#E78724" d="M145.6,158.9c0,0-10,11.9-28.6,5.2c-18.6-6.7-20.5-30.5-20.5-37.2c0-6.7,35.3,6.7,40.1,9.5
			S150.3,150.8,145.6,158.9z"/>
		<path fill="#E78724" d="M75.3,31.4c0,0,17.2-3.3,28.6,5.7c11.5,9.1,14.8,16.2,14.8,16.2L99.4,68.7c0,0-9.3-4.3-12.2-16.7
			C84.3,39.5,86.2,33.8,75.3,31.4z"/>
		<path fill="#E78724" d="M140.5,124.4c-7.4-10.5-19.6-15.1-29.3-15.8c-16.6-1.3-24.5,4.6-24.5,4.6s27.2,1.2,35,11.4
			c14.6,19.2,35.9,20.7,39.3,16.5c-3.9,0.2-8.3-1.8-12.9-6.1C145.2,132.2,142.9,127.8,140.5,124.4z"/>
		<path fill="#E78724" d="M94.7,161.6c0,0-30.2-10.4-24.4-20.9c5.7-10.5,1.2-16.2,1.2-16.2S54.6,137,58.9,150.4
			c2.6,8.2,7.1,14.1,31.4,25.5c11.7,21.6,2.4,60.6,3,60.8c0.9,0.3,16.4-7.6,15.3-44.1C108.2,181.4,107.3,166.2,94.7,161.6z"/>
		<path fill="#E78724" d="M134.2,50.1c-12.6,6.4-30,15.4-30,15.4l6.8,3.4c-0.7,1.1-1,1.7-1,1.7l7,3.2c0,0,17.1,12.4,27.5,20.3
			c-3.5-10.7-13.7-27.6-13.7-27.6S128,58.7,134.2,50.1z"/>
		<path fill="#E78724" d="M176.2,311.9c-38.9,0-52-19.7-52-19.7l6.1,14.8c2.3,6.4,26.8,26.3,45.9,26.3"/>
		<path fill="#E78724" d="M128.4,278.9c0,0,3.6,21.9,17.9,21.9c12.2,0,15.8-18.5,15.8-22.3L128.4,278.9z"/>
		<path fill="#E78724" d="M104.6,245.9c1.3-3.5,5.7-17.7,7.2-30.5c1.7-15.4,1.1-38,1.1-38s-3.8,14.8-7.2,17.2
			c-3.3,2.4-9.5,18.6-9.5,18.6s-3.3,24.2-4.9,32.3C95.6,246.3,99.3,243.7,104.6,245.9z"/>
		<path fill="#E78724" d="M70,150.2c0,0,8.1-2.9,10.5-20.5c2.4-17.7-2.9-32.9-2.9-32.9s0.5,24.3-2.4,29.1c-2.9,4.8-5.2,6.2-8.6,12.4
			C63.3,144.4,68.1,148.3,70,150.2z"/>
		<path fill="#87CCEE" d="M113.1,69.1"/>
		<path fill="#FDC168" d="M79.7,35.6l-1.7-1C73.2,34.7,79.7,35.6,79.7,35.6z"/>
		<path fill="#FBA919" d="M140.8,44.8c0,0-7.6-1.3-11.5-7c-3.8-5.7-14.6-17.2-31.9-17.3c-17.2-0.1-34.3,4.6-34.3,4.6L78,34.5
			c1.6-0.1,4.3,0,8.9,0.1c18.7,0.6,21.6,19.1,21.6,19.1l65.9-9.1"/>
		<path fill="#FFFFFF" d="M147.2,146.9c0,0-8.9,8.9-22.6,6c-13.7-2.9-22-8.9-22.6-19.4c-0.6-10.5,2.9-14.6,2.9-14.6
			s15.3,4.8,22.6,11.1C134.7,136.4,140.1,146.6,147.2,146.9z"/>
		<path fill="#C9C9C9" d="M136.4,143.8c0,0-7.7,3.5-16.4,0.7c-11.3-3.8-12.1-15.5-12.1-15.5s-6.9,20.4,12.5,24.3
			c15.6,3.1,24.8-5.9,24.8-5.9L136.4,143.8z"/>
		<path fill="#463014" d="M145.2,257.8"/>
		<path fill="#463014" d="M141.9,40.5c-0.8-17.5,13.5-31.4,18.4-32c0.3,3-0.3,14.5,4.7,18c1.4-9.4,6.3-19.8,25.6-26.6
			c-4.1,10.9-0.6,20.1,1.2,24.4c13.2-11.9,22-10,22-10s-9.1,15.8-5.6,26.1C181.8,38.5,142,43.3,141.9,40.5z"/>
		<path fill="#463014" d="M85.9,67.1c-6.3-5.2-1.6-10.1-2.1-16c-0.3-3.2-0.5-6.1-1.6-7.8c-5.8-9.2-19.5-11.9-19.6-12l-6.4-1.3l4.3-5
			c0.6-0.6,18-17.3,45-8.6c18.9,6.1,32.9,26.8,33.4,27.6l-9.5,4.5c-0.1-0.2-11.2-19.6-27.4-24.8c-13.1-4.2-25.2-0.2-30.4,2.4
			c5.5,2.2,12.7,6.2,17,13c2,3.2,2.4,7.3,2.7,11.2c0.4,5.2,0.8,10.1,4.7,13.3L85.9,67.1z"/>
		<path fill="#463014" d="M69,143.4c0,0,7.9-9.8,10.3-29c0.9-7.5-0.7-22.4-3.3-28.2c0.5,14.1-3.1,28.2-3.1,28.2S70.5,140.6,69,143.4
			z"/>
		<path fill="#463014" d="M110.9,57.2c0,0-2.5-11.1-9.6-16.8c-9.9-7.9-22.1-3.7-22.2-3.7l-1.8-5.4c0.6-0.2,14.5-4.6,27.3,4.4
			c12.9,9,14.4,17.2,14.6,18.2L110.9,57.2z"/>
		<path fill="#463014" d="M94,136.4c0,0-4.2-6-3.4-12.5c0.4-3.2,1.9-6.6,4.6-7.7c5-2.2,7.2,3.5,7.2,3.5S95.3,121.3,94,136.4z"/>
		<path fill="#463014" d="M145.2,257.8"/>
		<path fill="#463014" d="M139.7,145.5c0.2,0.3,0.3,0.5,0.3,0.5s-13,9.8-26.3-0.1c-7.1-5.3-6.5-18.4-4.3-24
			c5.7,1.3,10.5,3.6,14.5,6.3c-5.1-4.5-9.5-7.9-9.5-8l-5.8-1.6l-11.2-3.9c-0.1,0.9-4.2,20.1,7.6,33.2c5.2,5.8,29.8,18.8,41.5-3.4
			L139.7,145.5z"/>
		<path fill="#463014" d="M138.5,146.9c7.3,11.1,25.8,4.8,25.5-7c0,0-12.3,6.8-23.2-5.7c-6.4-7.3-26.7-27.5-54.4-20.8
			C105.4,117.6,130.7,135,138.5,146.9z"/>
		<g>
			<path fill="#463014" d="M145.2,257.8"/>
		</g>
		<path fill="#463014" d="M83.7,178.3c1.8,1,8,7.4,8,17.1c0,4.8-0.5,29-2.9,43.8c3.6,2.3,6.1,2.8,9.7,5.2c1.8-17.1,3.1-42,2.5-52
			c-0.7-11.4-6.8-19.1-12.5-22.4c-1.8-1-3.6-2-5.5-3c-9.7-5.3-19.8-10.7-19.8-20c0-7.3,2.8-9.5,5.8-11.9l0.3-0.3
			c2-1.6,4.2-3.4,5.6-6.4c3.6-8.2,4.2-28.9,0-34.2c-2.1-2.6-7.7-11.5-6.1-17.4c0.6-2.3,2-3.9,4.4-5.1c2.5-1.3,5.8-1.9,9.9-1.9
			c8,0,16.9,2.4,21.5,3.9C121,79,140.8,94,146.5,98.4c0.2,0.1,0.3,0.2,0.3,0.2l3.6,2.5l-2.3-3.8c-0.1-0.2-14.5-23.9-40.3-32.6
			c-5-1.7-14.8-4.5-24.5-4.5c-5.8,0-10.6,1-14.5,3c-4.7,2.4-7.9,6.3-9.2,11.1c-3.2,11.9,7.3,25.2,7.7,25.6
			c1.2,2.2,1.8,18.2-1.1,24.6c-0.4,0.9-1.5,1.8-2.8,2.9c-0.4,0.3-0.9,0.7-1.4,1.1c-4,3-10.1,7.6-10.1,18.2
			c0,14.5,14.7,22.3,26.4,28.6C80.2,176.4,82.1,177.4,83.7,178.3z"/>
		<g>
			<g>
				<path fill="#463014" d="M85.9,67.1c-6.3-5.2-1.6-10.1-2.1-16c-0.3-3.2-0.5-6.1-1.6-7.8c-5.8-9.2-19.5-11.9-19.6-12l-6.4-1.3
					l4.3-5c0.6-0.6,18-17.3,45-8.6c18.9,6.1,32.9,26.8,33.4,27.6l-9.5,4.5c-0.1-0.2-11.2-19.6-27.4-24.8
					c-13.1-4.2-25.2-0.2-30.4,2.4c5.5,2.2,12.7,6.2,17,13c2,3.2,2.4,7.3,2.7,11.2c0.4,5.2,0.8,10.1,4.7,13.3L85.9,67.1z"/>
			</g>
			<g>
				<path fill="#463014" d="M85.7,68.2l-0.4-0.3c-4.7-3.9-3.8-7.7-3-11.4c0.4-1.7,0.8-3.5,0.6-5.3c-0.3-3-0.5-5.9-1.4-7.4
					c-5.5-8.7-18.9-11.5-19-11.5l-8-1.6l5.3-6.2C59.8,24.4,71,13.1,90,13.1c5.2,0,10.5,0.9,15.8,2.6c19.7,6.4,33.8,27.8,33.9,28
					l0.6,0.9L129,49.8l-0.4-0.7c-1.2-2.1-11.8-19.6-26.9-24.4c-3.7-1.2-7.6-1.8-11.6-1.8c-7.2,0-13,2-16.2,3.3
					c5.2,2.3,11.5,6.3,15.5,12.6c2.2,3.4,2.5,7.6,2.9,11.7c0.4,5,0.8,9.8,4.3,12.7l1.3,1.1L85.7,68.2z"/>
			</g>
		</g>
		<g>
			<g>
				<path fill="#463014" d="M110.9,57.2c0,0-2.5-11.1-9.6-16.8c-9.9-7.9-22.1-3.7-22.2-3.7l-1.8-5.4c0.6-0.2,14.5-4.6,27.3,4.4
					c12.9,9,14.4,17.2,14.6,18.2L110.9,57.2z"/>
			</g>
			<g>
				<path fill="#463014" d="M110.2,58.5l-0.2-1.1c0-0.1-2.5-10.8-9.3-16.2c-3.8-3.1-8.5-4.6-13.8-4.6c-4.1,0-7.2,1-7.5,1.1L78.5,38
					l-2.4-7.3l0.9-0.3c0.4-0.1,4.1-1.3,9.3-1.3c6.9,0,13.4,2,18.8,5.8c13.2,9.3,14.8,17.8,14.9,18.8l0.1,0.7L110.2,58.5z M86.9,34.7
					c5.7,0,10.8,1.7,15,5c6,4.8,8.8,13.2,9.7,16.2l6.5-2.6c-0.6-2.3-3.2-9.2-14-16.8C98.9,32.9,92.9,31,86.3,31
					c-3.6,0-6.4,0.6-7.8,0.9l1.2,3.6C81.1,35.2,83.7,34.7,86.9,34.7z"/>
			</g>
		</g>
		<path fill="#463014" d="M145.7,295.5L145.7,295.5c-2.8,0-5.7-1-7.7-2.8c-1.5-1.3-6.7-6.1-9-11.9c-0.9-2.2-0.7-3.9,0.6-5.2
			c0.9-0.9,2.6-1.9,6.2-1.9l2.5,0c3,0,8.1,0,12.5,0h4.2c2.7,0,4.7,0.6,5.8,1.7c1.4,1.5,1,3.4,0.6,4.4c-0.7,1.7-3.6,7.4-8.5,12.7
			C151.2,294.4,148.6,295.5,145.7,295.5z"/>
		<path fill="#463014" d="M148.7,147.6l-10.2-0.7c0,0,2.6,4.6,4.3,10.5c1.9,6.7-1.7,16.5-1.7,16.5S154.6,158.6,148.7,147.6z"/>
		<g>
			<path fill="#463014" d="M136,322.4c-36.2-2.8-49-37-49-44.2l9.5,0l-4.7,0h4.7c0,3.1,9.7,32.4,40.3,34.7L136,322.4z"/>
		</g>
		<path fill="#FFFFFF" d="M125.8,261c-0.6-3.3-0.6-6.4,0.1-9.4c-2.8-2.1-7.7-2.8-11.4-4c-3-1.9-18.5,2-29.8-11.7
			c-14.1-17.1-11.1-27.2-11.1-27.2c-3.6,4-7.1,2.5-12.6,21.2c-5.5,18.7,2.6,31.8,17.7,44.9c7.1,6.2,17.2,8.7,25.9,9.7
			c-2.9-2.9,5-3.2,10.4-5.2c-0.4-4.4,0.3-8.6,3.6-12.1c2-2.1,4.5-3.3,7.1-4.3c0.1-0.3,0.3-0.7,0.4-1
			C125.9,261.6,125.8,261.3,125.8,261z"/>
		<path fill="#C9C9C9" d="M114.8,279.1c-0.3-0.9-0.6-1.9-0.8-2.8c-0.3-1-1.5-4,0-0.6c-0.4-0.9-0.7-1.7-0.8-2.6
			c-24.5,0-45.8-16.8-41.7-52.2c-3.2-4.3-7.7,8.6-7.7,8.6s-12.3,35.6,19.4,49.4c10.5,4.6,19.9,7.9,22.1,6.6
			c4.6,0.9,8.7-2.3,10.3-4.4C115.3,280.4,115,279.8,114.8,279.1z"/>
		<path fill="#463014" d="M125.3,255.9c0-3,0.6-5.9,2.1-8.8c0.1-0.2,0.2-0.4,0.3-0.6c-9.4-0.1-20.3-1-29.5-4.7
			c-10.2-4.1-22.9-18-25-34.3c0,0-19.1,14.8-13.5,46.3c5.3,29.7,30.1,39.3,58.4,41c0-0.2-3.2-6.8-2.2-10.8c-16.1,1.2-34-5-42.7-19.3
			c-7.9-13.1-5.7-35.4-2.5-38.6C78.7,251.2,107.4,256.3,125.3,255.9z"/>
		<path fill="#463014" d="M176.2,294.8"/>
		<path fill="#463014" d="M128.3,237.9c-5.1,14.9-15.5,27-15.5,27s14.3-0.7,15.1-3.2c0.6-1.9,12.9-30.8,17.7-64.6
			C141.1,204.5,128.7,236.6,128.3,237.9z"/>
		<path fill="#E78724" d="M209.4,203.4c0,0,16.2,24.8,28.1,42.4c1.8,2.7-11.9,2.9-11.9,2.9L209.4,203.4z"/>
		<path fill="#E78724" d="M201.7,152c0,0,4.9,12.2,7.6,18.7c2.9,7,14,10.5,14,10.5s-5.7-6-5.7-21.3c0-6.4-8.3-9-8.3-9L201.7,152z"/>
		<path fill="#E78724" d="M206.6,158.9c0,0,10,11.9,28.6,5.2s20.5-30.5,20.5-37.2c0-6.7-35.3,6.7-40.1,9.5
			C210.9,139.3,201.8,150.8,206.6,158.9z"/>
		<path fill="#E78724" d="M276.9,31.4c0,0-17.2-3.3-28.6,5.7c-11.5,9.1-14.8,16.2-14.8,16.2l19.3,15.3c0,0,9.3-4.3,12.2-16.7
			C267.8,39.5,265.9,33.8,276.9,31.4z"/>
		<path fill="#E78724" d="M211.6,124.4c7.4-10.5,19.6-15.1,29.3-15.8c16.6-1.3,24.5,4.6,24.5,4.6s-27.2,1.2-35,11.4
			c-14.6,19.2-35.9,20.7-39.3,16.5c3.9,0.2,8.3-1.8,12.9-6.1C206.9,132.2,209.3,127.8,211.6,124.4z"/>
		<path fill="#E78724" d="M257.5,161.6c0,0,30.2-10.4,24.4-20.9c-5.7-10.5-1.2-16.2-1.2-16.2s16.8,12.6,12.5,25.9
			c-2.6,8.2-7.1,14.1-31.4,25.5c-11.7,21.6-2.4,60.6-3,60.8c-0.9,0.3-16.4-7.6-15.3-44.1C244,181.4,244.9,166.2,257.5,161.6z"/>
		<path fill="#E78724" d="M218,50.1c12.6,6.4,30,15.4,30,15.4l-6.8,3.4c0.7,1.1,1,1.7,1,1.7l-7,3.2c0,0-17.1,12.4-27.6,20.3
			c3.5-10.7,13.7-27.6,13.7-27.6S224.2,58.7,218,50.1z"/>
		<path fill="#E78724" d="M176,311.9c38.9,0,52-19.7,52-19.7l-6.1,14.8c-2.3,6.4-26.8,26.3-45.9,26.3"/>
		<path fill="#E78724" d="M223.7,278.9c0,0-3.6,21.9-17.9,21.9c-12.2,0-15.8-18.5-15.8-22.3L223.7,278.9z"/>
		<path fill="#E78724" d="M247.6,245.9c-1.3-3.5-5.7-17.7-7.2-30.5c-1.7-15.4-1.1-38-1.1-38s3.8,14.8,7.2,17.2
			c3.3,2.4,9.5,18.6,9.5,18.6s3.3,24.2,4.9,32.3C256.6,246.3,252.9,243.7,247.6,245.9z"/>
		<path fill="#E78724" d="M282.2,150.2c0,0-8.1-2.9-10.5-20.5c-2.4-17.7,2.9-32.9,2.9-32.9s-0.5,24.3,2.4,29.1
			c2.9,4.8,5.2,6.2,8.6,12.4C288.8,144.4,284.1,148.3,282.2,150.2z"/>
		<path fill="#87CCEE" d="M239.1,69.1"/>
		<path fill="#FDC168" d="M272.5,35.6l1.7-1C279,34.7,272.5,35.6,272.5,35.6z"/>
		<path fill="#FBA919" d="M211.4,44.8c0,0,7.6-1.3,11.5-7c3.8-5.7,14.6-17.2,31.9-17.3c17.2-0.1,34.3,4.6,34.3,4.6l-14.9,9.4
			c-1.6-0.1-4.3,0-8.9,0.1c-18.7,0.6-21.6,19.1-21.6,19.1l-65.9-9.1"/>
		<path fill="#FFFFFF" d="M205,146.9c0,0,8.9,8.9,22.6,6c13.7-2.9,22-8.9,22.6-19.4c0.6-10.5-2.9-14.6-2.9-14.6s-15.3,4.8-22.6,11.1
			S212,146.6,205,146.9z"/>
		<path fill="#C9C9C9" d="M215.8,143.8c0,0,7.7,3.5,16.4,0.7c11.3-3.8,12.1-15.5,12.1-15.5s6.9,20.4-12.5,24.3
			c-15.6,3.1-24.8-5.9-24.8-5.9L215.8,143.8z"/>
		<path fill="#463014" d="M206.9,257.8"/>
		<path fill="#463014" d="M266.3,67.1c6.3-5.2,1.6-10.1,2.1-16c0.3-3.2,0.5-6.1,1.6-7.8c5.8-9.2,19.5-11.9,19.6-12l6.4-1.3l-4.3-5
			c-0.6-0.6-18-17.3-45-8.6c-18.9,6.1-32.9,26.8-33.4,27.6l9.5,4.5c0.1-0.2,11.2-19.6,27.4-24.8c13.1-4.2,25.2-0.2,30.4,2.4
			c-5.5,2.2-12.7,6.2-17,13c-2,3.2-2.4,7.3-2.7,11.2c-0.4,5.2-0.9,10.1-4.7,13.3L266.3,67.1z"/>
		<path fill="#463014" d="M283.1,143.4c0,0-7.9-9.8-10.3-29c-0.9-7.5,0.7-22.4,3.3-28.2c-0.5,14.1,3.1,28.2,3.1,28.2
			S281.7,140.6,283.1,143.4z"/>
		<path fill="#463014" d="M241.3,57.2c0,0,2.5-11.1,9.6-16.8c9.9-7.9,22.1-3.7,22.2-3.7l1.8-5.4c-0.6-0.2-14.5-4.6-27.3,4.4
			c-12.9,9-14.4,17.2-14.6,18.2L241.3,57.2z"/>
		<path fill="#463014" d="M258.2,136.4c0,0,4.2-6,3.4-12.5c-0.4-3.2-1.9-6.6-4.5-7.7c-5-2.2-7.2,3.5-7.2,3.5
			S256.9,121.3,258.2,136.4z"/>
		<path fill="#463014" d="M206.9,257.8"/>
		<path fill="#463014" d="M212.5,145.5c-0.2,0.3-0.3,0.5-0.3,0.5s13,9.8,26.3-0.1c7.1-5.3,6.5-18.4,4.3-24
			c-5.7,1.3-10.5,3.6-14.5,6.3c5.1-4.5,9.5-7.9,9.5-8l5.8-1.6l11.2-3.9c0.1,0.9,4.2,20.1-7.6,33.2c-5.2,5.8-29.8,18.8-41.5-3.4
			L212.5,145.5z"/>
		<path fill="#463014" d="M213.7,146.9c-7.3,11.1-25.8,4.8-25.5-7c0,0,12.3,6.8,23.2-5.7c6.4-7.3,26.8-27.5,54.4-20.8
			C246.8,117.6,221.5,135,213.7,146.9z"/>
		<g>
			<path fill="#463014" d="M206.9,257.8"/>
		</g>
		<path fill="#463014" d="M268.4,178.3c-1.8,1-8,7.4-8,17.1c0,4.8,0.5,29,2.9,43.8c-3.6,2.3-6.1,2.8-9.7,5.2
			c-1.8-17.1-3.1-42-2.5-52c0.7-11.4,6.8-19.1,12.5-22.4c1.8-1,3.6-2,5.5-3c9.7-5.3,19.8-10.7,19.8-20c0-7.3-2.8-9.5-5.8-11.9
			l-0.3-0.3c-2-1.6-4.2-3.4-5.6-6.4c-3.6-8.2-4.2-28.9,0-34.2c2.1-2.6,7.7-11.5,6.1-17.4c-0.6-2.3-2-3.9-4.4-5.1
			c-2.5-1.3-5.8-1.9-9.9-1.9c-8,0-16.9,2.4-21.5,3.9C231.2,79,211.4,94,205.7,98.4c-0.2,0.1-0.3,0.2-0.3,0.2l-3.6,2.5l2.3-3.8
			c0.1-0.2,14.5-23.9,40.3-32.6c5-1.7,14.8-4.5,24.5-4.5c5.8,0,10.6,1,14.5,3c4.7,2.4,7.9,6.3,9.2,11.1c3.2,11.9-7.3,25.2-7.7,25.6
			c-1.2,2.2-1.8,18.2,1.1,24.6c0.4,0.9,1.5,1.8,2.8,2.9c0.4,0.3,0.9,0.7,1.4,1.1c4,3,10.1,7.6,10.1,18.2c0,14.5-14.7,22.3-26.4,28.6
			C271.9,176.4,270.1,177.4,268.4,178.3z"/>
		<path fill="#463014" d="M250.9,65.4c-2.3-4-8.3-11.6-22-18.3c-15.3-7.5-33.1-11.3-52.8-11.3v0c0,0,0,0,0,0c0,0,0,0,0,0v0
			c-19.7,0-37.4,3.8-52.8,11.3c-13.7,6.7-19.7,14.3-22,18.3l-1,1.3l11.8,2.6l0.4-0.5l0.2-0.4c0.2-0.8,1.8-5,14.9-11.4
			c14-6.8,30.4-10.3,48.6-10.3c18.2,0,34.6,3.5,48.6,10.3c13.1,6.4,14.7,10.6,14.9,11.4l0.2,0.4l0.4,0.5l11.8-2.6L250.9,65.4z"/>
		<g>
			<g>
				<path fill="#463014" d="M266.3,67.1c6.3-5.2,1.6-10.1,2.1-16c0.3-3.2,0.5-6.1,1.6-7.8c5.8-9.2,19.5-11.9,19.6-12l6.4-1.3l-4.3-5
					c-0.6-0.6-18-17.3-45-8.6c-18.9,6.1-32.9,26.8-33.4,27.6l9.5,4.5c0.1-0.2,11.2-19.6,27.4-24.8c13.1-4.2,25.2-0.2,30.4,2.4
					c-5.5,2.2-12.7,6.2-17,13c-2,3.2-2.4,7.3-2.7,11.2c-0.4,5.2-0.9,10.1-4.7,13.3L266.3,67.1z"/>
			</g>
			<g>
				<path fill="#463014" d="M254.2,64.1l1.3-1.1c3.5-2.9,3.9-7.7,4.4-12.7c0.3-4,0.7-8.2,2.9-11.7c4-6.3,10.3-10.2,15.5-12.6
					c-3.1-1.3-9-3.3-16.2-3.3c-4,0-7.9,0.6-11.6,1.8c-15,4.9-25.7,22.4-26.9,24.4l-0.5,0.7L212,44.5l0.6-0.9
					c0.1-0.2,14.2-21.6,33.9-28c5.3-1.7,10.6-2.6,15.8-2.6c19,0,30.2,11.3,30.3,11.4l5.3,6.2l-8,1.6c-0.1,0-13.5,2.8-19,11.5
					c-0.9,1.5-1.2,4.3-1.4,7.4c-0.2,1.8,0.2,3.6,0.6,5.3c0.8,3.7,1.6,7.5-3,11.4l-0.4,0.3L254.2,64.1z"/>
			</g>
		</g>
		<g>
			<g>
				<path fill="#463014" d="M241.3,57.2c0,0,2.5-11.1,9.6-16.8c9.9-7.9,22.1-3.7,22.2-3.7l1.8-5.4c-0.6-0.2-14.5-4.6-27.3,4.4
					c-12.9,9-14.4,17.2-14.6,18.2L241.3,57.2z"/>
			</g>
			<g>
				<path fill="#463014" d="M232,54.5l0.1-0.7c0.1-0.9,1.8-9.5,14.9-18.8c5.4-3.8,11.9-5.8,18.8-5.8c5.2,0,8.9,1.1,9.3,1.3l0.9,0.3
					l-2.4,7.3l-0.9-0.3c-0.3-0.1-3.4-1.1-7.5-1.1c-5.3,0-9.9,1.6-13.8,4.6c-6.7,5.4-9.2,16.1-9.3,16.2l-0.2,1.1L232,54.5z
					 M272.5,35.6l1.2-3.6c-1.4-0.4-4.2-0.9-7.8-0.9c-6.6,0-12.5,1.8-17.7,5.5c-10.8,7.6-13.4,14.5-14,16.8l6.5,2.6
					c0.9-3,3.7-11.4,9.7-16.2c4.1-3.3,9.3-5,15-5C268.5,34.7,271.1,35.2,272.5,35.6z"/>
			</g>
		</g>
		<path fill="#463014" d="M199.2,292.6c-4.9-5.3-7.8-10.9-8.5-12.7c-0.4-1-0.9-2.9,0.6-4.4c1.1-1.1,3.1-1.7,5.8-1.7h4.2
			c4.4,0,9.5,0,12.5,0l2.5,0c3.6,0,5.3,1,6.2,1.9c1.2,1.2,1.4,3,0.6,5.2c-2.3,5.8-7.4,10.6-9,11.9c-2,1.7-4.9,2.8-7.7,2.8l0,0
			C203.6,295.5,201,294.4,199.2,292.6z"/>
		<path fill="#463014" d="M203.5,147.6l10.2-0.7c0,0-2.6,4.6-4.3,10.5c-1.9,6.7,1.7,16.5,1.7,16.5S197.6,158.6,203.5,147.6z"/>
		<path fill="#E78724" d="M176.1,111.2c-6.5,0-14.9-0.2-21.3-4.7c0,0,8.3,14.6,21.3,14.6l0-1.8l0,1.8c13,0,21.3-14.6,21.3-14.6
			C191,111,182.6,111.2,176.1,111.2z"/>
		<path fill="#463014" d="M194,111.1c-6.5,3.9-12.3,5.3-17.9,5.4c-5.5-0.1-11.4-1.5-17.9-5.4c0,0,9.5,11.6,17.8,11.7v0c0,0,0,0,0,0
			c0,0,0,0,0,0v0C184.5,122.7,194,111.1,194,111.1z"/>
		<g>
			<path fill="#463014" d="M216.2,322.4l-0.7-9.4c30.6-2.4,40.2-31.6,40.2-34.7h9.5C265.2,285.3,252.4,319.6,216.2,322.4z"/>
		</g>
		<path fill="#FFFFFF" d="M226.4,261c0.6-3.3,0.6-6.4-0.1-9.4c2.8-2.1,7.7-2.8,11.4-4c3-1.9,18.6,2,29.8-11.7
			c14.1-17.1,11.1-27.2,11.1-27.2c3.6,4,7.1,2.5,12.6,21.2c5.5,18.7-2.6,31.8-17.7,44.9c-7.1,6.2-17.2,8.7-25.9,9.7
			c2.9-2.9-5-3.2-10.4-5.2c0.4-4.4-0.3-8.6-3.6-12.1c-2-2.1-4.5-3.3-7.1-4.3c-0.1-0.3-0.3-0.7-0.4-1
			C226.3,261.6,226.3,261.3,226.4,261z"/>
		<path fill="#C9C9C9" d="M237.3,279.1c0.3-0.9,0.6-1.9,0.8-2.8c0.3-1,1.5-4,0-0.6c0.4-0.9,0.7-1.7,0.8-2.6
			c24.5,0,45.8-16.8,41.7-52.2c3.2-4.3,7.7,8.6,7.7,8.6s12.3,35.6-19.4,49.4c-10.5,4.6-19.9,7.9-22.1,6.6c-4.6,0.9-8.7-2.3-10.3-4.4
			C236.9,280.4,237.1,279.8,237.3,279.1z"/>
		<path fill="#463014" d="M226.8,255.9c0-3-0.6-5.9-2.1-8.8c-0.1-0.2-0.2-0.4-0.3-0.6c9.4-0.1,20.3-1,29.5-4.7
			c10.2-4.1,22.9-18,25-34.3c0,0,19.1,14.8,13.5,46.3c-5.3,29.7-30.1,39.3-58.4,41c0-0.2,3.2-6.8,2.2-10.8c16.1,1.2,34-5,42.7-19.3
			c7.9-13.1,5.7-35.4,2.4-38.6C273.5,251.2,244.8,256.3,226.8,255.9z"/>
		<g>
			<path fill="#463014" d="M176,294.8"/>
			<path fill="#463014" d="M238.3,263.3c-3.4-3.7-9.6-8-23.9-8c0,0-27.2,0-38.2,0l0,0c0,0,0,0,0,0c0,0,0,0,0,0l0,0
				c-11,0-38.2,0-38.2,0c-14.3,0-20.6,4.4-23.9,8c-4.9,5.3-5.7,12.7-2.3,22c9.1,24.6,21.8,49.6,64.4,49.7v0c0,0,0,0,0,0c0,0,0,0,0,0
				v0c42.6,0,55.4-25.1,64.4-49.7C244,276.1,243.2,268.7,238.3,263.3z M231.6,283.6c-4.3,12.4-15.9,42.3-55.5,42.4
				c-39.6-0.1-51.2-30-55.5-42.4c-2.4-6.9-2.2-11.9,0.6-15.1c1.9-2.2,6.2-4.7,16.1-4.7l10.3,0c7.6,0,17.2,0,28.5,0
				c11.3,0,20.9,0,28.5,0l10.3,0c9.9,0,14.2,2.6,16.1,4.7C233.8,271.6,234,276.7,231.6,283.6z"/>
		</g>
		<path fill="#463014" d="M223.9,237.9c5.1,14.9,15.5,27,15.5,27s-14.3-0.7-15.1-3.2c-0.6-1.9-12.9-30.8-17.7-64.6
			C211.1,204.5,223.4,236.6,223.9,237.9z"/>
	</g>
</g>
</svg>
