<?xml version="1.0" encoding="utf-8"?>
<!-- Generator: Adobe Illustrator 18.0.0, SVG Export Plug-In . SVG Version: 6.00 Build 0)  -->
<!DOCTYPE svg PUBLIC "-//W3C//DTD SVG 1.1//EN" "http://www.w3.org/Graphics/SVG/1.1/DTD/svg11.dtd">
<svg version="1.1" id="Layer_1" xmlns="http://www.w3.org/2000/svg" xmlns:xlink="http://www.w3.org/1999/xlink" x="0px" y="0px"
	 viewBox="0 0 190.8 100.8" enable-background="new 0 0 190.8 100.8" xml:space="preserve">
<g>
	<polygon fill="#C3002F" points="73.7,0 73.7,45 103.4,45 103.4,32.4 86.3,32.4 86.3,12.6 106.1,12.6 106.1,29.7 118.7,29.7 
		118.7,0 	"/>
	<rect x="106.1" y="32.4" fill="#99999A" width="12.6" height="12.6"/>
	<g>
		<path fill="#99999A" d="M0,90.1c0-6.3,4.7-10.9,10.6-10.9c3.6,0,6.4,1.5,8.3,4l-1.5,1.1c-1.6-2.1-3.8-3.3-6.7-3.3
			c-4.9,0-8.5,3.9-8.5,9.1c0,5.2,3.7,9.1,8.7,9.1c3,0,5.5-1.3,7.1-3.5l1.6,1.1c-2.1,2.8-5,4.3-8.8,4.3C4.7,101,0,96.4,0,90.1"/>
		<path fill="#99999A" d="M35.3,100.8h-2V79.4h6.3c4.5,0,7,2.8,7,6.4c0,2.9-1.6,5.1-4.5,5.9l5.5,9h-2.3L40,92h-0.5h-4.2V100.8z
			 M39.4,90.3c3.4,0,5-1.7,5-4.5c0-2.8-1.6-4.6-5-4.6h-4.1v9H39.4z"/>
		<polygon fill="#99999A" points="61.1,79.4 73.7,79.4 73.7,81.2 63.1,81.2 63.1,89.1 72.6,89.1 72.6,90.9 63.1,90.9 63.1,98.9 
			74.2,98.9 74.2,100.8 61.1,100.8 		"/>
		<path fill="#99999A" d="M88.2,79.4h5.3c7,0,11.1,4.4,11.1,10.7c0,6.3-4.1,10.7-11.1,10.7h-5.3V79.4z M93.3,98.9
			c6.2,0,9.2-3.6,9.2-8.8c0-5.2-3-8.8-9.2-8.8h-3.1v17.6H93.3z"/>
		<polygon fill="#99999A" points="118.6,79.4 131.3,79.4 131.3,81.2 120.6,81.2 120.6,89.1 130.2,89.1 130.2,90.9 120.6,90.9 
			120.6,98.9 131.7,98.9 131.7,100.8 118.6,100.8 		"/>
		<path fill="#99999A" d="M147.8,100.8h-2V79.4h6.3c4.5,0,7,2.8,7,6.4c0,2.9-1.6,5.1-4.5,5.9l5.5,9h-2.3l-5.3-8.7H152h-4.2V100.8z
			 M151.9,90.3c3.4,0,5-1.7,5-4.5c0-2.8-1.6-4.6-5-4.6h-4.1v9H151.9z"/>
		<path fill="#99999A" d="M186.5,95.5H177l-2.1,5.3h-2l8.8-21.8h0.2l8.9,21.8h-2.1L186.5,95.5z M177.8,93.7h8l-4-10.1L177.8,93.7z"
			/>
	</g>
</g>
</svg>
