<svg
  xmlns="http://www.w3.org/2000/svg"
  viewBox="0 0 1080 409.16"
  x="0px"
  y="0px"
  enable-background="new 0 0 332 78"
  style="color: black; fill: black"
>
  <path
    d="M661.23,127.7c-2,0-4.6-3.3-4.6-5.77V86.43c0-2.47,2.63-5.78,4.6-5.78H855.84c2,0,4.6,3.31,4.6,5.78v35.5c0,2.47-2.63,5.77-4.6,5.77H783.52V323.34c0,2.47-2,5-3.95,5H738.81c-2,0-3.94-2.48-3.94-5V127.7Z"
  />
  <path
    d="M950.06,178h3.43l69-94.16a7.85,7.85,0,0,1,7.23-3.72l47.34,0a2.72,2.72,0,0,1,3,2.88c0,1.65-.33,2.48-1.64,4.13L993,204.53l85.39,116.23c1.32,1.65,1.65,2.47,1.65,4.13a2.72,2.72,0,0,1-3,2.88H1029.7a7.84,7.84,0,0,1-7.23-3.71l-69-94.1h-3.38v92.55c0,2.48-2,5.78-3.95,5.78H905.35c-2,0-3.94-2.48-3.94-5V85.61c0-2.48,2-5,3.94-5h40.76c2,0,3.95,2.48,3.95,5Z"
  />
  <path
    d="M554.72,281.24H652c2,0,4.6,3.3,4.6,5.78v35.49c0,2.48-2.63,5.78-4.6,5.78H510c-2,0-3.95-2.48-3.95-5V85.61c0-2.48,2-5,3.95-5h40.76c2,0,3.94,2.48,3.94,5Z"
  />
  <path
    d="M204.83,409.16A206.33,206.33,0,0,1,138.1,398a2.3,2.3,0,0,1-.88-3.8L191,340.29a2.25,2.25,0,0,1,1.82-.67,136.86,136.86,0,0,0,98.44-30.73,2.3,2.3,0,0,1,3.69,1.18l17.56,66.43a2.3,2.3,0,0,1-1,2.55A203.92,203.92,0,0,1,204.83,409.16Z"
  />
  <path
    d="M402.71,165.17a2.08,2.08,0,0,1-.55-.07L328.46,147a2.34,2.34,0,0,1-1.54-1.27C312.73,115.14,284.06,89,252.11,77.37a2.3,2.3,0,0,1-.85-3.78L299.51,24.9a2.29,2.29,0,0,1,2.7-.42c51.51,26.91,91.85,81.07,102.76,138a2.3,2.3,0,0,1-2.26,2.73Z"
  />
  <path
    d="M335.85,360.89a2.35,2.35,0,0,1-.69-.1,2.31,2.31,0,0,1-1.53-1.61l-19.38-73.33a2.27,2.27,0,0,1,.37-1.94c21.89-30,30.53-69.5,23.12-105.7a2.3,2.3,0,0,1,2.8-2.7l66.71,16.43A2.29,2.29,0,0,1,409,194c3.59,62.51-23.87,126.24-71.66,166.32A2.3,2.3,0,0,1,335.85,360.89Z"
  />
  <path
    d="M116.06,101a2.33,2.33,0,0,1-.68-.1,2.29,2.29,0,0,1-1.53-1.58l-18.5-66a2.3,2.3,0,0,1,1-2.57C148.64-1.85,214.72-9,273.11,11.58a2.3,2.3,0,0,1,.87,3.79L221,68.89a2.32,2.32,0,0,1-1.87.67,136.44,136.44,0,0,0-101.54,30.88A2.3,2.3,0,0,1,116.06,101Z"
  />
  <path
    d="M109.8,385.58a2.28,2.28,0,0,1-1-.25C56,358.46,13.74,301.26,3.7,243a2.31,2.31,0,0,1,2.86-2.61L80,260a2.29,2.29,0,0,1,1.51,1.29c14.32,32.23,44.12,59.44,77.77,71a2.3,2.3,0,0,1,.88,3.8l-48.68,48.81A2.3,2.3,0,0,1,109.8,385.58Z"
  />
  <path
    d="M68.9,231.25a2,2,0,0,1-.59-.08L1.86,213.42a2.29,2.29,0,0,1-1.71-2.13c-2.42-61.49,24-121.91,70.6-161.63a2.29,2.29,0,0,1,3.7,1.13l20.36,72.6a2.28,2.28,0,0,1-.36,2c-21.22,29.22-29.93,67.78-23.29,103.17a2.31,2.31,0,0,1-.7,2.11A2.29,2.29,0,0,1,68.9,231.25Z"
  />
  <path
    d="M204.86,288.51a2.28,2.28,0,0,1-1.53-.59L124.45,217a2.27,2.27,0,0,1-.77-1.71V168.85a2.3,2.3,0,0,1,.77-1.71l35.38-31.8a2.28,2.28,0,0,1,3.07,0l42,37.73,42-37.73a2.28,2.28,0,0,1,3.07,0l35.39,31.8a2.33,2.33,0,0,1,.76,1.71v46.44a2.33,2.33,0,0,1-.76,1.72L206.4,287.92A2.3,2.3,0,0,1,204.86,288.51Z"
  />
</svg>
