<svg xmlns="http://www.w3.org/2000/svg" viewBox="0 0 332 78">
  <g>
    <path
      d="M1.267 23.133h3.435v3.82c1.024-1.505 2.104-2.629 3.243-3.376 1.138-.744 2.322-1.117 3.556-1.117.929 0 1.921.296 2.979.889l-1.754 2.835c-.705-.304-1.298-.457-1.777-.457-1.122 0-2.202.459-3.243 1.382-1.042.922-1.835 2.35-2.38 4.287-.416 1.489-.624 4.501-.624 9.033v8.84h-3.435v-26.136z"
    />
    <path
      d="M39.596 40.599l2.833 1.49c-.93 1.826-2.004 3.299-3.222 4.42-1.219 1.121-2.588 1.975-4.112 2.559-1.522.584-3.246.877-5.169.877-4.265 0-7.598-1.396-10.004-4.191-2.403-2.797-3.605-5.955-3.605-9.479 0-3.313 1.017-6.27 3.054-8.864 2.58-3.298 6.034-4.949 10.363-4.949 4.456 0 8.014 1.69 10.675 5.069 1.891 2.387 2.854 5.366 2.886 8.937h-23.519c.063 3.037 1.034 5.525 2.91 7.466 1.877 1.941 4.192 2.912 6.95 2.912 1.332 0 2.626-.23 3.885-.693s2.328-1.078 3.211-1.844c.882-.767 1.836-2.005 2.864-3.71zm0-7.04c-.45-1.793-1.104-3.227-1.963-4.299-.858-1.073-1.993-1.938-3.402-2.595-1.412-.657-2.895-.985-4.45-.985-2.566 0-4.77.825-6.614 2.475-1.348 1.201-2.366 3.003-3.054 5.404h19.483z"
    />
    <path
      d="M44.808 23.133h3.461l8.01 18.979 8.34-18.979h.609l8.395 18.979 8.167-18.979h3.498l-11.356 26.138h-.624l-8.357-18.714-8.354 18.714h-.626l-11.163-26.138z"
    />
    <path
      d="M113.984 23.133v26.137h-3.316v-4.492c-1.408 1.715-2.989 3.004-4.743 3.869-1.753.863-3.673 1.297-5.754 1.297-3.7 0-6.857-1.342-9.477-4.025-2.618-2.684-3.93-5.945-3.93-9.789 0-3.763 1.321-6.982 3.965-9.658 2.642-2.674 5.821-4.011 9.536-4.011 2.147 0 4.089.456 5.828 1.369 1.736.914 3.262 2.282 4.574 4.108v-4.805h3.317zm-13.442 2.571c-1.872 0-3.599.459-5.183 1.381-1.584.918-2.843 2.211-3.78 3.875-.936 1.665-1.404 3.422-1.404 5.28 0 1.839.473 3.599 1.417 5.277.945 1.68 2.211 2.99 3.802 3.924 1.592.938 3.301 1.404 5.124 1.404 1.84 0 3.584-.465 5.23-1.393 1.648-.926 2.916-2.182 3.805-3.766.888-1.584 1.331-3.367 1.331-5.352 0-3.023-.995-5.55-2.986-7.583-1.992-2.03-4.444-3.047-7.356-3.047z"
    />
    <path
      d="M119.563 23.133h3.437v3.82c1.024-1.505 2.105-2.629 3.242-3.376 1.138-.744 2.322-1.117 3.556-1.117.929 0 1.921.296 2.979.889l-1.753 2.835c-.706-.304-1.297-.457-1.779-.457-1.12 0-2.2.459-3.241 1.382-1.043.922-1.835 2.35-2.379 4.287-.417 1.489-.624 4.501-.624 9.033v8.84h-3.437v-26.136z"
    />
    <path
      d="M161.602 13.044v36.227h-3.315v-4.492c-1.409 1.715-2.992 3.004-4.744 3.869-1.755.863-3.672 1.297-5.754 1.297-3.7 0-6.86-1.342-9.477-4.025-2.619-2.684-3.929-5.945-3.929-9.789 0-3.763 1.322-6.982 3.964-9.658 2.643-2.674 5.821-4.011 9.536-4.011 2.146 0 4.088.456 5.826 1.369 1.737.914 3.265 2.282 4.577 4.108v-14.895h3.316zm-13.441 12.66c-1.873 0-3.601.459-5.184 1.381-1.583.918-2.842 2.211-3.779 3.875-.936 1.665-1.403 3.422-1.403 5.28 0 1.839.472 3.599 1.416 5.277.942 1.68 2.21 2.99 3.804 3.924 1.59.938 3.298 1.404 5.121 1.404 1.84 0 3.583-.465 5.231-1.393 1.648-.926 2.916-2.182 3.804-3.766s1.332-3.367 1.332-5.352c0-3.023-.995-5.55-2.988-7.583-1.992-2.03-4.444-3.047-7.354-3.047z"
    />
    <path
      d="M171.782 39.557c3.98 10.502 11.858 16.473 19.338 16.473 6.526 0 10.107-4.695 10.107-9.789 0-2.146-.718-5.014-2.945-7.241-5.889-5.812-15.835-4.537-22.52-11.222-2.625-2.626-4.456-6.366-4.456-11.141 0-7.879 5.489-14.402 13.527-14.402 5.888 0 10.186 3.184 12.571 3.184 1.752 0 3.662-1.115 4.698-3.024h.792l.798 15.12h-.716c-1.034-1.751-2.786-5.093-5.887-8.199-3.663-3.66-7.96-5.806-12.098-5.806-3.581 0-9.074 1.749-9.074 8.595 0 2.227.877 4.693 2.629 6.444 5.967 5.968 17.188 4.536 24.668 12.016 2.468 2.468 3.9 6.208 3.9 10.506 0 10.266-6.445 16.312-15.837 16.312-6.205 0-9.628-3.023-13.447-3.023-3.263 0-5.015 1.99-6.366 3.104h-.717v-17.907h1.035z"
    />
    <path
      d="M208.113 22.846h6.923v-12.495l6.288-2.466v14.961h11.618v2.307h-11.618v21.168c-.159 5.17 1.91 8.674 5.411 8.674 4.694 0 7.243-5.172 7.162-9.869h1.432v1.115c0 6.285-4.375 10.982-10.584 10.982-3.5 0-9.945-2.07-9.709-10.584v-21.566h-6.923v-2.227z"
    />
    <path
      d="M235.907 22.846h17.984v1.353h-2.863c-1.513 0-2.549.238-2.549 1.352 0 .398.16.876.397 1.432l10.664 23.237 7.561-18.144c.558-1.354.796-2.466.796-3.502 0-2.864-1.99-4.375-4.219-4.375h-1.593v-1.353h15.28v1.273c-4.775 0-6.605 3.023-8.912 8.594l-13.211 31.591c-3.025 7.162-5.252 11.461-11.854 11.461-3.265 0-6.129-1.674-6.129-5.254 0-2.227 1.832-4.297 4.138-4.297 2.626 0 4.3 1.912 4.3 4.061 0 1.354-.64 2.865-2.151 4.057 3.901.637 7.162-2.785 9.15-7.639l3.425-8.275-14.565-31.593c-1.035-2.149-1.83-2.625-4.059-2.625h-1.59v-1.354z"
    />
    <path
      d="M279.528 55.153c1.831 0 2.787-.637 2.787-2.945v-42.493c0-3.58-1.035-5.331-4.774-5.331h-1.434v-1.354c4.776 0 8.035-.238 12.497-.717v49.895c0 2.389.952 2.945 2.781 2.945h3.106v1.354h-17.988v-1.354h3.025z"
    />
    <path
      d="M327.763 49.425c-4.059 5.57-8.597 7.957-14.404 7.957-9.787 0-15.836-8.754-15.836-17.27 0-9.549 6.925-17.666 16.552-17.666 7.24 0 13.45 6.048 13.928 14.245h-23.157v4.458c0 9.785 4.615 14.324 10.503 14.324 4.615 0 8.356-2.469 11.299-6.766l1.115.718zm-7.561-13.926c.796-1.833 1.113-3.423 1.113-4.778 0-4.694-3.819-7-7.079-7-4.856 0-9.151 3.66-9.391 11.777h15.357z"
    />
    <path
      d="M326.927 26.406v-2.98h1.323c.266 0 .467.027.605.081.139.053.249.148.329.283.085.135.126.286.126.45 0 .211-.067.388-.206.533-.138.146-.35.237-.634.276l.238.149c.114.106.222.238.327.397l.517.811h-.495l-.394-.621-.284-.411c-.075-.094-.142-.161-.2-.199l-.182-.08-.217-.013h-.46v1.323h-.393zm.395-1.666h.848c.181 0 .32-.017.422-.055.102-.037.18-.096.232-.179.054-.082.081-.171.081-.267 0-.142-.053-.258-.154-.347-.103-.092-.266-.138-.486-.138h-.942v.986z"
    />
    <path
      d="M328.002 27.647c-1.507 0-2.732-1.227-2.732-2.732 0-1.506 1.226-2.731 2.732-2.731s2.731 1.225 2.731 2.731c.001 1.506-1.224 2.732-2.731 2.732zm0-5.117c-1.316 0-2.386 1.07-2.386 2.385 0 1.314 1.069 2.384 2.386 2.384 1.314 0 2.385-1.07 2.385-2.384 0-1.315-1.07-2.385-2.385-2.385z"
    />
  </g>
</svg>
