<?xml version="1.0" encoding="utf-8"?>
<!-- Generator: Adobe Illustrator 18.0.0, SVG Export Plug-In . SVG Version: 6.00 Build 0)  -->
<!DOCTYPE svg PUBLIC "-//W3C//DTD SVG 1.1//EN" "http://www.w3.org/Graphics/SVG/1.1/DTD/svg11.dtd">
<svg version="1.1" id="Layer_1" xmlns="http://www.w3.org/2000/svg" xmlns:xlink="http://www.w3.org/1999/xlink" x="0px" y="0px"
	 viewBox="0 0 215.5 130.2" enable-background="new 0 0 215.5 130.2" xml:space="preserve">
<path fill="#0097CF" d="M49.3,119.1H43c-2.4,0-4.3-1.9-4.3-4.3V64.1h10.6V119.1z"/>
<path fill="#0097CF" d="M92.3,119.1h-6.1c-2.4,0-4.3-1.9-4.3-4.3v-0.1c-2.6,3.2-6.4,5.4-11.8,5.4c-10.9,0-19.1-8.9-19.1-20.8
	c0-11.9,8.2-20.8,19.1-20.8c5.4,0,9.2,2.2,11.8,5.4v-4.4h10.4V119.1z M61.9,99.4c0,6,4,10.9,10.2,10.9c6.1,0,10.2-4.6,10.2-10.9
	c0-6.2-4.1-10.9-10.2-10.9C65.9,88.5,61.9,93.4,61.9,99.4z"/>
<path fill="#0097CF" d="M105.8,119.1h-6.3c-2.4,0-4.3-1.9-4.3-4.3V64.1h10.6V119.1z"/>
<path fill="#0097CF" d="M150.1,99.4c0,11.9-9.1,20.8-21.4,20.8c-12.3,0-21.3-8.9-21.3-20.8c0-11.9,9-20.8,21.3-20.8
	C141,78.6,150.1,87.5,150.1,99.4z M118.3,99.4c0,6.4,4.5,10.9,10.5,10.9c6,0,10.5-4.5,10.5-10.9c0-6.4-4.5-10.9-10.5-10.9
	C122.8,88.5,118.3,93,118.3,99.4z"/>
<g>
	<path fill="#0097CF" d="M215.5,94v25.1h-6.3c-2.4,0-4.3-1.9-4.3-4.3V97.4c0-5.7-2.9-8.8-7.7-8.8c-4.6,0-8.4,3-8.4,8.9v21.6h-6.3
		c-2.4,0-4.3-1.9-4.3-4.3V97.4c0-5.7-2.9-8.8-7.7-8.8c-4.6,0-8.4,3-8.4,8.9v21.6h-6.3c-2.4,0-4.3-1.9-4.3-4.3V79.7h10.3v4.6
		c2.8-4.2,7.1-5.7,11.6-5.7c5.7,0,10.4,2.6,13,6.8c3.1-5,8.2-6.8,13.4-6.8C209.2,78.6,215.5,84.8,215.5,94z"/>
</g>
<g>
	<path fill="#0097CF" d="M34.1,87.7c-1,2.1-3.4,3-5.5,2.2c-3.1-1.2-7.1-2.3-11-2.4c-4-0.1-5.9,1.3-5.9,3.5c0,2.3,2.2,2.9,5.8,3.5
		l4.8,0.6c8.6,1,15,5.1,14.9,12.5c-0.1,8.2-6.8,12.9-20.1,12.7c-5.4-0.1-12-1.6-17.5-5l3.7-8.2c2.6,1.4,8,4.2,13.9,4.3
		c5.9,0.1,8.9-0.9,9-3.8c0-2.8-3.8-3-8.9-3.7l-2.3-0.3C3.3,101.7,0.4,97.3,0.6,91c0.1-8.2,7.9-12.4,17.2-12.3
		c7.1,0.1,13.1,2,18.3,4.6L34.1,87.7z"/>
</g>
</svg>
