<svg
  xmlns="http://www.w3.org/2000/svg"
  xmlns:xlink="http://www.w3.org/1999/xlink"
  viewBox="0 0 220 75"
>
  <style type="text/css">
    .st0 {
      fill: #2372b8;
    }
  </style>
  <path class="st0" d="M51.8,65h-6.3c-2.4,0-4.3-1.9-4.3-4.3V9.9h10.6V65z" />
  <path
    class="st0"
    d="M94.8,65h-6.1c-2.4,0-4.3-1.9-4.3-4.3v-0.1c-2.6,3.2-6.4,5.4-11.8,5.4c-10.9,0-19.1-8.9-19.1-20.8
	c0-11.9,8.2-20.8,19.1-20.8c5.4,0,9.2,2.2,11.8,5.4v-4.4h10.4V65z M64.4,45.2c0,6,4,10.9,10.2,10.9c6.1,0,10.2-4.6,10.2-10.9
	c0-6.2-4.1-10.9-10.2-10.9C68.4,34.3,64.4,39.2,64.4,45.2z"
  />
  <path class="st0" d="M108.3,65h-6.3c-2.4,0-4.3-1.9-4.3-4.3V9.9h10.6V65z" />
  <path
    class="st0"
    d="M152.6,45.2c0,11.9-9.1,20.8-21.4,20.8c-12.3,0-21.3-8.9-21.3-20.8c0-11.9,9-20.8,21.3-20.8
	C143.5,24.4,152.6,33.3,152.6,45.2z M120.8,45.2c0,6.4,4.5,10.9,10.5,10.9c6,0,10.5-4.5,10.5-10.9c0-6.4-4.5-10.9-10.5-10.9
	C125.2,34.3,120.8,38.8,120.8,45.2z"
  />
  <g>
    <path
      class="st0"
      d="M218,39.8V65h-6.3c-2.4,0-4.3-1.9-4.3-4.3V43.3c0-5.7-2.9-8.8-7.7-8.8c-4.6,0-8.4,3-8.4,8.9V65H185
		c-2.4,0-4.3-1.9-4.3-4.3V43.3c0-5.7-2.9-8.8-7.7-8.8c-4.6,0-8.4,3-8.4,8.9V65h-6.3c-2.4,0-4.3-1.9-4.3-4.3V25.5h10.3v4.6
		c2.8-4.2,7.1-5.7,11.6-5.7c5.7,0,10.4,2.6,13,6.8c3.1-5,8.2-6.8,13.4-6.8C211.7,24.4,218,30.7,218,39.8z"
    />
  </g>
  <g>
    <path
      class="st0"
      d="M36.6,33.5c-1,2.1-3.4,3-5.5,2.2c-3.1-1.2-7.1-2.3-11-2.4c-4-0.1-5.9,1.3-5.9,3.5c0,2.3,2.2,2.9,5.8,3.5
		l4.8,0.6c8.6,1,15,5.1,14.9,12.5c-0.1,8.2-6.8,12.9-20.1,12.7c-5.4-0.1-12-1.6-17.5-5l3.7-8.2c2.6,1.4,8,4.2,13.9,4.3
		c5.9,0.1,8.9-0.9,9-3.8c0-2.8-3.8-3-8.9-3.7l-2.3-0.3C5.8,47.6,2.9,43.2,3,36.8c0.1-8.2,7.9-12.4,17.2-12.3
		c7.1,0.1,13.1,2,18.3,4.6L36.6,33.5z"
    />
  </g>
</svg>
