<svg xmlns="http://www.w3.org/2000/svg" viewBox="0 0 253.3 276.7">
  <polygon
    fill="#1C3F94"
    points="107.7,53 84.3,11 116.3,33.7 146.3,9.7 127,53 "
  />
  <polygon
    fill="#1C3F94"
    points="113.7,223.8 90.3,265.8 122.3,243.2 152.3,267.2 133,223.8 "
  />
  <polygon
    fill="#1C3F94"
    points="191.9,86.5 218.5,46.5 213.1,85.3 248.2,100.9 200.8,103.7 "
  />
  <polygon
    fill="#1C3F94"
    points="200.8,177.2 229.1,216 222,177.4 256.4,160.3 208.9,159.6 "
  />
  <polygon
    fill="#1C3F94"
    points="51.1,177.1 26.2,218.3 30,179.2 -5.7,165.1 41.5,160.4 "
  />
  <polygon
    fill="#1C3F94"
    points="55,88.5 28.5,48.5 33.9,87.3 -1.2,102.9 46.1,105.7 "
  />
  <g>
    <path
      fill="#FFDD00"
      d="M24.7,75.7c0,6.1-4.9,11-11,11s-11-4.9-11-11c0-6.1,4.9-11,11-11S24.7,69.6,24.7,75.7"
    />
    <path
      fill="#FFDD00"
      d="M126.7,11c0,6.1-4.9,11-11,11c-6.1,0-11-4.9-11-11s4.9-11,11-11C121.7,0,126.7,4.9,126.7,11"
    />
    <path
      fill="#FFDD00"
      d="M243.3,74.3c0,6.1-4.9,11-11,11s-11-4.9-11-11c0-6.1,4.9-11,11-11S243.3,68.3,243.3,74.3"
    />
    <path
      fill="#FFDD00"
      d="M253.3,187.7c0,6.1-4.9,11-11,11s-11-4.9-11-11c0-6.1,4.9-11,11-11S253.3,181.6,253.3,187.7"
    />
    <path
      fill="#FFDD00"
      d="M134,265.7c0,6.1-4.9,11-11,11c-6.1,0-11-4.9-11-11c0-6.1,4.9-11,11-11C129.1,254.7,134,259.6,134,265.7"
    />
    <path
      fill="#FFDD00"
      d="M22,191c0,6.1-4.9,11-11,11s-11-4.9-11-11s4.9-11,11-11S22,184.9,22,191"
    />
    <path
      fill="#FFFFFF"
      d="M124.3,221.7c-45.8,0-83-37.2-83-83c0-45.8,37.2-83,83-83c45.8,0,83,37.2,83,83
    C207.3,184.4,170.1,221.7,124.3,221.7"
    />
    <path
      fill="#FFDD00"
      d="M124.3,61.7c42.5,0,77,34.5,77,77s-34.5,77-77,77s-77-34.5-77-77S81.9,61.7,124.3,61.7 M124.3,49.7
    c-49.2,0-89,39.8-89,89c0,49.2,39.8,89,89,89c49.2,0,89-39.8,89-89C213.3,89.5,173.5,49.7,124.3,49.7"
    />
    <path
      fill="#1C3F94"
      d="M59.3,118.7c0,0,5.3-18.7,7-19.7c0,0,13.3-12,26-20v18.7l-9.7,6c0,0-0.7,70.7,3.3,92c0,0-8.7-4.3-10.3-6.3
    c0,0-6.3-34.3-4.7-78C71,111.3,60.3,117.3,59.3,118.7"
    />
    <path
      fill="#1C3F94"
      d="M94.3,79l0.3,121l14.3,4.3c0,0,11.7,5,13.3-15s3.3-41.3-6-51.3c0,0,6.7-7.7,5.7-32.3
    c-1-24.7-4.3-35-18.7-30.3L94.3,79z"
    />
    <path
      fill="#1C3F94"
      d="M125,72v128c0,0-1.3,4.7,3.3,5c4.7,0.3,7-0.7,7-0.7l0.7-53.7c0,0,7.7-3.7,7.7,12.3s0.7,38.3,0.7,38.3
    s5.7-1,10-3.7l-0.3-44.3c0,0,1-9.7-6.3-14.3c0,0,6.3-6.7,5-28.3C151.3,89,150.7,72,125,72"
    />
    <path
      fill="#1C3F94"
      d="M156,109.7l1.7,74.7c0,0,0.7,10.7,6.3,10c5.7-0.7,21.7-13.3,20-58.7c0,0,0.3-34.3-11-45.7
    c-11.3-11.3-16.7-7-17,1.7S156,109.7,156,109.7"
    />
    <path
      fill="#FFFFFF"
      d="M103.7,96.7l0.3,30.7c0,0,10.3,2.7,9-16.3C113,111,113,91.3,103.7,96.7"
    />
    <path
      fill="#FFFFFF"
      d="M104.3,148v35c0,0,11.3,4,10-15.7C114.3,167.3,115.3,145.3,104.3,148"
    />
    <path
      fill="#FFFFFF"
      d="M166,138.3l-0.7-31.3c0,0-0.3-12.3,6-1c0,0,8.3,30.5,2,57.7c-5.7,24.3-7.3,4.3-7.3,4.3V138.3z"
    />
    <path
      fill="#FFFFFF"
      d="M134.7,129V95c0,0,9.3-1.3,9,17.3C143.3,131,139.3,129.3,134.7,129"
    />
  </g>
</svg>
