<?xml version="1.0" encoding="utf-8"?>
<!-- Generator: Adobe Illustrator 18.0.0, SVG Export Plug-In . SVG Version: 6.00 Build 0)  -->
<!DOCTYPE svg PUBLIC "-//W3C//DTD SVG 1.1//EN" "http://www.w3.org/Graphics/SVG/1.1/DTD/svg11.dtd">
<svg version="1.1" id="Layer_1" xmlns="http://www.w3.org/2000/svg" xmlns:xlink="http://www.w3.org/1999/xlink" x="0px" y="0px"
	 viewBox="0 0 330.2 161.1" enable-background="new 0 0 330.2 161.1" xml:space="preserve">
<g>
	<path fill="#94B12D" d="M151,156.1v3.9c-2,0.7-3.9,1.1-5.7,1.1c-3.1,0-5.5-0.9-7.4-2.7c-1.8-1.8-2.8-4.3-2.8-7.3
		c0-3.1,0.9-5.6,2.7-7.5c1.8-1.9,4.1-2.8,7-2.8c1,0,1.9,0.1,2.7,0.3c0.8,0.2,1.8,0.6,3,1.1v4.2c-2-1.3-3.8-1.9-5.5-1.9
		c-1.8,0-3.2,0.6-4.3,1.9c-1.1,1.2-1.7,2.8-1.7,4.7c0,2,0.6,3.6,1.8,4.8c1.2,1.2,2.9,1.8,4.9,1.8C147.3,157.4,149,157,151,156.1z"/>
	<path fill="#94B12D" d="M164.8,141c3,0,5.5,1,7.5,2.9s3,4.4,3,7.3c0,2.8-1,5.2-3,7.1c-2,1.9-4.5,2.8-7.6,2.8c-3,0-5.4-1-7.4-2.9
		c-2-1.9-3-4.3-3-7.1c0-2.9,1-5.3,3-7.2C159.3,142,161.8,141,164.8,141z M164.6,144.5c-1.9,0-3.4,0.6-4.6,1.8
		c-1.2,1.2-1.8,2.8-1.8,4.7c0,1.9,0.6,3.4,1.8,4.6c1.2,1.2,2.8,1.8,4.7,1.8c1.9,0,3.5-0.6,4.7-1.8c1.2-1.2,1.8-2.8,1.8-4.6
		c0-1.9-0.6-3.4-1.9-4.6C168.1,145.1,166.5,144.5,164.6,144.5z"/>
	<path fill="#94B12D" d="M195.7,146.4v14.3h-3.9v-11c0-2.2-0.3-3.7-0.9-4.6c-0.6-0.9-1.6-1.3-3.1-1.3c-0.8,0-1.6,0.2-2.2,0.6
		c-0.7,0.4-1.5,1-2.3,2v14.3h-3.9V141h3.9v2.6c2-2,3.9-3,5.8-3c2.5,0,4.4,1.2,5.8,3.6c2.1-2.4,4.3-3.6,6.5-3.6
		c1.9,0,3.5,0.7,4.7,2.1c1.2,1.4,1.9,3.5,1.9,6.4v11.6h-3.9v-11.7c0-1.6-0.3-2.9-1-3.8c-0.7-0.9-1.6-1.3-2.9-1.3
		C198.6,144,197.1,144.8,195.7,146.4z"/>
	<path fill="#94B12D" d="M229.5,146.4v14.3h-3.9v-11c0-2.2-0.3-3.7-0.9-4.6c-0.6-0.9-1.6-1.3-3.1-1.3c-0.8,0-1.6,0.2-2.2,0.6
		c-0.7,0.4-1.5,1-2.3,2v14.3h-3.9V141h3.9v2.6c2-2,3.9-3,5.8-3c2.5,0,4.4,1.2,5.8,3.6c2.1-2.4,4.3-3.6,6.5-3.6
		c1.9,0,3.5,0.7,4.7,2.1c1.2,1.4,1.9,3.5,1.9,6.4v11.6h-3.9v-11.7c0-1.6-0.3-2.9-1-3.8c-0.7-0.9-1.6-1.3-2.9-1.3
		C232.4,144,230.9,144.8,229.5,146.4z"/>
	<path fill="#94B12D" d="M264,151.2h-13.9c0.1,1.9,0.7,3.4,1.9,4.5c1.2,1.1,2.7,1.7,4.5,1.7c2.6,0,4.9-0.8,7.1-2.4v3.8
		c-1.2,0.8-2.4,1.4-3.6,1.7c-1.2,0.3-2.6,0.5-4.1,0.5c-2.2,0-3.9-0.4-5.3-1.3c-1.3-0.9-2.4-2.1-3.2-3.6c-0.8-1.5-1.2-3.3-1.2-5.3
		c0-3,0.8-5.4,2.5-7.3c1.7-1.9,3.9-2.8,6.6-2.8c2.6,0,4.7,0.9,6.2,2.7c1.6,1.8,2.3,4.3,2.3,7.3V151.2z M250.2,148.9h9.9
		c-0.1-1.6-0.6-2.8-1.4-3.6c-0.8-0.8-1.9-1.3-3.3-1.3c-1.4,0-2.5,0.4-3.4,1.3C251.1,146.2,250.5,147.3,250.2,148.9z"/>
	<path fill="#94B12D" d="M272.4,141v4.5l0.2-0.3c1.9-3,3.8-4.6,5.6-4.6c1.5,0,3,0.7,4.6,2.2l-2.1,3.4c-1.4-1.3-2.6-1.9-3.8-1.9
		c-1.3,0-2.3,0.6-3.3,1.8c-0.9,1.2-1.4,2.6-1.4,4.3v10.3h-3.9V141H272.4z"/>
	<path fill="#94B12D" d="M299.2,156.1v3.9c-2,0.7-3.9,1.1-5.7,1.1c-3.1,0-5.5-0.9-7.4-2.7c-1.8-1.8-2.8-4.3-2.8-7.3
		c0-3.1,0.9-5.6,2.7-7.5c1.8-1.9,4.1-2.8,7-2.8c1,0,1.9,0.1,2.7,0.3c0.8,0.2,1.8,0.6,3,1.1v4.2c-2-1.3-3.8-1.9-5.5-1.9
		c-1.8,0-3.2,0.6-4.3,1.9c-1.1,1.2-1.7,2.8-1.7,4.7c0,2,0.6,3.6,1.8,4.8c1.2,1.2,2.9,1.8,4.9,1.8C295.6,157.4,297.3,157,299.2,156.1
		z"/>
	<path fill="#94B12D" d="M320.4,151.2h-13.8c0.1,1.9,0.7,3.4,1.9,4.5c1.2,1.1,2.7,1.7,4.5,1.7c2.6,0,4.9-0.8,7.1-2.4v3.8
		c-1.2,0.8-2.4,1.4-3.6,1.7c-1.2,0.3-2.6,0.5-4.1,0.5c-2.2,0-3.9-0.4-5.3-1.3c-1.3-0.9-2.4-2.1-3.2-3.6c-0.8-1.5-1.2-3.3-1.2-5.3
		c0-3,0.8-5.4,2.5-7.3c1.7-1.9,3.9-2.8,6.6-2.8c2.6,0,4.7,0.9,6.3,2.7c1.6,1.8,2.3,4.3,2.3,7.3V151.2z M306.7,148.9h9.9
		c-0.1-1.6-0.6-2.8-1.4-3.6c-0.8-0.8-1.9-1.3-3.3-1.3c-1.4,0-2.5,0.4-3.4,1.3C307.5,146.2,306.9,147.3,306.7,148.9z"/>
</g>
<g>
	<path fill="#404040" d="M0,65.4h7.9v23.5c3.4-2.5,7-3.7,10.9-3.7c5.1,0,9.2,1.9,12.4,5.7c3.2,3.8,4.8,8.7,4.8,14.7
		c0,6.4-1.9,11.5-5.7,15.3c-3.8,3.8-8.9,5.7-15.4,5.7c-2.6,0-5.3-0.3-8.1-0.8c-2.8-0.5-5.1-1.2-6.8-2.1V65.4z M7.9,96.4V118
		c2.7,0.8,5.4,1.2,8.3,1.2c3.5,0,6.3-1.2,8.6-3.7c2.2-2.5,3.3-5.7,3.3-9.6c0-4-1-7.2-3.1-9.7c-2.1-2.5-4.8-3.7-8.1-3.7
		C13.9,92.5,10.9,93.8,7.9,96.4z"/>
	<path fill="#404040" d="M53.2,86v9.1l0.4-0.7c3.8-6.2,7.6-9.2,11.4-9.2c3,0,6.1,1.5,9.3,4.5l-4.2,6.9c-2.7-2.6-5.3-3.9-7.6-3.9
		c-2.5,0-4.7,1.2-6.6,3.6c-1.9,2.4-2.8,5.3-2.8,8.6v20.8h-7.9V86H53.2z"/>
	<path fill="#404040" d="M96.7,85.9c6.1,0,11.1,2,15.1,5.9c4,3.9,6,8.8,6,14.8c0,5.7-2,10.5-6.1,14.3c-4.1,3.8-9.2,5.7-15.4,5.7
		c-6,0-11-1.9-15-5.8c-4-3.9-6-8.7-6-14.4c0-5.8,2-10.7,6.1-14.6C85.5,87.9,90.6,85.9,96.7,85.9z M96.3,93c-3.8,0-6.9,1.2-9.3,3.7
		c-2.4,2.5-3.6,5.6-3.6,9.5c0,3.8,1.2,6.9,3.7,9.3c2.5,2.4,5.7,3.6,9.6,3.6c3.9,0,7-1.2,9.5-3.7c2.5-2.4,3.7-5.6,3.7-9.4
		c0-3.8-1.3-6.9-3.9-9.4C103.4,94.3,100.2,93,96.3,93z"/>
	<path fill="#404040" d="M151.6,101.9v16.9c0,1.4,0.5,2,1.4,2c1,0,2.4-0.7,4.5-2.1v4.8c-1.8,1.2-3.2,1.9-4.3,2.4
		c-1.1,0.4-2.2,0.6-3.4,0.6c-3.4,0-5.4-1.3-6-4c-3.4,2.6-6.9,3.9-10.7,3.9c-2.8,0-5.1-0.9-6.9-2.8c-1.8-1.8-2.8-4.1-2.8-6.9
		c0-2.5,0.9-4.8,2.7-6.7c1.8-2,4.4-3.5,7.7-4.7l10.1-3.5v-2.1c0-4.8-2.4-7.2-7.2-7.2c-4.3,0-8.5,2.2-12.6,6.7v-8.6
		c3.1-3.6,7.5-5.4,13.2-5.4c4.3,0,7.8,1.1,10.4,3.4c0.9,0.7,1.6,1.7,2.3,2.9c0.7,1.2,1.1,2.4,1.3,3.6
		C151.5,96.3,151.6,98.6,151.6,101.9z M143.9,118v-11.8l-5.3,2c-2.7,1.1-4.6,2.1-5.7,3.2c-1.1,1.1-1.7,2.4-1.7,4.1
		c0,1.6,0.5,3,1.6,4c1.1,1,2.4,1.6,4.1,1.6C139.4,121.1,141.7,120,143.9,118z"/>
	<path fill="#404040" d="M191.1,65.4h7.9v60.5h-16.9c-5.9,0-10.6-1.9-14.1-5.6c-3.5-3.7-5.3-8.7-5.3-15c0-5.9,1.8-10.7,5.5-14.5
		c3.7-3.8,8.4-5.7,14.1-5.7c2.7,0,5.5,0.6,8.7,1.7V65.4z M191.1,119.1V93.9c-2.5-1.2-4.9-1.9-7.5-1.9c-3.9,0-7.1,1.3-9.4,3.9
		c-2.3,2.6-3.5,6-3.5,10.4c0,4.1,1,7.3,3,9.5c1.2,1.3,2.5,2.2,3.9,2.7c1.4,0.5,3.8,0.7,7.3,0.7H191.1z"/>
	<path fill="#404040" d="M209.9,65.4h7.9v60.5h-7.9V65.4z"/>
	<path fill="#404040" d="M263.1,106.6h-28c0.2,3.8,1.5,6.8,3.8,9.1c2.4,2.3,5.4,3.4,9.1,3.4c5.2,0,10-1.6,14.4-4.9v7.7
		c-2.4,1.6-4.8,2.8-7.2,3.5c-2.4,0.7-5.2,1-8.4,1c-4.4,0-7.9-0.9-10.7-2.7c-2.7-1.8-4.9-4.3-6.5-7.3c-1.6-3.1-2.4-6.6-2.4-10.7
		c0-6.1,1.7-11,5.2-14.8c3.4-3.8,7.9-5.7,13.4-5.7c5.3,0,9.5,1.8,12.6,5.5c3.1,3.7,4.7,8.7,4.7,14.9V106.6z M235.3,101.9h20.1
		c-0.2-3.1-1.1-5.6-2.8-7.3c-1.7-1.7-3.9-2.6-6.8-2.6c-2.8,0-5.1,0.9-7,2.6C237,96.3,235.8,98.8,235.3,101.9z"/>
	<path fill="#404040" d="M296.7,101.9v16.9c0,1.4,0.5,2,1.4,2c1,0,2.4-0.7,4.5-2.1v4.8c-1.8,1.2-3.2,1.9-4.3,2.4
		c-1.1,0.4-2.2,0.6-3.4,0.6c-3.4,0-5.4-1.3-6-4c-3.4,2.6-6.9,3.9-10.7,3.9c-2.8,0-5.1-0.9-6.9-2.8c-1.8-1.8-2.8-4.1-2.8-6.9
		c0-2.5,0.9-4.8,2.7-6.7c1.8-2,4.4-3.5,7.7-4.7l10.1-3.5v-2.1c0-4.8-2.4-7.2-7.2-7.2c-4.3,0-8.5,2.2-12.6,6.7v-8.6
		c3.1-3.6,7.5-5.4,13.2-5.4c4.3,0,7.8,1.1,10.4,3.4c0.9,0.7,1.6,1.7,2.3,2.9c0.7,1.2,1.1,2.4,1.3,3.6
		C296.6,96.3,296.7,98.6,296.7,101.9z M288.9,118v-11.8l-5.3,2c-2.7,1.1-4.6,2.1-5.7,3.2c-1.1,1.1-1.7,2.4-1.7,4.1
		c0,1.6,0.5,3,1.6,4c1.1,1,2.4,1.6,4.1,1.6C284.5,121.1,286.8,120,288.9,118z"/>
	<path fill="#404040" d="M310.4,86v-2.4c0-6.4,1.4-11.2,4.1-14.3c2.7-3.1,6-4.7,9.8-4.7c1.6,0,3.6,0.3,5.8,0.8v7.7
		c-1.3-0.5-2.5-0.7-3.6-0.7c-3.1,0-5.2,0.8-6.4,2.5c-1.2,1.6-1.8,4.6-1.8,8.8V86h7.1v7.1h-7.1v32.8h-7.9V93.1h-5.7V86H310.4z"/>
</g>
<g>
	<path fill="#94B12D" d="M269.3,45.8c9.5-13.5-4.9-29.8-17.5-32.7c-8.6-2-28.2-5.3-33.9-13.1c1.8,26.9,21.3,57.1,44.3,53.4
		c0.9,3.5,0.5,8.7-0.7,13.7c-0.2,1.2,2.9,3.1,3.2,1.3c11.4-44.1-31.2-41.2-38.2-55.7C234.8,22.4,265,22.3,269.3,45.8z"/>
</g>
<g>
	<path fill="#94B12D" d="M268.1,54.6c-2.4-11,11.2-17.4,19.9-15.9c5.9,1,19.1,4,24.7,0.6c-8.2,16.4-28.3,30.3-41.8,22
		c-1.5,2-2.4,4-2.9,7.4c-0.2,0.8-2.6,1.2-2.4,0C270.9,38.8,297.5,52,304,45C296.3,49,276.9,39.6,268.1,54.6z"/>
</g>
</svg>
