<?xml version="1.0" encoding="utf-8"?>
<!-- Generator: Adobe Illustrator 18.0.0, SVG Export Plug-In . SVG Version: 6.00 Build 0)  -->
<!DOCTYPE svg PUBLIC "-//W3C//DTD SVG 1.1//EN" "http://www.w3.org/Graphics/SVG/1.1/DTD/svg11.dtd">
<svg version="1.1"
	 id="svg2" inkscape:output_extension="org.inkscape.output.svg.inkscape" sodipodi:modified="true" sodipodi:docname="centos_fancy.svg" sodipodi:version="0.32" inkscape:version="0.45" sodipodi:docbase="/home/nicu/Desktop/centos" xmlns:sodipodi="http://sodipodi.sourceforge.net/DTD/sodipodi-0.dtd" xmlns:cc="http://web.resource.org/cc/" xmlns:rdf="http://www.w3.org/1999/02/22-rdf-syntax-ns#" xmlns:inkscape="http://www.inkscape.org/namespaces/inkscape" xmlns:svg="http://www.w3.org/2000/svg" xmlns:dc="http://purl.org/dc/elements/1.1/"
	 xmlns="http://www.w3.org/2000/svg" xmlns:xlink="http://www.w3.org/1999/xlink" x="0px" y="0px" viewBox="0 0 256 256"
	 enable-background="new 0 0 256 256" xml:space="preserve">
<sodipodi:namedview  height="256px" width="256px" inkscape:cx="125.72583" id="base" borderopacity="1.0" bordercolor="#666666" inkscape:cy="118.04352" inkscape:zoom="1" pagecolor="#ffffff" showguides="true" inkscape:window-x="0" inkscape:guide-bbox="true" inkscape:window-width="1152" inkscape:current-layer="layer4" inkscape:document-units="px" inkscape:window-height="791" inkscape:window-y="24" inkscape:pageshadow="2" inkscape:pageopacity="0.0">
	</sodipodi:namedview>
<g id="layer2" inkscape:label="shadow" inkscape:groupmode="layer">
	<path id="rect2183" fill-opacity="0.4706" d="M126.5,2.9L125,4.3L93.2,36.2H38.5h-2.1v2.1v54.6L4.3,125l-1.5,1.4l1.5,1.4l32.1,32.1
		v54.3v2h2.1h54.2l32.2,32.2l1.4,1.4l1.4-1.4l32.2-32.2h54.9h2.1v-2v-54.7l31.7-31.7l1.5-1.4l-1.5-1.4l-31.7-31.7V38V36h-2.1h-55.3
		L127.9,4.3L126.5,2.9z M134.9,110.5v5.5v2.1h2.1h5.7l-7,7l-1.4,1.4l1.4,1.4l6.5,6.5h-5.1h-2.1v2.1v6.6l-7.1-7.1l-1.4-1.4l-1.4,1.4
		l-6.4,6.4v-5.8v-2.1h-2.1H111l6.4-6.4l1.4-1.4l-1.4-1.5l-7.1-7.1h6.1h2.1v-2.1v-5.2l6.7,6.7l1.4,1.4l1.4-1.4L134.9,110.5z"/>
</g>
<g id="layer1" inkscape:label="logo" inkscape:groupmode="layer">
	<polygon id="rect2072" fill="#EFA724" points="125.5,115 70.3,59.9 125.5,4.8 180.6,59.9 	"/>
	<polygon id="rect2074" fill="#932279" points="59.8,180.6 4.7,125.5 59.8,70.4 114.9,125.5 	"/>
	
		<linearGradient id="rect4397_1_" gradientUnits="userSpaceOnUse" x1="91.4658" y1="236.7146" x2="154.4704" y2="165.0876" gradientTransform="matrix(1 0 0 -1 0 258)">
		<stop  offset="0" style="stop-color:#FFFFFF;stop-opacity:0.4266"/>
		<stop  offset="1" style="stop-color:#FFFFFF;stop-opacity:0"/>
	</linearGradient>
	<path id="rect4397" fill="url(#rect4397_1_)" d="M78.8,59.9c15.6,15.6,31.1,31.1,46.7,46.7C141,91,156.5,75.5,172.1,59.9
		c-15.6-15.6-31.1-31.1-46.7-46.7C109.9,28.8,94.3,44.4,78.8,59.9z"/>
	
		<linearGradient id="rect4399_1_" gradientUnits="userSpaceOnUse" x1="23.0274" y1="164.3569" x2="94.433" y2="102.4571" gradientTransform="matrix(1 0 0 -1 0 258)">
		<stop  offset="0" style="stop-color:#FFFFFF;stop-opacity:0.4266"/>
		<stop  offset="1" style="stop-color:#FFFFFF;stop-opacity:0"/>
	</linearGradient>
	<path id="rect4399" fill="url(#rect4399_1_)" d="M13.2,125.5c15.6,15.6,31.1,31.1,46.7,46.7c15.6-15.6,31.1-31.1,46.7-46.7
		C90.9,110,75.4,94.4,59.8,78.9C44.3,94.4,28.7,110,13.2,125.5z"/>
	<rect id="rect2076" x="37.5" y="37.3" fill="#9CCD2A" width="77.7" height="77.7"/>
	<polygon id="rect2078" fill="#9CCD2A" points="125.3,246.3 70.3,191.3 125.3,136.3 180.3,191.3 	"/>
	
		<linearGradient id="rect4403_1_" gradientUnits="userSpaceOnUse" x1="91.2275" y1="103.5482" x2="157.4608" y2="31.9212" gradientTransform="matrix(1 0 0 -1 0 258)">
		<stop  offset="0" style="stop-color:#FFFFFF;stop-opacity:0.4266"/>
		<stop  offset="1" style="stop-color:#FFFFFF;stop-opacity:0"/>
	</linearGradient>
	<path id="rect4403" fill="url(#rect4403_1_)" d="M78.8,191.3c15.5,15.5,31,31,46.5,46.5c15.5-15.5,31-31,46.5-46.5
		c-15.5-15.5-31-31-46.5-46.5C109.8,160.3,94.3,175.8,78.8,191.3z"/>
	<rect id="rect2080" x="37.5" y="135.5" fill="#262577" width="77.9" height="77.9"/>
	<polygon id="rect2082" fill="#262577" points="191.1,180.6 136,125.5 191.1,70.4 246.2,125.5 	"/>
	
		<linearGradient id="rect4407_1_" gradientUnits="userSpaceOnUse" x1="156.5321" y1="163.3062" x2="228.844" y2="98.7536" gradientTransform="matrix(1 0 0 -1 0 258)">
		<stop  offset="0" style="stop-color:#FFFFFF;stop-opacity:0.4266"/>
		<stop  offset="1" style="stop-color:#FFFFFF;stop-opacity:0"/>
	</linearGradient>
	<path id="rect4407" fill="url(#rect4407_1_)" d="M144.4,125.5c15.6,15.6,31.1,31.1,46.7,46.7c15.6-15.6,31.1-31.1,46.7-46.7
		c-15.6-15.6-31.1-31.1-46.7-46.7C175.5,94.4,160,110,144.4,125.5z"/>
	<rect id="rect2084" x="136" y="37.1" fill="#932279" width="77.9" height="77.9"/>
	<rect id="rect2086" x="136" y="135.5" fill="#EFA724" width="77.9" height="77.9"/>
	
		<linearGradient id="rect4401_1_" gradientUnits="userSpaceOnUse" x1="39.4888" y1="218.6762" x2="109.6704" y2="148.6562" gradientTransform="matrix(1 0 0 -1 0 258)">
		<stop  offset="0" style="stop-color:#FFFFFF;stop-opacity:0.4266"/>
		<stop  offset="1" style="stop-color:#FFFFFF;stop-opacity:0"/>
	</linearGradient>
	<path id="rect4401" fill="url(#rect4401_1_)" d="M43.5,109c21.9,0,43.8,0,65.7,0c0-21.9,0-43.8,0-65.7c-21.9,0-43.8,0-65.7,0
		C43.5,65.2,43.5,87.1,43.5,109z"/>
	
		<linearGradient id="rect4405_1_" gradientUnits="userSpaceOnUse" x1="39.5312" y1="120.4688" x2="113.4688" y2="46.5312" gradientTransform="matrix(1 0 0 -1 0 258)">
		<stop  offset="0" style="stop-color:#FFFFFF;stop-opacity:0.4266"/>
		<stop  offset="1" style="stop-color:#FFFFFF;stop-opacity:0"/>
	</linearGradient>
	<path id="rect4405" fill="url(#rect4405_1_)" d="M43.5,207.5c22,0,44,0,65.9,0c0-22,0-44,0-65.9c-22,0-44,0-65.9,0
		C43.5,163.5,43.5,185.5,43.5,207.5z"/>
	
		<linearGradient id="rect4411_1_" gradientUnits="userSpaceOnUse" x1="138.538" y1="121.0212" x2="210.296" y2="47.0837" gradientTransform="matrix(1 0 0 -1 0 258)">
		<stop  offset="0" style="stop-color:#FFFFFF;stop-opacity:0.4266"/>
		<stop  offset="1" style="stop-color:#FFFFFF;stop-opacity:0"/>
	</linearGradient>
	<path id="rect4411" fill="url(#rect4411_1_)" d="M142,207.5c22,0,44,0,66,0c0-22,0-44,0-65.9c-22,0-44,0-66,0
		C142,163.5,142,185.5,142,207.5z"/>
	
		<linearGradient id="rect4409_1_" gradientUnits="userSpaceOnUse" x1="143.8798" y1="216.8502" x2="206.3529" y2="146.7209" gradientTransform="matrix(1 0 0 -1 0 258)">
		<stop  offset="0" style="stop-color:#FFFFFF;stop-opacity:0.4266"/>
		<stop  offset="1" style="stop-color:#FFFFFF;stop-opacity:0"/>
	</linearGradient>
	<path id="rect4409" fill="url(#rect4409_1_)" d="M142,109c22,0,44,0,66,0c0-22,0-44,0-65.9c-22,0-44,0-66,0C142,65,142,87,142,109z
		"/>
</g>
<g id="layer3" inkscape:label="highlight" inkscape:groupmode="layer">
	
		<radialGradient id="rect4282_1_" cx="200.4761" cy="-219.2252" r="117.8438" gradientTransform="matrix(0.7092 5.247656e-03 3.172965e-03 -0.4288 -16.3553 29.6223)" gradientUnits="userSpaceOnUse">
		<stop  offset="0" style="stop-color:#FFFFFF;stop-opacity:0.4266"/>
		<stop  offset="1" style="stop-color:#FFFFFF;stop-opacity:0"/>
	</radialGradient>
	<path id="rect4282" fill="url(#rect4282_1_)" d="M107.5,31.3c4.4,0.2,11.9-1.8,13.9,2.9c0.3,22.9-0.5,46.2,0.4,68.9
		c1.4,3.5,5.8,3.5,7.4,0.2c1.9-6.1,0.1-13.5,0.8-20c0-17.4,0-34.8,0-52.2c4.5-0.5,8.9,0,13.4,0c-5.9-5.9-11.9-11.9-17.8-17.8
		C119.5,19.3,113.5,25.3,107.5,31.3z M143.6,42.7c-3.9,0.1-0.4,6.1-1.6,8.3c0,13,0,25.9,0,38.9c10-10,20-20,30-30
		c-5.9-5.4-10.9-12.5-17.6-16.7C150.8,43.7,147.2,42.6,143.6,42.7z M184.7,55.4c4.7,1.9,3,7.9-0.7,9.8c-14.3,13.6-28.1,28.1-42.1,42
		c-0.7,3.7,3.9,0.2,5.1-0.8c14.3-15.2,29.5-29.7,44.2-44.6c5.6,5.6,11.2,11.1,16.7,16.7c0-11.8,0-23.7,0-35.5c-11.8,0-23.7,0-35.5,0
		C176.4,47.2,180.5,51.3,184.7,55.4z M99.1,43.2c-7.4,0.1-10.5,8.8-16,12.5c-8.4,4.5,1.7,8.9,5,13.4c7.1,7.1,14.1,14.1,21.2,21.2
		c-0.2-15.5,0.3-31.6-0.2-46.7C105.7,43.6,102.4,43,99.1,43.2z M43.6,78.2c5.4-5.4,10.8-10.8,16.2-16.3
		c15.9,15.7,31.5,32.3,47.8,47.3c3.9,0.4-0.5-5.1-1.8-5.9c-15-13.9-29.2-29.1-43.9-43.4c5.6-5.5,11.1-11,16.6-16.5
		c-11.6,0-23.2,0-34.8,0C43.6,55,43.6,66.6,43.6,78.2z M161.2,108.9c15.4-0.1,31.4,0.3,46.5-0.2c0-6.2,2.4-14-4.4-17.8
		c-4.3-3.2-8.5-10.5-12.8-11.4C180.7,89.4,170.9,99.1,161.2,108.9z M43.7,95.1c0.8,4.5-1.8,9.7,0.3,13.8c15.2,0,30.4,0,45.7,0
		C79.7,98.9,69.8,89,59.8,79C54.4,84.4,49.1,89.7,43.7,95.1z M13.3,125.5c6.1,6.1,12.1,12.1,18.2,18.2c1.4-4.7-3.5-15.7,4-14.2
		c22.6-0.3,45.5,0.5,67.9-0.4c3.5-1.3,2.8-5.4,0-6.9c-5.6-2.6-13.1-0.3-19.4-1.1c-17.4,0-34.9,0-52.3,0c-0.5-4.6,0.1-9.2,0-13.8
		C25.5,113.3,19.4,119.4,13.3,125.5z M220,114.8c1.6,5.3-4.6,7.6-8.8,6.4c-20.7-0.4-41.7,0.1-62.4-0.1c-3,1.4-5.6,5.6-1.7,7.6
		c5.8,2.1,12.9,0.1,19.2,0.8c17.9,0,35.7,0,53.6,0c0.5,4.6-0.1,9.3,0,13.9c5.9-5.9,11.9-11.9,17.8-17.8
		c-5.9-5.9-11.8-11.8-17.8-17.8C220,110.1,220,112.4,220,114.8z M141.9,141.7c0.1,6,7.6,8.8,10.7,13.4
		c12.1,12.1,24.1,24.1,36.2,36.2c-5.3,5.4-10.7,10.7-16.1,16.1c11.7,0,23.4,0,35.1,0c0-11.6,0-23.3,0-34.9
		c-5.6,5.6-11.1,11.1-16.7,16.7c-16.1-15.9-31.9-32.3-48.2-47.8C142.6,141.4,141.6,140.9,141.9,141.7z M108.9,141.5
		c-6.3,2.1-9,9.1-14.3,12.9c-11,10.9-21.9,22.1-32.9,32.9c-5.8,1.8-7.8-6-12.2-8.2c-2.2-2.1-4-4.4-6-6.6c0,11.6,0,23.2,0,34.9
		c11.5,0,22.9,0,34.4,0c-5.4-5.4-10.7-10.7-16.1-16.1c15.9-15.9,31.9-31.8,47.7-47.8C109.6,142.9,110.2,141.1,108.9,141.5z
		 M43.6,155.8c5.4,5.4,10.9,10.9,16.3,16.3c10.2-10.2,20.4-20.4,30.6-30.6c-15.6,0-31.2,0-46.9,0C43.6,146.3,43.6,151,43.6,155.8z
		 M191.1,172c5.3-5.9,12.5-10.8,16.6-17.6c-0.8-4.1,1.8-9.2-0.1-12.8c-15.6-0.3-31.3,0-47-0.1C170.8,151.7,180.9,161.9,191.1,172z
		 M125.2,145c-6.6,3.6-2.5,12.5-3.7,18.6c0,18.6,0,37.2,0,55.9c-3.6,1.1-18.6-2.6-11.6,2.8c5.1,5.1,10.3,10.3,15.4,15.4
		c6.1-6.1,12.2-12.2,18.3-18.3c-4.4-0.1-11.5,1.7-13.8-2.8c0-22.4,0-44.8,0-67.2C128.4,148.1,127,145.5,125.2,145z M79,191.2
		c5.6,5.2,10.4,12.1,16.9,16c4.4-0.8,9.5,1.7,13.5-0.2c0-15.4,0-30.8,0-46.2C99.3,170.9,89.1,181.1,79,191.2z M142,207.2
		c6.3-0.1,14.4,2.5,18.3-4.4c2.4-4.3,12.3-8.6,10-12.9c-9.4-9.4-18.9-18.9-28.3-28.3C142,176.8,142,192,142,207.2z"/>
</g>
<g id="layer4" inkscape:label="outline" inkscape:groupmode="layer">
	<path id="path5494" fill-opacity="0.4706" d="M126.5,2.9l-1.4,1.4L93.2,36.2H38.5h-2v2.1v54.6L4.3,125.1l-1.5,1.4l1.5,1.4
		l32.2,32.2v54.3v2.1h2h54.2l32.2,32.2l1.5,1.5l1.4-1.5l32.2-32.2h54.9h2.1v-2.1v-54.7l31.8-31.8l1.4-1.4l-1.4-1.4L217,93.3V38V36
		h-2.1h-55.3L128,4.3L126.5,2.9z M126.5,8.7L153.8,36H137h-2.1V38v66.7l-8.4,8.4l-8.1-8.1V38.3v-2.1h-2.1H98.9L126.5,8.7z M139,40.1
		h18.9l20.8,20.8L139,100.6V40.1z M163.7,40.1h49.2v49.1l-19.2-19.2l-1.5-1.4l-1.4,1.4l-44,44H139v-7.5l44.1-44.1l1.5-1.4l-1.5-1.4
		L163.7,40.1z M40.6,40.3H89L69.9,59.4l-1.4,1.4l1.4,1.4l44.3,44.3v7.2h-8.2L62.3,70l-1.5-1.5L59.3,70L40.6,88.8V40.3z M94.8,40.3
		h19.5v60.5l-40-40L94.8,40.3z M192.1,74.3L212.8,95v18.9h-60.3L192.1,74.3z M60.8,74.4l39.5,39.5H40.6V94.6L60.8,74.4z M36.5,98.7
		V116v2.1h2h65.9l8.6,8.6l-7.8,7.8H38.5h-2v2v17.8L8.7,126.5L36.5,98.7z M217,99.1l27.4,27.4L217,153.9v-17.4v-2h-2.1h-67l-7.9-7.9
		l8.5-8.5h66.5h2.1V116V99.1z M134.9,110.5v5.5v2.1h2.1h5.6l-7,7l-1.4,1.4l1.4,1.4l6.5,6.5H137h-2.1v2v6.6l-7.1-7.1l-1.4-1.4
		l-1.5,1.4l-6.4,6.4v-5.8v-2h-2.1h-5.5l6.4-6.4l1.5-1.4l-1.5-1.5l-7.1-7.1h6.1h2.1V116v-5.2l6.7,6.7l1.4,1.4l1.5-1.4L134.9,110.5z
		 M40.6,138.5h60.5l-40.2,40.2l-20.3-20.3V138.5z M106.8,138.5h7.6v7.8l-44.5,44.5l-1.4,1.4l1.4,1.5l18.6,18.6h-48v-48.2l18.9,18.9
		l1.4,1.4l1.4-1.4L106.8,138.5z M139,138.5h7.2l44.5,44.5l1.4,1.4l1.5-1.4l19.2-19.2v48.6h-48.8l18.6-18.6l1.4-1.5l-1.4-1.4
		L139,147.1V138.5z M152,138.5h60.9V158l-20.7,20.7L152,138.5z M126.3,140.2l8.6,8.6v65.6v2.1h2.1h17.2l-27.8,27.8l-27.9-27.8h18
		h2.1v-2.1v-66.3L126.3,140.2z M114.4,152.2v60.2h-20l-20.1-20.1L114.4,152.2z M139,152.9l39.4,39.4l-20.1,20.1H139V152.9z"/>
	<path id="rect2140" fill="#FFFFFF" d="M125.5,1.9l-1.4,1.4L92.2,35.2H37.5h-2v2.1v54.6L3.3,124.1l-1.5,1.4l1.5,1.4l32.2,32.2v54.3
		v2.1h2h54.2l32.2,32.2l1.5,1.5l1.4-1.5l32.2-32.2h54.9h2.1v-2.1v-54.7l31.8-31.8l1.4-1.4l-1.4-1.4L216,92.3V37V35h-2.1h-55.3
		L127,3.3L125.5,1.9z M125.5,7.7L152.8,35H136h-2.1V37v66.7l-8.4,8.4l-8.1-8.1V37.3v-2.1h-2.1H97.9L125.5,7.7z M138,39.1h18.9
		l20.8,20.8L138,99.6V39.1z M162.7,39.1h49.2v49.1l-19.2-19.2l-1.5-1.4l-1.4,1.4l-44,44H138v-7.5l44.1-44.1l1.5-1.4l-1.5-1.4
		L162.7,39.1z M39.6,39.3H88L68.9,58.4l-1.4,1.4l1.4,1.4l44.3,44.3v7.2h-8.2L61.2,69l-1.5-1.5L58.3,69L39.6,87.8V39.3z M93.8,39.3
		h19.5v60.5l-40-40L93.8,39.3z M191.1,73.3L211.8,94v18.9h-60.3L191.1,73.3z M59.8,73.4l39.5,39.5H39.6V93.6L59.8,73.4z M35.5,97.7
		V115v2.1h2h65.9l8.6,8.6l-7.8,7.8H37.5h-2v2v17.8L7.7,125.5L35.5,97.7z M216,98.1l27.4,27.4L216,152.9v-17.4v-2h-2.1h-67l-7.9-7.9
		l8.5-8.5h66.5h2.1V115V98.1z M133.9,109.5v5.5v2.1h2.1h5.6l-7,7l-1.4,1.4l1.4,1.4l6.5,6.5H136h-2.1v2v6.6l-7.1-7.1l-1.4-1.4
		l-1.5,1.4l-6.4,6.4v-5.8v-2h-2.1h-5.5l6.4-6.4l1.5-1.4l-1.5-1.5l-7.1-7.1h6.1h2.1V115v-5.2l6.7,6.7l1.4,1.4l1.5-1.4L133.9,109.5z
		 M39.6,137.5h60.5l-40.2,40.2l-20.3-20.3V137.5z M105.8,137.5h7.6v7.8l-44.5,44.5l-1.4,1.4l1.4,1.5l18.6,18.6h-48v-48.2l18.9,18.9
		l1.4,1.4l1.4-1.4L105.8,137.5z M138,137.5h7.2l44.5,44.5l1.4,1.4l1.5-1.4l19.2-19.2v48.6h-48.8l18.6-18.6l1.4-1.5l-1.4-1.4
		L138,146.1V137.5z M151,137.5h60.9V157l-20.7,20.7L151,137.5z M125.3,139.2l8.6,8.6v65.6v2.1h2.1h17.2l-27.8,27.8l-27.9-27.8h18
		h2.1v-2.1v-66.3L125.3,139.2z M113.4,151.2v60.2h-20l-20.1-20.1L113.4,151.2z M138,151.9l39.4,39.4l-20.1,20.1H138V151.9z"/>
</g>
</svg>
