<svg xmlns="http://www.w3.org/2000/svg" xmlns:xlink="http://www.w3.org/1999/xlink" width="256" height="256" version="1"><defs><linearGradient id="a"><stop offset="0" stop-color="#fff" stop-opacity=".427"/><stop offset="1" stop-color="#fff" stop-opacity="0"/></linearGradient><filter id="b"><feGaussianBlur stdDeviation="2.513"/></filter><radialGradient xlink:href="#a" id="k" gradientUnits="userSpaceOnUse" gradientTransform="matrix(.709 .005 -.003 .429 36.783 70.56)" cx="125.126" cy="124.684" fx="125.126" fy="124.684" r="117.844"/><linearGradient xlink:href="#a" id="d" gradientUnits="userSpaceOnUse" x1="19.915" y1="97.233" x2="91.321" y2="159.133"/><linearGradient xlink:href="#a" id="g" gradientUnits="userSpaceOnUse" x1="39.531" y1="39.281" x2="109.713" y2="109.301"/><linearGradient xlink:href="#a" id="c" gradientUnits="userSpaceOnUse" x1="91.293" y1="21.437" x2="154.298" y2="93.064"/><linearGradient xlink:href="#a" id="j" gradientUnits="userSpaceOnUse" x1="141.948" y1="42.871" x2="204.421" y2="113"/><linearGradient xlink:href="#a" id="f" gradientUnits="userSpaceOnUse" x1="157.808" y1="93.265" x2="230.119" y2="157.818"/><linearGradient xlink:href="#a" id="i" gradientUnits="userSpaceOnUse" x1="137.969" y1="137.531" x2="209.727" y2="211.469"/><linearGradient xlink:href="#a" id="e" gradientUnits="userSpaceOnUse" x1="88.663" y1="156.823" x2="154.896" y2="228.45"/><linearGradient xlink:href="#a" id="h" gradientUnits="userSpaceOnUse" x1="39.531" y1="137.531" x2="113.469" y2="211.469"/><filter id="l"><feGaussianBlur stdDeviation="2.473"/></filter></defs><path d="M126.492 2.86l-1.446 1.445-31.892 31.892h-56.71v56.68l-32.14 32.17-1.476 1.445 1.477 1.445 32.138 32.14v56.372h56.22l32.2 32.2 1.444 1.444 1.446-1.445 32.23-32.2h56.957v-56.774l31.74-31.74 1.475-1.444-1.476-1.445-31.74-31.74V35.953h-57.356L127.937 4.304l-1.445-1.446zM138.904 110.5V118.02H144.616l-7.043 7.043-1.446 1.445 1.446 1.445 6.458 6.46H136.898v8.64l-7.136-7.134-1.444-1.447-1.446 1.446-6.366 6.365V134.412h-7.535l6.365-6.366 1.446-1.446-1.445-1.476-7.104-7.104h8.15V110.762l6.675 6.673 1.445 1.446 1.446-1.445 6.95-6.95z" fill-opacity=".471" filter="url(#b)"/><g><path fill="#efa724" d="M125.463 115.008L70.345 59.893l55.11-55.108L180.574 59.9z"/><path fill="#932279" d="M59.828 180.645L4.71 125.53l55.11-55.108 55.118 55.115z"/><path d="M78.78 59.906l46.657 46.657 46.657-46.657-46.656-46.656L78.78 59.906z" fill="url(#c)"/><path d="M13.156 125.53l46.657 46.657 46.656-46.656c-15.553-15.55-31.105-31.103-46.657-46.655L13.156 125.53z" fill="url(#d)"/><path fill="#9ccd2a" d="M37.527 37.28h77.738v77.727H37.527z"/><path fill="#9ccd2a" d="M125.32 246.28l-54.975-54.97 54.967-54.963 54.974 54.97z"/><path d="M78.813 191.313l46.5 46.5 46.5-46.5-46.5-46.5-46.5 46.5z" fill="url(#e)"/><path fill="#262577" d="M37.527 135.53h77.943v77.933H37.527z"/><path fill="#262577" d="M191.1 180.645l-55.118-55.115 55.11-55.108 55.118 55.115z"/><path d="M144.406 125.53l46.688 46.69 46.656-46.657-46.656-46.688-46.688 46.656z" fill="url(#f)"/><path fill="#932279" d="M135.98 37.074h77.944v77.933H135.98z"/><path fill="#efa724" d="M135.98 135.53h77.944v77.932H135.98z"/><path d="M43.53 109h65.72V43.28H43.53V109z" fill="url(#g)"/><path d="M43.53 207.47h65.94v-65.94H43.53v65.94z" fill="url(#h)"/><path d="M141.97 207.47h65.968v-65.94h-65.97v65.94z" fill="url(#i)"/><path d="M141.97 109h65.968V43.062h-65.97V109z" fill="url(#j)"/></g><path d="M107.47 31.313c4.365.157 11.855-1.812 13.905 2.906.256 22.93-.508 46.16.375 68.905 1.437 3.527 5.78 3.548 7.406.156 1.92-6.125.13-13.476.75-20.03V31.094c4.46-.494 8.938.018 13.406 0L125.5 13.28l-18.03 18.032zm36.093 11.406c-3.852.062-.397 6.128-1.563 8.343V89.97l30.03-30.032c-5.898-5.416-10.887-12.484-17.593-16.657-3.64.46-7.24-.71-10.875-.56zm41.093 12.655c4.72 1.93 3.04 7.868-.656 9.844-14.28 13.624-28.094 28.107-42.125 42.03-.704 3.712 3.93.198 5.094-.813 14.28-15.187 29.496-29.664 44.155-44.562 5.584 5.55 11.153 11.118 16.72 16.688v-35.5h-35.532l12.343 12.312zm-85.562-12.22c-7.376.1-10.512 8.752-16 12.534-8.36 4.458 1.675 8.918 5.005 13.377l21.18 21.183c-.167-15.488.337-31.648-.25-46.72-3.316.07-6.622-.5-9.936-.374zm-55.53 35.032c5.423-5.42 10.837-10.85 16.217-16.312 15.95 15.713 31.51 32.26 47.814 47.344 3.9.385-.494-5.058-1.844-5.94C90.7 89.37 76.58 74.196 61.812 59.876c5.574-5.468 11.066-11.018 16.594-16.53H43.562v34.843zm117.592 30.72c15.436-.127 31.377.25 46.5-.188-.003-6.196 2.403-13.988-4.445-17.752-4.263-3.207-8.53-10.546-12.792-11.354l-29.262 29.292zM43.72 95.062c.83 4.515-1.758 9.702.31 13.843h45.657C79.72 98.936 69.75 88.97 59.782 79L43.72 95.063zM13.28 125.5l18.19 18.188c1.396-4.687-3.498-15.664 4-14.25 22.603-.276 45.534.547 67.936-.407 3.54-1.33 2.81-5.37-.03-6.905-5.624-2.576-13.108-.348-19.44-1.094H31.596c-.522-4.595.078-9.21-.032-13.81l-18.28 18.28zm206.69-10.75c1.626 5.252-4.57 7.62-8.75 6.375-20.735-.402-41.662.073-62.44-.063-3.02 1.407-5.588 5.646-1.686 7.594 5.817 2.057 12.906.093 19.156.78h53.594c.523 4.63-.08 9.274.03 13.908 5.95-5.948 11.897-11.896 17.845-17.844-5.918-5.917-11.835-11.833-17.75-17.75v7zm-78.064 26.938c.066 6.002 7.552 8.756 10.7 13.42 12.06 12.057 24.117 24.115 36.175 36.173-5.342 5.377-10.7 10.738-16.06 16.095h35.124v-34.938c-5.565 5.57-11.135 11.137-16.72 16.688-16.092-15.86-31.864-32.326-48.155-47.813-.378.1-1.345-.443-1.064.375zm-32.97-.188c-6.334 2.07-9.012 9.14-14.308 12.872-11.016 10.872-21.935 22.12-32.878 32.91-5.768 1.78-7.797-5.962-12.156-8.157-2.18-2.052-3.977-4.442-6.032-6.625v34.875H77.94c-5.363-5.357-10.72-10.718-16.063-16.094 15.89-15.932 31.9-31.816 47.72-47.78.01-.624.61-2.426-.657-2zm-65.374 14.28c5.438 5.44 10.876 10.876 16.313 16.314l30.563-30.563H43.562v14.25zm147.5 16.25c5.307-5.88 12.533-10.798 16.563-17.56-.836-4.12 1.795-9.17-.063-12.814-15.62-.297-31.318-.037-46.968-.125 10.156 10.168 20.312 20.335 30.47 30.5zM125.156 145c-6.642 3.562-2.532 12.53-3.656 18.594v55.875c-3.567 1.06-18.562-2.604-11.575 2.825l15.42 15.393 18.31-18.313c-4.416-.097-11.53 1.716-13.75-2.813v-67.156c-1.51-1.274-2.878-3.953-4.75-4.406zM79 191.188c5.6 5.23 10.433 12.06 16.906 16 4.414-.784 9.46 1.735 13.5-.188v-46.188L79 191.188zm63 16c6.32-.09 14.44 2.5 18.313-4.446 2.45-4.29 12.284-8.586 10.023-12.875L142 161.53v45.657z" fill="url(#k)"/><g><path d="M126.5 2.875l-1.437 1.438-31.907 31.906H36.47v56.686L4.312 125.062l-1.47 1.438 1.47 1.438 32.156 32.156v56.375h56.186l32.22 32.186 1.468 1.47 1.438-1.47L160 216.47h56.969v-56.784l31.75-31.75 1.436-1.436-1.437-1.438-31.75-31.75V35.97h-57.376L127.97 4.312l-1.47-1.438zm0 5.78l27.313 27.314h-18.908v68.717l-8.406 8.407-8.125-8.125V36.22H98.938L126.5 8.655zM139 40.063h18.906l20.813 20.813-39.72 39.72V40.062zm24.688 0h49.156V89.19l-19.25-19.25-1.47-1.438-1.436 1.438-43.97 43.968H139v-7.5l44.063-44.094 1.47-1.437-1.47-1.438-19.375-19.374zm-123.125.282H89.03L69.94 59.437 68.5 60.876l1.438 1.438 44.343 44.343v7.25h-8.155L62.25 70.03l-1.468-1.468-1.438 1.47-18.78 18.78V40.344zm54.25 0h19.468v60.53l-40-40 20.533-20.53zm97.312 33.937L212.845 95v18.906H152.53l39.595-39.625zm-131.344.095l39.533 39.53h-59.75v-19.31l20.218-20.22zM36.47 98.688v19.343h67.968l8.562 8.564-7.844 7.844H36.47v19.875L8.656 126.5 36.47 98.687zm180.5.437l27.374 27.375-27.375 27.375v-19.438h-69.094l-7.938-7.938 8.47-8.47h68.56V99.126zM134.905 110.5V118.03H142.594l-7.03 7.032-1.44 1.438 1.44 1.438 6.5 6.5h-7.159v8.593l-7.125-7.124-1.436-1.437-1.47 1.436-6.374 6.375v-7.842H110.938l6.406-6.407 1.47-1.436-1.47-1.47-7.094-7.093h8.125V110.75l6.688 6.688 1.437 1.437 1.47-1.438 6.936-6.937zm-94.343 28.03h60.5l-40.188 40.19-20.312-20.314V138.53zm66.28 0h7.563v7.845l-44.468 44.47-1.438 1.436 1.438 1.47 18.625 18.625h-48v-48.188l18.875 18.875 1.437 1.438 1.438-1.438 44.53-44.53zm32.157 0h7.156l44.532 44.532 1.437 1.438 1.47-1.438 19.25-19.25v48.563h-48.75l18.624-18.625 1.436-1.47-1.437-1.436-43.72-43.72v-8.593zm12.97 0h60.874V158l-20.72 20.72-40.155-40.19zm-25.626 1.72l8.563 8.563v67.656h19.28l-27.844 27.843L98.47 216.47h20.03v-68.376l7.844-7.844zm-11.938 11.938v60.187h-20.03L74.28 192.28l40.126-40.093zm24.594.718l39.375 39.375-20.094 20.095H139v-59.47z" fill-opacity=".471" filter="url(#l)"/><path d="M125.5 1.875l-1.438 1.438-31.906 31.906H35.47v56.686L3.312 124.062l-1.47 1.438 1.47 1.438 32.156 32.156v56.375h56.186l32.22 32.186 1.468 1.47 1.437-1.47L159 215.47h56.969v-56.784l31.75-31.75 1.436-1.436-1.437-1.438-31.75-31.75V34.97h-57.376L126.97 3.312l-1.47-1.438zm0 5.78l27.313 27.314h-18.908v68.717l-8.406 8.407-8.125-8.125V35.22H97.938L125.5 7.655zM138 39.063h18.906l20.813 20.813L138 99.595V39.062zm24.688 0h49.156V88.19l-19.25-19.25-1.47-1.438-1.436 1.438-43.97 43.968H138v-7.5l44.063-44.094 1.468-1.437-1.468-1.438-19.375-19.374zm-123.125.282H88.03L68.938 58.437 67.5 59.876l1.438 1.438 44.343 44.343v7.25h-8.155L61.25 69.03l-1.47-1.468-1.436 1.47-18.782 18.78V39.344zm54.25 0h19.468v60.53l-40-40 20.532-20.53zm97.312 33.937L211.845 94v18.906H151.53l39.595-39.625zm-131.344.095l39.532 39.53h-59.75v-19.31l20.22-20.22zM35.47 97.688v19.343h67.968l8.562 8.564-7.844 7.844H35.47v19.875L7.655 125.5 35.47 97.687zm180.5.437l27.374 27.375-27.375 27.375v-19.438h-69.094l-7.94-7.938 8.47-8.47h68.563V98.126zM133.905 109.5V117.03H141.593l-7.03 7.032-1.44 1.438 1.44 1.438 6.5 6.5h-7.159v8.593l-7.125-7.124-1.436-1.437-1.47 1.436-6.374 6.375v-7.842H109.937l6.407-6.407 1.47-1.436-1.47-1.47-7.094-7.093h8.125V109.75l6.688 6.688 1.437 1.437 1.47-1.438 6.936-6.937zm-94.344 28.03h60.5l-40.187 40.19-20.313-20.314V137.53zm66.282 0h7.562v7.845l-44.47 44.47-1.436 1.436 1.438 1.47 18.624 18.625h-48v-48.188l18.876 18.875 1.437 1.438 1.438-1.438 44.53-44.53zm32.156 0h7.156l44.53 44.532 1.44 1.438 1.468-1.438 19.25-19.25v48.563h-48.75l18.625-18.625 1.436-1.47-1.437-1.436-43.72-43.72v-8.593zm12.97 0h60.874V157l-20.72 20.72-40.155-40.19zm-25.626 1.72l8.562 8.563v67.656h19.281l-27.844 27.843L97.47 215.47h20.03v-68.376l7.844-7.844zm-11.938 11.938v60.187h-20.03L73.28 191.28l40.126-40.093zm24.594.718l39.375 39.375-20.094 20.095H138v-59.47z" fill="#fff"/></g></svg>