<svg xmlns="http://www.w3.org/2000/svg" width="298" height="420" viewBox="0 0 298 420"><title>Slice 1</title><g fill="none"><path d="M233.164 15.68h-24.688l25.674 27.86V56.8h-52.882V41.276h25.67l-25.67-27.86V.135h51.896V15.68zm-62.378 0h-24.688l25.673 27.86V56.8h-52.88V41.276h25.67l-25.67-27.86V.135h51.896V15.68zm-61.768.632h-26.64v24.313h26.64V56.8H63.444V.136h45.574v16.177zm0 0" id="Shape" fill="#131313"/><path d="M27.142 386.29L.072 82.67h297.45l-27.097 303.57-121.81 33.77L27.14 386.29zm0 0" id="Shape" fill="#1572B6"/><path d="M148.798 394.2l98.427-27.29 23.157-259.414H148.798V394.2zm0 0" id="Shape" fill="#33A9DC"/><g transform="translate(55 142)"><path d="M93.797 75.496h49.275l3.403-38.132H93.797V.124h93.375l-.893 9.992-9.153 102.616h-83.33V75.496zm0 0" id="Shape" fill="#fff"/><path d="M94.02 172.204l-.163.046-41.472-11.2-2.652-29.697H12.353l5.217 58.467 76.278 21.176.172-.048v-38.744zm0 0" id="Shape" fill="#EBEBEB"/><path d="M139.907 111.156l-4.484 49.87-41.532 11.21v38.742l76.34-21.158.56-6.29 6.478-72.374h-37.36zm0 0" id="Shape" fill="#fff"/><path d="M93.926.125v37.238H3.978l-.746-8.37-1.697-18.877-.89-9.99h93.28zm0 0M93.797 75.5v37.238H52.85l-.746-8.37-1.698-18.877-.89-9.99h44.28zm0 0" fill="#EBEBEB"/></g></g></svg>