<svg xmlns="http://www.w3.org/2000/svg" width="469.86" height="110.329" viewBox="0 0 469.85999 110.32901" enable-background="new 0 0 612 792"><path d="M30.054 69.273H13.31c2.217 7.605 6.33 14.42 12.354 20.445 9.602 9.603 21.148 14.398 34.65 14.398 2.7 0 5.314-.2 7.854-.584 10.17-1.535 19.074-6.133 26.703-13.814 6.063-6.022 10.206-12.84 12.44-20.445H30.053z" fill="#2c2255"/><g transform="translate(-71.07 -323.663)" fill="#2c2255"><path d="M91.89 370.194h-8.746c-.32 1.922-.538 3.884-.637 5.896H180.263c-.1-2.012-.317-3.974-.64-5.896"/><path d="M82.507 381.565c.1 2.013.316 3.975.637 5.896h96.482c.322-1.92.542-3.882.642-5.895"/></g><path d="M107.312 41.055c-2.232-7.626-6.376-14.474-12.44-20.54-7.61-7.61-16.49-12.174-26.626-13.71-2.564-.39-5.205-.593-7.932-.593-13.502 0-25.05 4.77-34.65 14.303-6.025 6.066-10.14 12.914-12.357 20.54" fill="#2c2255"/><path d="M8.53 55.166c0-25.824 19.395-47.28 44.626-51.055-.626-.022-1.255-.047-1.887-.047C22.954 4.063 0 26.943 0 55.166 0 83.39 22.954 106.27 51.27 106.27c.633 0 1.262-.025 1.89-.048-25.235-3.774-44.63-25.23-44.63-51.056z" fill="#f7941e"/><path fill="#f7941e" d="M279.594 0h10.197v12.912h-10.196z"/><path d="M194.46 53.136v4.986h-46.886c.442 7.023 2.558 12.37 6.345 16.044 3.787 3.678 9.06 5.514 15.82 5.514 3.917 0 7.713-.48 11.39-1.438 3.677-.96 7.323-2.402 10.946-4.324v9.645c-3.658 1.552-7.408 2.734-11.25 3.548-3.844.813-7.74 1.22-11.694 1.22-9.9 0-17.743-2.88-23.525-8.646-5.782-5.764-8.673-13.556-8.673-23.384 0-10.16 2.743-18.225 8.23-24.19 5.485-5.967 12.885-8.952 22.194-8.952 8.35 0 14.954 2.688 19.812 8.064 4.86 5.37 7.29 12.678 7.29 21.914m-10.198-2.992c-.075-5.578-1.636-10.03-4.683-13.355-3.05-3.327-7.086-4.99-12.11-4.99-5.69 0-10.244 1.608-13.66 4.823-3.42 3.213-5.386 7.74-5.903 13.576l36.355-.056z" fill="#2c2255"/><path d="M247.352 27.035v9.53c-2.883-1.587-5.773-2.778-8.673-3.573-2.903-.795-5.83-1.19-8.786-1.19-6.614 0-11.75 2.095-15.405 6.288C210.83 42.283 209 48.168 209 55.74c0 7.574 1.83 13.46 5.487 17.652 3.655 4.195 8.79 6.29 15.404 6.29 2.956 0 5.883-.397 8.785-1.19 2.897-.794 5.79-1.985 8.672-3.575v9.42c-2.846 1.33-5.793 2.328-8.84 2.992-3.05.665-6.29.997-9.727.997-9.348 0-16.773-2.938-22.277-8.812-5.506-5.873-8.258-13.798-8.258-23.775 0-10.12 2.78-18.084 8.34-23.885 5.56-5.8 13.182-8.7 22.86-8.7 3.14 0 6.207.325 9.2.97 2.993.646 5.893 1.617 8.702 2.91" fill="#2c2255"/><path fill="#2c2255" d="M256.573.488h10.2V86.72h-10.2z"/><path d="M279.594 24.65h10.197v62.07h-10.196V24.65z" fill="#2c2255"/><path d="M312.48 77.41v32.92h-10.253V24.65h10.252v9.422c2.143-3.693 4.85-6.438 8.12-8.23 3.27-1.79 7.176-2.688 11.72-2.688 7.538 0 13.662 2.992 18.37 8.98 4.712 5.985 7.066 13.854 7.066 23.606 0 9.756-2.354 17.625-7.065 23.61-4.708 5.983-10.832 8.978-18.37 8.978-4.544 0-8.45-.896-11.72-2.69-3.27-1.79-5.98-4.533-8.12-8.23M347.17 55.74c0-7.5-1.543-13.383-4.628-17.65-3.085-4.267-7.324-6.4-12.72-6.4-5.395 0-9.635 2.133-12.718 6.4-3.085 4.268-4.63 10.15-4.63 17.65 0 7.502 1.545 13.387 4.63 17.652 3.083 4.27 7.323 6.4 12.718 6.4 5.396 0 9.635-2.133 12.72-6.4 3.085-4.265 4.628-10.15 4.628-17.652" fill="#2c2255"/><path d="M405.718 26.48v9.643c-2.884-1.477-5.875-2.586-8.98-3.326-3.103-.738-6.317-1.107-9.642-1.107-5.062 0-8.857.775-11.39 2.328-2.53 1.55-3.794 3.88-3.794 6.982 0 2.363.902 4.22 2.714 5.57 1.81 1.348 5.448 2.63 10.918 3.852l3.49.775c7.24 1.553 12.387 3.74 15.435 6.568 3.048 2.826 4.572 6.77 4.572 11.83 0 5.764-2.282 10.326-6.847 13.69-4.562 3.36-10.833 5.042-18.813 5.042-3.324 0-6.79-.324-10.393-.97-3.604-.645-7.397-1.616-11.39-2.91v-10.53c3.77 1.96 7.482 3.428 11.14 4.408 3.658.98 7.278 1.467 10.862 1.467 4.804 0 8.496-.82 11.084-2.465 2.587-1.646 3.878-3.963 3.878-6.955 0-2.77-.932-4.895-2.796-6.375-1.867-1.477-5.96-2.9-12.278-4.268l-3.545-.83c-6.317-1.33-10.88-3.372-13.688-6.124s-4.212-6.53-4.212-11.334c0-5.838 2.07-10.344 6.207-13.52 4.138-3.18 10.013-4.77 17.623-4.77 3.77 0 7.315.278 10.64.83 3.328.56 6.394 1.39 9.203 2.498" fill="#2c2255"/><path d="M469.86 53.136v4.986h-46.885c.443 7.023 2.558 12.37 6.347 16.044 3.785 3.678 9.062 5.514 15.82 5.514 3.918 0 7.713-.48 11.39-1.438 3.677-.96 7.323-2.402 10.946-4.324v9.645c-3.66 1.552-7.41 2.734-11.252 3.548-3.84.813-7.74 1.22-11.69 1.22-9.904 0-17.745-2.88-23.525-8.646-5.783-5.764-8.674-13.556-8.674-23.384 0-10.16 2.744-18.225 8.23-24.19 5.485-5.968 12.887-8.952 22.195-8.952 8.35 0 14.955 2.688 19.813 8.064 4.857 5.37 7.287 12.678 7.287 21.914m-10.197-2.992c-.076-5.578-1.635-10.03-4.685-13.355-3.05-3.327-7.086-4.99-12.107-4.99-5.688 0-10.243 1.608-13.66 4.823-3.417 3.213-5.387 7.74-5.902 13.576l36.355-.056z" fill="#2c2255"/><g transform="translate(-71.07 -323.663)"><linearGradient id="a" gradientUnits="userSpaceOnUse" x1="131.385" y1="358.576" x2="131.385" y2="432.211" gradientTransform="matrix(1 0 0 -1 0 793)"><stop offset=".303" stop-color="#473788"/><stop offset=".872" stop-color="#2C2255"/></linearGradient><path d="M164.653 376.09c-.164-2.022-.504-3.993-1.012-5.897H99.13c-.507 1.903-.848 3.874-1.012 5.896h66.535z" fill="url(#a)"/><linearGradient id="b" gradientUnits="userSpaceOnUse" x1="131.385" y1="358.575" x2="131.385" y2="432.21" gradientTransform="matrix(1 0 0 -1 0 793)"><stop offset=".303" stop-color="#473788"/><stop offset=".872" stop-color="#2C2255"/></linearGradient><path d="M164.653 381.565H98.12c.163 2.02.502 3.992 1.01 5.896h64.512c.508-1.903.847-3.874 1.01-5.895z" fill="url(#b)"/><linearGradient id="c" gradientUnits="userSpaceOnUse" x1="131.385" y1="358.577" x2="131.385" y2="432.208" gradientTransform="matrix(1 0 0 -1 0 793)"><stop offset=".303" stop-color="#473788"/><stop offset=".863" stop-color="#2C2255"/></linearGradient><path d="M131.386 412.217c13.397 0 24.945-7.893 30.263-19.28h-60.527c5.318 11.387 16.866 19.28 30.263 19.28z" fill="url(#c)"/></g><g transform="translate(-71.07 -323.663)" fill="#fff"><path d="M93.188 381.565H180.2c.046-.87.072-1.748.072-2.63 0-.956-.035-1.903-.09-2.846H82.51c-.054.94-.09 1.89-.09 2.844 0 .883.027 1.76.073 2.63h10.698z"/><path d="M100.928 364.718H84.376c-.544 1.783-.895 3.612-1.232 5.476H179.313c-.338-1.863-.773-3.692-1.316-5.476"/><path d="M173.026 387.46H83.143c.328 1.863.7 3.69 1.236 5.476h93.938c.534-1.784.965-3.612 1.294-5.476h-6.586z"/></g></svg>