<svg xmlns="http://www.w3.org/2000/svg" width="140" height="140" viewBox="0 0 140 140" enable-background="new 0 0 280 140"><style type="text/css"><![CDATA[
	.st0{fill:#52752F;}
	.st1{fill:#212121;}
	.st2{fill:url(#SVGID_2_);}
	.st3{fill:url(#SVGID_3_);}
	.st4{fill:url(#SVGID_4_);}
	.st5{fill:url(#SVGID_5_);}
	.st6{fill:url(#SVGID_6_);}
	.st7{fill:url(#SVGID_7_);}
	.st8{fill:url(#SVGID_8_);}
	.st9{fill:url(#SVGID_9_);}
	.st10{opacity:0.5;}
	.st11{opacity:0.8;}
	.st12{fill:#636363;}
	.st13{fill:url(#SVGID_10_);}
	.st14{fill:url(#SVGID_11_);}
	.st15{fill:url(#SVGID_13_);}
	.st16{fill:url(#SVGID_14_);}
	.st17{fill:url(#SVGID_16_);}
	.st18{fill:url(#SVGID_17_);}
	.st19{fill:url(#SVGID_18_);}
	.st20{fill:url(#SVGID_19_);}
	.st21{fill:url(#SVGID_20_);}
	.st22{fill:url(#SVGID_21_);}
	.st23{fill:url(#SVGID_22_);}
	.st24{fill:url(#SVGID_23_);}
	.st25{fill:url(#SVGID_24_);}
	.st26{fill:url(#SVGID_25_);}
	.st27{fill:url(#SVGID_27_);}
	.st28{fill:url(#SVGID_28_);}
	.st29{opacity:0.5;fill:url(#SVGID_12_);}
	.st30{opacity:0.5;fill:url(#SVGID_26_);}
	.st31{fill-rule:evenodd;clip-rule:evenodd;fill:url(#SVGID_15_);}
	.st32{fill-rule:evenodd;clip-rule:evenodd;fill:url(#SVGID_1_);}
]]></style><g id="Layer_1"><linearGradient id="SVGID_1_" gradientUnits="userSpaceOnUse" x1="23.627" y1="47.258" x2="90.677" y2="130.733"><stop offset="0" stop-color="#4C4C4E"/><stop offset="1" stop-color="#040405"/></linearGradient><path class="st32" d="M45.68 43.98v-6.94h-7.46s-5.4 0-5.4 7.09v16.42s-.07 4.54-4.5 4.54v6.45h1.99s2.44-.15 2.44 2.93v42.15s-.23 7.05 6.3 7.05h57.3s5.81-.38 5.81-7.05v-7.5s-.04-4.12 4.54-4.12v-6.23s-4.46.08-4.46-4.65v-6.56s.15-7.54-5.96-7.54h-7.05v7.2h3.56s2.62.11 2.62 3.45v6.97s.45 4.24 5.33 4.24c0 0-5.4.3-5.4 5.25v5.81s.3 3.75-3.04 3.75H42.35s-2.78-.08-2.78-4.01V73.57s.08-5.36-5.55-5.36c0 0 5.59-.38 5.59-4.69V46.98s.3-3.04 3-3.04 3.07.04 3.07.04z"/><linearGradient id="SVGID_2_" gradientUnits="userSpaceOnUse" x1="52.964" y1="83.422" x2="64.889" y2="90.397"><stop offset="0" stop-color="#5A5B5D"/><stop offset=".554" stop-color="#2D2D2E"/><stop offset=".834" stop-color="#1B1B1B"/><stop offset=".883" stop-color="#222"/><stop offset=".954" stop-color="#343436"/><stop offset="1" stop-color="#444446"/></linearGradient><path class="st2" d="M54.67 107.6s-1.1 1.26-6.89-2.05c-5.79-3.32-4.92-4.72-4.92-4.72l20.74-36.2 11.81 6.77-20.74 36.2z"/><linearGradient id="SVGID_3_" gradientUnits="userSpaceOnUse" x1="50.86" y1="87.203" x2="62.736" y2="94.149" gradientTransform="matrix(.998 .004 .004 .994 2.064 -3.614)"><stop offset="0" stop-color="#CECED0"/><stop offset=".085" stop-color="#D6D7D9"/><stop offset=".193" stop-color="#DADBDD"/><stop offset=".361" stop-color="#C8C9CB"/><stop offset=".697" stop-color="#9A9B9E"/><stop offset=".834" stop-color="#858689"/><stop offset=".889" stop-color="#8C8D90"/><stop offset=".97" stop-color="#9FA1A4"/><stop offset="1" stop-color="#A8AAAD"/></linearGradient><path class="st3" d="M55.3 106.51s-1.1 1.25-6.88-2.06c-5.79-3.31-4.93-4.7-4.93-4.7L63.27 65.3l11.81 6.77-19.78 34.44z"/><linearGradient id="SVGID_4_" gradientUnits="userSpaceOnUse" x1="42.433" y1="101.827" x2="54.307" y2="108.773" gradientTransform="matrix(1.005 -.008 -.008 1.014 12.711 -22.151)"><stop offset="0" stop-color="#557435"/><stop offset=".205" stop-color="#4B573F"/><stop offset=".368" stop-color="#444446"/><stop offset=".54" stop-color="#474B43"/><stop offset=".792" stop-color="#4D5F3D"/><stop offset="1" stop-color="#557435"/></linearGradient><path class="st4" d="M57.71 102.31s-1.12 1.29-6.91-2.03c-5.79-3.31-4.91-4.74-4.91-4.74L63.6 64.63l11.81 6.77-17.7 30.91z"/><linearGradient id="SVGID_5_" gradientUnits="userSpaceOnUse" x1="40.671" y1="104.946" x2="52.497" y2="111.864" gradientTransform="matrix(1.004 -.006 -.006 1.011 13.709 -23.855)"><stop offset="0" stop-color="#557435"/><stop offset=".076" stop-color="#5D882D"/><stop offset=".158" stop-color="#59832A"/><stop offset=".688" stop-color="#42681B"/><stop offset="1" stop-color="#3A5E15"/></linearGradient><path class="st5" d="M57.8 102.14s-1.12 1.28-6.9-2.03c-5.79-3.31-4.91-4.74-4.91-4.74l16.19-28.21 11.81 6.77-16.19 28.21z"/><linearGradient id="SVGID_6_" gradientUnits="userSpaceOnUse" x1="-251.417" y1="614.739" x2="-239.621" y2="621.639" gradientTransform="matrix(.938 .109 .109 .81 229.108 -399.865)"><stop offset="0" stop-color="#90969C"/><stop offset="1" stop-color="#444446"/></linearGradient><path class="st6" d="M69.32 82.04s-.9.9-6.69-2.41c-5.79-3.32-5.13-4.36-5.13-4.36l5.58-9.91 11.81 6.77-5.57 9.91z"/><linearGradient id="SVGID_7_" gradientUnits="userSpaceOnUse" x1="-253.082" y1="617.985" x2="-241.436" y2="624.797" gradientTransform="matrix(.937 .11 .11 .807 229.266 -400.131)"><stop offset="0" stop-color="#BCC6CD"/><stop offset=".156" stop-color="#B4BEC8"/><stop offset=".874" stop-color="#747A81"/><stop offset="1" stop-color="#90969C"/></linearGradient><path class="st7" d="M69.4 81.9s-.9.9-6.68-2.42-5.13-4.35-5.13-4.35l5.78-9.89 11.81 6.77-5.78 9.89z"/><radialGradient id="SVGID_8_" cx="-246.755" cy="620.197" r="10.398" gradientTransform="matrix(.895 .444 -.278 .635 459.56 -211.115)" gradientUnits="userSpaceOnUse"><stop offset="0" stop-color="#1B1B1B" stop-opacity=".9"/><stop offset="1" stop-color="#1B1B1B" stop-opacity="0"/></radialGradient><path class="st8" d="M69.4 81.9s-.9.9-6.68-2.42-5.13-4.35-5.13-4.35l6.25-10.66 11.81 6.77L69.4 81.9z"/><path class="st0" d="M80.29 17.01c-17.21 0-31.16 13.95-31.16 31.16s13.95 31.16 31.16 31.16 31.16-13.95 31.16-31.16c.01-17.21-13.95-31.16-31.16-31.16zm.23 53.33c-12.43 0-22.5-10.07-22.5-22.5s10.07-22.5 22.5-22.5 22.5 10.07 22.5 22.5c0 12.42-10.07 22.5-22.5 22.5z"/><linearGradient id="SVGID_9_" gradientUnits="userSpaceOnUse" x1="58.484" y1="25.69" x2="104.722" y2="71.928"><stop offset="0" stop-color="#5E8830"/><stop offset=".461" stop-color="#6B8F3F"/><stop offset=".85" stop-color="#537C26"/><stop offset=".879" stop-color="#598329"/><stop offset=".923" stop-color="#699730"/><stop offset=".97" stop-color="#80B43B"/></linearGradient><path class="st9" d="M80.52 16.56c-17.21 0-31.16 13.95-31.16 31.16s13.95 31.16 31.16 31.16 31.16-13.95 31.16-31.16-13.95-31.16-31.16-31.16zm0 53.78c-12.43 0-22.5-10.07-22.5-22.5s10.07-22.5 22.5-22.5 22.5 10.07 22.5 22.5c0 12.42-10.07 22.5-22.5 22.5z"/><radialGradient id="SVGID_10_" cx="80.069" cy="47.5" r="31.162" gradientUnits="userSpaceOnUse"><stop offset=".631" stop-color="#80B43B"/><stop offset=".769" stop-color="#80B43B" stop-opacity="0"/></radialGradient><path class="st13" d="M80.07 16.34c-17.21 0-31.16 13.95-31.16 31.16s13.95 31.16 31.16 31.16 31.16-13.95 31.16-31.16-13.95-31.16-31.16-31.16zm.45 54c-12.43 0-22.5-10.07-22.5-22.5s10.07-22.5 22.5-22.5 22.5 10.07 22.5 22.5c0 12.42-10.07 22.5-22.5 22.5z"/><linearGradient id="SVGID_11_" gradientUnits="userSpaceOnUse" x1="60.532" y1="36.815" x2="100.929" y2="59.095"><stop offset=".007" stop-color="#40692A"/><stop offset=".104" stop-color="#49732C"/><stop offset=".486" stop-color="#679634"/><stop offset=".798" stop-color="#79AC39"/><stop offset="1" stop-color="#80B43B"/></linearGradient><path class="st14" d="M80.52 24.78c-12.74 0-23.06 10.33-23.06 23.06S67.78 70.9 80.52 70.9s23.06-10.33 23.06-23.06-10.32-23.06-23.06-23.06zm0 45.56c-12.43 0-22.5-10.07-22.5-22.5s10.07-22.5 22.5-22.5 22.5 10.07 22.5 22.5c0 12.42-10.07 22.5-22.5 22.5z"/><linearGradient id="SVGID_12_" gradientUnits="userSpaceOnUse" x1="63.194" y1="30.513" x2="97.962" y2="65.281"><stop offset=".005" stop-color="#768290"/><stop offset=".035" stop-color="#8190A2"/><stop offset=".093" stop-color="#93A6BD"/><stop offset=".155" stop-color="#A1B7D2"/><stop offset=".224" stop-color="#ABC4E1"/><stop offset=".305" stop-color="#B0CBEA"/><stop offset=".427" stop-color="#B2CDED"/><stop offset=".776" stop-color="#D3DFE4"/><stop offset=".825" stop-color="#CFDBE0"/><stop offset=".875" stop-color="#C5CFD4"/><stop offset=".925" stop-color="#B2BABF"/><stop offset=".975" stop-color="#999EA3"/><stop offset="1" stop-color="#8A8D92"/></linearGradient><circle class="st29" cx="80.52" cy="47.84" r="22.5"/><radialGradient id="SVGID_13_" cx="90.869" cy="40.863" r="16.639" gradientUnits="userSpaceOnUse"><stop offset="0" stop-color="#fff"/><stop offset="1" stop-color="#fff" stop-opacity="0"/></radialGradient><path class="st15" d="M80.74 36.14c6.59 0 11.93 5.34 11.93 11.92 0 1.08-.15 2.13-.42 3.13l7.63 2.77c.57-1.86.88-3.84.88-5.89 0-11.06-8.97-20.02-20.03-20.02h-.45v8.11c.16-.02.31-.02.46-.02z"/><g class="st11"><radialGradient id="SVGID_14_" cx="67.328" cy="58.032" r="5.608" gradientUnits="userSpaceOnUse"><stop offset="0" stop-color="#fff"/><stop offset="1" stop-color="#fff" stop-opacity="0"/></radialGradient><path class="st16" d="M71.33 60.18c-2.74 0-4.96-2.22-4.96-4.96 0-.68.14-1.33.38-1.91l-3.69-1.45c-.46 1.07-.71 2.25-.71 3.49 0 4.89 3.97 8.86 8.86 8.86.37 0 .74-.03 1.1-.07v-4.05c-.32.06-.64.09-.98.09z"/></g><path class="st1" d="M45.79 120.97v-1.63h.2v1.45h.76v.18h-.96zM46.89 120.38c0-.34.22-.62.58-.62s.58.28.58.62-.21.62-.57.62-.59-.28-.59-.62zm.98 0c0-.24-.14-.45-.39-.45s-.39.21-.39.45c0 .24.14.46.39.46s.39-.22.39-.46zM48.36 121.27l.09-.13c.1.11.21.16.38.16.2 0 .38-.1.38-.34v-.18c-.09.12-.23.21-.4.21-.31 0-.52-.23-.52-.61s.21-.61.52-.61c.16 0 .3.08.4.21v-.18h.18v1.16c0 .37-.28.5-.56.5-.19-.01-.33-.05-.47-.19zm.86-.64v-.52c-.07-.1-.21-.19-.35-.19-.24 0-.38.19-.38.45s.14.45.38.45c.14 0 .28-.09.35-.19zM49.7 120.38c0-.34.22-.62.58-.62s.58.28.58.62-.22.62-.58.62-.58-.28-.58-.62zm.97 0c0-.24-.14-.45-.39-.45s-.39.21-.39.45c0 .24.14.46.39.46s.39-.22.39-.46zM52.57 121c-.46 0-.84-.38-.84-.84 0-.47.38-.84.84-.84.47 0 .84.38.84.84 0 .46-.38.84-.84.84zm0-1.61c-.42 0-.77.34-.77.77 0 .42.35.77.77.77.42 0 .77-.35.77-.77-.01-.43-.35-.77-.77-.77zm.36 1.13c-.09.1-.21.16-.36.16-.28 0-.51-.23-.51-.52s.23-.52.51-.52c.15 0 .27.06.36.16l-.06.06c-.06-.09-.18-.14-.3-.14-.22 0-.42.18-.42.44s.2.44.42.44c.12 0 .23-.06.3-.14l.06.06zM54.35 120.97v-1.63h1.07v.18h-.86v.53h.85v.18h-.85v.56h.86v.18h-1.07zM55.73 120.97v-1.63h.18v1.63h-.18zM57.02 120.97v-.13c-.1.11-.23.16-.39.16-.2 0-.41-.13-.41-.39 0-.27.21-.39.41-.39.16 0 .3.05.39.16v-.21c0-.16-.13-.25-.3-.25-.14 0-.26.05-.36.16l-.09-.13c.13-.13.28-.2.47-.2.25 0 .46.11.46.4v.81h-.18zm0-.25v-.22c-.07-.1-.2-.14-.32-.14-.17 0-.29.11-.29.26 0 .15.12.26.29.26.12-.01.25-.06.32-.16zM57.47 120.82l.09-.13c.08.09.23.17.39.17.18 0 .28-.08.28-.2 0-.29-.73-.11-.73-.55 0-.19.16-.34.44-.34.2 0 .34.08.44.17l-.09.13c-.07-.08-.2-.15-.35-.15-.16 0-.26.08-.26.19 0 .26.73.09.73.55 0 .2-.16.36-.46.36-.2-.02-.36-.08-.48-.2zM58.75 120.72v-.77h-.2v-.16h.2v-.32h.19v.32h.24v.16h-.24v.73c0 .09.04.15.12.15.05 0 .1-.03.12-.05l.05.14c-.05.04-.11.08-.22.08-.18 0-.26-.1-.26-.28zM59.4 119.5c0-.07.06-.12.12-.12s.12.06.12.12-.05.12-.12.12-.12-.05-.12-.12zm.03 1.47v-1.18h.18v1.18h-.18zM59.91 120.38c0-.35.24-.62.59-.62.21 0 .34.09.43.21l-.12.11c-.08-.11-.18-.15-.3-.15-.25 0-.41.19-.41.45s.16.46.41.46c.12 0 .22-.05.3-.15l.12.11c-.09.12-.22.21-.43.21-.35-.01-.59-.28-.59-.63zM61.74 120.74l.12-.16c.1.12.28.23.51.23.29 0 .38-.16.38-.28 0-.42-.96-.19-.96-.77 0-.27.24-.45.56-.45.25 0 .44.09.58.23l-.12.15c-.12-.14-.29-.2-.47-.2-.19 0-.33.1-.33.26 0 .37.96.16.96.76 0 .23-.16.48-.6.48-.29.01-.5-.1-.63-.25zM63.19 120.38c0-.34.24-.62.58-.62.36 0 .57.28.57.63v.05h-.95c.01.22.17.41.42.41.14 0 .27-.05.37-.15l.09.12c-.12.12-.28.18-.47.18-.36 0-.61-.25-.61-.62zm.58-.47c-.25 0-.38.21-.39.39h.77c.01-.17-.11-.39-.38-.39zM65.37 120.97v-.13c-.1.11-.23.16-.39.16-.2 0-.41-.13-.41-.39 0-.27.21-.39.41-.39.16 0 .3.05.39.16v-.21c0-.16-.13-.25-.3-.25-.14 0-.26.05-.36.16l-.09-.13c.13-.13.28-.2.47-.2.25 0 .46.11.46.4v.81h-.18zm0-.25v-.22c-.07-.1-.2-.14-.32-.14-.17 0-.29.11-.29.26 0 .15.12.26.29.26.13-.01.25-.06.32-.16zM65.93 120.97v-1.18h.18v.19c.1-.12.23-.21.39-.21v.19h-.07c-.11 0-.27.09-.32.19v.83h-.18zM66.67 120.38c0-.35.24-.62.59-.62.21 0 .34.09.43.21l-.12.11c-.08-.11-.18-.15-.3-.15-.25 0-.41.19-.41.45s.16.46.41.46c.12 0 .22-.05.3-.15l.12.11c-.09.12-.22.21-.43.21-.36-.01-.59-.28-.59-.63zM68.75 120.97v-.78c0-.21-.1-.27-.27-.27-.14 0-.28.09-.35.18v.86h-.18v-1.63h.18v.62c.08-.1.24-.2.42-.2.25 0 .38.12.38.38v.83h-.18zM69.26 120.86c0-.07.06-.13.13-.13s.13.06.13.13-.06.13-.13.13-.13-.05-.13-.13zM70.41 120.74l.12-.16c.1.12.28.23.51.23.29 0 .38-.16.38-.28 0-.42-.96-.19-.96-.77 0-.27.24-.45.56-.45.25 0 .44.09.58.23l-.12.15c-.12-.14-.29-.2-.47-.2-.19 0-.33.1-.33.26 0 .37.96.16.96.76 0 .23-.16.48-.6.48-.29.01-.5-.1-.63-.25zM72.43 120.97l-.66-1.63H72l.55 1.41.55-1.41h.23l-.65 1.63h-.25zM73.43 120.16c0-.51.37-.84.84-.84.29 0 .49.13.63.3l-.16.1c-.1-.13-.28-.22-.47-.22-.36 0-.63.27-.63.66s.27.66.63.66c.2 0 .36-.09.44-.18v-.33h-.56v-.18h.76v.59c-.15.17-.37.28-.64.28-.46 0-.84-.34-.84-.84zM75.87 120.97v-1.63h.18v.63c.1-.13.24-.21.4-.21.31 0 .52.24.52.62s-.22.62-.52.62c-.17 0-.31-.08-.4-.21v.18h-.18zm.54-.13c.24 0 .38-.19.38-.46 0-.26-.14-.46-.38-.46-.15 0-.29.09-.35.19v.54c.06.1.2.19.35.19zM77.24 121.27c.03.01.07.02.1.02.08 0 .13-.03.18-.12l.08-.18-.49-1.19h.2l.39.97.39-.97h.2l-.59 1.42c-.07.17-.19.24-.35.24-.04 0-.1-.01-.13-.02l.02-.17zM79.6 120.97l-.66-1.63h.23l.55 1.41.55-1.41h.23l-.65 1.63h-.25zM80.5 120.38c0-.34.22-.62.58-.62s.58.28.58.62-.21.62-.57.62-.59-.28-.59-.62zm.98 0c0-.24-.14-.45-.39-.45s-.39.21-.39.45c0 .24.14.46.39.46s.39-.22.39-.46zM81.9 120.38c0-.34.22-.62.58-.62s.58.28.58.62-.22.62-.57.62-.59-.28-.59-.62zm.98 0c0-.24-.14-.45-.39-.45s-.39.21-.39.45c0 .24.14.46.39.46s.39-.22.39-.46zM83.37 120.97v-1.18h.18v.19c.1-.12.23-.21.39-.21v.19h-.07c-.11 0-.27.09-.32.19v.83h-.18zM85.6 120.97v-.8c0-.15-.06-.24-.22-.24-.12 0-.25.08-.31.18v.86h-.18v-.8c0-.15-.06-.24-.22-.24-.12 0-.25.09-.31.18v.86h-.18v-1.18h.18v.17c.05-.08.21-.2.38-.2.18 0 .28.1.31.22.07-.11.22-.22.4-.22.21 0 .33.12.33.36v.85h-.18zM86.09 120.38c0-.34.24-.62.58-.62.36 0 .57.28.57.63v.05h-.95c.01.22.17.41.42.41.14 0 .27-.05.37-.15l.09.12c-.12.12-.28.18-.47.18-.36 0-.61-.25-.61-.62zm.57-.47c-.25 0-.38.21-.39.39h.77c.01-.17-.11-.39-.38-.39zM88.39 120.97v-.18c-.09.12-.23.21-.4.21-.31 0-.52-.23-.52-.62 0-.38.22-.62.52-.62.16 0 .3.08.4.21v-.63h.18v1.63h-.18zm0-.32v-.53c-.06-.1-.21-.19-.35-.19-.24 0-.38.2-.38.46s.14.46.38.46c.14-.01.28-.1.35-.2zM88.91 119.5c0-.07.06-.12.12-.12s.12.06.12.12-.05.12-.12.12-.12-.05-.12-.12zm.03 1.47v-1.18h.18v1.18h-.18zM90.23 120.97v-.13c-.1.11-.23.16-.39.16-.2 0-.41-.13-.41-.39 0-.27.21-.39.41-.39.16 0 .3.05.39.16v-.21c0-.16-.13-.25-.3-.25-.14 0-.26.05-.36.16l-.09-.13c.13-.13.28-.2.47-.2.25 0 .46.11.46.4v.81h-.18zm0-.25v-.22c-.07-.1-.2-.14-.32-.14-.17 0-.29.11-.29.26 0 .15.12.26.29.26.12-.01.24-.06.32-.16zM90.74 120.86c0-.07.06-.13.13-.13s.13.06.13.13-.06.13-.13.13-.13-.05-.13-.13z"/></g></svg>