<svg xmlns="http://www.w3.org/2000/svg" viewBox="0 0 272.96 114.01" width="272.96" height="114.01"><path fill="#362701" d="M163.59 38.806c-5.985 0-10.442 2.94-10.442 10.012 0 5.33 2.938 9.028 10.12 9.028 6.088 0 10.222-3.587 10.222-9.248 0-6.416-3.7-9.792-9.9-9.792zm-11.97 49.94c-1.416 1.738-2.828 3.585-2.828 5.765 0 4.35 5.546 5.657 13.163 5.657 6.31 0 14.905-.44 14.905-6.308 0-3.488-4.135-3.704-9.36-4.03l-15.88-1.084zm32.2-49.61c1.956 2.502 4.026 5.984 4.026 10.988 0 12.075-9.465 19.146-23.17 19.146-3.484 0-6.64-.434-8.595-.977l-3.59 5.765 10.66.65c18.822 1.2 29.915 1.745 29.915 16.21 0 12.513-10.985 19.58-29.915 19.58-19.69 0-27.196-5.005-27.196-13.598 0-4.898 2.176-7.503 5.983-11.098-3.59-1.518-4.786-4.236-4.786-7.175 0-2.395 1.196-4.57 3.157-6.638 1.958-2.066 4.133-4.136 6.744-6.53-5.33-2.61-9.355-8.266-9.355-16.318 0-12.51 8.27-21.1 24.91-21.1 4.68 0 7.51.43 10.01 1.088h21.216v9.244l-10.01.762M212.98 19.366c-6.202 0-9.79-3.593-9.79-9.796 0-6.196 3.588-9.57 9.79-9.57 6.31 0 9.9 3.374 9.9 9.57 0 6.203-3.59 9.796-9.9 9.796zm-14.036 65.376v-8.59l5.55-.76c1.524-.22 1.74-.544 1.74-2.18V41.23c0-1.195-.325-1.96-1.416-2.283l-5.874-2.07 1.196-8.808h22.52v45.143c0 1.744.106 1.96 1.742 2.18l5.55.76v8.59h-31.01M272.97 80.526c-4.68 2.282-11.532 4.35-17.736 4.35-12.945 0-17.84-5.218-17.84-17.516v-28.5c0-.65 0-1.088-.873-1.088h-7.613V28.09c9.577-1.09 13.38-5.878 14.578-17.736h10.336v15.453c0 .76 0 1.088.873 1.088h15.338v10.877h-16.208v26c0 6.418 1.525 8.918 7.396 8.918 3.05 0 6.2-.76 8.812-1.74l2.94 9.577"/><path fill="#f03c2e" d="M111.78 51.977L62.035 2.237c-2.862-2.864-7.508-2.864-10.374 0l-10.328 10.33L54.434 25.67c3.046-1.028 6.537-.34 8.964 2.09 2.44 2.44 3.124 5.962 2.07 9.018l12.628 12.628c3.055-1.053 6.58-.373 9.02 2.07 3.41 3.41 3.41 8.936 0 12.346-3.412 3.412-8.937 3.412-12.35 0-2.564-2.566-3.2-6.334-1.9-9.494L61.09 42.55l-.002 30.992c.832.412 1.616.96 2.31 1.65 3.41 3.41 3.41 8.934 0 12.35-3.41 3.408-8.94 3.408-12.346 0-3.41-3.416-3.41-8.94 0-12.35.843-.84 1.818-1.477 2.86-1.904v-31.28c-1.042-.424-2.016-1.056-2.86-1.904-2.583-2.58-3.205-6.372-1.88-9.544L36.254 17.642 2.15 51.747c-2.866 2.867-2.866 7.513 0 10.378l49.74 49.74c2.865 2.864 7.51 2.864 10.377 0L111.78 62.36c2.864-2.866 2.864-7.513 0-10.38"/></svg>