<?xml version="1.0" encoding="utf-8"?>
<!-- Generator: Adobe Illustrator 19.1.0, SVG Export Plug-In . SVG Version: 6.00 Build 0)  -->
<svg version="1.1" id="Layer_1" xmlns="http://www.w3.org/2000/svg" xmlns:xlink="http://www.w3.org/1999/xlink" x="0px" y="0px"
	 width="841.9px" height="220px" viewBox="0 0 841.9 220" enable-background="new 0 0 841.9 220" xml:space="preserve">
<g>
	<path fill-rule="evenodd" clip-rule="evenodd" fill="#02303A" d="M285,91.6c6.2-14.5,6.1-28.7,2.3-40c-4.7-13.9-24-32.1-30.2-24.9
		c-0.8,1-11.9-0.3-13.7,2.1c-2.6,3.5-1.1,4.6,0.2,5.8c3.9,3.5,13.9,7.3,18.3,19.1c1.9,5,6.3,16.7-1.3,23.7
		c-8.7,7.9-18.4,9.7-58.2-27.3C160,10.6,103,26.7,84.2,32.9C65.3,39.2,56.7,45.4,64.1,60c10.1,19.8,6.8,13.7,16.6,30
		c15.6,26,49.7-12,49.7-12c-25.4,38.3-47.2,29-55.6,15.7c-7.5-12.1-13.4-26-13.4-26C-3,91,14.4,193.4,14.4,193.4h32
		c8.2-37.7,37.3-36.3,42.3,0h24.4c21.6-73.7,67.7,0,67.7,0h27.4c0-39.3-4.1-54.1,16-56.8C258.6,131.9,274.6,115.8,285,91.6z"/>
	<g>
		<g>
			<g>
				<path fill="#22DA27" d="M400.5,81.6v15.5c3.3-5.7,10.9-18.5,35.3-17.8l-0.1,26.8c-5.7,0.2-15.5,0.4-23.6,6.5
					c-11.2,8.5-11.6,19.6-11.6,37.7v41.4h-25.3V81.5L400.5,81.6z"/>
				<path fill="#22DA27" d="M446.3,114.7c0.5-5.5,0.9-10.8,4.4-17.2c10.5-19,36.5-18.9,43.5-18.8c10.5,0,23.1,1.4,32.7,7.1
					c12.8,7.9,13,18.2,13,29.9l-0.2,57.8c0,8.3,0,11.7,4.7,18.2h-31c-0.2-2.6-0.6-7.6-0.6-9.2c-5.7,4.8-17.3,11.1-32.3,11
					c-24.7-0.1-39.5-15.4-39.4-34.2c0-5.5,1.3-10.5,3.5-14.8c7.9-15.7,24.7-19.1,35.2-21.1c35.7-6,33.6-9.5,33.1-14.8
					c-0.5-5.1-5.7-9.8-17.7-9.8c-10.9,0-16.8,3.4-19.4,6.9c-2.8,3.5-2.6,5.7-2.7,8.8H446.3z M513.7,136.8
					c-5.2,2.6-11.1,4.5-22.9,6.5c-9.4,1.3-21.8,3.4-21.9,15c0,8.5,7.2,12.9,17.6,12.9c13.3,0,22.7-6,25.6-12.6
					c1.5-3.3,1.6-6.5,1.6-9.8L513.7,136.8z"/>
				<path fill="#22DA27" d="M657.2,37.4l-0.5,154.3h-26V181c-8.1,9.8-19,13.7-30.3,13.6c-26-0.1-48.4-19.6-48.3-55.6
					c0.1-32.5,18.5-60.2,49.7-60.1c10.7,0,20.6,3.1,28.9,12.3V37.4H657.2z M624.8,113.4c-3.9-5.9-10.4-10.1-19.2-10.1
					c-17.7-0.1-26.2,15.8-26.3,33.1c0,2,0.1,34.7,25.6,34.8c13.5,0,25.8-10,25.6-33.5C630.4,130.6,629.6,120.6,624.8,113.4z"/>
				<path fill="#22DA27" d="M702.8,37.4l-0.5,154.3h-26.4V37.4H702.8z"/>
				<path fill="#22DA27" d="M819.9,166.1c-12.2,21.4-27.5,29.2-49.8,29.2c-28.6-0.1-56-18.3-55.9-58.5c0.1-36.7,23.8-57.3,54.5-57.2
					c28.8,0.1,40.8,17.4,42.9,20.7c8.9,12.7,10.8,31.7,11,42.6l-80.8-0.3c3,17.3,13.7,27.1,30.9,27.2c17.9,0.1,22.7-10.5,25.9-15
					L819.9,166.1z M793.9,123.5c-2.3-17-12.8-23-24.4-23c-14,0-23.6,8-26.7,22.8L793.9,123.5z"/>
			</g>
		</g>
		<g>
			<path fill="#22DA27" d="M294.6,111.1v22.6h38.6v26.6c-9.9,6.4-21.2,9.9-37.4,9.9c-26.1,0-47.6-21.9-47.6-56
				c0-33.4,19.8-55.8,49.9-55.8c24.2,0,33.3,20,34.7,27.4c12.3,0,6.7,0,26.5,0c0-15.4-18.3-53.2-63.5-53.2
				c-47.9,0-76.2,34-76.2,81.8c0,49.6,33.9,80.8,74.5,80.8c60,0,65.3-30.1,65.3-30.1v-54H294.6z"/>
		</g>
	</g>
	<path fill-rule="evenodd" clip-rule="evenodd" fill="#02303A" d="M289.9,64.9c-5.8,0.5-11.6,1.5-17.2,3c-0.2,0.2-0.3,0.4-0.5,0.7
		c-2.5,2.8-5.6,5.6-9.2,7.1c-0.5,0.3-0.9,0.5-1.4,0.7c-0.3,0.3-0.6,0.7-1,1c-8.7,7.9-19.2,9.7-58.2-27.3
		c-42-39.8-99.3-23.3-118.2-17.1C65.3,39.2,56.7,45.4,64.1,60c10.1,19.8,6.8,13.7,16.6,30c15.6,26,49.7-12,49.7-12
		c-25.4,38.3-47.2,29-55.6,15.7c-7.5-12.1-13.4-26-13.4-26C-3,91,14.4,193.4,14.4,193.4h32c8.2-37.7,37.3-36.3,42.3,0h24.4
		c21.6-73.7,67.7,0,67.7,0h27.4c0-39.3-4.1-54.1,16-56.8c34.3-4.7,50.3-20.7,60.7-45C289,82.3,290.4,73.2,289.9,64.9z"/>
	<g>
		<path fill-rule="evenodd" clip-rule="evenodd" fill="#FFFFFF" d="M173.7,75.2c0,0,14.7,4.9,34.6,11.5c-1.1,5.3-11,15.5-23.8,11.2
			C167.7,92.3,173.7,75.2,173.7,75.2z"/>
		
			<ellipse transform="matrix(0.9944 -0.1056 0.1056 0.9944 -8.0067 20.6062)" fill-rule="evenodd" clip-rule="evenodd" fill="#02303A" cx="190.6" cy="85.9" rx="8.9" ry="8.6"/>
	</g>
	<path fill-rule="evenodd" clip-rule="evenodd" fill="#02303A" d="M243.6,34.6c1.1,1,2.5,1.9,3.9,2.8c6.7-5.5,15.3-5.4,22.5-8.4
		c-6.5-6-16.7-10.6-20-6.7c-0.8,1-4.8,4.1-6.6,6.5C240.8,32.3,242.3,33.4,243.6,34.6z"/>
</g>
</svg>
