<svg xmlns="http://www.w3.org/2000/svg" width="256" height="256" viewBox="0 0 256 256"><path fill="#5A676D" d="M112.717 66.344l-31.71 54.98-31.684-54.98 31.698-54.9z"/><path fill="#BCAE79" d="M144.432 11.445H81.04l31.696 54.9h63.41z"/><path fill="#5A676D" d="M144.414 121.35l31.71-54.98 31.685 54.98-31.7 54.898z"/><path fill="#BCAE79" d="M112.7 176.248h63.396l-31.7-54.9-63.41.003z"/><path fill="#5A676D" d="M31.324 239.02v-33.616h-5.38V219.3H10.06v-13.896H4.63v33.617h5.428v-15.086h15.887v15.087zM46.9 239.02v-33.616h-5.43v33.617zM79.403 228.86c0-3.483-2.042-6.823-6.424-7.67v-.1c3.434-1.192 5.726-4.23 5.726-7.665 0-5.182-3.784-8.17-11.104-8.17-4.085 0-7.92.1-10.558.146v33.618c3.737.05 7.123.147 9.164.147 10.306.006 13.195-5.922 13.195-10.304zm-6.374-14.59c0 3.387-2.64 5.43-7.67 5.43-1.144 0-1.993 0-2.89-.05v-9.96c1.295-.052 2.74-.1 4.236-.1 4.78 0 6.323 1.942 6.323 4.68zm.646 14.692c0 3.388-2.34 5.776-7.27 5.776-1.74 0-3.088-.1-3.935-.25v-10.706c.75-.048 2.49-.048 3.04-.048 4.73 0 8.166 1.392 8.166 5.228zM105.148 239.02v-4.627h-12.3v-10.46h11.703V219.5h-11.7v-9.56h12.298v-4.536h-17.73v33.617zM136.56 239.02l-8.86-11.702c-.846-1.096-1.893-2.39-2.84-3.586 5.48-.602 9.512-4.033 9.512-9.414 0-6.674-4.78-9.11-11.75-9.11-3.787 0-6.576.048-9.015.194v33.62h5.428V224.48h.25l10.457 14.54h6.82zm-7.867-24.1c0 3.335-2.64 5.58-7.02 5.58-1.197 0-2.144-.055-2.64-.102V209.74c.797-.05 1.793-.102 2.838-.102 4.532.003 6.823 1.594 6.823 5.28z"/><path fill="#BCAE79" d="M170.507 239.02v-33.616h-5.276v9.963c0 4.93.147 12.15.35 15.986-1.245-2.44-2.588-5.127-4.084-7.62l-11.104-18.328h-7.12v33.616h5.277v-11.303c0-4.782-.102-11.603-.3-14.892 1.046 2.242 2.24 4.632 3.735 7.072l11.502 19.123h7.02zM206.404 239.02l-12.2-33.616h-6.024l-12.05 33.617h5.476l2.592-7.42h13.594l2.593 7.42h6.02zm-10.058-11.752H185.59l3.783-10.406c.648-1.79 1.195-3.635 1.545-5.328h.098c.4 1.843.85 3.438 1.496 5.178l3.834 10.556zM229.157 209.988v-4.584h-23.902v4.584h9.212v29.033h5.428V209.99zM252.5 239.02v-4.627h-12.3v-10.46h11.702V219.5h-11.7v-9.56H252.5v-4.536h-17.73v33.617z"/></svg>