<svg xmlns="http://www.w3.org/2000/svg" width="226" height="312"><defs><clipPath><path d="M0 2494.84V0h1804.34v2494.84H0z"/></clipPath></defs><g transform="matrix(1.25 0 0 -1.25 0 312)"><path d="M177.718 129.264c0-49.43-39.175-89.5-87.5-89.5-48.324 0-87.5 40.07-87.5 89.5s39.176 89.5 87.5 89.5c48.325 0 87.5-40.07 87.5-89.5" fill="#d33833" fill-rule="evenodd"/><path d="M6.284 107.098s-6.334 93.333 79.666 96l-6 10-46.666-15.667L19.95 182.1 8.285 159.764l-6.667-26 2-17.333" fill="#ef3d3a"/><path d="M30.288 190.32c-15.352-15.71-24.852-37.397-24.852-61.39 0-23.988 9.5-45.68 24.852-61.384C45.648 51.84 66.815 42.15 90.218 42.15c23.4 0 44.57 9.69 59.928 25.396C165.496 83.25 175 104.942 175 128.93c0 23.993-9.503 45.68-24.854 61.39-15.358 15.7-36.527 25.392-59.93 25.394-23.4-.002-44.568-9.693-59.928-25.395zM26.402 63.746C10.087 80.433 0 103.493 0 128.93c0 25.44 10.087 48.5 26.402 65.186 16.312 16.69 38.892 27.035 63.815 27.032 24.923.003 47.505-10.342 63.814-27.032 16.318-16.687 26.406-39.747 26.404-65.186.002-25.437-10.086-48.497-26.403-65.183-16.308-16.69-38.89-27.033-63.813-27.033-24.923 0-47.503 10.344-63.815 27.033" fill="#231f20"/><path d="M127.05 128.768l-13.333-2-18-2-11.667-.333-11.333.333-8.667 2.667-7.667 8.333-6 17-1.333 3.667-8 2.666-4.667 7.668-3.333 11 3.667 9.667 8.666 3 7-3.334 3.334-7.332 4 .667 1.333 1.666-1.333 7.668-.334 9.667 2 13.333-.078 7.616 6.078 9.717 10.667 7.668 18.667 8 20.666-3 18-13 8.334-13.333 5.333-9.667 1.333-24-4-20.667-7.333-18.332-7-9.667" fill="#f0d6b7" fill-rule="evenodd"/><path d="M115.717 71.102l-47.667-2v-8l4-28-2-2.334-33.333 11.334-2.334 4-3.333 37.666-7.666 22.667-1.667 5.333L48.383 130.1l8.334 3.335 7.333-9 6.333-5.667 7.334-2.333 3.333-1 4-17.333 3-3.667 7.667 2.667-5.334-10.334 29-13.666-3.666-2" fill="#335061" fill-rule="evenodd"/><path d="M36.717 187.435l8.666 3 7-3.334 3.334-7.332 4 .667 1 4-2 7.666 2 18.335-1.667 10 6 7 13 10.333-3.667 5-18.333-9-7.667-6-4.333-9.333-6.667-9-2-10.667 1.334-11.333" fill="#6d6b6d" fill-rule="evenodd"/><path d="M50.383 218.768s5 12.333 25 18.333c20 6 1 4.335 1 4.335L54.717 233.1l-8.334-8.332-3.666-6.667 7.666.668" fill="#dcd9d8" fill-rule="evenodd"/><path d="M40.383 189.768s-7 23.334 19.667 26.667l-1 4-18.333-4.334-5.334-17.332 1.334-11.333 3.666 2.333" fill="#dcd9d8" fill-rule="evenodd"/><path d="M51.05 158.768l4.364 4.23s1.97-.23 2.303-2.563c.333-2.334 1.333-23.334 15.666-34.668 1.307-1.034-10.666 1.668-10.666 1.668L52.05 144.1" fill="#f7e4cd" fill-rule="evenodd"/><path d="M112.385 165.1s.777 10.105 3.498 9.328c2.72-.777 2.72-3.498 2.72-3.498s-6.607-4.275-6.218-5.83" fill="#f7e4cd" fill-rule="evenodd"/><path d="M140.05 202.1s-5.494-1.16-6-6c-.506-4.84 6-1 7-.666" fill="#f7e4cd"/><path d="M99.717 201.767s-7.334-1-7.334-5.666 8.334-4.333 10.667-2.333" fill="#f7e4cd"/><path d="M54.383 180.1s-12.667 7.668-14 .334c-1.333-7.333-4.334-12.667 2-20.333l-4.333 1.334-4 10.333-1.333 10 7.666 8 8.667-.666 5-4 .333-5" fill="#f7e4cd" fill-rule="evenodd"/><path d="M60.383 201.1s5.667 29.334 34.334 35c23.6 4.666 36-1 40.666-6.332 0 0-21 25-41 17.333-20-7.666-34.666-21.666-34.333-30.665.567-15.328.333-15.334.333-15.334" fill="#f7e4cd" fill-rule="evenodd"/><path d="M137.717 226.435s-9.666.333-10-8.334c0 0 0-1.332.666-2.665 0 0 7.668 8.667 12.334 4" fill="#f7e4cd" fill-rule="evenodd"/><path d="M95.39 214.532s-1.665 13.303-13.007 5.57c-7.333-5-6.666-12-5.333-13.334 1.333-1.334.97-4.02 1.985-2.176 1.015 1.843.68 7.843 4.348 9.51 3.667 1.666 9.678 3.528 12.006.43" fill="#f7e4cd" fill-rule="evenodd"/><path d="M64.05 124.435l-31.333-14s13-51.667 6.333-67.667l-4.667 1.666L34.05 64.1l-8.666 37.334-3.667 10.334 32.666 22 9.667-9.333" fill="#49728b" fill-rule="evenodd"/><path d="M67.272 95.858l4.445-5.424v-20h-5.334s-.666 14-.666 15.667c0 1.668.666 7.668.666 7.668" fill="#49728b" fill-rule="evenodd"/><path d="M67.383 67.434l-15-.666 4.334-3L67.383 62.1" fill="#49728b" fill-rule="evenodd"/><path d="M118.717 70.768l12.333.333 3-30.666-12.667-1.666-2.666 32" fill="#335061" fill-rule="evenodd"/><path d="M122.05 70.768l18.667 1s7.666 19.333 7.666 20.333 6.667 28 6.667 28l-15 15.667-3 2.667-8-8v-31l-7-28.666" fill="#335061" fill-rule="evenodd"/><path d="M130.383 73.1l-11.666-2.332 1.666-9.334c4.333-2 11.667 3.334 11.667 3.334" fill="#49728b" fill-rule="evenodd"/><path d="M130.717 131.434L154.05 114.1l.667 8-17.667 16.334-6.333-7" fill="#49728b" fill-rule="evenodd"/><path d="M78.95 5.098l-6.9 28.004-3.433 20.663-.567 15.337 31.234 1.663 19.433.003-1.767-35.003 3-27-.333-5-25.333-2L78.95 5.098" fill="#fff" fill-rule="evenodd"/><path d="M114.383 71.1s-1.666-34.666 3.334-59.332c0 0-10-6.334-24.667-8l28 1 3.333 2-4 54.666-1 11.668" fill="#dcd9d8" fill-rule="evenodd"/><path d="M134.618 43.098l13 3.667 24.666 1.333 3.667 11.333-6.666 19.668-7.666 1-10.667-3.333-10.233-4.997-5.433.997-4.234-1.664" fill="#fff" fill-rule="evenodd"/><path d="M134.383 49.768s8.666 4 10 3.666l-3.666 18.334 4.333 1.666s3-17.333 3-19.333c0 0 18.666-1 20.333-1 0 0 4 7.668 3 15.668L175.05 58.1l.333-6-5.333-8-6-1.332-10 .333-3.333 4.334-11.667-1.666-3.667-1.334" fill="#dcd9d8" fill-rule="evenodd"/><path d="M121.284 73.43L113.95 92.1l-7.666 11s1.666 4.667 4 4.667h7.667l7.334-2.667-.666-12.333-3.334-19.334" fill="#fff"/><path d="M122.717 79.768s-9.334 18-9.334 20.666c0 0 1.666 4 4 3s7.334-3.666 7.334-3.666v6.333l-11.334 2.335-7.666-1 13-30.667 2.666-.334" fill="#dcd9d8" fill-rule="evenodd"/><path d="M81.95 123.764l-9.233 1.004-8.667 2.667v-3l4.234-4.67 13.334-6" fill="#fff"/><path d="M67.05 122.765s10.335-4.334 13.668-3.334l.332-3.995-9.332 1.996-5.667 4 1 1.335" fill="#dcd9d8" fill-rule="evenodd"/><path d="M134.582 106.63c-5.656.166-10.766.838-15.24 2.1.304 1.834-.265 3.634.192 4.955 1.247.898 3.337.884 5.222 1.095-1.63.8-3.92 1.118-5.8.655-.045 1.273-.616 2.062-.962 3.058 3.18 1.135 10.687 8.576 14.91 6.112 2.012-1.172 2.867-7.866 3.023-11.12.13-2.7-.245-5.425-1.345-6.855" fill="#d33833" fill-rule="evenodd"/><path d="M134.582 106.63c-5.656.166-10.766.838-15.24 2.1.304 1.834-.265 3.634.192 4.955 1.247.898 3.337.884 5.222 1.095-1.63.8-3.92 1.118-5.8.655-.045 1.273-.616 2.062-.962 3.058 3.18 1.135 10.687 8.576 14.91 6.112 2.012-1.172 2.867-7.866 3.023-11.12.13-2.7-.245-5.425-1.345-6.855z" stroke="#d33833" stroke-width="2" fill="none"/><path d="M107.535 115.876c-.015-.428-.033-.86-.05-1.29-1.766-1.16-4.617-1.147-6.555-2.122 2.857-.125 5.106-.813 7.052-1.783-.043-1.077-.084-2.154-.126-3.232-3.237-2.216-6.194-5.516-10.005-7.594-1.8-.983-8.125-3.512-10.043-3.065-1.084.25-1.182 1.597-1.616 2.866-.922 2.717-3.05 7.042-3.235 11.132-.236 5.166-.758 13.824 4.81 12.76 4.49-.857 9.715-2.926 13.192-4.826 2.125-1.162 3.354-2.598 6.578-2.846" fill="#d33833" fill-rule="evenodd"/><path d="M107.535 115.876c-.015-.428-.033-.86-.05-1.29-1.766-1.16-4.617-1.147-6.555-2.122 2.857-.125 5.106-.813 7.052-1.783-.043-1.077-.084-2.154-.126-3.232-3.237-2.216-6.194-5.516-10.005-7.594-1.8-.983-8.125-3.512-10.043-3.065-1.084.25-1.182 1.597-1.616 2.866-.922 2.717-3.05 7.042-3.235 11.132-.236 5.166-.758 13.824 4.81 12.76 4.49-.857 9.715-2.926 13.192-4.826 2.125-1.162 3.354-2.598 6.578-2.846z" stroke="#d33833" stroke-width="2" fill="none"/><path d="M110.75 109.712c-.494 2.814-1.065 3.617-.844 6.072 7.505 5.004 8.914-8.595.844-6.072" fill="#d33833" fill-rule="evenodd"/><path d="M110.75 109.712c-.494 2.814-1.065 3.617-.844 6.072 7.505 5.004 8.914-8.595.844-6.072z" stroke="#d33833" stroke-width="2" fill="none"/><path d="M121.617 107.43s-2.334 3.335-.667 4.335 3.334 0 4.334 1.666c1 1.668 0 2.668.333 4.668s2 2.334 3.667 2.667c1.666.333 6.334 1 7-.667l-2 6-4 1.333-12.667-7.332-.667-3.667V109.1" fill="#ef3d3a" fill-rule="evenodd"/><path d="M86.617 96.43c-.4 5.203-.824 10.398-1.296 15.595-.704 7.76 1.866 6.406 8.592 6.406 1.027 0 6.326-1.224 6.705-2 1.818-3.712-3.04-2.887 2.094-5.687 4.335-2.363 11.99 1.435 10.24 6.688-.98 1.17-5.106.365-6.585 1.132l-7.812 4.05c-3.313 1.72-10.97 4.225-14.503 1.823-8.95-6.087.565-21.296 3.757-27.646" fill="#ef3d3a" fill-rule="evenodd"/><path d="M95.39 214.532c-9.087 2.116-13.6-3.802-16.355-9.94-2.46.596-1.48 3.94-.86 5.644 1.627 4.472 8.18 10.425 13.535 9.618 2.305-.347 5.423-2.454 3.68-5.322" fill="#231f20" fill-rule="evenodd"/><path d="M139.655 204.186c.143-.006.288-.01.43-.017 2.054-4.266 3.83-8.784 6.42-12.55-1.734-4.04-13.137-7.616-12.96-.36 2.465 1.078 6.722.22 8.908 1.597-1.264 3.47-3.088 6.422-2.798 11.33" fill="#231f20" fill-rule="evenodd"/><path d="M100.04 204.075c1.948-3.57 2.582-7.323 5.35-10.022 1.248-1.215 3.673-2.696 2.47-6.075-.28-.797-2.333-2.574-3.518-2.923-4.33-1.278-14.416-.264-11 5.133 3.58-.167 8.392-2.325 11.068.274-2.055 3.285-5.72 9.784-4.37 13.613" fill="#231f20" fill-rule="evenodd"/><path d="M138.03 167.78c-6.518-4.186-13.786-8.74-24.466-7.683-2.282 1.984-3.152 6.4-.935 9.315 1.153-1.984.428-5.633 3.644-6.182 6.06-1.037 13.113 3.707 17.472 5.365 2.703 4.557-.233 6.233-2.668 9.166-4.985 6.01-11.672 13.458-11.43 22.454 2.016 1.46 2.19-2.23 2.48-2.902 2.602-6.092 9.153-13.883 13.934-19.097 1.174-1.284 3.107-2.516 3.322-3.365.62-2.47-1.613-5.427-1.354-7.07" fill="#231f20" fill-rule="evenodd"/><path d="M52.102 172.19c-2.043 1.165-2.53 6.3-4.928 6.447-3.428.208-2.803-6.663-2.79-10.68-2.36 2.14-2.774 8.736-1.04 12.123-1.976.97-2.858-1.07-3.953-1.79 1.41 10.23 14.965 4.746 12.712-6.1" fill="#231f20" fill-rule="evenodd"/><path d="M142.18 163.52c-3.034-5.774-7.326-12.134-16.23-12.32-.18 1.866-.32 4.704.01 5.827 6.807.654 11.01 4.118 16.22 6.494" fill="#231f20" fill-rule="evenodd"/><path d="M99.527 159.777c5.678-2.986 16.114-3.307 23.832-3.08.413-1.692.403-3.78.42-5.843-9.922-.495-21.652 1.96-24.253 8.923" fill="#231f20" fill-rule="evenodd"/><path d="M98.447 154.21c3.927-9.86 17.423-8.725 28.804-8.453-.5-1.28-1.586-2.792-2.936-3.34-3.647-1.483-13.706-2.61-18.77.08-3.21 1.707-5.273 5.564-7.032 7.825-.85 1.092-5.08 3.88-.065 3.887" fill="#231f20" fill-rule="evenodd"/><path d="M137.556 99.826c-4.608-7.892-9.017-15.998-14.484-22.96 2.292 6.74 3.273 18.02 3.62 26.618 4.794 2.244 8.9-.505 10.864-3.658" fill="#81b0c4" fill-rule="evenodd"/><path d="M162.352 71.46c-5.16-1.032-8.784-6.046-13.817-5.724 2.766 3.9 7.613 5.543 13.817 5.725" fill="#231f20" fill-rule="evenodd"/><path d="M164.628 63.387c-4.205-.444-9.144-1.125-13.41-.774 2.02 3.084 9.8 2.02 13.41.774" fill="#231f20" fill-rule="evenodd"/><path d="M166.085 56.426c-4.726-.102-10.6-.008-15.092.37 2.657 2.853 12.027 1.058 15.092-.37" fill="#231f20" fill-rule="evenodd"/><path d="M128.664 37.377c.678-5.935 3.03-11.95 2.736-18.45-2.613-.88-4.114-1.65-7.615-1.646-.247 5.525-.986 13.97-.765 19.236 1.722-.114 4.26 1.23 5.644.86" fill="#dcd9d8" fill-rule="evenodd"/><path d="M121.045 124.85c-2.373-1.55-4.394-3.484-6.673-5.138-5.054-.25-7.812.35-11.525 3.252.06.233.434.13.448.415 5.41-2.412 12.287.98 17.75 1.47" fill="#f0d6b7" fill-rule="evenodd"/><path d="M92.644 87.97c1.487 6.442 7.31 9.778 12.6 13.325 5.46-6.928 8.78-15.838 12.435-24.436-8.64 2.603-17.465 6.828-25.036 11.11" fill="#81b0c4" fill-rule="evenodd"/><path d="M123.02 36.516c-.22-5.266.518-13.71.765-19.235 3.5-.004 5.002.767 7.615 1.648.295 6.5-2.058 12.514-2.736 18.45-1.383.368-3.922-.976-5.644-.862zm-54.514 29.95C70.814 45.24 74.158 27.4 80.29 8.607c13.612-4.133 30.02-4.493 42.052-.764-2.21 10.607-1.244 23.52-2.535 34.84-.973 8.508-.477 17.068-1.81 25.748-14.58 3.033-35.184.71-49.49-1.967zm52.937 1.833c-.123-9.116.408-18.107 1.104-27.233 3.5.525 5.875.876 9.127 1.59-1.056 8.785-.926 18.67-3.077 26.443-2.486-.024-4.675.03-7.154-.8zm17.755 1.468c-1.66.38-3.595.015-5.182-.016.746-7.43 2.556-15.63 3.193-23.428 2.496-.078 3.83 1.1 5.884 1.496.11 6.846-.598 16.278-3.896 21.948zm26.884-24.563c5.205 1.264 8.478 7.64 7.022 14.186-.977 4.4-2.717 12.686-4.58 15.5-1.375 2.083-5.106 4.81-8.085 2.9-4.847-3.102-13.384-4.003-16.918-7.76 1.772-5.9 2.322-14.003 3.053-21.48 6.054-.376 13.503 1.667 18.538-.5-3.515-1.14-8.076-1.15-11.113-2.808 2.482-1.2 8.293-.957 12.082-.037zM117.68 76.86c-3.657 8.597-6.977 17.507-12.436 24.435-5.29-3.547-11.113-6.883-12.6-13.324 7.57-4.282 16.397-8.507 25.035-11.11zm9.01 26.624c-.345-8.6-1.326-19.878-3.618-26.617 5.467 6.96 9.876 15.067 14.484 22.96-1.964 3.152-6.07 5.9-10.865 3.657zm-10.215 3.63c-2.07.223-3.83-2.38-6.522-1.255-.617-.683-1.178-1.422-1.807-2.088 5.948-7.168 8.65-17.338 13.245-25.762 2.466 8.092 2.182 16.957 2.725 25.79-3.387-.216-5.266 3.062-7.64 3.314zm-6.57 8.67c-.22-2.455.35-3.258.845-6.072 8.07-2.523 6.66 11.076-.844 6.072zm-8.948 2.938c-3.477 1.9-8.7 3.97-13.192 4.826-5.568 1.065-5.046-7.594-4.81-12.76.186-4.09 2.313-8.415 3.236-11.132.435-1.27.533-2.615 1.617-2.867 1.918-.448 8.242 2.08 10.044 3.064 3.812 2.078 6.77 5.378 10.006 7.594l.126 3.233c-1.946.97-4.195 1.66-7.052 1.784 1.938.975 4.79.96 6.555 2.12.017.433.035.864.05 1.292-3.224.248-4.453 1.684-6.578 2.846zm-33.214 6.033c-2.886-2.93 8.095-6.924 11.59-7.14-.018 1.855 1.058 3.603.84 4.933-4.152.73-9.61.248-12.43 2.207zm35.552-1.376c-.014-.287-.387-.183-.448-.416 3.713-2.902 6.47-3.502 11.525-3.252 2.28 1.654 4.3 3.588 6.673 5.137-5.463-.49-12.34-3.882-17.75-1.47zm32.632-9.896c-.156 3.255-1.01 9.95-3.023 11.12-4.223 2.466-11.73-4.976-14.91-6.11.346-.997.917-1.786.96-3.06 1.882.464 4.172.147 5.802-.654-1.885-.21-3.975-.197-5.222-1.095-.457-1.32.112-3.12-.192-4.955 4.474-1.262 9.584-1.934 15.24-2.1 1.1 1.43 1.475 4.154 1.345 6.854zm-73.042 8.437c-.906.647-7.037 8.624-7.877 8.293-11.094-4.375-21.467-11.94-30.737-19.095 8.84-18.964 12.407-42.198 13.037-64.592 10.125-4.735 19.017-11.56 32.755-12.274-1.59 11.248-3.04 21.283-3.943 31.873-3.453 1.455-8.405-.066-11.636.45-.027 3.894 4.934 1.706 5.347 4.324.313 1.98-2.728 2.13-1.738 5.247 2.525-.918 3.85-2.946 6.545-3.707 2.46 5.384-.035 14.91.32 19.41.067.845.422 4.68 2.315 4.008 1.674-.596-.096-10.202.087-14.46.167-3.925-.474-7.722 1.115-10.185 13.275 1.807 26.765 2.975 41.13 3.37-3.16 1.355-6.915 2.638-11.03 4.958-2.232 1.26-9.265 3.876-9.91 5.995-1.026 3.377 2.696 5.176 3.333 8.07-6.7-3.654-8.008 3.504-9.594 8.575-1.436 4.593-2.254 8.024-2.606 10.673-5.773 2.752-11.944 5.54-16.913 9.068zm67.18 7.328c9.242 4.482 10.908-16.75 7.285-23.59.56-2.04 2.486-2.822 3.272-4.656-5.158-9.24-10.887-17.865-16.15-26.996 3.915 2.437 9.507.436 14.114 2.26 1.684.666 2.903 4.52 4.178 7.605 3.507 8.486 7.19 19.183 8.827 27.28.37 1.845 1.38 5.865 1.153 7.507-.403 2.94-4.392 5.12-6.42 6.938-3.74 3.358-6.093 6.313-9.992 9.453-1.58-2.334-4.973-3.902-6.266-5.8zm-88.32 81.968c-4.403-4.846-3.48-13.926-2.948-20.386 7.96 5.008 18.527-.396 18.428-8.914 3.8.1 1.42 4.747.732 7.74-2.247 9.776 3.785 20.397.274 29.337-6.818-.517-12.42-3.302-16.484-7.777zm31.515 28.126c-9.97-2.826-22.75-10.07-26.847-19.028 3.173.46 5.375 2.06 8.505 2.26 1.183.076 2.732-.497 4.092-.16 2.71.673 4.995 6.747 7.04 9.007 1.99 2.208 4.386 3.15 6.024 5.163 1.053.508 2.61.473 2.67 2.054-.457.488-.937.86-1.484.705zm51.903-2.658c-10.35 5.84-27.866 10.23-38.875 4.743-8.882-4.43-20.89-11.757-24.983-21.043 3.824-8.96-1.133-17.172-1.45-26.27-.167-4.84 2.28-9.067 2.467-14.337-1.308-2.16-5.306-2.425-8.074-2.277-.932 4.662-2.562 9.902-7.363 10.428-6.793.743-11.76-4.88-12.07-10.754-.364-6.91 5.308-18.36 13.347-17.565 3.106.306 3.87 3.42 7.252 3.387 1.834-3.66-2.83-4.808-3.308-7.425-.125-.676.386-3.318.684-4.557 1.46-6.033 4.715-13.84 7.92-18.434 4.065-5.825 12.055-6.703 20.65-7.274 1.535 3.307 7.19 3.035 10.874 2.17-4.416 1.75-8.52 5.99-11.923 9.742-3.908 4.306-7.867 8.925-8.067 14.553 7.386-10.245 13.488-19.193 26.917-23.7 10.162-3.408 22.03 1.562 29.838 7.045 3.24 2.28 5.174 5.895 7.477 9.205 8.617 12.395 12.638 30.087 11.754 47.235-.365 7.072-.35 14.12-2.722 18.878-2.48 4.975-10.868 9.426-15.778 4.926-.91 4.837 4.083 7.83 9.948 6.088-4.182 5.397-8.57 11.882-14.515 15.236zm19.28-159.567c8.088 4.02 23.198 10.82 28.268-.015 1.872-3.994 4.067-10.746 5.036-14.87 1.37-5.816-1.484-18.042-7.463-19.994-5.28-1.724-11.443-1.62-17.804-.34-.75.622-1.584 1.708-2.167 2.84-4.542.176-8.795-.244-12.383-2.11.34-3.36-1.932-3.9-4.062-4.59-1.58-6.262 3.16-14.438 2.025-20.147-.81-4.066-5.813-4.695-9.49-5.456-.12-2.26.16-4.147.41-6.06-.84-3.098-4.612-4.862-8.186-5.294-11.76-1.414-29.613-2.05-40.924 2.018-3.156 7.742-5.643 17.158-8.27 25.998-11.033-1.178-19.955 4.76-28.365 8.65-2.913 1.35-6.94 2.094-8.03 4.412-1.054 2.244-.622 6.545-.884 10.608-.666 10.377-1.236 20.386-3.976 31.01-1.23 4.77-3.375 8.976-4.87 13.57-1.384 4.258-3.8 9.52-4.43 13.766-.935 6.293 4.99 6.643 8.78 9.37 5.858 4.217 10.455 6.55 16.8 10.355 1.878 1.127 7.544 3.98 8.188 5.294 1.282 2.606-2.2 6.28-3.13 8.32-1.47 3.23-2.24 5.973-2.45 9.16-5.32.84-9.355 4.007-11.792 7.578-4.03 5.91-6.826 16.844-3.34 25.16.275.656 1.64 1.944 1.84 2.95.397 1.98-.747 4.615-.818 6.722-.366 10.81 1.83 20.124 9.106 23.384 2.955 11.77 13.53 15.682 23.49 21.53 3.725 2.187 7.83 3.584 12.07 5.144 15.207 5.597 38.54 4.543 51.163-5.003 5.352-4.048 13.907-12.595 16.967-18.783 8.082-16.337 7.508-43.64 1.855-63.513-.76-2.67-1.862-6.59-3.4-9.796-1.074-2.238-4.41-6.716-4.004-8.692.417-2.043 7.604-7.5 9.145-8.986 2.775-2.677 8.047-6.23 8.474-9.608.46-3.595-1.584-8.513-2.62-11.982-3.46-11.577-6.835-22.278-10.758-32.6" fill="#231f20" fill-rule="evenodd"/><path d="M90.49 157.255c.44.584 2.852 1.47 6.227-.154 0 0-4-.666-3.667-7.335l-1.667.334s-1.723 6.046-.892 7.155" fill="#f7e4cd" fill-rule="evenodd"/><path d="M119.717 99.934c0-1.012-.82-1.833-1.834-1.833-1.012 0-1.833.822-1.833 1.834s.82 1.834 1.833 1.834 1.834-.822 1.834-1.834" fill="#1d1919" fill-rule="evenodd"/><path d="M121.55 91.434c0-1.012-.82-1.833-1.834-1.833-1.012 0-1.833.822-1.833 1.834s.82 1.834 1.833 1.834 1.834-.822 1.834-1.834" fill="#1d1919" fill-rule="evenodd"/></g></svg>