<svg xmlns="http://www.w3.org/2000/svg" width="859.375" height="200.387"><defs><clipPath id="a"><path d="M0 0h6874.96v1603H0V0z"/></clipPath></defs><g clip-path="url(#a)" transform="matrix(.125 0 0 -.125 0 200.387)"><path d="M2701.79 1232.36l-161.58-583.18h403.14l-161.53 583.18h-80.03zm-381.6-963.24l292.35 1064.82h258.49l292.41-1064.82h-116.98l-76.94 273.93h-455.47l-76.93-273.93h-116.93" fill="#8b8c8d"/><path d="M3911.23 781.562c144.68 0 216.99 74.61 216.99 223.828 0 149.32-72.88 223.94-218.5 223.94h-275.47V781.562h276.98zm-276.98-104.707V269.12H3515.8v1064.82h393.92c112.84 0 197.72-26.15 254.65-78.46 56.92-52.32 85.4-133.92 85.4-244.72 0-164.112-65.13-267.205-195.45-309.276l204.67-432.363h-130.77l-192.35 407.735h-301.62" fill="#8b8c8d"/><path d="M4648.37 269.12v1064.82h213.9l301.56-900.17 301.62 900.17h213.9V269.12h-118.51v938.62h-21.54l-309.28-900.18h-132.35l-309.32 900.18h-21.55V269.12h-118.43" fill="#8b8c8d"/><path d="M6413.31 1232.36l-161.56-583.18h403.13l-161.52 583.18h-80.05zm-381.6-963.24l292.35 1064.82h258.49l292.41-1064.82h-116.98l-76.94 273.93h-455.46l-76.95-273.93h-116.92" fill="#8b8c8d"/><path d="M1247.1 497.78L1580.77 0h506.04l-592.23 875.016L1247.1 497.78" fill="#429f87"/><path d="M240.547 221.488L474.922 442.28 849.642 0 609.093 887.19 387.13 556.29 240.546 221.487" fill="#429f87"/><path d="M240.547 221.488L609.094 887.19l-234.32-220.893L0 1108.59l240.547-887.102" fill="#56c5a8"/><path d="M2038.56 1603.08h-506.04l-309.93-457.92v457.92H758.406v-474.93L1005.9 216.012 1063.58 0h159.01v400.78l815.97 1202.3" fill="#56c5a8"/></g></svg>