<svg xmlns="http://www.w3.org/2000/svg" viewBox="0 0 186.4 50.2" enable-background="new 0 0 186.4 50.2" width="186.4" height="50.2"><path fill-rule="evenodd" clip-rule="evenodd" fill="#46483E" d="M27.9 26.7c0-.5-.3-1-.8-1.3l-12.5-7.2c-.1-.2-.3-.2-.6-.2h-.1c-.2 0-.5.1-.7.2L.8 25.3c-.5.3-.8.8-.8 1.4V46c0 .3.1.5.4.7.2.1.5.1.7 0l7.4-4.2c.5-.3.8-.8.8-1.3v-9c0-.5.3-1 .8-1.3l3.2-1.8c.2-.1.5-.2.8-.2.3 0 .5.1.7.2l3.2 1.8c.5.3.8.8.8 1.3v9c0 .5.3 1 .8 1.3l7.4 4.2c.2.1.5.1.8 0 .2-.1.4-.4.4-.7l-.3-19.3zM94.5.1c-.2-.1-.5-.1-.7 0-.2.1-.4.4-.4.6v19.1c0 .2-.1.4-.3.5-.2.1-.4.1-.5 0l-3.1-1.8c-.5-.3-1-.3-1.5 0l-12.5 7.2c-.5.3-.7.8-.7 1.3v14.4c0 .5.3 1 .8 1.3L88 50c.5.3 1 .3 1.5 0l12.5-7.2c.5-.3.8-.8.8-1.3V5.6c0-.5-.3-1-.8-1.3L94.5.1zm-1.1 36.6c0 .1-.1.3-.2.3l-4.3 2.5c-.1.1-.3.1-.4 0L84.2 37c-.1-.1-.2-.2-.2-.3v-4.9c0-.1.1-.3.2-.3l4.3-2.5c.1-.1.3-.1.4 0l4.3 2.5c.1.1.2.2.2.3v4.9zM139.2 31.6c.5-.3.7-.8.7-1.3v-3.5c0-.5-.3-1-.8-1.3l-12.4-7.2c-.5-.3-1-.3-1.5 0l-12.5 7.2c-.5.3-.8.8-.8 1.3v14.4c0 .5.3 1 .8 1.3l12.4 7.1c.5.3 1 .3 1.5 0l7.5-4.2c.2-.1.4-.4.4-.7 0-.3-.1-.5-.4-.7l-12.5-7.2c-.2-.1-.4-.4-.4-.7v-4.5c0-.3.1-.5.4-.7l3.9-2.3c.2-.1.5-.1.8 0l3.9 2.3c.2.1.4.4.4.7v3.5c0 .3.1.5.4.7.2.1.5.1.8 0l7.4-4.2z"/><path fill-rule="evenodd" clip-rule="evenodd" fill="#8CC84B" d="M50.6 18.3c.5-.3 1-.3 1.5 0l12.5 7.2c.5.3.8.8.8 1.3v14.4c0 .5-.3 1-.8 1.3l-12.5 7.2c-.5.3-1 .3-1.5 0l-12.5-7.2c-.5-.3-.8-.8-.8-1.3V26.8c0-.5.3-1 .8-1.3l12.5-7.2z"/><path fill="#8CC84B" d="M163.4 49.9c-.4 0-.9-.1-1.2-.3l-3.9-2.3c-.6-.3-.3-.4-.1-.5.8-.3.9-.3 1.8-.8h.3l3 1.8c.1.1.3.1.4 0l11.8-6.8c.1-.1.2-.2.2-.3V27.1c0-.1-.1-.3-.2-.3L163.6 20c-.1-.1-.3-.1-.4 0l-11.8 6.8c-.1.1-.2.2-.2.3v13.6c0 .1.1.3.2.3l3.2 1.9c1.7.9 2.8-.2 2.8-1.2V28.2c0-.2.2-.3.3-.3h1.5c.2 0 .3.1.3.3v13.4c0 2.3-1.3 3.7-3.5 3.7-.7 0-1.2 0-2.7-.7l-3.1-1.8c-.8-.4-1.2-1.3-1.2-2.1V27.1c0-.9.5-1.7 1.2-2.1l11.8-6.8c.7-.4 1.7-.4 2.5 0l11.8 6.8c.8.4 1.2 1.3 1.2 2.1v13.6c0 .9-.5 1.7-1.2 2.1l-11.8 6.8c-.3.2-.7.3-1.1.3zM167 40.5c-5.1 0-6.2-2.4-6.2-4.3 0-.2.2-.3.3-.3h1.5c.2 0 .3.1.3.3.2 1.5.9 2.3 4 2.3 2.5 0 3.5-.6 3.5-1.9 0-.8-.3-1.3-4.1-1.7-3.2-.3-5.2-1-5.2-3.6 0-2.4 2-3.8 5.4-3.8 3.8 0 5.6 1.3 5.9 4.1 0 .1 0 .2-.1.3-.1.1-.2.1-.2.1h-1.5c-.2 0-.3-.1-.3-.3-.4-1.6-1.3-2.1-3.7-2.1-2.7 0-3 .9-3 1.6 0 .9.4 1.1 4 1.6s5.3 1.2 5.3 3.7c0 2.6-2.2 4-5.9 4z"/><g fill="#8CC84B"><path d="M183.2 18.1v.3h-1V21h-.4v-2.6h-1v-.3h2.4zM183.6 18.1h.6l.8 2.5.8-2.5h.6V21h-.4v-2.4l-.8 2.5h-.4l-.8-2.5V21h-.4v-2.9z"/></g><path fill-rule="evenodd" clip-rule="evenodd" fill="#8CC84B" d="M125.8 31c.1-.1.2-.1.3 0l2.4 1.4c.1.1.1.1.1.3v2.8c0 .1-.1.2-.1.3l-2.4 1.4c-.1.1-.2.1-.3 0l-2.4-1.4c-.1-.1-.1-.1-.1-.3v-2.8c0-.1.1-.2.1-.3l2.4-1.4z"/></svg>