<svg xmlns="http://www.w3.org/2000/svg" width="498.544" height="180.549" viewBox="0 0 498.544 180.549"><path fill="#454545" d="M13.62 170.55c-3.328 0-4.588-1.73-3.783-5.19L36.784 48.54c.807-3.46 2.912-5.19 6.32-5.19h13.68c3.003 0 4.023 1.73 3.06 5.19l-1.658 6.75h.346c4.268-4.96 8.093-8.48 11.473-10.557 3.38-2.077 7.233-3.115 11.562-3.115 11.548 0 19.728 3.75 24.54 11.25 4.81 7.5 7.218 15.832 7.218 25.004 0 15.174-4.64 28.645-13.923 40.412-9.282 11.768-20.053 17.652-32.314 17.652-4.292 0-8.763-.55-13.413-1.646-4.65-1.093-8.464-3.89-11.444-8.39h-.346c-.292 2.422-.696 4.728-1.217 6.92L33.14 165.36c-.813 3.46-2.883 5.19-6.21 5.19H13.62zM47.7 102.19c0 5.54 1.002 9.72 3.01 12.545 2.005 2.826 6.002 4.242 11.99 4.242 7.898 0 14.04-4.384 18.428-13.15 4.387-8.77 6.582-18.634 6.582-29.594 0-6-1.15-10.44-3.447-13.326-2.297-2.884-5.474-4.327-9.532-4.327-4.125 0-8.562 2.565-13.308 7.7-4.745 5.136-8.268 12.548-10.566 22.24L47.7 102.19zM113.832 134.207c-3.46 0-4.79-1.73-3.98-5.192l25.458-113.7c.575-2.596 2.94-5.192 6.052-5.192h14.897c3.48 0 4.847 1.73 4.097 5.192l-26.278 113.7c-.81 3.46-2.945 5.192-6.406 5.192h-13.842zM148.867 101.41c0-16.21 5.287-30.23 15.863-42.054 10.574-11.823 22.38-17.736 35.417-17.736 2.688 0 5.797.66 9.326 1.988 3.525 1.33 6.724 4.012 9.594 8.05h.156l.666-3.115c.728-3.46 2.288-5.19 4.682-5.19h14.076c3.742 0 5.21 1.73 4.404 5.19l-18.56 80.474c-.806 3.46-2.94 5.19-6.4 5.19h-13.24c-3.23 0-4.364-1.73-3.4-5.19l1.66-6.75h-.347c-3.502 4.153-7.212 7.47-11.13 9.948-3.918 2.48-8.4 3.724-13.443 3.724-9.25 0-16.45-3.493-21.6-10.474-5.15-6.98-7.725-15-7.725-24.057zm25.613 1.646c0 4.96 1.148 8.855 3.444 11.68 2.296 2.826 4.874 4.242 7.735 4.242 5.073 0 9.863-2.496 14.377-7.485 4.513-4.99 7.978-12.474 10.396-22.453l3.157-13.67c0-5.25-.987-9.362-2.958-12.333-1.972-2.97-5.527-4.455-10.666-4.455-7.266 0-13.33 4.558-18.193 13.672-4.862 9.112-7.293 19.38-7.293 30.802zM236.952 95.698l10.876-47.156c.807-3.46 2.91-5.19 6.314-5.19h13.84c3.52 0 4.878 1.73 4.077 5.19l-9.626 41.708c-2.712 11.71-3.36 19.293-1.95 22.755 1.415 3.46 4.41 5.192 8.99 5.192 5.78 0 11.02-3.445 15.718-10.34 4.697-6.893 8.42-16.427 11.168-28.6l7.068-30.715c.813-3.46 2.932-5.19 6.356-5.19h13.923c3.54 0 4.91 1.73 4.11 5.19l-19.56 84.71c-3.068 13.21-8.697 22.73-16.887 28.555-8.193 5.826-19.844 8.742-34.953 8.742-3.637 0-7.838-.305-12.6-.91s-9.395-2.122-13.897-4.544c-3.06-1.615-3.52-4.123-1.384-7.525l4.245-6.75c1.56-2.54 3.672-3.114 6.33-1.73 3.924 2.02 7.27 3.273 10.04 3.765 2.768.49 6.056.736 9.863.736 6.068 0 11.238-1.284 15.518-3.85 4.275-2.568 7.83-9.94 10.662-22.108.56-2.538 1.207-4.845 1.943-6.922h-.346c-4.616 5.422-9.015 9.186-13.192 11.29-4.184 2.108-9.158 3.158-14.922 3.158-8.194 0-14.672-3.083-19.433-9.257-4.757-6.172-5.523-16.24-2.29-30.202z"/><linearGradient id="a" gradientUnits="userSpaceOnUse" x1="202.368" y1="207.494" x2="202.368" y2="57.401" gradientTransform="matrix(1 0 -.064 -1 213.784 225.549)"><stop offset="0" stop-color="#88C557"/><stop offset="1" stop-color="#5AB0A9"/></linearGradient><path fill="url(#a)" d="M478.126 79.743l-92.574-67.087c-7.273-5.273-14.825-2.443-16.78 6.283l-31.808 142.018c-1.954 8.73 3.214 12.12 11.498 7.536L476.304 97.66c8.275-4.584 9.096-12.647 1.822-17.917z"/></svg>