<?xml version="1.0" encoding="utf-8"?>
<!-- Generator: Adobe Illustrator 18.0.0, SVG Export Plug-In . SVG Version: 6.00 Build 0)  -->
<!DOCTYPE svg PUBLIC "-//W3C//DTD SVG 1.1//EN" "http://www.w3.org/Graphics/SVG/1.1/DTD/svg11.dtd">
<svg version="1.1"
	 id="Ebene_1" inkscape:export-ydpi="129.60001" inkscape:export-xdpi="129.60001" inkscape:version="0.46" sodipodi:version="0.32" inkscape:output_extension="org.inkscape.output.svg.inkscape" xmlns:dc="http://purl.org/dc/elements/1.1/" xmlns:inkscape="http://www.inkscape.org/namespaces/inkscape" xmlns:sodipodi="http://sodipodi.sourceforge.net/DTD/sodipodi-0.dtd" xmlns:cc="http://creativecommons.org/ns#" xmlns:svg="http://www.w3.org/2000/svg" xmlns:rdf="http://www.w3.org/1999/02/22-rdf-syntax-ns#"
	 xmlns="http://www.w3.org/2000/svg" xmlns:xlink="http://www.w3.org/1999/xlink" x="0px" y="0px" viewBox="6.9 259.5 472 398"
	 enable-background="new 6.9 259.5 472 398" xml:space="preserve">
<defs>
	
	
		<inkscape:perspective  inkscape:persp3d-origin="240 : 255.48132 : 1" inkscape:vp_x="0 : 383.22198 : 1" inkscape:vp_y="0 : 1000 : 0" inkscape:vp_z="480 : 383.22198 : 1" id="perspective10334" sodipodi:type="inkscape:persp3d">
		</inkscape:perspective>
	
		<inkscape:perspective  inkscape:persp3d-origin="372.04724 : 350.78739 : 1" inkscape:vp_x="0 : 526.18109 : 1" inkscape:vp_y="0 : 1000 : 0" inkscape:vp_z="744.09448 : 526.18109 : 1" id="perspective330" sodipodi:type="inkscape:persp3d">
		</inkscape:perspective>
	
		<inkscape:perspective  inkscape:persp3d-origin="372.04724 : 350.78739 : 1" inkscape:vp_x="0 : 526.18109 : 1" inkscape:vp_y="0 : 1000 : 0" inkscape:vp_z="744.09448 : 526.18109 : 1" id="perspective5408" sodipodi:type="inkscape:persp3d">
		</inkscape:perspective>
	
		<inkscape:perspective  inkscape:persp3d-origin="372.04724 : 350.78739 : 1" inkscape:vp_x="0 : 526.18109 : 1" inkscape:vp_y="0 : 1000 : 0" inkscape:vp_z="744.09448 : 526.18109 : 1" id="perspective4619" sodipodi:type="inkscape:persp3d">
		</inkscape:perspective>
</defs>
<sodipodi:namedview  inkscape:current-layer="Ebene_1" gridtolerance="10.0" inkscape:cx="-147.4522" inkscape:zoom="0.75804626" showgrid="false" pagecolor="#ffffff" bordercolor="#666666" id="base" objecttolerance="10.0" showguides="true" borderopacity="1.0" guidetolerance="10.0" inkscape:cy="316.62508" inkscape:guide-bbox="true" inkscape:window-y="0" inkscape:window-x="0" inkscape:window-width="1276" inkscape:pageopacity="0.0" inkscape:pageshadow="2" inkscape:window-height="771">
	<sodipodi:guide  id="guide4603" position="-153.02496,573.84361" orientation="0,1"></sodipodi:guide>
	<sodipodi:guide  id="guide4605" position="-171.49349,73.87412" orientation="0,1"></sodipodi:guide>
	<sodipodi:guide  id="guide4609" position="498.65031,29.021976" orientation="1,0"></sodipodi:guide>
	<sodipodi:guide  id="guide4611" position="-1.3191807,25.064433" orientation="1,0"></sodipodi:guide>
</sodipodi:namedview>
<g id="g15016">
	<g id="g9502" transform="matrix(0.7761093,0,0,0.7761093,971.3179,374.28256)">
		<g id="g7476" transform="matrix(1.1273156,0,0,1,-186.473,15.1411)">
			
				<linearGradient id="rect3723_1_" gradientUnits="userSpaceOnUse" x1="-490.7762" y1="-19.8839" x2="-490.7762" y2="-262.7411" gradientTransform="matrix(0.645 0 0 -0.2807 -350.5141 256.4002)">
				<stop  offset="0" style="stop-color:#000000;stop-opacity:0"/>
				<stop  offset="0.5" style="stop-color:#000000"/>
				<stop  offset="1" style="stop-color:#000000;stop-opacity:0"/>
			</linearGradient>
			
				<rect id="rect3723" x="-845" y="262" opacity="0.23" fill="url(#rect3723_1_)" enable-background="new    " width="356" height="87.8"/>
			
				<radialGradient id="path3725_1_" cx="-211.568" cy="-174.501" r="117.1429" gradientTransform="matrix(0.645 0 0 -0.2807 -350.3689 256.4002)" gradientUnits="userSpaceOnUse">
				<stop  offset="0" style="stop-color:#000000"/>
				<stop  offset="1" style="stop-color:#000000;stop-opacity:0"/>
			</radialGradient>
			<path id="path3725" sodipodi:nodetypes="cccc" opacity="0.23" fill="url(#path3725_1_)" enable-background="new    " d="
				M-489.1,262v87.8c38,0.2,91.8-19.7,91.8-43.9C-397.3,281.7-439.7,262-489.1,262L-489.1,262z"/>
			
				<radialGradient id="path3727_1_" cx="-441.9321" cy="-174.501" r="117.1429" gradientTransform="matrix(-0.645 0 0 -0.2807 -1132.3461 256.4002)" gradientUnits="userSpaceOnUse">
				<stop  offset="0" style="stop-color:#000000"/>
				<stop  offset="1" style="stop-color:#000000;stop-opacity:0"/>
			</radialGradient>
			<path id="path3727" sodipodi:nodetypes="cccc" opacity="0.23" fill="url(#path3727_1_)" enable-background="new    " d="
				M-845,262v87.8c-38,0.2-91.8-19.7-91.8-43.9C-936.8,281.7-894.5,262-845,262L-845,262z"/>
		</g>
		<g id="g5592" transform="matrix(1.1542431,0,0,1.1542431,-1340.2803,-524.79832)">
			<path id="rect5414" fill="#729FCF" stroke="#2E3436" stroke-width="19.5219" stroke-linecap="round" stroke-linejoin="round" d="
				M128.5,337.4h438.9v389.7H128.5V337.4z"/>
			<g id="g5457">
				<path id="path5441" sodipodi:nodetypes="ccczcccczcc" fill="#FFFFFF" d="M539.3,362.4c-137.1,30.7-274,59.2-388.6,108.6l2.1,70
					c7.3,7.3,290.5-52.6,306.4-12.1c15.9,40.5-299.1,97.4-305.7,93.6l2.1,25.7c138-27,272.8-56.4,386.4-102.1l1.4-82.1
					c-110.3,9.3-308.5,38.5-287.9,11.4c20.7-27.1,101.3-54,287.9-87.1L539.3,362.4z"/>
				<g id="g5451" transform="translate(-60.714286,5.7142857)">
					
						<path id="path5443" sodipodi:cx="59.285713" sodipodi:ry="7.1428571" sodipodi:cy="489.50504" sodipodi:type="arc" sodipodi:rx="7.1428571" fill="#FFFFFF" d="
						M237.1,558.8c0,3.2-2.6,5.7-5.7,5.7s-5.7-2.6-5.7-5.7c0-3.2,2.6-5.7,5.7-5.7S237.1,555.6,237.1,558.8z"/>
					
						<path id="path5445" sodipodi:cx="59.285713" sodipodi:ry="7.1428571" sodipodi:cy="489.50504" sodipodi:type="arc" sodipodi:rx="7.1428571" fill="#FFFFFF" d="
						M253.1,558.8c0,3.2-2.6,5.7-5.7,5.7s-5.7-2.6-5.7-5.7c0-3.2,2.6-5.7,5.7-5.7S253.1,555.6,253.1,558.8z"/>
					
						<path id="path5447" sodipodi:cx="59.285713" sodipodi:ry="7.1428571" sodipodi:cy="489.50504" sodipodi:type="arc" sodipodi:rx="7.1428571" fill="#FFFFFF" d="
						M237.1,584.8c0,3.2-2.6,5.7-5.7,5.7s-5.7-2.6-5.7-5.7c0-3.2,2.6-5.7,5.7-5.7S237.1,581.6,237.1,584.8z"/>
					
						<path id="path5449" sodipodi:cx="59.285713" sodipodi:ry="7.1428571" sodipodi:cy="489.50504" sodipodi:type="arc" sodipodi:rx="7.1428571" fill="#FFFFFF" d="
						M253.1,584.8c0,3.2-2.6,5.7-5.7,5.7s-5.7-2.6-5.7-5.7c0-3.2,2.6-5.7,5.7-5.7S253.1,581.6,253.1,584.8z"/>
				</g>
			</g>
			<rect id="rect5465" x="152.1" y="646.6" fill="#FFFFFF" width="390.7" height="47.9"/>
			<g id="g5572" transform="matrix(0.9867462,0,0,0.8622183,5.9865743,-66.01394)">
				<path id="flowRoot5476" fill="#729FCF" stroke="#729FCF" stroke-width="2.1" stroke-linejoin="round" d="M180.3,839.2v4.3
					c-1.7-0.8-3.2-1.4-4.7-1.8c-1.5-0.4-2.9-0.6-4.3-0.6c-2.4,0-4.2,0.5-5.5,1.4c-1.3,0.9-1.9,2.2-1.9,4c0,1.4,0.4,2.5,1.3,3.3
					c0.9,0.7,2.5,1.3,4.9,1.8l2.7,0.5c3.3,0.6,5.7,1.7,7.2,3.3c1.6,1.6,2.3,3.7,2.3,6.3c0,3.1-1.1,5.5-3.2,7.1
					c-2.1,1.6-5.2,2.4-9.3,2.4c-1.5,0-3.2-0.2-4.9-0.5c-1.7-0.3-3.5-0.9-5.4-1.5v-4.5c1.8,1,3.5,1.8,5.2,2.3c1.7,0.5,3.4,0.8,5,0.8
					c2.5,0,4.4-0.5,5.8-1.5c1.4-1,2-2.4,2-4.2c0-1.6-0.5-2.8-1.5-3.7c-1-0.9-2.6-1.6-4.8-2l-2.7-0.5c-3.3-0.7-5.6-1.7-7.1-3.1
					c-1.5-1.4-2.2-3.3-2.2-5.8c0-2.9,1-5.1,3-6.8c2-1.7,4.8-2.5,8.4-2.5c1.5,0,3.1,0.1,4.7,0.4C177,838.2,178.7,838.6,180.3,839.2"
					/>
				<path id="flowRoot5484" fill="#729FCF" stroke="#729FCF" stroke-width="2.1" stroke-linejoin="round" d="M198.9,838.1h4.5v20.1
					c0,3.5,0.6,6.1,1.9,7.7c1.3,1.5,3.4,2.3,6.2,2.3c2.9,0,4.9-0.8,6.2-2.3c1.3-1.6,1.9-4.1,1.9-7.7v-20.1h4.5v20.6
					c0,4.3-1.1,7.6-3.2,9.8c-2.1,2.2-5.3,3.3-9.4,3.3c-4.2,0-7.3-1.1-9.5-3.3c-2.1-2.2-3.2-5.4-3.2-9.8V838.1"/>
				<path id="flowRoot5492" fill="#729FCF" stroke="#729FCF" stroke-width="2.1" stroke-linejoin="round" d="M246.1,855.3v12.3h7.3
					c2.4,0,4.3-0.5,5.4-1.5c1.2-1,1.8-2.6,1.8-4.7c0-2.1-0.6-3.7-1.8-4.6c-1.2-1-3-1.5-5.4-1.5H246.1 M246.1,841.5v10.1h6.7
					c2.2,0,3.9-0.4,5-1.2c1.1-0.8,1.6-2.1,1.6-3.8c0-1.7-0.5-3-1.6-3.8c-1.1-0.8-2.7-1.3-5-1.3H246.1 M241.6,837.7h11.6
					c3.5,0,6.1,0.7,8,2.2c1.9,1.4,2.8,3.5,2.8,6.2c0,2.1-0.5,3.7-1.4,4.9c-1,1.2-2.4,2-4.2,2.3c2.2,0.5,4,1.5,5.2,3
					c1.2,1.5,1.9,3.4,1.9,5.7c0,3-1,5.3-3.1,7c-2,1.6-5,2.5-8.7,2.5h-12.1V837.7"/>
				<path id="flowRoot5500" fill="#888A85" stroke="#888A85" stroke-width="2.1" stroke-linejoin="round" d="M290,871.4l-12.9-33.7
					h4.8l10.7,28.3l10.7-28.3h4.7l-12.8,33.7H290"/>
				<path id="flowRoot5508" fill="#888A85" stroke="#888A85" stroke-width="2.1" stroke-linejoin="round" d="M323.4,837.7h21.3v3.8
					H328v10h16v3.8h-16v12.2h17.1v3.8h-21.7V837.7"/>
				<path id="flowRoot5516" fill="#888A85" stroke="#888A85" stroke-width="2.1" stroke-linejoin="round" d="M379.9,855.9
					c1,0.3,1.9,1,2.8,2.1c0.9,1.1,1.9,2.6,2.8,4.5l4.6,9.2h-4.9L381,863c-1.1-2.3-2.2-3.8-3.2-4.5c-1-0.7-2.5-1.1-4.3-1.1h-5v14.2
					h-4.6V838h10.3c3.8,0,6.7,0.8,8.6,2.4c1.9,1.6,2.8,4,2.8,7.3c0,2.1-0.5,3.9-1.5,5.3C383.2,854.4,381.8,855.3,379.9,855.9
					 M368.5,841.7v11.9h5.7c2.2,0,3.8-0.5,5-1.5c1.1-1,1.7-2.5,1.7-4.5c0-2-0.6-3.4-1.7-4.4c-1.1-1-2.8-1.5-5-1.5H368.5"/>
				<path id="flowRoot5524" fill="#888A85" stroke="#888A85" stroke-width="2.1" stroke-linejoin="round" d="M424.7,839.3v4.3
					c-1.7-0.8-3.2-1.4-4.7-1.8c-1.5-0.4-2.9-0.6-4.3-0.6c-2.4,0-4.2,0.5-5.5,1.4c-1.3,0.9-1.9,2.2-1.9,4c0,1.4,0.4,2.5,1.3,3.3
					c0.9,0.7,2.5,1.3,4.9,1.8l2.7,0.5c3.3,0.6,5.7,1.7,7.2,3.3c1.6,1.6,2.3,3.7,2.3,6.3c0,3.1-1.1,5.5-3.2,7.1
					c-2.1,1.6-5.2,2.4-9.3,2.4c-1.5,0-3.2-0.2-4.9-0.5c-1.7-0.3-3.5-0.9-5.4-1.5v-4.5c1.8,1,3.5,1.8,5.2,2.3c1.7,0.5,3.4,0.8,5,0.8
					c2.5,0,4.4-0.5,5.8-1.5c1.4-1,2-2.4,2-4.2c0-1.6-0.5-2.8-1.5-3.7c-1-0.9-2.6-1.6-4.8-2l-2.7-0.5c-3.3-0.7-5.6-1.7-7.1-3.1
					c-1.5-1.4-2.2-3.3-2.2-5.8c0-2.9,1-5.1,3-6.8c2-1.7,4.8-2.5,8.4-2.5c1.5,0,3.1,0.1,4.7,0.4C421.4,838.3,423,838.7,424.7,839.3"
					/>
				<path id="flowRoot5532" fill="#888A85" stroke="#888A85" stroke-width="2.1" stroke-linejoin="round" d="M443.3,837.7h4.6v33.7
					h-4.6V837.7"/>
				<path id="flowRoot5540" fill="#888A85" stroke="#888A85" stroke-width="2.1" stroke-linejoin="round" d="M477.5,841.2
					c-3.2,0-5.7,1.2-7.6,3.6c-1.9,2.4-2.8,5.6-2.8,9.7c0,4.1,0.9,7.3,2.8,9.7c1.9,2.4,4.4,3.6,7.6,3.6c3.2,0,5.7-1.2,7.6-3.6
					c1.9-2.4,2.8-5.6,2.8-9.7c0-4.1-0.9-7.3-2.8-9.7C483.2,842.3,480.7,841.2,477.5,841.2 M477.5,837.6c4.5,0,8.2,1.5,10.9,4.6
					c2.7,3,4.1,7.1,4.1,12.3c0,5.1-1.4,9.2-4.1,12.3c-2.7,3-6.4,4.6-10.9,4.6c-4.6,0-8.2-1.5-11-4.6c-2.7-3-4.1-7.1-4.1-12.3
					s1.4-9.2,4.1-12.3C469.3,839.1,472.9,837.6,477.5,837.6"/>
				<path id="flowRoot5548" fill="#888A85" stroke="#888A85" stroke-width="2.1" stroke-linejoin="round" d="M509.1,838h6.1
					l14.9,28.2V838h4.4v33.7h-6.1l-14.9-28.2v28.2h-4.4V838"/>
			</g>
			
				<linearGradient id="path5417_1_" gradientUnits="userSpaceOnUse" x1="316.027" y1="636.2467" x2="429.2669" y2="393.8101" gradientTransform="matrix(0.8958 0 0 -0.8958 -76.4455 799.6227)">
				<stop  offset="0" style="stop-color:#FFFFFF"/>
				<stop  offset="1" style="stop-color:#FFFFFF;stop-opacity:0"/>
			</linearGradient>
			<path id="path5417" fill="url(#path5417_1_)" stroke="#D3D7CF" stroke-width="19.5218" stroke-linecap="round" d="M147.6,358.8
				c0,116.3,0,232.7,0,349c133.6,0,267.2,0,400.8,0c0-117.1,0-234.1,0-351.2c-133.6,0-267.2,0-400.8,0v1.1V358.8z"/>
		</g>
	</g>
</g>
</svg>
