<svg xmlns="http://www.w3.org/2000/svg" viewBox="6.9 259.5 472 398" enable-background="new 6.9 259.5 472 398" width="472" height="398"><g transform="matrix(.776 0 0 .776 971.318 374.283)"><g transform="matrix(1.127 0 0 1 -186.473 15.141)"><linearGradient id="a" gradientUnits="userSpaceOnUse" x1="-490.776" y1="-19.884" x2="-490.776" y2="-262.741" gradientTransform="matrix(.645 0 0 -.281 -350.514 256.4)"><stop offset="0" stop-opacity="0"/><stop offset=".5"/><stop offset="1" stop-opacity="0"/></linearGradient><path opacity=".23" fill="url(#a)" enable-background="new" d="M-845 262h356v87.8h-356z"/><radialGradient id="b" cx="-211.568" cy="-174.501" r="117.143" gradientTransform="matrix(.645 0 0 -.281 -350.369 256.4)" gradientUnits="userSpaceOnUse"><stop offset="0"/><stop offset="1" stop-opacity="0"/></radialGradient><path opacity=".23" fill="url(#b)" enable-background="new" d="M-489.1 262v87.8c38 .2 91.8-19.7 91.8-43.9s-42.4-43.9-91.8-43.9z"/><radialGradient id="c" cx="-441.932" cy="-174.501" r="117.143" gradientTransform="matrix(-.645 0 0 -.281 -1132.346 256.4)" gradientUnits="userSpaceOnUse"><stop offset="0"/><stop offset="1" stop-opacity="0"/></radialGradient><path opacity=".23" fill="url(#c)" enable-background="new" d="M-845 262v87.8c-38 .2-91.8-19.7-91.8-43.9S-894.5 262-845 262z"/></g><g transform="matrix(1.154 0 0 1.154 -1340.28 -524.798)"><path fill="#729FCF" stroke="#2E3436" stroke-width="19.522" stroke-linecap="round" stroke-linejoin="round" d="M128.5 337.4h438.9v389.7H128.5V337.4z"/><g fill="#fff"><path d="M539.3 362.4c-137.1 30.7-274 59.2-388.6 108.6l2.1 70c7.3 7.3 290.5-52.6 306.4-12.1 15.9 40.5-299.1 97.4-305.7 93.6l2.1 25.7c138-27 272.8-56.4 386.4-102.1l1.4-82.1c-110.3 9.3-308.5 38.5-287.9 11.4 20.7-27.1 101.3-54 287.9-87.1l-4.1-25.9z"/><g transform="translate(-60.714 5.714)"><path d="M237.1 558.8c0 3.2-2.6 5.7-5.7 5.7s-5.7-2.6-5.7-5.7c0-3.2 2.6-5.7 5.7-5.7s5.7 2.5 5.7 5.7z"/><path d="M253.1 558.8c0 3.2-2.6 5.7-5.7 5.7s-5.7-2.6-5.7-5.7c0-3.2 2.6-5.7 5.7-5.7s5.7 2.5 5.7 5.7z"/><path d="M237.1 584.8c0 3.2-2.6 5.7-5.7 5.7s-5.7-2.6-5.7-5.7c0-3.2 2.6-5.7 5.7-5.7s5.7 2.5 5.7 5.7z"/><path d="M253.1 584.8c0 3.2-2.6 5.7-5.7 5.7s-5.7-2.6-5.7-5.7c0-3.2 2.6-5.7 5.7-5.7s5.7 2.5 5.7 5.7z"/></g></g><path fill="#fff" d="M152.1 646.6h390.7v47.9H152.1z"/><g transform="matrix(.987 0 0 .862 5.987 -66.014)" stroke-width="2.1" stroke-linejoin="round"><path fill="#729FCF" stroke="#729FCF" d="M180.3 839.2v4.3c-1.7-.8-3.2-1.4-4.7-1.8-1.5-.4-2.9-.6-4.3-.6-2.4 0-4.2.5-5.5 1.4-1.3.9-1.9 2.2-1.9 4 0 1.4.4 2.5 1.3 3.3.9.7 2.5 1.3 4.9 1.8l2.7.5c3.3.6 5.7 1.7 7.2 3.3 1.6 1.6 2.3 3.7 2.3 6.3 0 3.1-1.1 5.5-3.2 7.1-2.1 1.6-5.2 2.4-9.3 2.4-1.5 0-3.2-.2-4.9-.5-1.7-.3-3.5-.9-5.4-1.5v-4.5c1.8 1 3.5 1.8 5.2 2.3 1.7.5 3.4.8 5 .8 2.5 0 4.4-.5 5.8-1.5 1.4-1 2-2.4 2-4.2 0-1.6-.5-2.8-1.5-3.7-1-.9-2.6-1.6-4.8-2l-2.7-.5c-3.3-.7-5.6-1.7-7.1-3.1-1.5-1.4-2.2-3.3-2.2-5.8 0-2.9 1-5.1 3-6.8 2-1.7 4.8-2.5 8.4-2.5 1.5 0 3.1.1 4.7.4 1.7.1 3.4.5 5 1.1"/><path fill="#729FCF" stroke="#729FCF" d="M198.9 838.1h4.5v20.1c0 3.5.6 6.1 1.9 7.7 1.3 1.5 3.4 2.3 6.2 2.3 2.9 0 4.9-.8 6.2-2.3 1.3-1.6 1.9-4.1 1.9-7.7v-20.1h4.5v20.6c0 4.3-1.1 7.6-3.2 9.8-2.1 2.2-5.3 3.3-9.4 3.3-4.2 0-7.3-1.1-9.5-3.3-2.1-2.2-3.2-5.4-3.2-9.8v-20.6"/><path fill="#729FCF" stroke="#729FCF" d="M246.1 855.3v12.3h7.3c2.4 0 4.3-.5 5.4-1.5 1.2-1 1.8-2.6 1.8-4.7s-.6-3.7-1.8-4.6c-1.2-1-3-1.5-5.4-1.5h-7.3m0-13.8v10.1h6.7c2.2 0 3.9-.4 5-1.2 1.1-.8 1.6-2.1 1.6-3.8 0-1.7-.5-3-1.6-3.8-1.1-.8-2.7-1.3-5-1.3h-6.7m-4.5-3.8h11.6c3.5 0 6.1.7 8 2.2 1.9 1.4 2.8 3.5 2.8 6.2 0 2.1-.5 3.7-1.4 4.9-1 1.2-2.4 2-4.2 2.3 2.2.5 4 1.5 5.2 3 1.2 1.5 1.9 3.4 1.9 5.7 0 3-1 5.3-3.1 7-2 1.6-5 2.5-8.7 2.5h-12.1v-33.8"/><path fill="#888A85" stroke="#888A85" d="M290 871.4l-12.9-33.7h4.8l10.7 28.3 10.7-28.3h4.7l-12.8 33.7H290"/><path fill="#888A85" stroke="#888A85" d="M323.4 837.7h21.3v3.8H328v10h16v3.8h-16v12.2h17.1v3.8h-21.7v-33.6"/><path fill="#888A85" stroke="#888A85" d="M379.9 855.9c1 .3 1.9 1 2.8 2.1.9 1.1 1.9 2.6 2.8 4.5l4.6 9.2h-4.9L381 863c-1.1-2.3-2.2-3.8-3.2-4.5-1-.7-2.5-1.1-4.3-1.1h-5v14.2h-4.6V838h10.3c3.8 0 6.7.8 8.6 2.4 1.9 1.6 2.8 4 2.8 7.3 0 2.1-.5 3.9-1.5 5.3-.9 1.4-2.3 2.3-4.2 2.9m-11.4-14.2v11.9h5.7c2.2 0 3.8-.5 5-1.5 1.1-1 1.7-2.5 1.7-4.5s-.6-3.4-1.7-4.4c-1.1-1-2.8-1.5-5-1.5h-5.7"/><path fill="#888A85" stroke="#888A85" d="M424.7 839.3v4.3c-1.7-.8-3.2-1.4-4.7-1.8-1.5-.4-2.9-.6-4.3-.6-2.4 0-4.2.5-5.5 1.4-1.3.9-1.9 2.2-1.9 4 0 1.4.4 2.5 1.3 3.3.9.7 2.5 1.3 4.9 1.8l2.7.5c3.3.6 5.7 1.7 7.2 3.3 1.6 1.6 2.3 3.7 2.3 6.3 0 3.1-1.1 5.5-3.2 7.1-2.1 1.6-5.2 2.4-9.3 2.4-1.5 0-3.2-.2-4.9-.5-1.7-.3-3.5-.9-5.4-1.5v-4.5c1.8 1 3.5 1.8 5.2 2.3 1.7.5 3.4.8 5 .8 2.5 0 4.4-.5 5.8-1.5 1.4-1 2-2.4 2-4.2 0-1.6-.5-2.8-1.5-3.7-1-.9-2.6-1.6-4.8-2l-2.7-.5c-3.3-.7-5.6-1.7-7.1-3.1-1.5-1.4-2.2-3.3-2.2-5.8 0-2.9 1-5.1 3-6.8 2-1.7 4.8-2.5 8.4-2.5 1.5 0 3.1.1 4.7.4 1.7.1 3.3.5 5 1.1"/><path fill="#888A85" stroke="#888A85" d="M443.3 837.7h4.6v33.7h-4.6v-33.7"/><path fill="#888A85" stroke="#888A85" d="M477.5 841.2c-3.2 0-5.7 1.2-7.6 3.6-1.9 2.4-2.8 5.6-2.8 9.7s.9 7.3 2.8 9.7c1.9 2.4 4.4 3.6 7.6 3.6 3.2 0 5.7-1.2 7.6-3.6 1.9-2.4 2.8-5.6 2.8-9.7s-.9-7.3-2.8-9.7c-1.9-2.5-4.4-3.6-7.6-3.6m0-3.6c4.5 0 8.2 1.5 10.9 4.6 2.7 3 4.1 7.1 4.1 12.3 0 5.1-1.4 9.2-4.1 12.3-2.7 3-6.4 4.6-10.9 4.6-4.6 0-8.2-1.5-11-4.6-2.7-3-4.1-7.1-4.1-12.3s1.4-9.2 4.1-12.3c2.8-3.1 6.4-4.6 11-4.6"/><path fill="#888A85" stroke="#888A85" d="M509.1 838h6.1l14.9 28.2V838h4.4v33.7h-6.1l-14.9-28.2v28.2h-4.4V838"/></g><linearGradient id="d" gradientUnits="userSpaceOnUse" x1="316.027" y1="636.247" x2="429.267" y2="393.81" gradientTransform="matrix(.896 0 0 -.896 -76.445 799.623)"><stop offset="0" stop-color="#fff"/><stop offset="1" stop-color="#fff" stop-opacity="0"/></linearGradient><path fill="url(#d)" stroke="#D3D7CF" stroke-width="19.522" stroke-linecap="round" d="M147.6 358.8v349h400.8V356.6H147.6v2.2z"/></g></g></svg>