<?xml version="1.0" encoding="utf-8"?>
<!-- Generator: Adobe Illustrator 19.1.0, SVG Export Plug-In . SVG Version: 6.00 Build 0)  -->
<svg version="1.1" id="Layer_1" xmlns="http://www.w3.org/2000/svg" xmlns:xlink="http://www.w3.org/1999/xlink" x="0px" y="0px"
	 width="541.9px" height="150.8px" viewBox="0 0 541.9 150.8" style="enable-background:new 0 0 541.9 150.8;" xml:space="preserve"
	>
<style type="text/css">
	.st0{fill:#FFFFFF;}
</style>
<g>
	<g>
		<path class="st0" d="M136.6,17h2.8v3.1c0.8-1.2,1.7-2.1,2.6-2.8c0.9-0.6,1.9-0.9,2.9-0.9c0.8,0,1.6,0.2,2.4,0.7l-1.4,2.3
			c-0.6-0.2-1.1-0.4-1.4-0.4c-0.9,0-1.8,0.4-2.6,1.1c-0.8,0.8-1.5,1.9-1.9,3.5c-0.3,1.2-0.5,3.7-0.5,7.4v7.2h-2.8V17z"/>
		<path class="st0" d="M167.8,31.3l2.3,1.2c-0.8,1.5-1.6,2.7-2.6,3.6c-1,0.9-2.1,1.6-3.4,2.1c-1.2,0.5-2.6,0.7-4.2,0.7
			c-3.5,0-6.2-1.1-8.2-3.4c-2-2.3-2.9-4.9-2.9-7.7c0-2.7,0.8-5.1,2.5-7.2c2.1-2.7,4.9-4,8.5-4c3.6,0,6.5,1.4,8.7,4.1
			c1.5,1.9,2.3,4.4,2.4,7.3h-19.2c0.1,2.5,0.8,4.5,2.4,6.1c1.5,1.6,3.4,2.4,5.7,2.4c1.1,0,2.1-0.2,3.2-0.6c1-0.4,1.9-0.9,2.6-1.5
			C166.2,33.7,167,32.7,167.8,31.3z M167.8,25.5c-0.4-1.5-0.9-2.6-1.6-3.5c-0.7-0.9-1.6-1.6-2.8-2.1c-1.2-0.5-2.4-0.8-3.6-0.8
			c-2.1,0-3.9,0.7-5.4,2c-1.1,1-1.9,2.4-2.5,4.4H167.8z"/>
		<path class="st0" d="M172.1,17h2.8l6.5,15.5l6.8-15.5h0.5l6.8,15.5l6.7-15.5h2.9l-9.3,21.3h-0.5l-6.8-15.3l-6.8,15.3h-0.5
			L172.1,17z"/>
		<path class="st0" d="M228.5,17v21.3h-2.7v-3.7c-1.1,1.4-2.4,2.4-3.9,3.2c-1.4,0.7-3,1.1-4.7,1.1c-3,0-5.6-1.1-7.7-3.3
			c-2.1-2.2-3.2-4.8-3.2-8c0-3.1,1.1-5.7,3.2-7.9c2.2-2.2,4.7-3.3,7.8-3.3c1.8,0,3.3,0.4,4.8,1.1c1.4,0.7,2.7,1.9,3.7,3.3V17H228.5z
			 M217.5,19.1c-1.5,0-2.9,0.4-4.2,1.1c-1.3,0.7-2.3,1.8-3.1,3.2c-0.8,1.4-1.1,2.8-1.1,4.3c0,1.5,0.4,2.9,1.2,4.3
			c0.8,1.4,1.8,2.4,3.1,3.2c1.3,0.8,2.7,1.1,4.2,1.1c1.5,0,2.9-0.4,4.3-1.1c1.3-0.8,2.4-1.8,3.1-3.1c0.7-1.3,1.1-2.7,1.1-4.4
			c0-2.5-0.8-4.5-2.4-6.2C221.9,20,219.9,19.1,217.5,19.1z"/>
		<path class="st0" d="M233.1,17h2.8v3.1c0.8-1.2,1.7-2.1,2.6-2.8c0.9-0.6,1.9-0.9,2.9-0.9c0.8,0,1.6,0.2,2.4,0.7l-1.4,2.3
			c-0.6-0.2-1.1-0.4-1.4-0.4c-0.9,0-1.8,0.4-2.6,1.1c-0.8,0.8-1.5,1.9-1.9,3.5c-0.3,1.2-0.5,3.7-0.5,7.4v7.2h-2.8V17z"/>
		<path class="st0" d="M267.3,8.8v29.5h-2.7v-3.7c-1.1,1.4-2.4,2.4-3.9,3.2c-1.4,0.7-3,1.1-4.7,1.1c-3,0-5.6-1.1-7.7-3.3
			c-2.1-2.2-3.2-4.8-3.2-8c0-3.1,1.1-5.7,3.2-7.9c2.2-2.2,4.7-3.3,7.8-3.3c1.7,0,3.3,0.4,4.7,1.1c1.4,0.7,2.7,1.9,3.7,3.3V8.8H267.3
			z M256.4,19.1c-1.5,0-2.9,0.4-4.2,1.1c-1.3,0.7-2.3,1.8-3.1,3.2c-0.8,1.4-1.1,2.8-1.1,4.3c0,1.5,0.4,2.9,1.2,4.3
			c0.8,1.4,1.8,2.4,3.1,3.2c1.3,0.8,2.7,1.1,4.2,1.1c1.5,0,2.9-0.4,4.3-1.1c1.3-0.8,2.4-1.8,3.1-3.1c0.7-1.3,1.1-2.7,1.1-4.4
			c0-2.5-0.8-4.5-2.4-6.2C260.8,20,258.8,19.1,256.4,19.1z"/>
		<path class="st0" d="M275.6,30.4c3.2,8.6,9.7,13.4,15.8,13.4c5.3,0,8.2-3.8,8.2-8c0-1.8-0.6-4.1-2.4-5.9
			c-4.8-4.7-12.9-3.7-18.4-9.2c-2.1-2.1-3.6-5.2-3.6-9.1c0-6.4,4.5-11.7,11-11.7c4.8,0,8.3,2.6,10.3,2.6c1.4,0,3-0.9,3.8-2.5h0.6
			l0.6,12.3h-0.6c-0.8-1.4-2.3-4.2-4.8-6.7c-3-3-6.5-4.7-9.9-4.7c-2.9,0-7.4,1.4-7.4,7c0,1.8,0.7,3.8,2.1,5.3
			c4.9,4.9,14,3.7,20.1,9.8c2,2,3.2,5.1,3.2,8.6c0,8.4-5.3,13.3-12.9,13.3c-5.1,0-7.9-2.5-11-2.5c-2.7,0-4.1,1.6-5.2,2.5h-0.6V30.4
			H275.6z"/>
		<path class="st0" d="M305.3,16.8h5.6V6.6l5.1-2v12.2h9.5v1.9H316v17.3c-0.1,4.2,1.6,7.1,4.4,7.1c3.8,0,5.9-4.2,5.8-8h1.2v0.9
			c0,5.1-3.6,9-8.6,9c-2.9,0-8.1-1.7-7.9-8.6V18.6h-5.6V16.8z"/>
		<path class="st0" d="M327.9,16.8h14.7v1.1h-2.3c-1.2,0-2.1,0.2-2.1,1.1c0,0.3,0.1,0.7,0.3,1.2l8.7,18.9l6.2-14.8
			c0.5-1.1,0.6-2,0.6-2.9c0-2.3-1.6-3.6-3.4-3.6h-1.3v-1.1h12.5v1c-3.9,0-5.4,2.5-7.3,7l-10.8,25.8c-2.5,5.8-4.3,9.3-9.7,9.3
			c-2.7,0-5-1.4-5-4.3c0-1.8,1.5-3.5,3.4-3.5c2.1,0,3.5,1.6,3.5,3.3c0,1.1-0.5,2.3-1.8,3.3c3.2,0.5,5.8-2.3,7.5-6.2l2.8-6.7
			l-11.9-25.8c-0.8-1.8-1.5-2.1-3.3-2.1h-1.3V16.8z"/>
		<path class="st0" d="M363.5,43.2c1.5,0,2.3-0.5,2.3-2.4V6.1c0-2.9-0.8-4.3-3.9-4.3h-1.2V0.6c3.9,0,6.6-0.2,10.2-0.6v40.7
			c0,1.9,0.8,2.4,2.3,2.4h2.5v1.1H361v-1.1H363.5z"/>
		<path class="st0" d="M402.8,38.5c-3.3,4.5-7,6.5-11.7,6.5c-8,0-12.9-7.1-12.9-14.1c0-7.8,5.6-14.4,13.5-14.4
			c5.9,0,11,4.9,11.4,11.6h-18.9v3.6c0,8,3.8,11.7,8.6,11.7c3.8,0,6.8-2,9.2-5.5L402.8,38.5z M396.7,27.1c0.6-1.5,0.9-2.8,0.9-3.9
			c0-3.8-3.1-5.7-5.8-5.7c-4,0-7.5,3-7.7,9.6H396.7z"/>
		<g>
			<g>
				<path class="st0" d="M402.2,19.7v-2.4h1.1c0.2,0,0.4,0,0.5,0.1c0.1,0,0.2,0.1,0.3,0.2c0.1,0.1,0.1,0.2,0.1,0.4
					c0,0.2-0.1,0.3-0.2,0.4c-0.1,0.1-0.3,0.2-0.5,0.2c0.1,0,0.1,0.1,0.2,0.1c0.1,0.1,0.2,0.2,0.3,0.3l0.4,0.7h-0.4l-0.3-0.5
					c-0.1-0.1-0.2-0.3-0.2-0.3c-0.1-0.1-0.1-0.1-0.2-0.2c0,0-0.1-0.1-0.1-0.1c0,0-0.1,0-0.2,0h-0.4v1.1H402.2z M402.5,18.4h0.7
					c0.1,0,0.3,0,0.3,0c0.1,0,0.1-0.1,0.2-0.1c0-0.1,0.1-0.1,0.1-0.2c0-0.1,0-0.2-0.1-0.3c-0.1-0.1-0.2-0.1-0.4-0.1h-0.8V18.4z"/>
			</g>
			<path class="st0" d="M403,20.7c-1.2,0-2.2-1-2.2-2.2c0-1.2,1-2.2,2.2-2.2s2.2,1,2.2,2.2C405.3,19.7,404.3,20.7,403,20.7L403,20.7
				z M403,16.5c-1.1,0-1.9,0.9-1.9,1.9c0,1.1,0.9,1.9,1.9,1.9c1.1,0,1.9-0.9,1.9-1.9C405,17.4,404.1,16.5,403,16.5L403,16.5z"/>
		</g>
	</g>
	<g>
		<path class="st0" d="M68.1,150.8V82.7l-31,45.2h-0.4l-31-45.2v68.1H0V72.4h5.5L37,118.8l31.5-46.4h5.5v78.4H68.1z"/>
		<path class="st0" d="M142.1,150.8V72.4h55.8v5.4h-50v30.8h44.9v5.4h-44.9v31.5h50.5v5.4H142.1z"/>
		<path class="st0" d="M288.1,150.8H262V72.4h26.1c24.7,0,41.7,16.9,41.7,39v0.2C329.7,133.7,312.7,150.8,288.1,150.8z M323.7,111.6
			c0-18.6-13.8-33.8-35.6-33.8h-20.3v67.7h20.3c21.8,0,35.6-14.9,35.6-33.6V111.6z"/>
		<path class="st0" d="M395.2,150.8V72.4h5.8v78.4H395.2z"/>
		<path class="st0" d="M535.5,150.8l-10-22h-46.3l-10,22h-6.1l36.5-79h5.6l36.5,79H535.5z M502.4,78.2l-20.7,45.4H523L502.4,78.2z"
			/>
	</g>
</g>
</svg>
