<?xml version="1.0" encoding="utf-8"?>
<!-- Generator: Adobe Illustrator 18.0.0, SVG Export Plug-In . SVG Version: 6.00 Build 0)  -->
<!DOCTYPE svg PUBLIC "-//W3C//DTD SVG 1.1//EN" "http://www.w3.org/Graphics/SVG/1.1/DTD/svg11.dtd">
<svg version="1.1" id="Layer_1" xmlns="http://www.w3.org/2000/svg" xmlns:xlink="http://www.w3.org/1999/xlink" x="0px" y="0px"
	 viewBox="0 0 318.1 68.8" enable-background="new 0 0 318.1 68.8" xml:space="preserve">
<g>
	<path fill="#FFFFFF" d="M27.2,67.6c-5.4,1-11.2,1.2-13.9,1.2c-8.8,0-12.9-1.4-13.3-6.9c-0.3-3.5,1.4-11.6,4.9-15
		c3.1-2.9,8.3-3.4,12.9-3.4c5,0,10,0.5,15,1.4l-2,7.9c-2.6-0.3-4.7-0.5-7.1-0.5c-3.6,0-6.9,0.2-8.9,1.9c-1,0.8-1.9,2.5-1.8,4.5
		c0.2,2.4,2.2,3.1,6.6,3.1c3.1,0,6.2-0.6,9.2-1L27.2,67.6z"/>
	<path fill="#FFFFFF" d="M45.6,53.8c-1,1.7-1.7,4.4-1.6,5.6c0.2,2.5,2.3,3,3.9,3c3,0,4.2-0.4,5.2-2.3c0.4-0.7,1.8-3.2,1.5-5.9
		c-0.1-1.7-1.4-2.8-4.2-2.8C48.5,51.5,46.9,51.6,45.6,53.8 M34.8,48.8c3.2-4.6,9.2-5.2,16.6-5.2c7.4,0,15.8,0.2,16.4,7.7
		c0.3,3.4-1.1,9.1-3.9,13.1c-2.9,4.1-10.5,4.4-16.3,4.4c-9,0-15.8-0.2-16.4-7.7C30.9,57.7,32.2,52.6,34.8,48.8"/>
	<polygon fill="#FFFFFF" points="72,44.3 86.3,44.3 89.9,58.1 90,58.1 93.4,44.3 105.9,44.3 99.9,68.1 86,68.1 81.7,55.7 81.6,55.7 
		78.5,68.1 65.9,68.1 	"/>
	<path fill="#FFFFFF" d="M103.7,61.7c4.7,0.5,9.3,0.8,14,0.8c1.3,0,4.2,0,4.1-1.6c-0.1-1.2-0.8-1.4-8.1-1.4c-3.7,0-7.9-1-8.2-4.8
		c-0.4-5.1,2.6-9.3,7.4-10.4c2.7-0.6,6.6-0.7,9.6-0.7c4.1,0,10.6,0.2,16.6,0.9l-2,7.4c-4-0.4-7.9-0.7-11.9-0.7
		c-4.8,0-5.9,0.6-5.9,1.7c0.1,1,0.9,1.2,7.3,1.2c4.6,0,8.7,0.2,9.1,5.2c0.1,1.9-0.7,4.5-1.5,5.6c-2.3,3.3-6.3,4-14.3,4
		c-6.5,0-12.1-0.3-17.5-1.1L103.7,61.7z"/>
	<path fill="#FFFFFF" d="M168.3,61.8c-1.6,6-7.5,7-17.9,7c-4.8,0-13.1-0.3-13.5-5.6c-0.1-0.9,0-1.6,0.7-4.2l3.9-14.6h12.8l-3.7,14
		c-0.3,0.9-0.5,2.2-0.5,2.7c0.1,1.2,1.2,1.7,2.7,1.7c2.3,0,3.1-1.1,3.6-2.7l4.2-15.8H173L168.3,61.8z"/>
	<polygon fill="#FFFFFF" points="174.6,44.3 187.2,44.3 183.4,59.9 196.1,59.9 194.1,68.1 168.9,68.1 	"/>
	<polygon fill="#FFFFFF" points="200.6,52.2 192.4,52.2 194.4,44.3 223.5,44.3 221.5,52.2 213.3,52.2 209.5,68.1 196.8,68.1 	"/>
	<polygon fill="#FFFFFF" points="225,44.3 237.4,44.3 231.3,68.1 219.1,68.1 	"/>
	<polygon fill="#FFFFFF" points="239,44.3 253.3,44.3 256.9,58.1 257,58.1 260.4,44.3 272.9,44.3 266.9,68.1 253,68.1 248.7,55.7 
		248.6,55.7 245.5,68.1 232.9,68.1 	"/>
	<path fill="#FFFFFF" d="M300.4,67.5c-4.2,0.8-10.7,1.3-14.1,1.3c-7.5,0-14.8-0.1-15.3-7.4c-0.2-2.6,0.5-14.5,9.4-16.8
		c3.6-0.9,7-1.1,10.2-1.1c5.2,0,10.4,0.5,15.5,1.5l-1.8,7c-2.8-0.3-5.8-0.6-8.7-0.6c-2.3,0-4.8,0-7,0.4c-3.7,0.8-5.1,4.8-4.8,7.8
		c0.2,3,2.5,3.1,5.4,3l1.7-6.2h12.4L300.4,67.5z"/>
	<path fill="#FFFFFF" d="M40.9,29.8c6.3,0.8,12.5,1.3,18.8,1.3c1.8,0,5.7,0,5.7-2.6c0-1.9-1-2.3-10.8-2.3c-5.1,0-10.6-1.7-10.6-7.8
		c0-8.5,4.4-15.3,11-17.2c3.7-1,9-1.2,13.1-1.2c5.5,0,14.3,0.3,22.3,1.5l-3.5,12.1c-5.3-0.7-10.6-1.2-16-1.2c-6.5,0-8.1,0.9-8.1,2.8
		c0,1.6,1.1,2,9.7,2c6.3,0,11.7,0.3,11.7,8.5c0,3.1-1.4,7.4-2.6,9.2c-3.4,5.5-8.9,6.5-19.7,6.5c-8.8,0-16.2-0.5-23.6-1.8L40.9,29.8z
		"/>
	<polygon fill="#FFFFFF" points="92.8,1.2 109.7,1.2 103.1,26.9 120.1,26.9 116.6,40.4 82.6,40.4 	"/>
	<path fill="#FFFFFF" d="M151.8,11.1h-0.1L143,25.2h8.8V11.1z M139.3,1.2h29.4v39.2h-16.9v-5.7H138l-3.4,5.7h-18.8L139.3,1.2z"/>
	<polygon fill="#FFFFFF" points="178.2,1.2 195.1,1.2 188.5,26.9 205.5,26.9 202,40.4 168.1,40.4 	"/>
	<path fill="#FFFFFF" d="M224.6,16.9c-1.5,2.8-2.7,7.3-2.7,9.2c0,4.1,2.7,5,5,5c4,0,5.7-0.7,7.3-3.7c0.6-1.1,2.7-5.3,2.7-9.8
		c0-2.9-1.5-4.6-5.3-4.6C228.8,13,226.5,13.1,224.6,16.9 M210.6,8.5C215.3,1,223.5,0,233.5,0c9.9,0,21.3,0.4,21.3,12.6
		c0,5.7-2.4,14.9-6.6,21.6c-4.3,6.8-14.6,7.3-22.5,7.3c-12.2,0-21.3-0.4-21.3-12.6C204.4,23.2,206.7,14.8,210.6,8.5"/>
	<polygon fill="#FFFFFF" points="260.2,1.2 283.5,1.2 283.5,22.2 283.6,22.2 295.2,1.2 318.1,1.2 307.5,40.4 291,40.4 296.6,19.6 
		296.5,19.6 283.5,40.4 273.7,40.4 272.2,18.9 272.1,18.9 266.3,40.4 250.1,40.4 	"/>
</g>
</svg>
