<?xml version="1.0" encoding="utf-8"?>
<!-- Generator: Adobe Illustrator 18.0.0, SVG Export Plug-In . SVG Version: 6.00 Build 0)  -->
<!DOCTYPE svg PUBLIC "-//W3C//DTD SVG 1.1//EN" "http://www.w3.org/Graphics/SVG/1.1/DTD/svg11.dtd">
<svg version="1.1" id="Layer_1" xmlns="http://www.w3.org/2000/svg" xmlns:xlink="http://www.w3.org/1999/xlink" x="0px" y="0px"
	 viewBox="0 0 989.7 276.7" enable-background="new 0 0 989.7 276.7" xml:space="preserve">
<polygon fill="#1C3F94" points="108.9,53 85.6,11 117.6,33.7 147.6,9.7 128.2,53 "/>
<polygon fill="#1C3F94" points="114.9,223.8 91.6,265.8 123.6,243.2 153.6,267.2 134.3,223.8 "/>
<polygon fill="#1C3F94" points="193.2,86.5 219.7,46.5 214.3,85.3 249.4,100.9 202,103.7 "/>
<polygon fill="#1C3F94" points="202,177.2 230.3,216 223.2,177.4 257.6,160.3 210.2,159.6 "/>
<polygon fill="#1C3F94" points="52.3,177.1 27.5,218.3 31.2,179.2 -4.5,165.1 42.7,160.4 "/>
<polygon fill="#1C3F94" points="56.3,88.5 29.7,48.5 35.1,87.3 0,102.9 47.4,105.7 "/>
<g>
	<path fill="#FFDD00" d="M25.9,75.7c0,6.1-4.9,11-11,11s-11-4.9-11-11c0-6.1,4.9-11,11-11S25.9,69.6,25.9,75.7"/>
	<path fill="#FFDD00" d="M127.9,11c0,6.1-4.9,11-11,11c-6.1,0-11-4.9-11-11s4.9-11,11-11C123,0,127.9,4.9,127.9,11"/>
	<path fill="#FFDD00" d="M244.6,74.3c0,6.1-4.9,11-11,11c-6.1,0-11-4.9-11-11c0-6.1,4.9-11,11-11C239.7,63.3,244.6,68.3,244.6,74.3"
		/>
	<path fill="#FFDD00" d="M254.6,187.7c0,6.1-4.9,11-11,11c-6.1,0-11-4.9-11-11c0-6.1,4.9-11,11-11
		C249.7,176.7,254.6,181.6,254.6,187.7"/>
	<path fill="#FFDD00" d="M135.2,265.7c0,6.1-4.9,11-11,11s-11-4.9-11-11c0-6.1,4.9-11,11-11S135.2,259.6,135.2,265.7"/>
	<path fill="#FFDD00" d="M23.2,191c0,6.1-4.9,11-11,11s-11-4.9-11-11s4.9-11,11-11S23.2,184.9,23.2,191"/>
	<path fill="#FFFFFF" d="M125.6,221.7c-45.8,0-83-37.2-83-83c0-45.8,37.2-83,83-83c45.8,0,83,37.2,83,83
		C208.6,184.4,171.3,221.7,125.6,221.7"/>
	<path fill="#FFDD00" d="M125.6,61.7c42.5,0,77,34.5,77,77s-34.5,77-77,77s-77-34.5-77-77S83.1,61.7,125.6,61.7 M125.6,49.7
		c-49.2,0-89,39.8-89,89c0,49.2,39.8,89,89,89c49.2,0,89-39.8,89-89C214.6,89.5,174.7,49.7,125.6,49.7"/>
	<path fill="#1C3F94" d="M60.6,118.7c0,0,5.3-18.7,7-19.7c0,0,13.3-12,26-20v18.7l-9.7,6c0,0-0.7,70.7,3.3,92c0,0-8.7-4.3-10.3-6.3
		c0,0-6.3-34.3-4.7-78C72.2,111.3,61.6,117.3,60.6,118.7"/>
	<path fill="#1C3F94" d="M95.6,79l0.3,121l14.3,4.3c0,0,11.7,5,13.3-15s3.3-41.3-6-51.3c0,0,6.7-7.7,5.7-32.3
		c-1-24.7-4.3-35-18.7-30.3L95.6,79z"/>
	<path fill="#1C3F94" d="M126.2,72v128c0,0-1.3,4.7,3.3,5c4.7,0.3,7-0.7,7-0.7l0.7-53.7c0,0,7.7-3.7,7.7,12.3s0.7,38.3,0.7,38.3
		s5.7-1,10-3.7l-0.3-44.3c0,0,1-9.7-6.3-14.3c0,0,6.3-6.7,5-28.3C152.6,89,151.9,72,126.2,72"/>
	<path fill="#1C3F94" d="M157.2,109.7l1.7,74.7c0,0,0.7,10.7,6.3,10c5.7-0.7,21.7-13.3,20-58.7c0,0,0.3-34.3-11-45.7
		c-11.3-11.3-16.7-7-17,1.7S157.2,109.7,157.2,109.7"/>
	<path fill="#FFFFFF" d="M104.9,96.7l0.3,30.7c0,0,10.3,2.7,9-16.3C114.2,111,114.2,91.3,104.9,96.7"/>
	<path fill="#FFFFFF" d="M105.6,148v35c0,0,11.3,4,10-15.7C115.6,167.3,116.6,145.3,105.6,148"/>
	<path fill="#FFFFFF" d="M167.2,138.3l-0.7-31.3c0,0-0.3-12.3,6-1c0,0,8.3,30.5,2,57.7c-5.7,24.3-7.3,4.3-7.3,4.3V138.3z"/>
	<path fill="#FFFFFF" d="M135.9,129V95c0,0,9.3-1.3,9,17.3C144.6,131,140.6,129.3,135.9,129"/>
	<path fill="#1C3F94" d="M298.8,59.1l-8.9,0.2c-3.5,0.1-4.9,0.4-5.8,1.7c-0.6,0.9-0.9,1.6-1,2.1c-0.1,0.5-0.3,0.7-0.7,0.7
		c-0.4,0-0.5-0.3-0.5-1c0-1,1.1-6.4,1.3-6.9c0.2-0.8,0.4-1.1,0.7-1.1c0.5,0,1.1,0.6,2.6,0.7c1.7,0.2,4,0.3,6,0.3h23.8
		c1.9,0,3.2-0.2,4.1-0.3c0.9-0.2,1.4-0.3,1.6-0.3c0.4,0,0.5,0.4,0.5,1.3c0,1.3-0.2,5.4-0.2,7c-0.1,0.6-0.2,1-0.5,1
		c-0.5,0-0.6-0.3-0.7-1.2l-0.1-0.7c-0.1-1.6-1.7-3.2-7.1-3.4l-7.6-0.2v24.6c0,5.5,0,10.3,0.3,12.8c0.2,1.7,0.5,3,2.3,3.2
		c0.8,0.1,2.2,0.2,3.1,0.2c0.7,0,1,0.2,1,0.5c0,0.4-0.5,0.6-1.1,0.6c-4,0-7.7-0.2-9.4-0.2c-1.4,0-5.2,0.2-7.6,0.2
		c-0.8,0-1.2-0.2-1.2-0.6c0-0.3,0.2-0.5,1-0.5c0.9,0,1.6-0.1,2.2-0.2c1.2-0.2,1.6-1.6,1.7-3.3c0.3-2.5,0.3-7.3,0.3-12.8V59.1z"/>
	<path fill="#1C3F94" d="M328.5,88.2c-0.3,0-0.4,0.1-0.5,0.4l-2.8,6.8c-0.5,1.3-0.8,2.5-0.8,3.1c0,0.9,0.5,1.4,2.1,1.4h0.8
		c0.7,0,0.8,0.2,0.8,0.5c0,0.4-0.3,0.5-0.8,0.5c-1.7,0-4.2-0.2-5.9-0.2c-0.5,0-3.4,0.2-6.1,0.2c-0.7,0-1-0.1-1-0.5
		c0-0.3,0.2-0.5,0.6-0.5c0.5,0,1.1-0.1,1.6-0.1c2.4-0.4,3.3-1.9,4.4-4.5l13.8-32.1c0.6-1.4,1-2,1.6-2c0.8,0,1,0.5,1.6,1.6
		c1.3,2.8,10.1,23.7,13.4,31.4c2,4.6,3.5,5.3,4.5,5.5c0.8,0.1,1.4,0.2,2,0.2c0.5,0,0.7,0.2,0.7,0.5c0,0.4-0.3,0.5-2.3,0.5
		c-1.9,0-5.7,0-10.1-0.1c-1-0.1-1.6-0.1-1.6-0.4c0-0.3,0.1-0.5,0.7-0.5c0.4-0.1,0.7-0.5,0.5-1.1l-4.1-10.3c-0.1-0.3-0.3-0.4-0.5-0.4
		H328.5z M339.8,85.4c0.2,0,0.3-0.1,0.2-0.3l-5-13c-0.1-0.2-0.1-0.5-0.2-0.5c-0.2,0-0.2,0.3-0.3,0.5l-5.1,12.9
		c-0.1,0.2,0,0.4,0.2,0.4H339.8z"/>
	<path fill="#1C3F94" d="M366.1,62.7c0.1-0.8,0.6-1.3,1-1.3c0.5,0,0.9,0.2,1.6,1.6l14.2,28.4l14.2-28.8c0.4-0.8,0.9-1.3,1.4-1.3
		c0.4,0,1,0.5,1.2,1.6l4.8,31.5c0.5,3.2,1,4.6,2.6,5c1.5,0.4,2.3,0.5,3,0.5c0.5,0,0.8,0.2,0.8,0.5c0,0.4-0.6,0.6-1.4,0.6
		c-1.3,0-8.8-0.2-10.9-0.4c-1.3-0.1-1.6-0.3-1.6-0.6c0-0.2,0.2-0.4,0.6-0.5c0.3-0.1,0.4-0.7,0.2-2.2l-2.9-22.1h-0.2l-11.3,22.8
		c-1.2,2.4-1.5,2.9-2.1,2.9c-0.7,0-1.3-1-2.1-2.6c-1.3-2.3-5.5-10.1-6.1-11.6c-0.4-1-3.5-7.4-5.3-10.9h-0.2l-2.5,19.9
		c-0.1,0.9-0.2,1.6-0.2,2.4c0,1,0.7,1.3,1.6,1.5c0.9,0.2,1.4,0.2,1.9,0.2c0.5,0,0.8,0.2,0.8,0.5c0,0.5-0.5,0.6-1.3,0.6
		c-2.2,0-4.6-0.2-5.6-0.2c-1,0-3.5,0.2-5.2,0.2c-0.5,0-1-0.1-1-0.6c0-0.2,0.3-0.5,0.8-0.5c0.4,0,0.8,0,1.6-0.1
		c1.4-0.2,1.9-2.2,2.2-3.9L366.1,62.7z"/>
	<path fill="#1C3F94" d="M418.3,77.3c0-7.7,0-9.2-0.1-10.8c-0.1-1.7-0.6-2.3-2.3-2.8c-0.4-0.1-1.3-0.2-2.1-0.2
		c-0.5,0-0.9-0.2-0.9-0.5c0-0.4,0.4-0.5,1.2-0.5c2.8,0,6.1,0.1,7.6,0.1c2.2,0,6.4-0.1,8.8-0.1c6.6,0,9,2.2,9.8,2.9
		c1.1,1.1,2.6,3.4,2.6,6.1c0,7.2-5.8,12.4-13.3,12.4c-0.2,0-1.3,0-1.6-0.1c-0.3,0-0.7-0.2-0.7-0.5c0-0.4,0.6-0.7,1.7-0.7
		c2.9,0,7.1-3.1,7.1-8.3c0-1.7-0.2-5-3.1-7.6c-1.9-1.7-4.1-1.9-5.3-1.9c-0.8,0-1.8,0.1-2.3,0.2c-0.3,0.1-0.4,0.4-0.4,1v20.2
		c0,4.7,0,8.7,0.2,10.9c0.2,1.4,0.5,2.4,2,2.6c0.8,0.1,1.9,0.2,2.7,0.2c0.6,0,0.8,0.3,0.8,0.5c0,0.4-0.4,0.5-1,0.5
		c-3.5,0-7.3-0.2-8.6-0.2c-1.2,0-4.6,0.2-6.7,0.2c-0.7,0-1-0.2-1-0.5c0-0.2,0.2-0.5,0.8-0.5c0.8,0,1.4-0.1,1.9-0.2
		c1.1-0.2,1.4-1.2,1.6-2.7c0.2-2.2,0.2-6.2,0.2-10.9V77.3z"/>
	<path fill="#1C3F94" d="M452.2,88.2c-0.3,0-0.4,0.1-0.5,0.4l-2.8,6.8c-0.5,1.3-0.8,2.5-0.8,3.1c0,0.9,0.5,1.4,2.1,1.4h0.8
		c0.7,0,0.8,0.2,0.8,0.5c0,0.4-0.3,0.5-0.8,0.5c-1.7,0-4.2-0.2-5.9-0.2c-0.5,0-3.4,0.2-6.1,0.2c-0.7,0-1-0.1-1-0.5
		c0-0.3,0.2-0.5,0.6-0.5c0.5,0,1.1-0.1,1.6-0.1c2.4-0.4,3.3-1.9,4.4-4.5l13.8-32.1c0.6-1.4,1-2,1.6-2c0.8,0,1,0.5,1.6,1.6
		c1.3,2.8,10.1,23.7,13.4,31.4c2,4.6,3.5,5.3,4.5,5.5c0.8,0.1,1.4,0.2,2,0.2c0.5,0,0.7,0.2,0.7,0.5c0,0.4-0.3,0.5-2.3,0.5
		c-1.9,0-5.7,0-10.1-0.1c-1-0.1-1.6-0.1-1.6-0.4c0-0.3,0.1-0.5,0.7-0.5c0.4-0.1,0.7-0.5,0.5-1.1l-4.1-10.3c-0.1-0.3-0.3-0.4-0.5-0.4
		H452.2z M463.5,85.4c0.2,0,0.3-0.1,0.2-0.3l-5-13c-0.1-0.2-0.1-0.5-0.2-0.5c-0.2,0-0.2,0.3-0.3,0.5l-5.1,12.9
		c-0.1,0.2,0,0.4,0.2,0.4H463.5z"/>
	<path fill="#1C3F94" d="M504.6,73.1c0-9.1,0-10.8-0.1-12.7c-0.1-2-0.6-3-2.6-3.4c-0.5-0.1-1.5-0.2-2.3-0.2c-0.7,0-1-0.1-1-0.5
		c0-0.4,0.4-0.5,1.3-0.5c3.2,0,7,0.2,8.2,0.2c2.9,0,5.3-0.2,7.3-0.2c10.9,0,12.8,5.8,12.8,9c0,4.9-2.8,7.9-6.1,10.5
		c4.9,1.7,10.9,5.9,10.9,13c0,6.4-5,13.1-16,13.1c-0.7,0-2.5-0.1-4.2-0.2c-1.8-0.1-3.6-0.2-4.5-0.2c-0.7,0-2,0-3.4,0.1
		c-1.4,0-2.9,0.1-4.1,0.1c-0.8,0-1.2-0.2-1.2-0.6c0-0.3,0.2-0.5,1-0.5c0.9,0,1.6-0.1,2.2-0.2c1.2-0.2,1.5-1.6,1.7-3.3
		c0.3-2.5,0.3-7.3,0.3-12.8V73.1z M511.8,74.1c0,0.5,0.2,0.6,0.4,0.7c0.5,0.1,1.4,0.2,2.8,0.2c2,0,3.3-0.2,4.3-1.1
		c1.6-1.3,2.5-3.4,2.5-6.4c0-4-2.3-9.3-7.5-9.3c-0.8,0-1.4,0-2,0.1c-0.4,0.1-0.5,0.4-0.5,1V74.1z M519.7,78.9
		c-1.3-0.9-2.6-1.3-5-1.4c-1.1-0.1-1.7-0.1-2.6-0.1c-0.2,0-0.4,0.1-0.4,0.4v14.2c0,4,0.2,5,2.1,5.8c1.6,0.7,3,0.7,4.4,0.7
		c2.7,0,7.3-1.4,7.3-7.7C525.6,87.2,524.3,82.1,519.7,78.9"/>
	<path fill="#1C3F94" d="M545.1,88.2c-0.3,0-0.4,0.1-0.5,0.4l-2.8,6.8c-0.5,1.3-0.8,2.5-0.8,3.1c0,0.9,0.5,1.4,2.1,1.4h0.8
		c0.7,0,0.8,0.2,0.8,0.5c0,0.4-0.3,0.5-0.8,0.5c-1.7,0-4.2-0.2-5.9-0.2c-0.5,0-3.4,0.2-6.1,0.2c-0.7,0-1-0.1-1-0.5
		c0-0.3,0.2-0.5,0.6-0.5c0.5,0,1.1-0.1,1.6-0.1c2.4-0.4,3.3-1.9,4.4-4.5l13.8-32.1c0.6-1.4,1-2,1.6-2c0.8,0,1,0.5,1.6,1.6
		c1.3,2.8,10.1,23.7,13.4,31.4c2,4.6,3.5,5.3,4.5,5.5c0.8,0.1,1.4,0.2,2,0.2c0.5,0,0.7,0.2,0.7,0.5c0,0.4-0.3,0.5-2.3,0.5
		c-1.9,0-5.7,0-10.1-0.1c-1-0.1-1.6-0.1-1.6-0.4c0-0.3,0.1-0.5,0.7-0.5c0.4-0.1,0.7-0.5,0.5-1.1l-4.1-10.3c-0.1-0.3-0.3-0.4-0.5-0.4
		H545.1z M556.4,85.4c0.2,0,0.3-0.1,0.2-0.3l-5-13c-0.1-0.2-0.1-0.5-0.2-0.5c-0.2,0-0.2,0.3-0.3,0.5L546,85.1
		c-0.1,0.2,0,0.4,0.2,0.4H556.4z"/>
	<path fill="#1C3F94" d="M583.2,87.8c0-2.8-0.5-3.8-1.2-5.3c-0.4-0.8-7.6-12-9.4-14.7c-1.3-1.9-2.4-3.1-3.4-3.6
		c-0.7-0.4-1.6-0.7-2.2-0.7c-0.4,0-0.8-0.2-0.8-0.5c0-0.4,0.4-0.5,1-0.5c0.9,0,4.9,0.1,6.6,0.1c1.1,0,3.6-0.1,6-0.1
		c0.5,0,0.8,0.1,0.8,0.5c0,0.4-0.4,0.4-1.2,0.7c-0.4,0.1-0.7,0.4-0.7,0.8s0.2,1,0.7,1.7c1,1.6,7.9,13.5,8.8,14.9
		c0.7-1.2,7.1-12.1,7.9-13.7c0.5-1.1,0.8-2,0.8-2.7c0-0.5-0.2-1-1.1-1.1c-0.5-0.1-1-0.2-1-0.6c0-0.4,0.3-0.5,0.9-0.5
		c1.7,0,3.6,0.1,5.2,0.1c1.1,0,4.6-0.1,5.6-0.1c0.6,0,1,0.1,1,0.4c0,0.4-0.4,0.6-1,0.6c-0.5,0-1.5,0.2-2.3,0.6
		c-1.1,0.5-1.6,1-2.8,2.4c-1.7,2-9.3,14.2-10.3,16.3c-0.8,1.9-0.7,3.4-0.7,5.1V92c0,0.8,0,2.9,0.1,5.1c0.1,1.5,0.6,2.5,2.2,2.7
		c0.8,0.1,1.9,0.2,2.6,0.2c0.6,0,0.9,0.3,0.9,0.5c0,0.4-0.4,0.5-1.1,0.5c-3.3,0-6.8-0.2-8.3-0.2c-1.3,0-4.9,0.2-6.8,0.2
		c-0.7,0-1.1-0.1-1.1-0.5c0-0.2,0.2-0.5,0.8-0.5c0.7,0,1.4-0.1,1.9-0.2c1.1-0.2,1.5-1.2,1.6-2.7c0.2-2.2,0.2-4.3,0.2-5.1V87.8z"/>
	<path fill="#1C3F94" d="M290.8,145.1c0-9.1,0-10.8-0.1-12.7c-0.1-2-0.6-3-2.6-3.4c-0.5-0.1-1.5-0.2-2.3-0.2c-0.7,0-1-0.1-1-0.5
		c0-0.4,0.4-0.5,1.3-0.5c3.2,0,7,0.2,8.2,0.2c2,0,6.6-0.2,8.5-0.2c3.8,0,7.8,0.4,11,2.6c1.7,1.1,4.1,4.2,4.1,8.2
		c0,4.4-1.9,8.5-7.9,13.4c5.3,6.7,9.5,12.1,13,15.8c3.4,3.5,5.8,3.9,6.7,4.1c0.7,0.1,1.2,0.2,1.7,0.2c0.5,0,0.7,0.2,0.7,0.5
		c0,0.5-0.4,0.6-1.1,0.6h-5.7c-3.4,0-4.9-0.3-6.4-1.1c-2.6-1.4-4.9-4.2-8.2-8.8c-2.4-3.3-5.2-7.4-5.9-8.3c-0.3-0.4-0.7-0.4-1.1-0.4
		l-5.2-0.1c-0.3,0-0.5,0.1-0.5,0.5v0.8c0,5.6,0,10.3,0.3,12.8c0.2,1.7,0.5,3.1,2.3,3.3c0.9,0.1,2.2,0.2,2.9,0.2
		c0.5,0,0.7,0.2,0.7,0.5c0,0.4-0.4,0.6-1.2,0.6c-3.5,0-7.9-0.2-8.8-0.2c-1.1,0-4.9,0.2-7.3,0.2c-0.8,0-1.2-0.2-1.2-0.6
		c0-0.3,0.2-0.5,1-0.5c0.9,0,1.6-0.1,2.2-0.2c1.2-0.2,1.5-1.6,1.7-3.3c0.3-2.5,0.3-7.3,0.3-12.8V145.1z M297.9,149.9
		c0,0.7,0.1,0.9,0.5,1.1c1.3,0.4,3.1,0.6,4.6,0.6c2.4,0,3.2-0.2,4.3-1c1.8-1.3,3.5-4.1,3.5-9c0-8.5-5.6-11-9.2-11
		c-1.5,0-2.6,0.1-3.2,0.2c-0.4,0.1-0.5,0.4-0.5,0.8V149.9z"/>
	<path fill="#1C3F94" d="M336,160.2c-0.3,0-0.4,0.1-0.5,0.4l-2.8,6.8c-0.5,1.3-0.8,2.5-0.8,3.1c0,0.9,0.5,1.4,2.1,1.4h0.8
		c0.7,0,0.8,0.2,0.8,0.5c0,0.4-0.3,0.5-0.8,0.5c-1.7,0-4.2-0.2-5.9-0.2c-0.5,0-3.4,0.2-6.1,0.2c-0.7,0-1-0.1-1-0.5
		c0-0.3,0.2-0.5,0.6-0.5c0.5,0,1.1-0.1,1.6-0.1c2.4-0.4,3.3-1.9,4.4-4.5l13.8-32.1c0.6-1.4,1-2,1.6-2c0.8,0,1,0.5,1.6,1.6
		c1.3,2.8,10.1,23.7,13.4,31.4c2,4.6,3.5,5.3,4.5,5.5c0.8,0.1,1.4,0.2,2,0.2c0.5,0,0.7,0.2,0.7,0.5c0,0.4-0.3,0.5-2.3,0.5
		c-1.9,0-5.7,0-10.1-0.1c-1-0.1-1.6-0.1-1.6-0.4c0-0.3,0.1-0.5,0.7-0.5c0.4-0.1,0.7-0.5,0.5-1.1l-4.1-10.3c-0.1-0.3-0.3-0.4-0.5-0.4
		H336z M347.3,157.4c0.2,0,0.3-0.1,0.2-0.3l-5-13c-0.1-0.2-0.1-0.5-0.2-0.5c-0.2,0-0.2,0.3-0.3,0.5l-5.1,12.9
		c-0.1,0.2,0,0.4,0.2,0.4H347.3z"/>
	<path fill="#1C3F94" d="M370.5,149.3c0-7.7,0-9.2-0.1-10.8c-0.1-1.7-0.6-2.3-2.3-2.8c-0.4-0.1-1.3-0.2-2.1-0.2
		c-0.5,0-0.9-0.2-0.9-0.5c0-0.4,0.4-0.5,1.2-0.5c2.8,0,6.1,0.1,7.6,0.1c1.6,0,5.4-0.1,8.6-0.1c6.6,0,15.5,0,21.2,5.8
		c2.6,2.6,5,6.9,5,13c0,6.4-2.8,11.3-5.8,14.2c-2.4,2.4-8,6-17.7,6c-1.9,0-4.2-0.2-6.3-0.3c-2.1-0.2-4-0.3-5.3-0.3
		c-0.6,0-1.7,0.1-3,0.1c-1.3,0.1-2.6,0.1-3.7,0.1c-0.7,0-1-0.2-1-0.5c0-0.2,0.2-0.5,0.8-0.5c0.8,0,1.4-0.1,1.9-0.2
		c1.1-0.2,1.4-1.2,1.6-2.7c0.2-2.2,0.2-6.2,0.2-10.9V149.3z M377.5,154.9c0,5.4,0.1,9.3,0.1,10.3c0.1,1.3,0.2,3.1,0.6,3.6
		c0.7,1,2.8,2,6.9,2c4.8,0,8.3-0.8,11.5-3.5c3.4-2.8,4.5-7.4,4.5-12.7c0-6.5-2.6-10.7-4.9-12.7c-4.9-4.3-10.6-4.9-14.8-4.9
		c-1.1,0-2.8,0.1-3.2,0.4c-0.5,0.2-0.7,0.4-0.7,1c-0.1,1.7-0.1,5.9-0.1,10V154.9z"/>
	<path fill="#1C3F94" d="M418.5,149.3c0-7.7,0-9.2-0.1-10.8c-0.1-1.7-0.7-2.3-1.8-2.7c-0.6-0.2-1.3-0.2-1.9-0.2
		c-0.5,0-0.8-0.1-0.8-0.6c0-0.3,0.4-0.4,1.3-0.4c2,0,5.6,0.1,7.1,0.1c1.3,0,4.7-0.1,6.8-0.1c0.7,0,1.1,0.1,1.1,0.4
		c0,0.5-0.3,0.6-0.8,0.6c-0.5,0-1,0.1-1.6,0.2c-1.4,0.2-1.9,1-2,2.8c-0.1,1.6-0.1,3.1-0.1,10.8v9c0,4.9,0,9,0.2,11.2
		c0.2,1.4,0.5,2.2,2.1,2.4c0.7,0.1,1.9,0.2,2.7,0.2c0.6,0,0.8,0.3,0.8,0.5c0,0.4-0.4,0.5-1,0.5c-3.5,0-7.1-0.2-8.5-0.2
		c-1.2,0-4.8,0.2-6.9,0.2c-0.7,0-1-0.2-1-0.5c0-0.2,0.2-0.5,0.8-0.5c0.8,0,1.4-0.1,1.9-0.2c1.1-0.2,1.4-1,1.6-2.5
		c0.2-2.1,0.2-6.2,0.2-11.1V149.3z"/>
	<path fill="#1C3F94" d="M444,160.2c-0.3,0-0.4,0.1-0.5,0.4l-2.8,6.8c-0.5,1.3-0.8,2.5-0.8,3.1c0,0.9,0.5,1.4,2.1,1.4h0.8
		c0.7,0,0.8,0.2,0.8,0.5c0,0.4-0.3,0.5-0.8,0.5c-1.7,0-4.2-0.2-5.9-0.2c-0.5,0-3.4,0.2-6.1,0.2c-0.7,0-1-0.1-1-0.5
		c0-0.3,0.2-0.5,0.6-0.5c0.5,0,1.1-0.1,1.6-0.1c2.4-0.4,3.3-1.9,4.4-4.5l13.8-32.1c0.6-1.4,1-2,1.6-2c0.8,0,1,0.5,1.6,1.6
		c1.3,2.8,10.1,23.7,13.4,31.4c2,4.6,3.5,5.3,4.5,5.5c0.8,0.1,1.4,0.2,2,0.2c0.5,0,0.7,0.2,0.7,0.5c0,0.4-0.3,0.5-2.3,0.5
		c-1.9,0-5.7,0-10.1-0.1c-1-0.1-1.6-0.1-1.6-0.4c0-0.3,0.1-0.5,0.7-0.5c0.4-0.1,0.7-0.5,0.5-1.1l-4.1-10.3c-0.1-0.3-0.3-0.4-0.5-0.4
		H444z M455.3,157.4c0.2,0,0.3-0.1,0.2-0.3l-5-13c-0.1-0.2-0.1-0.5-0.2-0.5c-0.2,0-0.2,0.3-0.3,0.5l-5.1,12.9
		c-0.1,0.2,0,0.4,0.2,0.4H455.3z"/>
	<path fill="#1C3F94" d="M481.6,137.6l-7.9,0.2c-3.1,0.1-4.3,0.4-5.1,1.6c-0.5,0.7-0.8,1.4-0.9,1.7c-0.1,0.4-0.2,0.7-0.6,0.7
		c-0.4,0-0.5-0.3-0.5-0.8c0-0.8,1-5.8,1.1-6.2c0.1-0.7,0.3-1,0.6-1c0.4,0,1,0.4,2.3,0.6c1.6,0.2,3.5,0.2,5.3,0.2h21.4
		c1.7,0,2.8-0.1,3.6-0.2c0.8-0.1,1.3-0.2,1.4-0.2c0.4,0,0.4,0.3,0.4,1.1c0,1.1-0.1,4.9-0.1,6.2c-0.1,0.5-0.2,0.8-0.5,0.8
		c-0.4,0-0.5-0.2-0.6-1l-0.1-0.5c-0.1-1.3-1.5-2.9-6.2-2.9l-6.7-0.1v20.6c0,4.7,0.1,8.7,0.3,10.9c0.2,1.4,0.5,2.4,2,2.6
		c0.7,0.1,1.9,0.2,2.7,0.2c0.6,0,0.8,0.3,0.8,0.5c0,0.4-0.4,0.5-1,0.5c-3.5,0-7-0.2-8.5-0.2c-1.2,0-4.8,0.2-6.9,0.2
		c-0.7,0-1-0.2-1-0.5c0-0.2,0.2-0.5,0.8-0.5c0.8,0,1.4-0.1,1.9-0.2c1.1-0.2,1.4-1.2,1.6-2.7c0.2-2.2,0.2-6.2,0.2-10.9V137.6z"/>
	<path fill="#1C3F94" d="M511.3,149.3c0-7.7,0-9.2-0.1-10.8c-0.1-1.7-0.7-2.3-1.8-2.7c-0.6-0.2-1.3-0.2-1.9-0.2
		c-0.5,0-0.8-0.1-0.8-0.6c0-0.3,0.4-0.4,1.3-0.4c2,0,5.6,0.1,7.1,0.1c1.3,0,4.7-0.1,6.8-0.1c0.7,0,1.1,0.1,1.1,0.4
		c0,0.5-0.3,0.6-0.8,0.6s-1,0.1-1.6,0.2c-1.4,0.2-1.9,1-2,2.8c-0.1,1.6-0.1,3.1-0.1,10.8v9c0,4.9,0,9,0.2,11.2
		c0.2,1.4,0.5,2.2,2.1,2.4c0.7,0.1,1.9,0.2,2.7,0.2c0.6,0,0.8,0.3,0.8,0.5c0,0.4-0.4,0.5-1,0.5c-3.5,0-7.1-0.2-8.5-0.2
		c-1.2,0-4.8,0.2-6.9,0.2c-0.7,0-1-0.2-1-0.5c0-0.2,0.2-0.5,0.8-0.5c0.8,0,1.4-0.1,1.9-0.2c1.1-0.2,1.4-1,1.6-2.5
		c0.2-2.1,0.2-6.2,0.2-11.1V149.3z"/>
	<path fill="#1C3F94" d="M528.2,153.8c0-8.7,6.1-20,22.1-20c13.3,0,21.6,7.4,21.6,19.1c0,11.7-8.5,20.9-22.1,20.9
		C534.4,173.7,528.2,162.8,528.2,153.8 M564.1,154.7c0-11.3-6.8-18.2-15.3-18.2c-5.9,0-12.8,3.1-12.8,15.7c0,10.5,6,18.8,16,18.8
		C555.7,171,564.1,169.2,564.1,154.7"/>
	<path fill="#1C3F94" d="M583.9,166.1c0.1,4,0.8,5.2,1.8,5.5c0.9,0.3,1.9,0.4,2.8,0.4c0.6,0,0.9,0.2,0.9,0.5c0,0.4-0.5,0.5-1.2,0.5
		c-3.4,0-5.9-0.2-6.8-0.2c-0.5,0-3,0.2-5.7,0.2c-0.7,0-1.2-0.1-1.2-0.5c0-0.3,0.4-0.5,0.8-0.5c0.7,0,1.7-0.1,2.4-0.2
		c1.4-0.4,1.6-1.7,1.6-6.2l0.5-30.2c0-1,0.4-1.7,0.9-1.7c0.7,0,1.4,0.8,2.3,1.7c0.7,0.7,8.6,8.8,16.3,16.3
		c3.6,3.5,10.6,10.7,11.4,11.5h0.2l-0.5-22.7c-0.1-3.1-0.5-4-1.8-4.5c-0.8-0.3-2-0.3-2.8-0.3c-0.7,0-0.8-0.2-0.8-0.5
		c0-0.4,0.5-0.5,1.3-0.5c2.8,0,5.6,0.1,6.7,0.1c0.6,0,2.6-0.1,5.2-0.1c0.7,0,1.2,0.1,1.2,0.5c0,0.3-0.3,0.5-0.9,0.5
		c-0.5,0-1,0-1.6,0.2c-1.4,0.4-1.9,1.3-1.9,4.2l-0.6,32.2c0,1.1-0.4,1.6-0.8,1.6c-0.9,0-1.6-0.5-2.2-1.1c-3.3-3.1-9.9-9.4-15.4-14.7
		c-5.8-5.5-11.3-11.7-12.4-12.6h-0.2L583.9,166.1z"/>
	<path fill="#1C3F94" d="M641.3,150.4c0-10.3,6.8-23.5,24.8-23.5c14.9,0,24.2,8.7,24.2,22.4c0,13.7-9.6,24.6-24.8,24.6
		C648.3,173.9,641.3,161,641.3,150.4 M681.9,151.5c0-13.4-7.7-21.8-17.6-21.8c-6.9,0-14.8,3.8-14.8,18.8c0,12.5,6.9,22.4,18.4,22.4
		C672.2,170.9,681.9,168.9,681.9,151.5"/>
	<path fill="#1C3F94" d="M702,166.1c0.1,4,0.8,5.2,1.8,5.5c0.9,0.3,1.9,0.4,2.8,0.4c0.6,0,0.9,0.2,0.9,0.5c0,0.4-0.5,0.5-1.2,0.5
		c-3.4,0-5.9-0.2-6.8-0.2c-0.5,0-3,0.2-5.7,0.2c-0.7,0-1.2-0.1-1.2-0.5c0-0.3,0.4-0.5,0.8-0.5c0.7,0,1.7-0.1,2.4-0.2
		c1.4-0.4,1.6-1.7,1.6-6.2l0.5-30.2c0-1,0.4-1.7,0.9-1.7c0.7,0,1.4,0.8,2.3,1.7c0.7,0.7,8.6,8.8,16.3,16.3
		c3.6,3.5,10.6,10.7,11.4,11.5h0.2l-0.5-22.7c-0.1-3.1-0.5-4-1.8-4.5c-0.8-0.3-2-0.3-2.8-0.3c-0.7,0-0.8-0.2-0.8-0.5
		c0-0.4,0.5-0.5,1.3-0.5c2.8,0,5.6,0.1,6.7,0.1c0.6,0,2.6-0.1,5.2-0.1c0.7,0,1.2,0.1,1.2,0.5c0,0.3-0.3,0.5-0.9,0.5
		c-0.5,0-1,0-1.6,0.2c-1.4,0.4-1.9,1.3-1.9,4.2l-0.6,32.2c0,1.1-0.4,1.6-0.8,1.6c-0.9,0-1.6-0.5-2.2-1.1c-3.3-3.1-9.9-9.4-15.4-14.7
		c-5.8-5.5-11.3-11.7-12.4-12.6h-0.2L702,166.1z"/>
	<path fill="#1C3F94" d="M748.1,168.2c-5.2-4.4-6.6-10.1-6.6-15.1c0-3.5,1.1-9.5,6.2-14c3.8-3.4,8.9-5.4,16.7-5.4
		c3.3,0,5.3,0.2,7.7,0.5c2,0.3,3.7,0.7,5.3,0.8c0.6,0.1,0.8,0.3,0.8,0.6c0,0.4-0.1,1-0.2,2.8c-0.1,1.7-0.1,4.5-0.2,5.5
		c-0.1,0.7-0.2,1.3-0.7,1.3c-0.4,0-0.5-0.4-0.5-1.1c-0.1-1.6-0.7-3.4-2-4.7c-1.8-1.7-5.3-3-10.2-3c-4.6,0-7.6,0.8-10,2.9
		c-3.9,3.4-4.9,8.3-4.9,13.3c0,12.1,9.4,17.9,16.4,17.9c4.7,0,7.3-0.4,9.4-2.7c0.9-1,1.6-2.5,1.8-3.4c0.1-0.8,0.2-1,0.7-1
		c0.4,0,0.6,0.5,0.6,0.9c0,0.6-0.6,5-1.1,6.8c-0.2,0.9-0.5,1.1-1.4,1.5c-2.1,0.8-6.1,1.1-9.5,1.1
		C759.1,173.7,752.9,172.2,748.1,168.2"/>
	<path fill="#1C3F94" d="M782.6,153.8c0-8.7,6.1-20,22.1-20c13.3,0,21.6,7.4,21.6,19.1c0,11.7-8.5,20.9-22.1,20.9
		C788.9,173.7,782.6,162.8,782.6,153.8 M818.5,154.7c0-11.3-6.8-18.2-15.3-18.2c-5.9,0-12.8,3.1-12.8,15.7c0,10.5,6,18.8,16,18.8
		C810.1,171,818.5,169.2,818.5,154.7"/>
	<path fill="#1C3F94" d="M842.1,158.3c0,6.5,0,9.8,1.1,10.7c0.9,0.8,2.9,1.1,7,1.1c2.8,0,4.9-0.1,6.2-1.4c0.7-0.7,1.2-2.1,1.3-3.1
		c0.1-0.5,0.2-0.8,0.6-0.8c0.4,0,0.5,0.5,0.5,1.1c0,0.6-0.4,4.4-0.8,5.9c-0.4,1.1-0.6,1.4-3.4,1.4c-3.8,0-6.8-0.1-9.5-0.2
		c-2.6-0.1-4.9-0.1-7-0.1c-0.6,0-1.7,0.1-3,0.1c-1.3,0.1-2.6,0.1-3.7,0.1c-0.7,0-1-0.2-1-0.5c0-0.2,0.2-0.5,0.8-0.5
		c0.8,0,1.4-0.1,1.9-0.2c1.1-0.2,1.4-1.2,1.6-2.7c0.2-2.2,0.2-6.2,0.2-10.9v-9c0-7.7,0-9.2-0.1-10.8c-0.1-1.7-0.6-2.3-2.3-2.8
		c-0.4-0.1-1.1-0.2-1.7-0.2c-0.6,0-0.9-0.2-0.9-0.5c0-0.4,0.4-0.5,1.1-0.5c2.5,0,5.8,0.1,7.3,0.1c1.3,0,5.6-0.1,7.6-0.1
		c0.8,0,1.1,0.1,1.1,0.5c0,0.4-0.3,0.5-1,0.5c-0.6,0-1.4,0.1-2,0.2c-1.4,0.2-1.9,1-2,2.8c-0.1,1.6-0.1,3.1-0.1,10.8V158.3z"/>
	<path fill="#1C3F94" d="M860,153.8c0-8.7,6.1-20,22.1-20c13.3,0,21.6,7.4,21.6,19.1c0,11.7-8.5,20.9-22.1,20.9
		C866.2,173.7,860,162.8,860,153.8 M895.9,154.7c0-11.3-6.8-18.2-15.3-18.2c-5.9,0-12.8,3.1-12.8,15.7c0,10.5,6,18.8,16,18.8
		C887.5,171,895.9,169.2,895.9,154.7"/>
	<path fill="#1C3F94" d="M946.4,169.7c0,1.4,0,1.4-0.7,1.8c-3.5,1.7-8.8,2.3-12.9,2.3c-13,0-24.4-5.9-24.4-20
		c0-8.2,4.4-13.9,9.2-16.7c5-2.9,9.8-3.3,14.2-3.3c3.7,0,8.3,0.6,9.4,0.8c1.1,0.2,2.9,0.5,4.2,0.5c0.6,0.1,0.7,0.2,0.7,0.6
		c0,0.6-0.4,2-0.4,8.4c0,0.8-0.3,1.1-0.7,1.1c-0.4,0-0.5-0.2-0.5-0.7c-0.1-1.1-0.4-2.8-1.8-4.2c-1.6-1.6-5.5-3.9-11.5-3.9
		c-2.9,0-6.5,0.1-10.2,3c-2.9,2.4-4.9,6.2-4.9,12.4c0,11,7.1,19,18.4,19c1.4,0,2.5,0,3.7-0.5c0.8-0.4,1-0.9,1-1.8v-4.7
		c0-2.5,0-4.4-0.1-6c-0.1-1.7-0.6-2.3-2.3-2.8c-0.4-0.1-1.3-0.2-2-0.2c-0.5,0-0.8-0.2-0.8-0.5c0-0.4,0.4-0.5,1.1-0.5
		c2.8,0,6.5,0.1,8.1,0.1c1.7,0,4.4-0.1,6.2-0.1c0.7,0,1.1,0.1,1.1,0.5c0,0.3-0.3,0.5-0.7,0.5c-0.4,0-0.8,0.1-1.4,0.2
		c-1.4,0.2-2,1-2,2.8c-0.1,1.6-0.1,3.6-0.1,6.1V169.7z"/>
	<path fill="#1C3F94" d="M965.6,159.8c0-2.8-0.5-3.8-1.2-5.3c-0.4-0.8-7.6-12-9.4-14.7c-1.3-1.9-2.4-3.1-3.4-3.6
		c-0.7-0.4-1.6-0.7-2.2-0.7c-0.4,0-0.8-0.2-0.8-0.5c0-0.4,0.4-0.5,1-0.5c0.9,0,4.9,0.1,6.6,0.1c1.1,0,3.6-0.1,6-0.1
		c0.5,0,0.8,0.1,0.8,0.5c0,0.4-0.4,0.4-1.2,0.7c-0.4,0.1-0.7,0.4-0.7,0.8c0,0.4,0.2,1,0.7,1.7c1,1.6,7.9,13.5,8.8,14.9
		c0.7-1.2,7.1-12.1,7.9-13.7c0.5-1.1,0.8-2,0.8-2.7c0-0.5-0.2-1-1.1-1.1c-0.5-0.1-1-0.2-1-0.6c0-0.4,0.3-0.5,0.9-0.5
		c1.7,0,3.6,0.1,5.2,0.1c1.1,0,4.6-0.1,5.6-0.1c0.6,0,1,0.1,1,0.4c0,0.4-0.4,0.6-1,0.6c-0.5,0-1.5,0.2-2.3,0.6
		c-1.1,0.5-1.6,1-2.8,2.4c-1.7,2-9.3,14.2-10.3,16.3c-0.8,1.9-0.7,3.4-0.7,5.1v4.1c0,0.8,0,2.9,0.1,5.1c0.1,1.5,0.6,2.5,2.2,2.7
		c0.8,0.1,1.9,0.2,2.6,0.2c0.6,0,0.9,0.3,0.9,0.5c0,0.4-0.4,0.5-1.1,0.5c-3.3,0-6.8-0.2-8.3-0.2c-1.3,0-4.9,0.2-6.8,0.2
		c-0.7,0-1.1-0.1-1.1-0.5c0-0.2,0.2-0.5,0.8-0.5c0.7,0,1.4-0.1,1.9-0.2c1.1-0.2,1.5-1.2,1.6-2.7c0.2-2.2,0.2-4.3,0.2-5.1V159.8z"/>
	<polygon fill="#1C3F94" points="311.5,196.4 310.8,201.3 296.6,201.3 294.8,214.1 307.9,214.1 307.1,219 294.1,219 291.5,237.4 
		286,237.4 292,196.4 	"/>
	<path fill="#1C3F94" d="M331.6,230.3l-0.7,4.9c-2.7,2-5.7,3-9,3c-3.4,0-6.1-1.2-8.2-3.6c-2.1-2.4-3.1-5.5-3.1-9.5
		c0-4.4,1.2-8.1,3.7-11.1c2.5-3,5.5-4.5,9.1-4.5c2.7,0,5,1,6.8,3.2c1.8,2.1,2.7,4.8,2.7,8.1c0,0.8-0.1,1.7-0.2,2.5h-16.8
		c-0.2,0.9-0.2,1.8-0.2,2.6c0,2.5,0.7,4.4,2,5.9c1.4,1.4,3.1,2.2,5.1,2.2C325.3,234,328.2,232.8,331.6,230.3 M316.7,219.9H328
		c0-1.9-0.4-3.4-1.3-4.4c-0.9-1.1-2-1.6-3.6-1.6C320.2,213.8,318,215.8,316.7,219.9"/>
	<path fill="#1C3F94" d="M361.3,210.4l-3.8,27h-5.1l0.5-3.1l-0.1-0.1c-2.4,2.5-4.8,3.8-7.3,3.8c-2.5,0-4.6-1-6.3-3.1
		c-1.7-2.1-2.6-4.6-2.6-7.5c0-5.1,1.6-9.3,4.8-12.7c3.2-3.3,7.7-5,13.5-5C357.3,209.6,359.4,209.9,361.3,210.4 M353.5,229.6
		l2.2-15.6c-0.5,0-1.1-0.1-1.6-0.1c-4,0-7.1,1.3-9.1,3.8c-2.1,2.5-3.1,5.4-3.1,8.5c0,2.2,0.5,3.9,1.5,5.3c1,1.4,2.3,2.1,3.8,2.1
		c1.2,0,2.6-0.6,4.1-1.8C352.7,230.7,353.5,229.9,353.5,229.6"/>
	<path fill="#1C3F94" d="M379.8,210.4l-0.6,4h-5.4l-2.6,14.7c-0.1,0.7-0.2,1.4-0.2,1.9c0,1.8,0.9,2.6,2.8,2.6c1.4,0,3.1-0.5,4.9-1.6
		l-0.3,5c-1.9,0.8-3.7,1.2-5.6,1.2c-2.2,0-4-0.6-5.2-1.7c-1.3-1.1-1.9-2.6-1.9-4.4c0-0.4,0-0.9,0.1-1.4l2.8-16.3H364l0.6-4h4.9
		l1-5.5h5l-1,5.5H379.8z"/>
	<path fill="#1C3F94" d="M405.9,210.4l-3.8,27h-5l0.5-4.6c-3.1,3.3-6.1,5-8.9,5c-1.8,0-3.4-0.6-4.6-1.9c-1.3-1.3-1.9-3.2-1.9-5.6
		c0-0.7,0-1.4,0.1-2.1l2.5-17.8h5.1l-2.5,17.8c-0.1,0.6-0.1,1.1-0.1,1.6c0,2.7,1,4,3,4c2.1,0,4.8-2,8.1-5.9l2.5-17.5H405.9z"/>
	<path fill="#1C3F94" d="M418.8,210.4l-0.8,5.1l0.1,0.1c1.6-2.3,2.9-3.8,3.8-4.5c0.9-0.7,2.1-1.1,3.3-1.1c0.8,0,1.5,0.1,2.2,0.4v5.8
		c-1.1-0.6-2.1-0.9-3.1-0.9c-1,0-1.9,0.2-2.7,0.7c-0.8,0.5-1.7,1.6-2.8,3.2c-1.1,1.6-1.7,2.6-1.7,3l-2.1,15.2h-5.1l3.8-27H418.8z"/>
	<path fill="#1C3F94" d="M437.9,210.4l-3.8,27h-5.1l3.8-27H437.9z M433.4,202c0-0.8,0.3-1.5,0.9-2.1c0.6-0.6,1.3-0.9,2.1-0.9
		c0.8,0,1.5,0.3,2.1,0.9c0.6,0.6,0.9,1.3,0.9,2.1c0,0.8-0.3,1.5-0.9,2.1c-0.6,0.6-1.3,0.9-2.1,0.9c-0.8,0-1.5-0.3-2.1-0.9
		C433.7,203.5,433.4,202.8,433.4,202"/>
	<path fill="#1C3F94" d="M449.7,210.4l-0.7,4.8l0.1,0.1c2.9-3.5,5.8-5.3,8.9-5.3c2.1,0,3.7,0.8,4.9,2.3c1.2,1.5,1.7,3.5,1.7,5.9
		c0,0.7-0.1,1.4-0.2,2.1l-2.6,17h-5l2.5-17.2c0.1-0.6,0.1-1.2,0.1-1.7c0-1.4-0.3-2.5-0.9-3.2c-0.6-0.7-1.3-1.1-2.2-1.1
		c-0.5,0-1.1,0.1-1.7,0.4c-0.6,0.3-1.3,0.6-2,1.2c-0.7,0.5-1.6,1.3-2.7,2.4c-1.1,1.1-1.6,1.8-1.7,2.1l-2.5,17.2h-5l3.8-27H449.7z"/>
	<path fill="#1C3F94" d="M493.8,210.4l-0.5,4h-5.2c1.2,1.7,1.8,3.5,1.8,5.3c0,2.1-0.5,4-1.5,5.7c-1,1.6-2.1,2.8-3.5,3.5
		c-1.4,0.7-3.2,1.2-5.4,1.6c-2.2,0.4-3.6,0.8-4.2,1.2c-0.6,0.4-0.9,0.9-0.9,1.4c0,0.4,0.3,0.8,0.8,1.1c0.5,0.3,2.3,0.9,5.5,1.7
		c3.2,0.8,5.4,1.8,6.6,3.1c1.3,1.3,1.9,2.8,1.9,4.5c0,2.2-1,4-3.1,5.5c-2.1,1.5-4.7,2.2-7.9,2.2c-3.4,0-6.2-0.7-8.4-2
		c-2.2-1.3-3.3-3-3.3-5c0-2.6,2.6-4.5,7.8-5.6c-3.1-1.2-4.7-2.7-4.7-4.7c0-1,0.5-2,1.4-2.9c1-0.9,2.3-1.6,3.9-2.1
		c-3.2-1.5-4.9-4.1-4.9-7.7c0-3,1-5.6,2.9-7.6c2-2.1,4.3-3.1,7.1-3.1H493.8z M478.6,247.3c1.7,0,3.1-0.3,4.2-0.9
		c1-0.6,1.6-1.4,1.6-2.4c0-1-0.8-1.9-2.5-2.7c-1.7-0.8-2.9-1.2-3.5-1.2c-0.8,0-2.1,0.4-4.1,1.2c-1.9,0.8-2.9,1.7-2.9,2.7
		c0,1,0.6,1.8,1.9,2.4C474.6,247,476.3,247.3,478.6,247.3 M479.7,226.3c1.5,0,2.8-0.6,3.8-1.9c1-1.3,1.5-2.7,1.5-4.4
		c0-1.6-0.5-2.9-1.4-3.9c-0.9-1-2.1-1.5-3.4-1.5c-1.4,0-2.6,0.6-3.7,1.9c-1.1,1.3-1.6,2.7-1.6,4.3c0,1.6,0.5,2.9,1.4,3.9
		C477.2,225.8,478.3,226.3,479.7,226.3"/>
	<path fill="#1C3F94" d="M544.2,195.9l-1.1,5.2h-3c-7.1,0-12.5,1.9-16.3,5.7c-3.8,3.8-5.7,8.4-5.7,13.8c0,3.7,1,6.7,2.9,8.9
		c2,2.2,4.6,3.3,7.8,3.3c1.7,0,3.7-0.5,5.9-1.4c2.3-0.9,4.4-2.1,6.3-3.7l-0.9,6.6c-4.2,2.4-8.3,3.6-12.1,3.6
		c-4.6,0-8.4-1.6-11.4-4.8c-3-3.2-4.4-7.3-4.4-12.3c0-7.3,2.6-13.3,7.7-18c5.1-4.6,11.9-7,20.3-7H544.2z"/>
	<polygon fill="#1C3F94" points="566.5,210.4 547.2,251.2 541.8,251.2 549.1,235.7 543.9,210.4 549,210.4 552.7,229 561.2,210.4 	
		"/>
	<path fill="#1C3F94" d="M577.6,196.4l-2.2,16.1c2-2,4.1-3,6.6-3c2.8,0,5,1.1,6.8,3.4c1.8,2.3,2.7,5.2,2.7,8.9
		c0,4.8-1.5,8.7-4.5,11.7c-3,3.1-7.3,4.6-13,4.6c-2.8,0-5.2-0.1-7.1-0.4l5.6-41.3H577.6z M572.3,234h2.8c3.4,0,6.1-1.1,8.1-3.3
		c2-2.2,3-5.2,3-8.9c0-2.4-0.5-4.3-1.6-5.7c-1-1.4-2.5-2-4.3-2c-1.2,0-2.4,0.3-3.6,1c-1.3,0.7-2,1.5-2.1,2.4L572.3,234z"/>
	<path fill="#1C3F94" d="M616.4,230.3l-0.7,4.9c-2.7,2-5.7,3-9,3c-3.4,0-6.1-1.2-8.2-3.6c-2.1-2.4-3.1-5.5-3.1-9.5
		c0-4.4,1.2-8.1,3.7-11.1c2.5-3,5.5-4.5,9.1-4.5c2.7,0,5,1,6.8,3.2c1.8,2.1,2.7,4.8,2.7,8.1c0,0.8-0.1,1.7-0.2,2.5h-16.8
		c-0.2,0.9-0.2,1.8-0.2,2.6c0,2.5,0.7,4.4,2,5.9c1.4,1.4,3.1,2.2,5.1,2.2C610.2,234,613.1,232.8,616.4,230.3 M601.6,219.9h11.3
		c0-1.9-0.4-3.4-1.3-4.4c-0.9-1.1-2-1.6-3.6-1.6C605,213.8,602.9,215.8,601.6,219.9"/>
	<path fill="#1C3F94" d="M630.5,210.4l-0.8,5.1l0.1,0.1c1.6-2.3,2.9-3.8,3.8-4.5c0.9-0.7,2.1-1.1,3.3-1.1c0.8,0,1.5,0.1,2.2,0.4v5.8
		c-1.1-0.6-2.1-0.9-3.1-0.9c-1,0-1.9,0.2-2.7,0.7c-0.8,0.5-1.7,1.6-2.8,3.2c-1.1,1.6-1.7,2.6-1.7,3l-2.1,15.2h-5.1l3.8-27H630.5z"/>
	<polygon fill="#1C3F94" points="672.6,196.4 653.7,215.4 672.1,237.4 665.7,237.4 648.8,216 645.8,237.4 640.3,237.4 646,196.4 
		651.5,196.4 648.8,214 649,214.1 666.4,196.4 	"/>
	<path fill="#1C3F94" d="M682.7,210.4l-0.7,4.8l0.1,0.1c2.9-3.5,5.8-5.3,8.9-5.3c2.1,0,3.7,0.8,4.9,2.3c1.2,1.5,1.7,3.5,1.7,5.9
		c0,0.7-0.1,1.4-0.2,2.1l-2.6,17h-5l2.5-17.2c0.1-0.6,0.1-1.2,0.1-1.7c0-1.4-0.3-2.5-0.9-3.2c-0.6-0.7-1.3-1.1-2.2-1.1
		c-0.5,0-1.1,0.1-1.7,0.4c-0.6,0.3-1.3,0.6-2,1.2c-0.7,0.5-1.6,1.3-2.7,2.4c-1.1,1.1-1.6,1.8-1.7,2.1l-2.5,17.2h-5l3.8-27H682.7z"/>
	<path fill="#1C3F94" d="M710.4,210.4l-3.8,27h-5.1l3.8-27H710.4z M705.9,202c0-0.8,0.3-1.5,0.9-2.1c0.6-0.6,1.3-0.9,2.1-0.9
		c0.8,0,1.5,0.3,2.1,0.9c0.6,0.6,0.9,1.3,0.9,2.1c0,0.8-0.3,1.5-0.9,2.1c-0.6,0.6-1.3,0.9-2.1,0.9c-0.8,0-1.5-0.3-2.1-0.9
		C706.2,203.5,705.9,202.8,705.9,202"/>
	<path fill="#1C3F94" d="M728.7,210.4l-0.7,4.5h-5.5l-4.3,33.8h-5l4.3-33.8h-4.3l0.7-4.5h4.2c0.3-4.6,1.6-8.2,3.9-10.7
		c2.3-2.5,5.3-3.8,9.1-3.8c2,0,4.2,0.4,6.5,1.3l-0.7,5c-1.8-1-3.6-1.5-5.3-1.5c-5,0-7.9,3.2-8.5,9.7H728.7z"/>
	<path fill="#1C3F94" d="M750.1,230.3l-0.7,4.9c-2.7,2-5.7,3-9,3c-3.4,0-6.1-1.2-8.2-3.6c-2.1-2.4-3.1-5.5-3.1-9.5
		c0-4.4,1.2-8.1,3.7-11.1c2.5-3,5.5-4.5,9.1-4.5c2.7,0,5,1,6.8,3.2c1.8,2.1,2.7,4.8,2.7,8.1c0,0.8-0.1,1.7-0.2,2.5h-16.8
		c-0.2,0.9-0.2,1.8-0.2,2.6c0,2.5,0.7,4.4,2,5.9c1.4,1.4,3.1,2.2,5.1,2.2C743.8,234,746.7,232.8,750.1,230.3 M735.2,219.9h11.3
		c0-1.9-0.4-3.4-1.3-4.4c-0.9-1.1-2-1.6-3.6-1.6C738.7,213.8,736.5,215.8,735.2,219.9"/>
</g>
</svg>
