<?xml version="1.0" encoding="utf-8"?>
<!-- Generator: Adobe Illustrator 18.0.0, SVG Export Plug-In . SVG Version: 6.00 Build 0)  -->
<!DOCTYPE svg PUBLIC "-//W3C//DTD SVG 1.1//EN" "http://www.w3.org/Graphics/SVG/1.1/DTD/svg11.dtd">
<svg version="1.1" id="Layer_1" xmlns="http://www.w3.org/2000/svg" xmlns:xlink="http://www.w3.org/1999/xlink" x="0px" y="0px"
	 viewBox="0 0 216 216.1" enable-background="new 0 0 216 216.1" xml:space="preserve">
<g>
	<path fill="#E2231A" d="M108,216.1c-59.6,0-108-48.5-108-108s48.5-108,108-108c18.4,0,36.5,4.7,52.4,13.6
		c19.8,11,36,28.4,45.5,48.9c6.7,14.3,10,29.6,10,45.5C216,167.6,167.6,216.1,108,216.1z M108,18.9c-49.2,0-89.2,40-89.2,89.2
		c0,49.2,40,89.2,89.2,89.2c49.2,0,89.2-40,89.2-89.2c0-13.1-2.8-25.8-8.3-37.6c-7.9-16.9-21.2-31.3-37.6-40.4
		C138.1,22.8,123.2,18.9,108,18.9z"/>
	<path fill="#E2231A" d="M171.4,77.8C171.4,77.8,171.4,77.8,171.4,77.8c-8.2-0.4-17.3,0.4-23.2,8.7h-0.3v-7.3H129v27
		c-0.4-1.6-0.8-3.2-1.4-4.7c-1.8-4.8-4.3-9-7.5-12.6c-3.2-3.6-7-6.4-11.5-8.4c-4.5-2-9.4-3.1-14.8-3.1c-3.6,0-6.7,0.4-9.4,1.1
		c-2.7,0.7-5.1,1.7-7.2,2.8c-2.1,1.2-3.9,2.4-5.3,3.7c-1.5,1.3-2.7,2.6-3.6,3.9h-0.5V35.5c-7,3.9-13.3,8.7-18.8,14.3v105h17.9v-11.3
		h0.3c2.7,4.6,6.4,8,11,10.1c4.6,2.1,9.6,3.1,14.9,3.1c5.8,0,10.9-1,15.6-3.1c4.6-2,8.5-4.8,11.8-8.4c3.2-3.6,5.7-7.7,7.4-12.6
		c0.5-1.4,0.9-2.8,1.2-4.3v26.5h18.9v-40.5c0-1,0.2-2.6,0.7-4.7c0.5-2.1,1.4-4.2,2.8-6.3c1.4-2.1,3.5-4,6.1-5.6
		c2.7-1.6,6.2-2.4,10.6-2.4c1.1,0,6.7,0.7,9,1.6l0-18.3C175.6,78.2,173.6,77.9,171.4,77.8z M109.9,125.5c-1,2.7-2.5,5.1-4.4,7.2
		c-1.9,2.1-4.3,3.8-7,5c-2.7,1.3-5.8,1.9-9.3,1.9c-3.5,0-6.5-0.6-9.3-1.9c-2.7-1.3-5.1-2.9-7-5c-1.9-2.1-3.4-4.5-4.4-7.2
		c-1-2.7-1.5-5.5-1.5-8.5s0.5-5.8,1.5-8.5c1-2.7,2.5-5.1,4.4-7.2c1.9-2.1,4.3-3.8,7-5c2.7-1.3,5.8-1.9,9.3-1.9
		c3.5,0,6.5,0.6,9.3,1.9c2.7,1.3,5.1,2.9,7,5c1.9,2.1,3.4,4.5,4.4,7.2c1,2.7,1.5,5.6,1.5,8.5S110.9,122.8,109.9,125.5z"/>
</g>
</svg>
