<?xml version="1.0" encoding="utf-8"?>
<!-- Generator: Adobe Illustrator 18.0.0, SVG Export Plug-In . SVG Version: 6.00 Build 0)  -->
<!DOCTYPE svg PUBLIC "-//W3C//DTD SVG 1.1//EN" "http://www.w3.org/Graphics/SVG/1.1/DTD/svg11.dtd">
<svg version="1.1" id="Layer_1" xmlns="http://www.w3.org/2000/svg" xmlns:xlink="http://www.w3.org/1999/xlink" x="0px" y="0px"
	 viewBox="0 -9.7 268.6 70.4" enable-background="new 0 -9.7 268.6 70.4" xml:space="preserve">
<g>
	<g>
		<path fill="#FFFFFF" d="M0,17.9h2.8V21c0.8-1.2,1.7-2.1,2.6-2.8c0.9-0.6,1.9-0.9,2.9-0.9c0.8,0,1.6,0.2,2.4,0.7l-1.4,2.3
			c-0.6-0.2-1.1-0.4-1.4-0.4c-0.9,0-1.8,0.4-2.6,1.1c-0.8,0.8-1.5,1.9-1.9,3.5c-0.3,1.2-0.5,3.7-0.5,7.4v7.2H0.1V17.9H0z"/>
		<path fill="#FFFFFF" d="M31.2,32.2l2.3,1.2c-0.8,1.5-1.6,2.7-2.6,3.6c-1,0.9-2.1,1.6-3.4,2.1c-1.2,0.5-2.6,0.7-4.2,0.7
			c-3.5,0-6.2-1.1-8.2-3.4c-2-2.3-2.9-4.9-2.9-7.7c0-2.7,0.8-5.1,2.5-7.2c2.1-2.7,4.9-4,8.5-4s6.5,1.4,8.7,4.1
			c1.5,1.9,2.3,4.4,2.4,7.3H15.1c0.1,2.5,0.8,4.5,2.4,6.1c1.5,1.6,3.4,2.4,5.7,2.4c1.1,0,2.1-0.2,3.2-0.6c1-0.4,1.9-0.9,2.6-1.5
			C29.6,34.6,30.4,33.6,31.2,32.2z M31.2,26.4c-0.4-1.5-0.9-2.6-1.6-3.5c-0.7-0.9-1.6-1.6-2.8-2.1S24.4,20,23.2,20
			c-2.1,0-3.9,0.7-5.4,2c-1.1,1-1.9,2.4-2.5,4.4H31.2z"/>
		<path fill="#FFFFFF" d="M35.5,17.9h2.8l6.5,15.5l6.8-15.5h0.5l6.8,15.5l6.7-15.5h2.9l-9.3,21.3h-0.5l-6.8-15.3l-6.8,15.3h-0.5
			L35.5,17.9z"/>
		<path fill="#FFFFFF" d="M91.9,17.9v21.3h-2.7v-3.7c-1.1,1.4-2.4,2.4-3.9,3.2c-1.4,0.7-3,1.1-4.7,1.1c-3,0-5.6-1.1-7.7-3.3
			c-2.1-2.2-3.2-4.8-3.2-8c0-3.1,1.1-5.7,3.2-7.9c2.2-2.2,4.7-3.3,7.8-3.3c1.8,0,3.3,0.4,4.8,1.1c1.4,0.7,2.7,1.9,3.7,3.3v-3.8H91.9
			z M80.9,20c-1.5,0-2.9,0.4-4.2,1.1s-2.3,1.8-3.1,3.2c-0.8,1.4-1.1,2.8-1.1,4.3s0.4,2.9,1.2,4.3s1.8,2.4,3.1,3.2s2.7,1.1,4.2,1.1
			s2.9-0.4,4.3-1.1c1.3-0.8,2.4-1.8,3.1-3.1c0.7-1.3,1.1-2.7,1.1-4.4c0-2.5-0.8-4.5-2.4-6.2C85.3,20.9,83.3,20,80.9,20z"/>
		<path fill="#FFFFFF" d="M96.5,17.9h2.8V21c0.8-1.2,1.7-2.1,2.6-2.8c0.9-0.6,1.9-0.9,2.9-0.9c0.8,0,1.6,0.2,2.4,0.7l-1.4,2.3
			c-0.6-0.2-1.1-0.4-1.4-0.4c-0.9,0-1.8,0.4-2.6,1.1c-0.8,0.8-1.5,1.9-1.9,3.5c-0.3,1.2-0.5,3.7-0.5,7.4v7.2h-2.8V17.9H96.5z"/>
		<path fill="#FFFFFF" d="M130.7,9.7v29.5H128v-3.7c-1.1,1.4-2.4,2.4-3.9,3.2c-1.4,0.7-3,1.1-4.7,1.1c-3,0-5.6-1.1-7.7-3.3
			c-2.1-2.2-3.2-4.8-3.2-8c0-3.1,1.1-5.7,3.2-7.9c2.2-2.2,4.7-3.3,7.8-3.3c1.7,0,3.3,0.4,4.7,1.1c1.4,0.7,2.7,1.9,3.7,3.3v-12H130.7
			z M119.8,20c-1.5,0-2.9,0.4-4.2,1.1s-2.3,1.8-3.1,3.2c-0.8,1.4-1.1,2.8-1.1,4.3s0.4,2.9,1.2,4.3s1.8,2.4,3.1,3.2s2.7,1.1,4.2,1.1
			c1.5,0,2.9-0.4,4.3-1.1c1.3-0.8,2.4-1.8,3.1-3.1c0.7-1.3,1.1-2.7,1.1-4.4c0-2.5-0.8-4.5-2.4-6.2C124.2,20.9,122.2,20,119.8,20z"/>
		<path fill="#FFFFFF" d="M139,31.3c3.2,8.6,9.7,13.4,15.8,13.4c5.3,0,8.2-3.8,8.2-8c0-1.8-0.6-4.1-2.4-5.9
			c-4.8-4.7-12.9-3.7-18.4-9.2c-2.1-2.1-3.6-5.2-3.6-9.1c0-6.4,4.5-11.7,11-11.7c4.8,0,8.3,2.6,10.3,2.6c1.4,0,3-0.9,3.8-2.5h0.6
			l0.6,12.3h-0.6c-0.8-1.4-2.3-4.2-4.8-6.7c-3-3-6.5-4.7-9.9-4.7c-2.9,0-7.4,1.4-7.4,7c0,1.8,0.7,3.8,2.1,5.3
			c4.9,4.9,14,3.7,20.1,9.8c2,2,3.2,5.1,3.2,8.6c0,8.4-5.3,13.3-12.9,13.3c-5.1,0-7.9-2.5-11-2.5c-2.7,0-4.1,1.6-5.2,2.5h-0.6V31.3
			H139z"/>
		<path fill="#FFFFFF" d="M168.7,17.7h5.6V7.5l5.1-2v12.2h9.5v1.9h-9.5v17.3c-0.1,4.2,1.6,7.1,4.4,7.1c3.8,0,5.9-4.2,5.8-8h1.2v0.9
			c0,5.1-3.6,9-8.6,9c-2.9,0-8.1-1.7-7.9-8.6V19.5h-5.6V17.7z"/>
		<path fill="#FFFFFF" d="M191.3,17.7H206v1.1h-2.3c-1.2,0-2.1,0.2-2.1,1.1c0,0.3,0.1,0.7,0.3,1.2l8.7,18.9l6.2-14.8
			c0.5-1.1,0.6-2,0.6-2.9c0-2.3-1.6-3.6-3.4-3.6h-1.3v-1.1h12.5v1c-3.9,0-5.4,2.5-7.3,7l-10.8,25.8c-2.5,5.8-4.3,9.3-9.7,9.3
			c-2.7,0-5-1.4-5-4.3c0-1.8,1.5-3.5,3.4-3.5c2.1,0,3.5,1.6,3.5,3.3c0,1.1-0.5,2.3-1.8,3.3c3.2,0.5,5.8-2.3,7.5-6.2l2.8-6.7
			l-11.9-25.8c-0.8-1.8-1.5-2.1-3.3-2.1h-1.3L191.3,17.7L191.3,17.7z"/>
		<path fill="#FFFFFF" d="M226.9,44.1c1.5,0,2.3-0.5,2.3-2.4V7c0-2.9-0.8-4.3-3.9-4.3h-1.2V1.5c3.9,0,6.6-0.2,10.2-0.6v40.7
			c0,1.9,0.8,2.4,2.3,2.4h2.5v1.1h-14.7V44L226.9,44.1L226.9,44.1z"/>
		<path fill="#FFFFFF" d="M266.2,39.4c-3.3,4.5-7,6.5-11.7,6.5c-8,0-12.9-7.1-12.9-14.1c0-7.8,5.6-14.4,13.5-14.4
			c5.9,0,11,4.9,11.4,11.6h-18.9v3.6c0,8,3.8,11.7,8.6,11.7c3.8,0,6.8-2,9.2-5.5L266.2,39.4z M260.1,28c0.6-1.5,0.9-2.8,0.9-3.9
			c0-3.8-3.1-5.7-5.8-5.7c-4,0-7.5,3-7.7,9.6H260.1z"/>
		<g>
			<g>
				<path fill="#FFFFFF" d="M265.6,20.6v-2.4h1.1c0.2,0,0.4,0,0.5,0.1c0.1,0,0.2,0.1,0.3,0.2c0.1,0.1,0.1,0.2,0.1,0.4
					c0,0.2-0.1,0.3-0.2,0.4s-0.3,0.2-0.5,0.2c0.1,0,0.1,0.1,0.2,0.1c0.1,0.1,0.2,0.2,0.3,0.3l0.4,0.7h-0.4l-0.3-0.5
					c-0.1-0.1-0.2-0.3-0.2-0.3c-0.1-0.1-0.1-0.1-0.2-0.2l-0.1-0.1c0,0-0.1,0-0.2,0H266v1.1C266,20.6,265.6,20.6,265.6,20.6z
					 M265.9,19.3h0.7c0.1,0,0.3,0,0.3,0c0.1,0,0.1-0.1,0.2-0.1c0-0.1,0.1-0.1,0.1-0.2s0-0.2-0.1-0.3c-0.1-0.1-0.2-0.1-0.4-0.1h-0.8
					L265.9,19.3L265.9,19.3z"/>
			</g>
			<path fill="#FFFFFF" d="M266.4,21.6c-1.2,0-2.2-1-2.2-2.2s1-2.2,2.2-2.2s2.2,1,2.2,2.2C268.7,20.6,267.7,21.6,266.4,21.6
				L266.4,21.6z M266.4,17.4c-1.1,0-1.9,0.9-1.9,1.9c0,1.1,0.9,1.9,1.9,1.9c1.1,0,1.9-0.9,1.9-1.9C268.4,18.3,267.5,17.4,266.4,17.4
				L266.4,17.4z"/>
		</g>
	</g>
</g>
</svg>
