<?xml version="1.0" encoding="utf-8"?>
<!-- Generator: Adobe Illustrator 18.0.0, SVG Export Plug-In . SVG Version: 6.00 Build 0)  -->
<!DOCTYPE svg PUBLIC "-//W3C//DTD SVG 1.1//EN" "http://www.w3.org/Graphics/SVG/1.1/DTD/svg11.dtd">
<svg version="1.1" id="Layer_1" xmlns="http://www.w3.org/2000/svg" xmlns:xlink="http://www.w3.org/1999/xlink" x="0px" y="0px"
	 viewBox="0 0 612 158.7" enable-background="new 0 0 612 158.7" xml:space="preserve">
<path fill="#FFFFFF" d="M142.3,155.6h-17.9c-6.7,0-12.2-5.5-12.2-12.2V0h30.1V155.6z"/>
<path fill="#FFFFFF" d="M263.9,155.6h-17.2c-6.7,0-12.2-5.4-12.2-12.2v-0.2c-7.3,9-18.1,15.2-33.4,15.2c-30.7,0-54-25.2-54-58.7
	c0-33.5,23.3-58.7,54-58.7c15.3,0,26,6.2,33.4,15.3V44h29.4V155.6z M177.9,99.7c0,17,11.2,30.7,28.8,30.7
	c17.2,0,28.8-13.1,28.8-30.7c0-17.6-11.6-30.7-28.8-30.7C189,69,177.9,82.7,177.9,99.7z"/>
<path fill="#FFFFFF" d="M301.8,155.6h-17.9c-6.7,0-12.2-5.5-12.2-12.2V0h30.1V155.6z"/>
<path fill="#FFFFFF" d="M427.2,99.7c0,33.6-25.7,58.7-60.4,58.7c-34.7,0-60.2-25.1-60.2-58.7c0-33.6,25.6-58.7,60.2-58.7
	C401.5,41,427.2,66.1,427.2,99.7z M337.2,99.7c0,18.1,12.7,30.7,29.6,30.7c16.9,0,29.7-12.7,29.7-30.7c0-18.1-12.8-30.7-29.7-30.7
	C349.8,69,337.2,81.7,337.2,99.7z"/>
<g>
	<path fill="#FFFFFF" d="M612,84.5v71h-17.8c-6.7,0-12.2-5.5-12.2-12.2V94.2c0-16.1-8.2-25-21.8-25c-12.9,0-23.6,8.4-23.6,25.2v61.1
		h-17.9c-6.7,0-12.2-5.5-12.2-12.2V94.2c0-16.1-8.1-25-21.8-25c-12.9,0-23.6,8.4-23.6,25.2v61.1h-17.9c-6.7,0-12.2-5.5-12.2-12.2V44
		h29.2v13.1c7.9-11.9,20.1-16.1,32.8-16.1c16.1,0,29.4,7.3,36.8,19.1C538.8,46,553.4,41,568,41C594.3,41,612,58.6,612,84.5z"/>
</g>
<g>
	<path fill="#FFFFFF" d="M99.2,66.6c-2.7,5.9-9.5,8.6-15.6,6.3c-8.8-3.4-19.9-6.5-31.1-6.7c-11.4-0.2-16.7,3.7-16.8,9.8
		c-0.1,6.5,6.3,8.2,16.4,9.9l13.6,1.7c24.2,2.9,42.3,14.4,42,35.3c-0.4,23.2-19.3,36.5-56.8,35.8c-15.2-0.3-33.9-4.6-49.4-14
		L12,121.4c7.3,4.1,22.6,12,39.4,12.3c16.6,0.3,25.2-2.5,25.3-10.6c0.1-7.9-10.6-8.6-25.1-10.6l-6.6-0.9C12.3,106.4,4.1,94,4.4,75.9
		C4.8,52.9,26.7,40.8,53,41.2c20.2,0.4,37,5.6,51.8,13.1L99.2,66.6z"/>
</g>
</svg>
