<?xml version="1.0" encoding="utf-8"?>
<!DOCTYPE svg PUBLIC "-//W3C//DTD SVG 1.1//EN" "http://www.w3.org/Graphics/SVG/1.1/DTD/svg11.dtd">
<svg version="1.1" id="Layer_1" xmlns="http://www.w3.org/2000/svg" xmlns:xlink="http://www.w3.org/1999/xlink" x="0px" y="0px"
	 viewBox="0 0 556.5 180.7" enable-background="new 0 0 556.5 180.7" xml:space="preserve">
<path fill="#0060A9" d="M281.9,68l-2.7-0.1c-2.6-12.9-3.9-27.3-22.2-27.9c-11.5-0.3-21.8,6.9-21.5,18c0.7,26.5,53.4,19.6,52.6,57.6
	c-0.4,18.6-19.1,29.1-39.6,29.1c-12.3,0-22.5-4.5-29.8-9.3l-4-25.5l3.1,0c3.8,14.4,14.4,29.6,33.1,29.6c12.1,0,21.8-6.4,21.9-17.7
	c0.7-34.6-50.6-25.4-51.8-55.9c-0.9-22.6,19.4-31.1,36.9-30.5c9.1,0.3,18.2,2.7,25.9,7L281.9,68z"/>
<path fill="#0060A9" d="M363.8,120.5l24.4-61.4c3.8-8.5,5.8-16.2,2.4-18.5l0.3-2.5h33.7l0,2.3c-9.8,2-15.7,5.7-15,16.5l4.3,56.1
	c1.9,21.4,1.3,24.8,17.8,27.6l0,2.3h-50.4l0-2.3c11.8-1.9,19.3-3.2,18.4-16.8l-4.6-67.4h-0.3L359.3,143h-1.7l-38-83h-0.3
	c0,0-1.6,40.3-2.4,64.6c-0.2,6,0,13,18.5,16l0,2.3h-42.8l0-2.3c13.6-2.3,16-10.5,17-21.4l3.7-43l1.5-21.3c0.4-10.5-7.9-13.7-17-14.5
	l0-2.3H331l0.2,1.7c-3.3,3.6,0.9,12.8,2,15.3L363.8,120.5z"/>
<path fill="#0060A9" d="M551.2,38.1v2.3c-13.6,1.5-14.5,10.2-15.1,30.5l-0.9,33.8c-0.4,19.9-8.7,40.1-42,40.1
	c-46.5,0-41.7-34.5-41.7-46.9V63.4c-0.4-15.9-0.6-20.5-18.6-23v-2.3h51.7v2.3c-19.6,2.9-19.9,6-19.9,23V95c0,2.9-4.8,42.7,36.3,42.7
	c32.4,0,29.2-31.8,29.2-50.6V70.9c0-19.6-1.5-28.5-22.5-30.5v-2.3H551.2z"/>
<path fill="#E31837" d="M90.4,180.7C40.5,180.7,0,140.3,0,90.4C0,40.5,40.5,0,90.4,0c49.9,0,90.4,40.5,90.4,90.4
	C180.7,140.3,140.3,180.7,90.4,180.7"/>
<path fill="#FFFFFF" d="M90.4,177.6v-3.9c46-0.1,83.2-37.3,83.3-83.3l0,0c-0.1-46-37.3-83.2-83.3-83.3l0,0C44.3,7.1,7.1,44.3,7,90.4
	l0,0c0.1,46,37.3,83.2,83.3,83.3l0,0v0V177.6c-48.2,0-87.2-39.1-87.2-87.2l0,0c0-48.2,39.1-87.2,87.2-87.2l0,0
	c48.2,0,87.2,39.1,87.2,87.2l0,0C177.6,138.5,138.5,177.6,90.4,177.6L90.4,177.6L90.4,177.6L90.4,177.6z"/>
<rect x="49.4" y="77.5" fill="#FFFFFF" width="82" height="50.6"/>
<rect x="52.2" y="79.7" fill="#E31837" width="7.2" height="47.1"/>
<rect x="66" y="79.7" fill="#E31837" width="7.2" height="47.1"/>
<rect x="79.9" y="79.7" fill="#E31837" width="7.2" height="47.1"/>
<rect x="93.7" y="79.7" fill="#E31837" width="7.2" height="47.1"/>
<rect x="107.6" y="79.7" fill="#E31837" width="7.2" height="47.1"/>
<rect x="121.4" y="79.7" fill="#E31837" width="7.2" height="47.1"/>
<rect x="50.5" y="51.4" fill="#E31837" width="79.8" height="24.9"/>
<path fill="#FFFFFF" d="M49.1,77.6V51.4V50h82.6v27.6H49.1L49.1,77.6z M51.9,74.9h77.1V52.8H51.9V74.9L51.9,74.9z"/>
<polygon fill="#E31837" points="90.4,77.2 133.5,77.2 133.5,73.7 90.4,53.7 47.3,73.7 47.3,77.2 "/>
<polygon fill="#FFFFFF" points="90.4,80.8 90.4,73.7 125.2,73.7 90.4,57.6 55.5,73.7 90.4,73.7 90.4,80.8 43.7,80.8 43.7,71.4 
	90.4,49.8 137,71.4 137,80.8 "/>
<polygon fill="#E31837" points="90.4,78.2 90.4,76.3 132.5,76.3 132.5,74.3 90.4,54.8 48.2,74.3 48.2,76.3 90.4,76.3 90.4,78.2 
	46.3,78.2 46.3,77.2 46.3,73 90.4,52.7 134.5,73 134.5,78.2 "/>
<path fill="#E31837" d="M90.4,24.5c-17.3,0-32,11.3-37.2,26.9h74.4C122.4,35.8,107.7,24.5,90.4,24.5"/>
<path fill="#FFFFFF" d="M51.3,52.8l0.6-1.8c4.4-13.1,15.3-23.3,28.8-26.6l0,0v-5.2l9.6-2.5l9.6,2.5v5.1
	c13.6,3.3,24.5,13.5,28.9,26.7l0,0l0.6,1.8H51.3L51.3,52.8z M125.6,50c-5.5-14.1-19.2-24.1-35.2-24.1l0,0v-2.7
	c2.3,0,4.6,0.2,6.9,0.6l0,0v-2.5l-6.9-1.8l-6.9,1.8v2.5c2.2-0.4,4.6-0.6,6.9-0.6l0,0v2.7c-16.1,0-29.8,10-35.2,24.1l0,0H125.6
	L125.6,50z"/>
<rect x="36.7" y="138.3" fill="#FFFFFF" width="107.4" height="5.1"/>
<path fill="#FFFFFF" d="M36.7,144.8h-1.4V137h110.1v7.8H36.7L36.7,144.8z M38.1,142.1l104.6,0v-2.3H38.1V142.1L38.1,142.1z"/>
<rect x="41.9" y="133.3" fill="#FFFFFF" width="97" height="5.1"/>
<path fill="#FFFFFF" d="M40.5,139.7v-6.5v-1.4h99.7v7.8H40.5L40.5,139.7z M43.3,137h94.3v-2.3H43.3V137L43.3,137z"/>
<rect x="47.1" y="128.2" fill="#FFFFFF" width="86.7" height="5.1"/>
<path fill="#FFFFFF" d="M45.7,134.6v-6.5v-1.4h89.4v7.8H45.7L45.7,134.6z M48.4,131.9h83.9v-2.3H48.4V131.9L48.4,131.9z"/>
<rect x="38.2" y="139.2" fill="#E31837" width="104.4" height="2.9"/>
<rect x="43.4" y="134.6" fill="#E31837" width="93.9" height="2.9"/>
<rect x="48.6" y="129.8" fill="#E31837" width="83.6" height="2.9"/>
<polygon fill="#E31837" points="90.4,57.3 127.9,74.4 52.8,74.4 "/>
<path fill="#0060A9" d="M556.5,139.5c0,2.6-2.1,4.6-4.6,4.6c-2.6,0-4.6-2.1-4.6-4.6c0-2.5,2.1-4.6,4.6-4.6
	C554.4,134.8,556.5,136.9,556.5,139.5 M555.7,139.5c0-2.2-1.7-4-3.9-4c-2.2,0-3.9,1.8-3.9,4c0,2.2,1.7,4,3.9,4
	C554.1,143.5,555.7,141.7,555.7,139.5 M550.9,142.2h-0.7v-5.5h2.1c1.2,0,1.8,0.5,1.8,1.5c0,1-0.6,1.4-1.3,1.5l1.5,2.4h-0.8l-1.5-2.4
	h-1.1V142.2z M551.7,139.2c0.7,0,1.5,0,1.5-0.9c0-0.8-0.6-0.9-1.2-0.9h-1.2v1.8H551.7z"/>
</svg>
