<?xml version="1.0" encoding="UTF-8"?><svg
  id="Layer_1"
  xmlns="http://www.w3.org/2000/svg"
  xmlns:xlink="http://www.w3.org/1999/xlink"
  viewBox="0 0 708.68 135.09"
>
  <defs>
    <style>
      .cls-1 {
        fill: url(#linear-gradient);
      }
      .cls-2 {
        fill: #00b4fc;
      }
      .cls-3 {
        fill: #012677;
      }
      .cls-4 {
        fill: url(#linear-gradient-3);
      }
      .cls-5 {
        fill: url(#linear-gradient-2);
      }
    </style>
    <linearGradient
      id="linear-gradient"
      x1=".31"
      y1="7401.15"
      x2="135.79"
      y2="7401.15"
      gradientTransform="translate(0 7441.15) scale(1 -1)"
      gradientUnits="userSpaceOnUse"
    >
      <stop offset=".21" stop-color="#0042c5" />
      <stop offset="1" stop-color="#00d1fc" />
    </linearGradient>
    <linearGradient
      id="linear-gradient-2"
      x1=".27"
      y1="7357.68"
      y2="7357.68"
      xlink:href="#linear-gradient"
    />
    <linearGradient
      id="linear-gradient-3"
      x1=".27"
      y1="7329.93"
      y2="7329.93"
      xlink:href="#linear-gradient"
    />
  </defs>
  <g>
    <path
      class="cls-2"
      d="M175.3,134.11v-23.8h9.1c1.6,0,3.1,.3,4.4,.9,1.3,.6,2.3,1.4,3,2.6s1.1,2.5,1.1,4.2c0,1.6-.4,3-1.1,4.1s-1.7,2-3,2.6-2.7,.9-4.3,.9h-4.2v8.6h-5v-.1Zm4.9-12.9h4.2c.7,0,1.3-.1,1.8-.4,.5-.3,.9-.7,1.2-1.2,.3-.5,.4-1.1,.4-1.7,0-.7-.1-1.2-.4-1.7s-.7-.9-1.2-1.1c-.5-.3-1.1-.4-1.8-.4h-4.2v6.5Z"
    />
    <path
      class="cls-2"
      d="M203.7,134.11v-23.8h9.1c1.6,0,3.1,.3,4.4,.9,1.3,.6,2.3,1.4,3,2.6,.7,1.1,1.1,2.5,1.1,4.2,0,1.6-.4,3-1.1,4.1-.7,1.1-1.7,2-3,2.6l5.4,9.5h-5.6l-5.9-10.5,3.2,1.9h-5.7v8.6h-4.9v-.1Zm4.9-12.9h4.2c.7,0,1.3-.1,1.8-.4,.5-.3,.9-.7,1.2-1.2s.4-1.1,.4-1.7c0-.7-.1-1.2-.4-1.7-.3-.5-.7-.9-1.2-1.1-.5-.3-1.1-.4-1.8-.4h-4.2v6.5Z"
    />
    <path
      class="cls-2"
      d="M244.6,134.51c-1.8,0-3.5-.3-5-.9-1.5-.6-2.9-1.5-4-2.6s-2-2.4-2.7-3.9c-.6-1.5-1-3.1-1-4.9,0-1.7,.3-3.4,.9-4.9,.6-1.5,1.5-2.8,2.7-3.9,1.1-1.1,2.5-2,4-2.6s3.2-.9,5-.9,3.5,.3,5,.9c1.5,.6,2.9,1.5,4,2.6s2,2.4,2.7,3.9c.6,1.5,.9,3.1,.9,4.9,0,1.7-.3,3.4-1,4.9-.6,1.5-1.5,2.8-2.7,3.9-1.2,1.1-2.5,2-4,2.6-1.4,.6-3,.9-4.8,.9Zm0-4.5c1.1,0,2.1-.2,3-.6,.9-.4,1.7-.9,2.4-1.6,.7-.7,1.2-1.5,1.6-2.5,.4-1,.6-2,.6-3.2s-.2-2.2-.6-3.1c-.4-.9-.9-1.8-1.6-2.5-.7-.7-1.5-1.2-2.4-1.6-.9-.4-1.9-.6-3-.6s-2.1,.2-3,.6c-.9,.4-1.7,.9-2.4,1.6-.7,.7-1.2,1.5-1.6,2.5-.4,.9-.6,2-.6,3.1s.2,2.2,.6,3.2c.4,1,.9,1.8,1.6,2.5,.7,.7,1.5,1.2,2.4,1.6s1.9,.6,3,.6Z"
    />
    <path
      class="cls-2"
      d="M268.4,134.11v-23.8h7.8c2.6,0,4.8,.5,6.7,1.5s3.4,2.4,4.4,4.2c1,1.8,1.6,3.8,1.6,6.1s-.5,4.4-1.6,6.1c-1,1.8-2.5,3.2-4.4,4.2s-4.1,1.5-6.7,1.5h-7.8v.2Zm4.9-4.3h2.9c1.6,0,2.9-.3,4-.9,1.1-.6,2-1.5,2.6-2.7,.6-1.1,.9-2.5,.9-4,0-1.6-.3-2.9-.9-4-.6-1.1-1.5-2-2.6-2.6s-2.5-.9-4-.9h-2.9v15.1Z"
    />
    <path
      class="cls-2"
      d="M309.1,134.51c-1.9,0-3.5-.4-5-1.2-1.5-.8-2.6-1.9-3.5-3.2-.8-1.4-1.3-2.9-1.3-4.7v-15.1h5v14.8c0,.9,.2,1.8,.6,2.5,.4,.8,1,1.3,1.7,1.8,.7,.4,1.5,.6,2.5,.6,.9,0,1.8-.2,2.5-.6,.7-.4,1.3-1,1.7-1.8s.6-1.6,.6-2.5v-14.8h5v15.1c0,1.7-.4,3.3-1.3,4.7-.8,1.4-2,2.5-3.5,3.2-1.4,.8-3.1,1.2-5,1.2Z"
    />
    <path
      class="cls-2"
      d="M341.8,134.51c-1.7,0-3.3-.3-4.7-.9-1.5-.6-2.7-1.5-3.8-2.6-1.1-1.1-1.9-2.4-2.5-3.9s-.9-3.1-.9-4.9,.3-3.4,.9-4.9,1.4-2.8,2.5-3.9c1.1-1.1,2.4-1.9,3.8-2.6,1.5-.6,3.1-.9,4.8-.9s3.3,.3,4.6,.9c1.4,.6,2.5,1.3,3.5,2.3s1.6,2,2,3.2l-4.4,2.1c-.4-1.2-1.1-2.1-2.1-2.9-1-.8-2.2-1.1-3.7-1.1-1.4,0-2.6,.3-3.7,1-1.1,.7-1.9,1.6-2.5,2.7-.6,1.2-.9,2.5-.9,4.1s.3,2.9,.9,4.1c.6,1.2,1.4,2.1,2.5,2.7,1.1,.7,2.3,1,3.7,1s2.7-.4,3.7-1.1c1-.8,1.7-1.7,2.1-2.9l4.4,2.1c-.4,1.2-1.1,2.2-2,3.2-1,1-2.1,1.7-3.5,2.3-1.5,.6-3,.9-4.7,.9Z"
    />
    <path class="cls-2" d="M367.1,134.11v-19.5h-6v-4.3h16.9v4.3h-5.9v19.5h-5Z" />
    <path class="cls-2" d="M388.1,134.11v-23.8h5v23.8h-5Z" />
    <path
      class="cls-2"
      d="M416.8,134.51c-1.8,0-3.5-.3-5-.9-1.5-.6-2.9-1.5-4-2.6s-2-2.4-2.7-3.9c-.6-1.5-1-3.1-1-4.9,0-1.7,.3-3.4,.9-4.9s1.5-2.8,2.7-3.9c1.1-1.1,2.5-2,4-2.6s3.2-.9,5-.9,3.5,.3,5,.9c1.5,.6,2.9,1.5,4,2.6s2,2.4,2.7,3.9c.6,1.5,.9,3.1,.9,4.9,0,1.7-.3,3.4-1,4.9-.6,1.5-1.5,2.8-2.7,3.9-1.2,1.1-2.5,2-4,2.6-1.3,.6-3,.9-4.8,.9Zm0-4.5c1.1,0,2.1-.2,3-.6s1.7-.9,2.4-1.6c.7-.7,1.2-1.5,1.6-2.5s.6-2,.6-3.2-.2-2.2-.6-3.1c-.4-.9-.9-1.8-1.6-2.5s-1.5-1.2-2.4-1.6c-.9-.4-1.9-.6-3-.6s-2.1,.2-3,.6c-.9,.4-1.7,.9-2.4,1.6-.7,.7-1.2,1.5-1.6,2.5-.4,.9-.6,2-.6,3.1s.2,2.2,.6,3.2,.9,1.8,1.6,2.5,1.5,1.2,2.4,1.6,2,.6,3,.6Z"
    />
    <path
      class="cls-2"
      d="M440.6,134.11v-23.8h3.8l12.8,16.8-2,.5v-17.3h5v23.8h-3.8l-12.6-17,1.9-.5v17.4h-5.1v.1Z"
    />
    <path
      class="cls-2"
      d="M480.7,134.51c-1.5,0-2.9-.3-4.2-.8-1.3-.5-2.4-1.3-3.4-2.3-.9-1-1.7-2.2-2.1-3.5l4.1-1.8c.6,1.3,1.4,2.3,2.5,3.1,1.1,.7,2.2,1.1,3.5,1.1,.7,0,1.3-.1,1.8-.3s.9-.5,1.2-.9c.3-.4,.4-.8,.4-1.3,0-.6-.2-1-.5-1.4s-.9-.7-1.6-.9l-4.7-1.5c-1.9-.6-3.3-1.5-4.3-2.6s-1.4-2.5-1.4-4.1c0-1.4,.3-2.6,1-3.7,.7-1.1,1.7-1.9,2.9-2.5,1.2-.6,2.7-.9,4.3-.9,1.4,0,2.7,.2,4,.7s2.3,1.2,3.1,2.1c.9,.9,1.5,2,2,3.2l-4,1.8c-.4-1.1-1.1-2-2-2.6s-1.9-.9-3.1-.9c-.7,0-1.2,.1-1.8,.3-.5,.2-.9,.5-1.2,.9-.3,.4-.4,.8-.4,1.4s.2,1,.5,1.5c.4,.4,.9,.7,1.6,1l4.6,1.5c1.9,.6,3.3,1.5,4.3,2.6,.9,1.1,1.4,2.5,1.4,4.1,0,1.4-.4,2.6-1.1,3.7-.7,1.1-1.7,1.9-3,2.5-1.3,.2-2.7,.5-4.4,.5Z"
    />
  </g>
  <g>
    <path
      class="cls-3"
      d="M204.7,80.81c-5.9,0-11.1-1.3-15.5-4-4.4-2.7-7.9-6.3-10.3-10.8-2.5-4.6-3.7-9.6-3.7-15.2s1.2-10.9,3.7-15.3c2.5-4.5,5.9-8,10.2-10.6,4.3-2.6,9.1-3.9,14.5-3.9,4.5,0,8.4,.7,11.8,2.2,3.4,1.5,6.3,3.5,8.7,6.1s4.2,5.6,5.5,8.9c1.3,3.3,1.9,6.9,1.9,10.8,0,1-.1,2-.2,3.1-.1,1.1-.3,2-.6,2.7h-44.2v-10.5h36.4l-6.5,4.9c.6-3.2,.5-6.1-.5-8.6-.9-2.5-2.5-4.5-4.6-6s-4.7-2.2-7.7-2.2-5.4,.7-7.7,2.2c-2.2,1.4-3.9,3.5-5.1,6.3-1.2,2.8-1.6,6.1-1.3,10.1-.3,3.5,.2,6.6,1.4,9.3,1.2,2.7,3.1,4.8,5.5,6.3,2.4,1.5,5.2,2.2,8.4,2.2s5.8-.7,8.1-2c2.2-1.3,3.9-3.1,5.2-5.4l11.2,5.5c-1.1,2.7-2.9,5.2-5.3,7.3-2.4,2.1-5.2,3.8-8.5,4.9-3.2,1.1-6.8,1.7-10.8,1.7Z"
    />
    <path
      class="cls-3"
      d="M242,79.51V22.21h12.9v11.3l-1.1-2c1.3-3.4,3.5-6.1,6.6-7.8,3.1-1.8,6.6-2.7,10.7-2.7s7.9,.9,11.2,2.7c3.3,1.8,5.8,4.4,7.6,7.6,1.8,3.3,2.7,7,2.7,11.3v36.8h-13.8V45.81c0-2.5-.5-4.7-1.5-6.5-1-1.8-2.3-3.2-4.1-4.3-1.7-1-3.7-1.5-6.1-1.5-2.2,0-4.2,.5-6,1.5s-3.1,2.4-4.1,4.3c-1,1.8-1.5,4-1.5,6.5v33.6h-13.5v.1Z"
    />
    <path
      class="cls-3"
      d="M331,80.81c-5.5,0-10.5-1.3-14.8-3.9-4.4-2.6-7.8-6.2-10.3-10.8s-3.8-9.6-3.8-15.2,1.3-10.7,3.8-15.2,6-8.1,10.4-10.7c4.4-2.7,9.3-4,14.7-4,4.4,0,8.2,.9,11.6,2.6,3.4,1.7,6.1,4.1,8.1,7.2l-2.1,2.8V-.19h13.8V79.51h-13.1v-11.1l1.5,2.7c-2,3.1-4.7,5.5-8.2,7.1-3.6,1.8-7.4,2.6-11.6,2.6Zm1.5-12.6c3.2,0,5.9-.7,8.3-2.2s4.3-3.5,5.6-6.1c1.4-2.6,2.1-5.6,2.1-8.9s-.7-6.3-2.1-8.9c-1.4-2.6-3.2-4.7-5.6-6.2s-5.2-2.2-8.3-2.2-5.9,.8-8.3,2.3c-2.5,1.5-4.4,3.5-5.7,6.1-1.4,2.6-2.1,5.5-2.1,8.9s.7,6.4,2.1,8.9c1.4,2.6,3.3,4.6,5.7,6.1,2.5,1.4,5.2,2.2,8.3,2.2Z"
    />
    <path
      class="cls-3"
      d="M420,80.21c-6.5,0-11.5-1.8-15-5.3s-5.3-8.5-5.3-15v-25.3h-9.9v-12.3h1.1c2.8,0,5-.7,6.5-2.2s2.3-3.6,2.3-6.4v-4.4h13.8v13.1h13.2v12.3h-13.2v24.5c0,1.9,.3,3.5,1,4.8s1.7,2.4,3.2,3.1c1.4,.7,3.3,1.1,5.5,1.1,.5,0,1.1,0,1.7-.1,.7-.1,1.3-.1,1.9-.2v11.8c-1,.1-2.1,.3-3.4,.4-1.2,0-2.4,.1-3.4,.1Z"
    />
    <path
      class="cls-3"
      d="M464.8,80.81c-5.6,0-10.7-1.3-15.3-3.9-4.6-2.6-8.2-6.1-10.9-10.6-2.7-4.5-4.1-9.6-4.1-15.4s1.4-10.9,4.1-15.4,6.3-8,10.9-10.6,9.7-3.9,15.4-3.9,10.7,1.3,15.3,3.9c4.6,2.6,8.2,6.1,10.9,10.6,2.7,4.5,4.1,9.6,4.1,15.4s-1.4,10.9-4.1,15.4-6.4,8-10.9,10.6c-4.8,2.6-9.8,3.9-15.4,3.9Zm0-12.6c3.1,0,5.8-.7,8.2-2.2,2.4-1.5,4.2-3.5,5.6-6.2,1.4-2.6,2.1-5.6,2.1-8.9s-.7-6.3-2.1-8.9c-1.4-2.6-3.2-4.6-5.6-6.1s-5.1-2.3-8.2-2.3-5.9,.8-8.3,2.3-4.3,3.5-5.6,6.1c-1.4,2.6-2.1,5.5-2.1,8.9s.7,6.3,2.1,8.9c1.4,2.6,3.2,4.7,5.6,6.2,2.4,1.4,5.2,2.2,8.3,2.2Z"
    />
    <path
      class="cls-3"
      d="M551.4,80.81c-5.9,0-11.1-1.3-15.5-4-4.4-2.7-7.9-6.3-10.3-10.8-2.5-4.6-3.7-9.6-3.7-15.2s1.2-10.9,3.7-15.3c2.5-4.5,5.9-8,10.2-10.6,4.3-2.6,9.1-3.9,14.5-3.9,4.5,0,8.4,.7,11.8,2.2s6.3,3.5,8.7,6.1c2.4,2.6,4.2,5.6,5.5,8.9,1.3,3.3,1.9,6.9,1.9,10.8,0,1-.1,2-.2,3.1s-.3,2-.6,2.7h-44.2v-10.5h36.4l-6.5,4.9c.6-3.2,.5-6.1-.5-8.6-.9-2.5-2.5-4.5-4.6-6s-4.7-2.2-7.7-2.2-5.4,.7-7.7,2.2c-2.2,1.4-3.9,3.5-5.1,6.3-1.2,2.8-1.6,6.1-1.3,10.1-.3,3.5,.2,6.6,1.4,9.3,1.2,2.7,3.1,4.8,5.5,6.3s5.2,2.2,8.4,2.2,5.8-.7,8.1-2c2.2-1.3,3.9-3.1,5.2-5.4l11.2,5.5c-1.1,2.7-2.9,5.2-5.3,7.3s-5.2,3.8-8.5,4.9c-3.3,1.1-6.9,1.7-10.8,1.7Z"
    />
    <path
      class="cls-3"
      d="M588.6,79.51V22.21h12.9v11.3l-1.1-2c1.3-3.4,3.5-6.1,6.6-7.8,3.1-1.8,6.6-2.7,10.7-2.7s7.9,.9,11.2,2.7c3.3,1.8,5.8,4.4,7.6,7.6,1.8,3.3,2.7,7,2.7,11.3v36.8h-13.8V45.81c0-2.5-.5-4.7-1.5-6.5-1-1.8-2.3-3.2-4.1-4.3-1.7-1-3.7-1.5-6.1-1.5-2.2,0-4.2,.5-6,1.5s-3.1,2.4-4.1,4.3c-1,1.8-1.5,4-1.5,6.5v33.6h-13.5v.1Z"
    />
    <path
      class="cls-3"
      d="M677.7,80.81c-5.5,0-10.5-1.3-14.8-3.9-4.4-2.6-7.8-6.2-10.3-10.8s-3.8-9.6-3.8-15.2,1.3-10.7,3.8-15.2,6-8.1,10.4-10.7c4.4-2.7,9.3-4,14.7-4,4.4,0,8.2,.9,11.6,2.6,3.4,1.7,6.1,4.1,8.1,7.2l-2.1,2.8V-.19h13.8V79.51h-13.1v-11.1l1.5,2.7c-2,3.1-4.7,5.5-8.2,7.1-3.7,1.8-7.5,2.6-11.6,2.6Zm1.4-12.6c3.2,0,5.9-.7,8.3-2.2,2.4-1.5,4.3-3.5,5.6-6.1,1.4-2.6,2.1-5.6,2.1-8.9s-.7-6.3-2.1-8.9c-1.4-2.6-3.2-4.7-5.6-6.2-2.4-1.5-5.2-2.2-8.3-2.2s-5.9,.8-8.3,2.3c-2.5,1.5-4.4,3.5-5.7,6.1-1.4,2.6-2.1,5.5-2.1,8.9s.7,6.4,2.1,8.9c1.4,2.6,3.3,4.6,5.7,6.1,2.5,1.4,5.2,2.2,8.3,2.2Z"
    />
  </g>
  <g>
    <path
      class="cls-1"
      d="M4.34,48.31l59.43,30.79c1.08,.59,2.26,.89,3.44,.89s2.26-.3,3.35-.79l61.1-30.79c3.64-1.87,5.21-6.4,3.35-10.04-1.87-3.64-6.4-5.21-10.04-3.35l-57.75,29.02L23.73,41.53,71.25,15.85l12.5,5.21-27.65,14.56c-3.64,1.97-5.02,6.49-3.15,10.13,1.97,3.64,6.49,5.02,10.13,3.15l41.81-22.04c2.56-1.38,4.13-4.03,3.94-6.99-.1-2.85-1.97-5.41-4.62-6.59L73.71,.6c-2.07-.89-4.43-.79-6.4,.3L4.25,35.03c-2.46,1.28-3.94,3.84-3.94,6.69s1.57,5.31,4.03,6.59Z"
    />
    <path
      class="cls-5"
      d="M124.97,61.4l-57.75,29.02L11.13,61.4c-3.64-1.87-8.17-.49-10.04,3.25-1.87,3.64-.49,8.17,3.25,10.04l59.43,30.79c1.08,.59,2.26,.89,3.44,.89s2.26-.3,3.35-.79l61.1-30.79c3.64-1.87,5.21-6.4,3.35-10.04-1.87-3.74-6.4-5.21-10.04-3.35Z"
    />
    <path
      class="cls-4"
      d="M124.97,89.14l-57.75,29.02L11.13,89.14c-3.64-1.87-8.17-.49-10.04,3.25-1.87,3.64-.49,8.17,3.25,10.04l59.43,30.79c1.08,.59,2.26,.89,3.44,.89s2.26-.3,3.35-.79l61.1-30.79c3.64-1.87,5.21-6.4,3.35-10.04-1.87-3.74-6.4-5.21-10.04-3.35Z"
    />
  </g>
</svg>
