<svg xmlns="http://www.w3.org/2000/svg" viewBox="0 0 165.907 175.75">
  <path
    fill="#B2B2B2"
    d="M82.688 0L0 29.1l13.066 108.335 69.71 38.314 70.07-38.835 13.06-108.33L82.69 0zm0 0"
  />
  <path
    fill="#B52E31"
    d="M157.66 34.846L82.495 9.214v157.38l62.992-34.86 12.17-96.888zm0 0"
  />
  <path
    fill="#E23237"
    d="M9.28 35.308l11.195 96.89 62.02 34.397V9.21L9.278 35.31zm0 0"
  />
  <path
    fill="#F2F2F2"
    d="M99.918 87.493L82.632 51.396 67.415 87.493h32.503zm6.59 15.18H60.69l-10.25 25.64-19.067.35L82.497 14.93l52.907 113.733H117.73l-11.22-25.99zm0 0"
  />
  <path
    fill="#B2B2B2"
    d="M82.496 14.93l.136 36.466L99.9 87.52H82.534l-.04 15.128 24.012.023 11.224 25.997 18.245.34-53.48-114.078zm0 0"
  />
</svg>
