<svg xmlns="http://www.w3.org/2000/svg" viewBox="0 0 330.2 161.1">
  <g fill="#94B12D">
    <path
      d="M151 156.1v3.9c-2 .7-3.9 1.1-5.7 1.1-3.1 0-5.5-.9-7.4-2.7-1.8-1.8-2.8-4.3-2.8-7.3 0-3.1.9-5.6 2.7-7.5 1.8-1.9 4.1-2.8 7-2.8 1 0 1.9.1 2.7.3.8.2 1.8.6 3 1.1v4.2c-2-1.3-3.8-1.9-5.5-1.9-1.8 0-3.2.6-4.3 1.9-1.1 1.2-1.7 2.8-1.7 4.7 0 2 .6 3.6 1.8 4.8 1.2 1.2 2.9 1.8 4.9 1.8 1.6-.3 3.3-.7 5.3-1.6zM164.8 141c3 0 5.5 1 7.5 2.9s3 4.4 3 7.3c0 2.8-1 5.2-3 7.1-2 1.9-4.5 2.8-7.6 2.8-3 0-5.4-1-7.4-2.9s-3-4.3-3-7.1c0-2.9 1-5.3 3-7.2 2-1.9 4.5-2.9 7.5-2.9zm-.2 3.5c-1.9 0-3.4.6-4.6 1.8-1.2 1.2-1.8 2.8-1.8 4.7 0 1.9.6 3.4 1.8 4.6 1.2 1.2 2.8 1.8 4.7 1.8 1.9 0 3.5-.6 4.7-1.8 1.2-1.2 1.8-2.8 1.8-4.6 0-1.9-.6-3.4-1.9-4.6-1.2-1.3-2.8-1.9-4.7-1.9zM195.7 146.4v14.3h-3.9v-11c0-2.2-.3-3.7-.9-4.6-.6-.9-1.6-1.3-3.1-1.3-.8 0-1.6.2-2.2.6-.7.4-1.5 1-2.3 2v14.3h-3.9V141h3.9v2.6c2-2 3.9-3 5.8-3 2.5 0 4.4 1.2 5.8 3.6 2.1-2.4 4.3-3.6 6.5-3.6 1.9 0 3.5.7 4.7 2.1 1.2 1.4 1.9 3.5 1.9 6.4v11.6h-3.9V149c0-1.6-.3-2.9-1-3.8-.7-.9-1.6-1.3-2.9-1.3-1.6.1-3.1.9-4.5 2.5zM229.5 146.4v14.3h-3.9v-11c0-2.2-.3-3.7-.9-4.6-.6-.9-1.6-1.3-3.1-1.3-.8 0-1.6.2-2.2.6-.7.4-1.5 1-2.3 2v14.3h-3.9V141h3.9v2.6c2-2 3.9-3 5.8-3 2.5 0 4.4 1.2 5.8 3.6 2.1-2.4 4.3-3.6 6.5-3.6 1.9 0 3.5.7 4.7 2.1 1.2 1.4 1.9 3.5 1.9 6.4v11.6h-3.9V149c0-1.6-.3-2.9-1-3.8-.7-.9-1.6-1.3-2.9-1.3-1.6.1-3.1.9-4.5 2.5zM264 151.2h-13.9c.1 1.9.7 3.4 1.9 4.5s2.7 1.7 4.5 1.7c2.6 0 4.9-.8 7.1-2.4v3.8c-1.2.8-2.4 1.4-3.6 1.7-1.2.3-2.6.5-4.1.5-2.2 0-3.9-.4-5.3-1.3-1.3-.9-2.4-2.1-3.2-3.6-.8-1.5-1.2-3.3-1.2-5.3 0-3 .8-5.4 2.5-7.3 1.7-1.9 3.9-2.8 6.6-2.8 2.6 0 4.7.9 6.2 2.7 1.6 1.8 2.3 4.3 2.3 7.3v.5zm-13.8-2.3h9.9c-.1-1.6-.6-2.8-1.4-3.6-.8-.8-1.9-1.3-3.3-1.3s-2.5.4-3.4 1.3c-.9.9-1.5 2-1.8 3.6zM272.4 141v4.5l.2-.3c1.9-3 3.8-4.6 5.6-4.6 1.5 0 3 .7 4.6 2.2l-2.1 3.4c-1.4-1.3-2.6-1.9-3.8-1.9-1.3 0-2.3.6-3.3 1.8-.9 1.2-1.4 2.6-1.4 4.3v10.3h-3.9V141h4.1zM299.2 156.1v3.9c-2 .7-3.9 1.1-5.7 1.1-3.1 0-5.5-.9-7.4-2.7-1.8-1.8-2.8-4.3-2.8-7.3 0-3.1.9-5.6 2.7-7.5 1.8-1.9 4.1-2.8 7-2.8 1 0 1.9.1 2.7.3.8.2 1.8.6 3 1.1v4.2c-2-1.3-3.8-1.9-5.5-1.9-1.8 0-3.2.6-4.3 1.9-1.1 1.2-1.7 2.8-1.7 4.7 0 2 .6 3.6 1.8 4.8 1.2 1.2 2.9 1.8 4.9 1.8 1.7-.3 3.4-.7 5.3-1.6zM320.4 151.2h-13.8c.1 1.9.7 3.4 1.9 4.5s2.7 1.7 4.5 1.7c2.6 0 4.9-.8 7.1-2.4v3.8c-1.2.8-2.4 1.4-3.6 1.7-1.2.3-2.6.5-4.1.5-2.2 0-3.9-.4-5.3-1.3-1.3-.9-2.4-2.1-3.2-3.6-.8-1.5-1.2-3.3-1.2-5.3 0-3 .8-5.4 2.5-7.3 1.7-1.9 3.9-2.8 6.6-2.8 2.6 0 4.7.9 6.3 2.7 1.6 1.8 2.3 4.3 2.3 7.3v.5zm-13.7-2.3h9.9c-.1-1.6-.6-2.8-1.4-3.6-.8-.8-1.9-1.3-3.3-1.3s-2.5.4-3.4 1.3c-1 .9-1.6 2-1.8 3.6z"
    />
  </g>
  <g fill="#404040">
    <path
      d="M0 65.4h7.9v23.5c3.4-2.5 7-3.7 10.9-3.7 5.1 0 9.2 1.9 12.4 5.7 3.2 3.8 4.8 8.7 4.8 14.7 0 6.4-1.9 11.5-5.7 15.3-3.8 3.8-8.9 5.7-15.4 5.7-2.6 0-5.3-.3-8.1-.8s-5.1-1.2-6.8-2.1V65.4zm7.9 31V118c2.7.8 5.4 1.2 8.3 1.2 3.5 0 6.3-1.2 8.6-3.7 2.2-2.5 3.3-5.7 3.3-9.6 0-4-1-7.2-3.1-9.7-2.1-2.5-4.8-3.7-8.1-3.7-3 0-6 1.3-9 3.9zM53.2 86v9.1l.4-.7c3.8-6.2 7.6-9.2 11.4-9.2 3 0 6.1 1.5 9.3 4.5l-4.2 6.9c-2.7-2.6-5.3-3.9-7.6-3.9-2.5 0-4.7 1.2-6.6 3.6-1.9 2.4-2.8 5.3-2.8 8.6v20.8h-7.9V86h8zM96.7 85.9c6.1 0 11.1 2 15.1 5.9 4 3.9 6 8.8 6 14.8 0 5.7-2 10.5-6.1 14.3-4.1 3.8-9.2 5.7-15.4 5.7-6 0-11-1.9-15-5.8s-6-8.7-6-14.4c0-5.8 2-10.7 6.1-14.6 4.1-3.9 9.2-5.9 15.3-5.9zm-.4 7.1c-3.8 0-6.9 1.2-9.3 3.7-2.4 2.5-3.6 5.6-3.6 9.5 0 3.8 1.2 6.9 3.7 9.3 2.5 2.4 5.7 3.6 9.6 3.6 3.9 0 7-1.2 9.5-3.7 2.5-2.4 3.7-5.6 3.7-9.4 0-3.8-1.3-6.9-3.9-9.4-2.6-2.3-5.8-3.6-9.7-3.6zM151.6 101.9v16.9c0 1.4.5 2 1.4 2 1 0 2.4-.7 4.5-2.1v4.8c-1.8 1.2-3.2 1.9-4.3 2.4-1.1.4-2.2.6-3.4.6-3.4 0-5.4-1.3-6-4-3.4 2.6-6.9 3.9-10.7 3.9-2.8 0-5.1-.9-6.9-2.8-1.8-1.8-2.8-4.1-2.8-6.9 0-2.5.9-4.8 2.7-6.7 1.8-2 4.4-3.5 7.7-4.7l10.1-3.5v-2.1c0-4.8-2.4-7.2-7.2-7.2-4.3 0-8.5 2.2-12.6 6.7v-8.6c3.1-3.6 7.5-5.4 13.2-5.4 4.3 0 7.8 1.1 10.4 3.4.9.7 1.6 1.7 2.3 2.9.7 1.2 1.1 2.4 1.3 3.6.2 1.2.3 3.5.3 6.8zm-7.7 16.1v-11.8l-5.3 2c-2.7 1.1-4.6 2.1-5.7 3.2-1.1 1.1-1.7 2.4-1.7 4.1 0 1.6.5 3 1.6 4s2.4 1.6 4.1 1.6c2.5 0 4.8-1.1 7-3.1zM191.1 65.4h7.9v60.5h-16.9c-5.9 0-10.6-1.9-14.1-5.6-3.5-3.7-5.3-8.7-5.3-15 0-5.9 1.8-10.7 5.5-14.5 3.7-3.8 8.4-5.7 14.1-5.7 2.7 0 5.5.6 8.7 1.7V65.4zm0 53.7V93.9c-2.5-1.2-4.9-1.9-7.5-1.9-3.9 0-7.1 1.3-9.4 3.9-2.3 2.6-3.5 6-3.5 10.4 0 4.1 1 7.3 3 9.5 1.2 1.3 2.5 2.2 3.9 2.7s3.8.7 7.3.7h6.2zM209.9 65.4h7.9v60.5h-7.9V65.4zM263.1 106.6h-28c.2 3.8 1.5 6.8 3.8 9.1 2.4 2.3 5.4 3.4 9.1 3.4 5.2 0 10-1.6 14.4-4.9v7.7c-2.4 1.6-4.8 2.8-7.2 3.5-2.4.7-5.2 1-8.4 1-4.4 0-7.9-.9-10.7-2.7-2.7-1.8-4.9-4.3-6.5-7.3-1.6-3.1-2.4-6.6-2.4-10.7 0-6.1 1.7-11 5.2-14.8 3.4-3.8 7.9-5.7 13.4-5.7 5.3 0 9.5 1.8 12.6 5.5 3.1 3.7 4.7 8.7 4.7 14.9v1zm-27.8-4.7h20.1c-.2-3.1-1.1-5.6-2.8-7.3-1.7-1.7-3.9-2.6-6.8-2.6-2.8 0-5.1.9-7 2.6-1.8 1.7-3 4.2-3.5 7.3zM296.7 101.9v16.9c0 1.4.5 2 1.4 2 1 0 2.4-.7 4.5-2.1v4.8c-1.8 1.2-3.2 1.9-4.3 2.4-1.1.4-2.2.6-3.4.6-3.4 0-5.4-1.3-6-4-3.4 2.6-6.9 3.9-10.7 3.9-2.8 0-5.1-.9-6.9-2.8-1.8-1.8-2.8-4.1-2.8-6.9 0-2.5.9-4.8 2.7-6.7 1.8-2 4.4-3.5 7.7-4.7l10.1-3.5v-2.1c0-4.8-2.4-7.2-7.2-7.2-4.3 0-8.5 2.2-12.6 6.7v-8.6c3.1-3.6 7.5-5.4 13.2-5.4 4.3 0 7.8 1.1 10.4 3.4.9.7 1.6 1.7 2.3 2.9.7 1.2 1.1 2.4 1.3 3.6.2 1.2.3 3.5.3 6.8zm-7.8 16.1v-11.8l-5.3 2c-2.7 1.1-4.6 2.1-5.7 3.2-1.1 1.1-1.7 2.4-1.7 4.1 0 1.6.5 3 1.6 4s2.4 1.6 4.1 1.6c2.6 0 4.9-1.1 7-3.1zM310.4 86v-2.4c0-6.4 1.4-11.2 4.1-14.3 2.7-3.1 6-4.7 9.8-4.7 1.6 0 3.6.3 5.8.8v7.7c-1.3-.5-2.5-.7-3.6-.7-3.1 0-5.2.8-6.4 2.5-1.2 1.6-1.8 4.6-1.8 8.8V86h7.1v7.1h-7.1v32.8h-7.9V93.1h-5.7V86h5.7z"
    />
  </g>
  <path
    fill="#94B12D"
    d="M269.3 45.8c9.5-13.5-4.9-29.8-17.5-32.7-8.6-2-28.2-5.3-33.9-13.1 1.8 26.9 21.3 57.1 44.3 53.4.9 3.5.5 8.7-.7 13.7-.2 1.2 2.9 3.1 3.2 1.3 11.4-44.1-31.2-41.2-38.2-55.7 8.3 9.7 38.5 9.6 42.8 33.1zM268.1 54.6c-2.4-11 11.2-17.4 19.9-15.9 5.9 1 19.1 4 24.7.6-8.2 16.4-28.3 30.3-41.8 22-1.5 2-2.4 4-2.9 7.4-.2.8-2.6 1.2-2.4 0C270.9 38.8 297.5 52 304 45c-7.7 4-27.1-5.4-35.9 9.6z"
  />
</svg>
