<svg version="1.1" xmlns="http://www.w3.org/2000/svg" xmlns:xlink="http://www.w3.org/1999/xlink" x="0px" y="0px" viewBox="0 0 125 130" preserveAspectRatio="xMinYMin meet" enable-background="new 0 0 125 130" xml:space="preserve">
    <g>
    	<g>
    		<path fill="#FFFFFF" d="M122.5,67.8c0-10.3-6.4-19.2-15.9-22.7c0.4-2.2,0.6-4.3,0.6-6.6c0-19.1-15.5-34.6-34.6-34.6
    			c-11.1,0-21.5,5.3-28,14.4c-3.2-2.5-7.1-3.8-11.2-3.8c-10.1,0-18.4,8.2-18.4,18.4c0,2.2,0.4,4.4,1.1,6.4C6.5,42.6,0,51.8,0,62
    			c0,10.3,6.4,19.3,16,22.8c-0.4,2.1-0.6,4.3-0.6,6.6c0,19,15.5,34.5,34.5,34.5c11.2,0,21.5-5.4,28-14.4c3.2,2.5,7.2,3.9,11.3,3.9
    			c10.1,0,18.4-8.2,18.4-18.4c0-2.2-0.4-4.4-1.1-6.4C115.9,87.2,122.5,78,122.5,67.8z"></path>
    		<g>
    			<path fill="#F4BD19" d="M47.9,56.3l27.3,12.5l27.6-24.2c0.4-2,0.6-4,0.6-6.1c0-17-13.8-30.8-30.8-30.8c-10.2,0-19.7,5-25.4,13.4
    				l-4.6,23.8L47.9,56.3z"></path>
    		</g>
    		<g>
    			<path fill="#3CBEB1" d="M19.6,85.2c-0.4,2-0.6,4.1-0.6,6.2c0,17,13.9,30.9,30.9,30.9c10.3,0,19.8-5.1,25.6-13.5L80,85l-6.1-11.6
    				L46.5,60.9L19.6,85.2z"></path>
    		</g>
    		<g>
    			<path fill="#E9478C" d="M19.4,37.9l18.7,4.4L42.3,21c-2.6-2-5.7-3-9-3c-8.1,0-14.8,6.6-14.8,14.8C18.5,34.5,18.8,36.3,19.4,37.9z
    				"></path>
    		</g>
    		<g>
    			<path fill="#2C458F" d="M17.8,42.4C9.4,45.1,3.6,53.2,3.6,62c0,8.6,5.3,16.3,13.3,19.3l26.3-23.8l-4.8-10.3L17.8,42.4z"></path>
    		</g>
    		<g>
    			<path fill="#95C63D" d="M80.3,108.7c2.6,2,5.7,3.1,8.9,3.1c8.1,0,14.8-6.6,14.8-14.8c0-1.8-0.3-3.5-0.9-5.1l-18.7-4.4L80.3,108.7
    				z"></path>
    		</g>
    		<g>
    			<path fill="#176655" d="M84.1,82.6l20.6,4.8c8.4-2.8,14.2-10.8,14.2-19.6c0-8.6-5.3-16.2-13.3-19.3l-27,23.6L84.1,82.6z"></path>
    		</g>
    	</g>
    </g>
</svg>
