<svg
  xmlns="http://www.w3.org/2000/svg"
  xmlns:xlink="http://www.w3.org/1999/xlink"
  viewBox="1 1 356.6 317.6"
>
  <g>
    <path
      fill="#61DAFB"
      d="M357.6,159.8c0-23.6-29.6-46-74.9-59.9c10.5-46.2,5.8-83-14.7-94.8c-4.7-2.8-10.2-4.1-16.3-4.1v16.2
		c3.3,0,6,0.7,8.3,1.9c9.9,5.7,14.2,27.3,10.8,55c-0.8,6.8-2.1,14-3.7,21.4c-14.2-3.5-29.8-6.2-46.2-7.9
		c-9.8-13.4-20-25.7-30.2-36.3c23.7-22,45.9-34.1,61.1-34.1V1l0,0c-20,0-46.2,14.2-72.6,39c-26.5-24.6-52.6-38.7-72.6-38.7v16.2
		c15,0,37.4,12,61.1,33.9c-10.2,10.7-20.4,22.8-30,36.3c-16.4,1.7-32,4.4-46.2,8c-1.7-7.3-2.9-14.3-3.8-21.1
		c-3.4-27.8,0.8-49.4,10.6-55.1c2.2-1.3,5-1.9,8.4-1.9V1.4l0,0c-6.1,0-11.6,1.3-16.4,4.1c-20.4,11.8-25,48.5-14.5,94.6
		C30.4,114,1,136.3,1,159.8c0,23.6,29.6,46,74.9,59.9c-10.5,46.2-5.8,83,14.7,94.8c4.7,2.8,10.2,4.1,16.4,4.1
		c20,0,46.2-14.2,72.6-39c26.5,24.6,52.6,38.7,72.6,38.7c6.1,0,11.6-1.3,16.4-4.1c20.4-11.8,25-48.5,14.5-94.6
		C328.2,205.8,357.6,183.4,357.6,159.8z M263,111.3c-2.7,9.4-6,19-9.8,28.7c-3-5.8-6.1-11.6-9.5-17.4c-3.3-5.8-6.9-11.5-10.5-17
		C243.5,107.1,253.5,109,263,111.3z M229.7,188.8c-5.7,9.8-11.5,19.1-17.5,27.8c-10.8,0.9-21.8,1.5-32.9,1.5c-11,0-22-0.5-32.7-1.4
		c-6-8.7-11.9-17.9-17.6-27.6c-5.5-9.5-10.5-19.2-15.1-28.9c4.5-9.7,9.6-19.5,15-29c5.7-9.8,11.5-19.1,17.5-27.8
		c10.8-0.9,21.8-1.5,32.9-1.5c11,0,22,0.5,32.7,1.4c6,8.7,11.9,17.9,17.6,27.6c5.5,9.5,10.5,19.2,15.1,28.9
		C240.2,169.5,235.1,179.2,229.7,188.8z M253.2,179.3c3.9,9.7,7.3,19.5,10,28.9c-9.5,2.3-19.6,4.3-29.9,5.8
		c3.6-5.6,7.1-11.3,10.5-17.2C247.1,191,250.2,185.1,253.2,179.3z M179.5,256.9c-6.8-7-13.5-14.8-20.2-23.3c6.5,0.3,13.2,0.5,20,0.5
		c6.8,0,13.6-0.1,20.2-0.5C192.9,242.1,186.1,249.9,179.5,256.9z M125.4,214.1c-10.3-1.5-20.3-3.4-29.8-5.7c2.7-9.4,6-19,9.8-28.7
		c3,5.8,6.1,11.6,9.5,17.4C118.3,202.9,121.8,208.5,125.4,214.1z M179.1,62.8c6.8,7,13.5,14.8,20.2,23.3c-6.5-0.3-13.2-0.5-20-0.5
		c-6.8,0-13.6,0.1-20.2,0.5C165.6,77.5,172.4,69.8,179.1,62.8z M125.3,105.6c-3.6,5.6-7.1,11.3-10.5,17.2
		c-3.3,5.8-6.5,11.6-9.5,17.4c-3.9-9.7-7.3-19.5-10-28.9C104.9,109.1,114.9,107.1,125.3,105.6z M59.5,196.6
		c-25.7-11-42.4-25.4-42.4-36.8s16.6-25.9,42.4-36.8c6.3-2.7,13.1-5.1,20.1-7.3C83.8,130,89.2,144.8,96,160
		c-6.7,15.1-12.1,29.9-16.1,44.1C72.7,201.8,65.8,199.3,59.5,196.6z M98.6,300.5c-9.9-5.7-14.2-27.3-10.8-55
		c0.8-6.8,2.1-14,3.7-21.4c14.2,3.5,29.8,6.2,46.2,7.9c9.8,13.4,20,25.7,30.2,36.3c-23.7,22-45.9,34.1-61.1,34.1
		C103.6,302.4,100.8,301.7,98.6,300.5z M271.1,245.1c3.4,27.8-0.8,49.4-10.6,55.1c-2.2,1.3-5,1.9-8.4,1.9c-15,0-37.4-12-61.1-33.9
		c10.2-10.7,20.4-22.8,30-36.3c16.4-1.7,32-4.4,46.2-8C268.9,231.3,270.3,238.3,271.1,245.1z M299,196.6c-6.3,2.7-13.1,5.1-20.1,7.3
		c-4.1-14.2-9.6-29.1-16.4-44.3c6.7-15.1,12.1-29.9,16.1-44.1c7.2,2.3,14,4.7,20.4,7.4c25.7,11,42.4,25.4,42.4,36.8
		C341.4,171.2,324.8,185.7,299,196.6z"
    />
    <path fill="#61DAFB" d="M106.5,1.3L106.5,1.3L106.5,1.3z" />
    <circle fill="#61DAFB" cx="179.2" cy="159.8" r="33.2" />
    <path fill="#61DAFB" d="M251.6,1.1L251.6,1.1L251.6,1.1z" />
  </g>
</svg>
