<svg xmlns="http://www.w3.org/2000/svg" viewBox="0 0 350 550">
  <defs>
    <linearGradient id="b" x1="0%" y1="0%" y2="0%">
      <stop offset="0%" stop-color="#a00000" />
      <stop offset="100%" stop-color="#f00" />
    </linearGradient>
    <linearGradient id="a" x1="0%" y1="0%" y2="0%">
      <stop offset="0%" stop-color="#646464" />
      <stop offset="100%" />
    </linearGradient>
  </defs>
  <g fill="url(#a)">
    <path
      d="M30 200s300 30 300 80V160s0-50-300-80V-40zM30 360s300 30 300 80V320s0-50-300-80V120z"
    />
  </g>
  <g fill="url(#b)">
    <path
      d="M30 80S330 50 330 0v120s0 50-300 80v120zM30 240s300-30 300-80v120s0 50-300 80v120zM30 400s300-30 300-80v120s0 50-300 80v120z"
    />
  </g>
</svg>
