<svg
  xmlns="http://www.w3.org/2000/svg"
  xmlns:xlink="http://www.w3.org/1999/xlink"
>
  <style type="text/css">
    <![CDATA[
       /* this is hiding all the nested svg elements unless they are the target*/
       svg > svg:not(:target) {
       display: none;
       }
        ]]>
  </style>
  <g fill="#0d597f" id="alpine">
    <path
      d="M23.25 38.81v-6.745l-4.855 4.864c.474.333.968.635 1.48.906.463.243.87.434 1.303.58s.782.24 1.13.304.66.093.95.096m24.822-.562c.045.037.092.07.142.1a2.77 2.77 0 0 0 .385.203 2.93 2.93 0 0 0 .637.194c.296.06.598.088.9.087.3 0 .608-.03.955-.087a7.24 7.24 0 0 0 1.138-.301 9.96 9.96 0 0 0 1.32-.579c.52-.274 1.02-.58 1.503-.918l-3.685-3.6-12.21-12.258-5.356 5.356-7.23-7.455L8.439 36.93a13.82 13.82 0 0 0 1.5.918c.47.246.91.434 1.317.58a7.18 7.18 0 0 0 1.135.301 5.53 5.53 0 0 0 .955.087 4.53 4.53 0 0 0 .9-.087 3.29 3.29 0 0 0 .637-.194 2.49 2.49 0 0 0 .385-.197l.145-.104 8.193-8.193 2.924-2.808 8.106 8.106 2.837 2.912a1.29 1.29 0 0 0 .145.101 2.52 2.52 0 0 0 .385.2c.206.085.42.15.637.194.255.052.556.087.903.087.3 0 .608-.03.955-.087a6.89 6.89 0 0 0 1.138-.301 9.95 9.95 0 0 0 1.32-.579c.52-.274 1.02-.58 1.503-.918l-6.508-6.37 1.2-1.2 5.63 5.63 3.283 3.254m-.07-33.96l15.998 27.714L48.003 59.71H15.996L-.002 31.997 15.996 4.283z"
    ></path>
    <path d="M38.02 30.65l-4.262-4.256.304-.304 4.3 4.244z"></path>
  </g>
  <g id="angular">
    <path
      fill="#B2B2B2"
      d="M82.688 0L0 29.1l13.066 108.335 69.71 38.314 70.07-38.835 13.06-108.33L82.69 0zm0 0"
    ></path>
    <path
      fill="#B52E31"
      d="M157.66 34.846L82.495 9.214v157.38l62.992-34.86 12.17-96.888zm0 0"
    ></path>
    <path
      fill="#E23237"
      d="M9.28 35.308l11.195 96.89 62.02 34.397V9.21L9.278 35.31zm0 0"
    ></path>
    <path
      fill="#F2F2F2"
      d="M99.918 87.493L82.632 51.396 67.415 87.493h32.503zm6.59 15.18H60.69l-10.25 25.64-19.067.35L82.497 14.93l52.907 113.733H117.73l-11.22-25.99zm0 0"
    ></path>
    <path
      fill="#B2B2B2"
      d="M82.496 14.93l.136 36.466L99.9 87.52H82.534l-.04 15.128 24.012.023 11.224 25.997 18.245.34L82.495 14.93zm0 0"
    ></path>
  </g>

  <svg
    id="alpine-view"
    xmlns="http://www.w3.org/2000/svg"
    xmlns:xlink="http://www.w3.org/1999/xlink"
  >
    <use xlink:href="#alpine" viewBox="0 0 64 64" />
  </svg>
  <svg
    id="angular-view"
    xmlns="http://www.w3.org/2000/svg"
    xmlns:xlink="http://www.w3.org/1999/xlink"
  >
    <use xlink:href="#angular" viewBox="0 0 165.907 175.75" />
  </svg>
</svg>
