<svg xmlns="http://www.w3.org/2000/svg" width="300" height="200" viewBox="0 0 300 200"><g><path fill="#D1A41A" d="M53.73 130c2.96 3.65 6.25 7.35 9.87 11.07-10.54 3.17-17.45 9.06-21.76 14.26-6.82 8.23-10.43 19.1-9.6 28.43H14.09c3.64-7.9 18.17-30.72 39.64-53.76zM263.99 188.71h-22.07c-50.63-26.42-95.08-45.05-142.3-49.12.1-6.57 1.27-14.01 3.52-22.3l-4.35-1.17c-2.31 8.52-3.52 16.23-3.66 23.13-4.92-.33-9.87-.49-14.87-.49-4.23 0-8.09.39-11.61 1.07-4.59-4.58-8.5-8.96-11.82-13.11 21.78-22.68 57.65-43.2 88.87-50.92 8.79 29.22 27.66 49.24 50.56 62.71 1.68-.96 3.33-1.96 4.95-3.02l39.95 43.01 1.75-.15c10.91-.94 17.11 4.98 18.75 6.82 1.21 1.34 1.93 2.57 2.33 3.54z"/><path fill="#FFDC76" d="M244.5 44.85c.81 39.69-19.44 71.28-47.79 87.48-48.12-23.97-57.18-84.71-48.98-117.29 2.28 12.46 6.43 20.27 15.39 24.1 19.54-5.59 46.43-6.03 66.24-.57 8.25-6 11.45-15.17 13.2-23.18 2.18 9.32 1.93 29.46 1.94 29.46z"/></g><g><path d="M123.458 82.428l7.343 21.756-22.3-14.957zM101.975 91.946l7.886 13.597-16.587-8.43zM84.027 102.552l3.807 13.597-11.42-7.887zM205.585 138.992l-7.07 10.878 12.508-5.71zM216.734 151.502l-11.42 8.702 15.772-4.08zM188.996 33.48l8.43 18.49 5.44-18.763zM146.302 60.4l13.325 7.07-11.966.817zM149.565 74.814l8.158 3.263-6.798 1.903zM244.745 65.568l-10.878 4.623 8.974 1.36zM240.394 78.893l-8.43 2.448 6.798 2.448z"/></g><g><path d="M141.923 99.303h26.245v3.24h-26.245zM141.923 91.525h26.245v3.24h-26.245zM222.063 99.303h26.244v3.24h-26.244zM222.063 91.525h26.244v3.24h-26.244zM212.813 72.316h-42.767V69.4h13.308c1.64-7.017 1.963-13.724-.013-17.125-.843-1.445-2.01-2.12-3.673-2.12-7.61 0-10.753 8.046-10.884 8.388l.002-.002-2.73-1.023c.156-.42 3.965-10.28 13.612-10.28 2.692 0 4.834 1.238 6.19 3.572 2.412 4.14 2.128 11.303.496 18.59h23.354c3.103-9.115 9.58-13.413 20.405-13.413v2.915c-11.732 0-15.018 4.974-17.366 10.498h12.743l-.03 2.902-12.647.014zM214.73 86.718l.02-.003c-3.46-5.1-4.556-9.455-3.11-14.413l-2.97.014c-1.035 3.3-.62 8.274 1.93 12.54h-29.676c1.805-3.616 3.48-8.025 4.702-12.54h-3.02c-1.348 4.788-3.242 9.525-5.373 13.278l-.69 1.213 16.653 10.482-9.375 6.177 1.607 2.435 10.478-6.908 11.312 7.382 1.554-2.468-10.488-6.488s15.682-10.187 16.46-10.684l-.012-.018zm-18.86 8.808l-12.317-7.755 24.07.007-11.753 7.75z"/></g><g><path d="M249.394 41.333c-.02-5.07-1.598-26.5-4.5-32.4-7.87 2.99-22.19 12.68-25.43 22.588-15.533-2.32-33.043-2.044-48.38.61-2.564-10.66-15.426-18.818-25.13-23.414-4.092 6.906-5.905 22.92-5.444 34.28l-.054.035c1.8 47.7 25.2 77.4 55.8 95.4 31.48-17.988 53.97-53.056 53.1-97.118l.038.02zm-26.196-9.196l.344.063c-.115-.02-.23-.043-.344-.063zm-1.958-.338c.275.043.553.093.83.14-.277-.047-.553-.095-.83-.14zm23.257 12.974c.81 39.69-19.44 71.28-47.79 87.48-48.12-23.976-57.183-84.71-48.978-117.288 2.282 12.455 6.424 20.266 15.393 24.098 19.533-5.59 46.423-6.032 66.23-.57 8.256-6 11.457-15.17 13.205-23.18 2.184 9.323 1.932 29.457 1.94 29.46zM265.017 182.09c-4.94-5.528-14.623-8.144-22.707-7.95-5.738-6.83-39.004-41.862-39.004-41.862L201 135.182l40.163 43.238 1.743-.15c10.912-.934 17.115 4.984 18.757 6.82 1.204 1.347 1.93 2.575 2.326 3.54h-22.076c-50.624-26.417-95.08-45.045-142.298-49.113.104-6.572 1.274-14.01 3.518-22.3l-4.343-1.176c-2.307 8.522-3.522 16.237-3.66 23.134-4.92-.326-9.872-.495-14.867-.495-4.237 0-8.096.392-11.615 1.076-4.59-4.587-8.5-8.96-11.822-13.11 21.936-22.848 58.15-43.497 89.533-51.09l-1.016-4.397c-33.792 8.148-70.78 30.334-91.39 51.76-9.566-12.91-13.36-23.503-14.488-31.53-1.424-10.14.997-19.443 7-26.9C55.86 52.814 69.213 51.992 82.94 54.3c-.268 2.168.017 4.24.886 5.522 3.63 5.363 23.143 7.246 34.79 2.05-8.595-12.045-26.005-17.926-30.83-15.57-1.598.78-2.803 2.215-3.63 3.886-4.744-.848-9.457-1.48-12.902-1.455-12.108.09-21.363 4.32-28.296 12.933-6.802 8.45-9.55 18.944-7.95 30.347 1.516 10.8 6.863 22.286 15.825 34.198-1.49 1.597-2.928 3.174-4.313 4.723-21.843 24.44-37.81 50.65-37.81 54.993v2.25h28.816l-.505-2.67c-1.627-8.6 1.623-19.35 8.28-27.384 4.18-5.044 11.1-10.8 21.968-13.457 9.664 9.43 21.975 19.445 35.68 29.108h21.413v-2.25c0-2.54-1.26-4.76-3.545-6.257-3.383-2.21-8.605-2.515-13.402-.88-4.573-5.092-7.137-11.896-7.69-20.346 46.473 4.115 90.926 22.883 141.084 49.085h27.598l.36-1.81c.517-2.575-.887-6.025-3.75-9.23zm-223.18-26.835c-6.815 8.226-10.428 19.094-9.6 28.424H14.084c3.647-7.895 18.176-30.713 39.644-53.76 2.958 3.655 6.252 7.35 9.872 11.072-10.54 3.168-17.45 9.06-21.762 14.263z"/></g></svg>