<svg version="1.1" id="svg2" xmlns="http://www.w3.org/2000/svg" x="0px" y="0px" viewBox="276.4 287.7 170 126.5" enable-background="new 276.4 287.7 170 126.5" xml:space="preserve"><g id="layer1" transform="translate(-6.3260942,-174.7524)"><g id="g3052"><path id="path3055" fill="#326CE5" d="
			M367.4,468.6c-0.9,0-1.8,0.3-2.7,0.7L328,486.8c-1.9,0.9-3.3,2.7-3.8,4.7l-9,39.3c-0.4,1.8-0.1,3.8,1,5.3c0.1,0.2,0.3,0.4,0.4,0.6
			l25.4,31.5c1.3,1.7,3.3,2.6,5.5,2.6l40.7,0c2.1,0,4.1-1,5.5-2.6l25.4-31.5c1.3-1.7,1.8-3.8,1.4-5.9l-9.1-39.3
			c-0.5-2.1-1.9-3.8-3.8-4.7l-36.7-17.5C369.7,468.8,368.6,468.5,367.4,468.6z"/><path id="path3059" fill="#FFFFFF" stroke="#FFFFFF" stroke-width="0.25" d="
			M367.7,482c-1.2,0-2.2,1.1-2.2,2.4c0,0,0,0,0,0.1c0,0.2,0,0.4,0,0.6c0,0.8,0.2,1.4,0.3,2.1c0.2,1.5,0.3,2.8,0.2,4
			c-0.1,0.4-0.4,0.9-0.7,1.1l-0.1,0.9c-1.3,0.1-2.6,0.3-4,0.6c-5.7,1.3-10.6,4.2-14.3,8.2c-0.2-0.2-0.7-0.5-0.8-0.6
			c-0.4,0.1-0.8,0.2-1.3-0.1c-1-0.7-1.9-1.6-3-2.7c-0.5-0.5-0.9-1-1.4-1.5c-0.1-0.1-0.3-0.3-0.5-0.4c-0.5-0.4-1-0.6-1.5-0.6
			c-0.7,0-1.3,0.2-1.7,0.8c-0.8,0.9-0.5,2.4,0.5,3.2c0,0,0,0,0,0c0.1,0.1,0.3,0.3,0.5,0.4c0.6,0.5,1.2,0.7,1.8,1.1
			c1.3,0.8,2.4,1.5,3.3,2.3c0.3,0.4,0.4,1,0.4,1.3l0.7,0.6c-3.8,5.7-5.5,12.7-4.5,19.8l-0.9,0.3c-0.2,0.3-0.6,0.8-0.9,1
			c-1.1,0.4-2.4,0.5-3.9,0.6c-0.7,0.1-1.3,0-2.1,0.2c-0.2,0-0.4,0.1-0.6,0.1c0,0,0,0,0,0c0,0,0,0,0,0c-1.3,0.3-2.1,1.5-1.9,2.7
			c0.3,1.2,1.5,1.9,2.8,1.6c0,0,0,0,0,0c0,0,0,0,0,0c0.2,0,0.4-0.1,0.6-0.1c0.8-0.2,1.3-0.5,2-0.8c1.5-0.5,2.7-1,3.8-1.1
			c0.5,0,1,0.3,1.3,0.4l1-0.2c2.2,6.8,6.8,12.3,12.7,15.8l-0.4,1c0.1,0.4,0.3,0.9,0.2,1.2c-0.4,1.1-1.2,2.3-2,3.6
			c-0.4,0.6-0.8,1.1-1.2,1.8c-0.1,0.2-0.2,0.4-0.3,0.6c-0.6,1.2-0.2,2.6,0.9,3.1c1.1,0.5,2.4,0,3-1.2c0,0,0,0,0,0c0,0,0,0,0,0
			c0.1-0.2,0.2-0.4,0.3-0.6c0.3-0.7,0.4-1.3,0.6-2c0.6-1.5,0.9-3,1.7-3.9c0.2-0.3,0.6-0.4,0.9-0.5l0.5-0.9c5.1,2,10.8,2.5,16.5,1.2
			c1.3-0.3,2.6-0.7,3.8-1.1c0.1,0.2,0.4,0.7,0.5,0.8c0.4,0.1,0.8,0.2,1.1,0.7c0.6,1,1,2.2,1.5,3.7c0.2,0.7,0.3,1.3,0.6,2
			c0.1,0.2,0.2,0.4,0.3,0.6c0.6,1.2,1.9,1.8,3,1.2c1.1-0.5,1.5-1.9,0.9-3.1c-0.1-0.2-0.2-0.4-0.3-0.6c-0.4-0.7-0.8-1.1-1.2-1.7
			c-0.8-1.3-1.5-2.4-1.9-3.5c-0.2-0.6,0-0.9,0.2-1.3c-0.1-0.1-0.3-0.6-0.4-0.9c6.1-3.6,10.5-9.3,12.6-15.9c0.3,0,0.8,0.1,0.9,0.2
			c0.3-0.2,0.6-0.5,1.2-0.5c1.2,0.2,2.4,0.6,3.8,1.1c0.7,0.3,1.2,0.6,2,0.8c0.2,0,0.4,0.1,0.6,0.1c0,0,0,0,0,0c0,0,0,0,0,0
			c1.3,0.3,2.6-0.4,2.8-1.6c0.3-1.2-0.6-2.4-1.9-2.7c-0.2,0-0.5-0.1-0.6-0.2c-0.8-0.1-1.4-0.1-2.1-0.2c-1.5-0.2-2.8-0.3-3.9-0.6
			c-0.5-0.2-0.8-0.7-0.9-1l-0.9-0.3c0.5-3.3,0.3-6.8-0.5-10.2c-0.8-3.5-2.2-6.7-4.1-9.5c0.2-0.2,0.7-0.6,0.8-0.7
			c0-0.4,0-0.8,0.4-1.2c0.9-0.8,2-1.5,3.3-2.3c0.6-0.4,1.2-0.6,1.8-1.1c0.1-0.1,0.3-0.3,0.5-0.4c1.1-0.8,1.3-2.3,0.5-3.2
			c-0.8-0.9-2.2-1-3.3-0.2c-0.1,0.1-0.4,0.3-0.5,0.4c-0.6,0.5-1,1-1.4,1.5c-1.1,1.1-2,2-3,2.7c-0.4,0.2-1,0.2-1.3,0.1l-0.8,0.6
			c-4.8-5-11.2-8.2-18.2-8.8c0-0.3,0-0.8-0.1-1c-0.3-0.3-0.6-0.5-0.7-1.1c-0.1-1.2,0.1-2.4,0.2-4c0.1-0.7,0.3-1.3,0.3-2.1
			c0-0.2,0-0.4,0-0.6C369.9,483.1,369,482,367.7,482L367.7,482z M365,499l-0.7,11.5l0,0c0,1-0.9,1.9-1.9,1.9c-0.4,0-0.8-0.1-1.1-0.4
			l0,0l-9.4-6.7c2.9-2.9,6.6-5,10.9-5.9C363.4,499.2,364.2,499.1,365,499z M370.5,499c5,0.6,9.6,2.9,13.1,6.3l-9.4,6.6l0,0
			c-0.8,0.6-2,0.5-2.7-0.4c-0.3-0.3-0.4-0.7-0.4-1.1l0,0L370.5,499z M348.4,509.6l8.6,7.7l0,0c0.8,0.7,0.9,1.8,0.2,2.7
			c-0.3,0.3-0.6,0.6-1,0.7l0,0l-11,3.2C344.6,518.8,345.8,513.8,348.4,509.6z M387.1,509.6c1.3,2.1,2.2,4.4,2.8,6.9
			c0.6,2.5,0.7,5,0.5,7.4l-11.1-3.2l0,0c-1-0.3-1.6-1.3-1.4-2.3c0.1-0.4,0.3-0.8,0.6-1l0,0L387.1,509.6L387.1,509.6z M366,517.9h3.5
			l2.2,2.7l-0.8,3.4l-3.2,1.5l-3.2-1.5l-0.8-3.4L366,517.9z M377.3,527.3c0.1,0,0.3,0,0.4,0l0,0l11.4,1.9c-1.7,4.7-4.9,8.8-9.1,11.5
			l-4.4-10.7l0,0c-0.4-0.9,0-2.1,0.9-2.5C376.8,527.4,377,527.3,377.3,527.3L377.3,527.3z M358.1,527.4c0.9,0,1.7,0.6,1.9,1.5
			c0.1,0.4,0,0.8-0.1,1.2l0,0l-4.4,10.6c-4.1-2.6-7.4-6.6-9.1-11.4l11.3-1.9l0,0C357.9,527.4,358,527.4,358.1,527.4L358.1,527.4z
			 M367.7,532c0.3,0,0.6,0.1,0.9,0.2c0.4,0.2,0.7,0.5,0.9,0.8h0l5.6,10.1c-0.7,0.2-1.5,0.5-2.2,0.6c-4.3,1-8.5,0.7-12.4-0.6L366,533
			h0C366.4,532.4,367,532,367.7,532z"/></g></g></svg>